G04 #@! TF.FileFunction,Copper,L2,Bot,Signal*
%FSLAX46Y46*%
G04 Gerber Fmt 4.6, Leading zero omitted, Abs format (unit mm)*
G04 Created by KiCad (PCBNEW 4.0.6) date 2018 March 28, Wednesday 01:43:25*
%MOMM*%
%LPD*%
G01*
G04 APERTURE LIST*
%ADD10C,0.100000*%
%ADD11C,0.299720*%
%ADD12C,2.250000*%
%ADD13C,2.250000*%
%ADD14C,1.206500*%
%ADD15C,1.524000*%
%ADD16C,0.600000*%
%ADD17C,0.457200*%
%ADD18C,0.254000*%
G04 APERTURE END LIST*
D10*
D11*
X86698180Y-64351780D02*
X91199060Y-64351780D01*
D12*
X104650000Y-35530000D02*
X104690000Y-34950000D01*
D13*
X104690000Y-34950000D03*
D12*
X98340000Y-37490000D02*
X99650000Y-36030000D01*
D13*
X99650000Y-36030000D03*
D14*
X86698180Y-64351780D03*
D15*
X91100000Y-64350000D03*
X91100000Y-66350000D03*
D16*
X97150000Y-64350000D03*
X97150000Y-65850000D03*
D17*
X91100000Y-64350000D02*
X97150000Y-64350000D01*
X91100000Y-66350000D02*
X96650000Y-66350000D01*
X96650000Y-66350000D02*
X97150000Y-65850000D01*
D18*
X139570836Y-23514425D02*
X139570836Y-23514425D01*
X100996653Y-23717625D02*
X139589157Y-23717625D01*
X62422470Y-23920825D02*
X139607478Y-23920825D01*
X25905811Y-24124025D02*
X139625799Y-24124025D01*
X25893573Y-24327225D02*
X139644121Y-24327225D01*
X25881336Y-24530425D02*
X139662442Y-24530425D01*
X25869099Y-24733625D02*
X139680763Y-24733625D01*
X25856862Y-24936825D02*
X139699085Y-24936825D01*
X25844625Y-25140025D02*
X139717406Y-25140025D01*
X25832388Y-25343225D02*
X36725146Y-25343225D01*
X112337512Y-25343225D02*
X139735727Y-25343225D01*
X25820151Y-25546425D02*
X35666255Y-25546425D01*
X113359068Y-25546425D02*
X139754049Y-25546425D01*
X25807914Y-25749625D02*
X34790226Y-25749625D01*
X114209773Y-25749625D02*
X139772370Y-25749625D01*
X25795677Y-25952825D02*
X34448830Y-25952825D01*
X114551170Y-25952825D02*
X139790691Y-25952825D01*
X25783440Y-26156025D02*
X34144720Y-26156025D01*
X114855280Y-26156025D02*
X139809012Y-26156025D01*
X25771203Y-26359225D02*
X33840610Y-26359225D01*
X115159390Y-26359225D02*
X139827334Y-26359225D01*
X25758966Y-26562425D02*
X33536500Y-26562425D01*
X115463501Y-26562425D02*
X139845655Y-26562425D01*
X25746728Y-26765625D02*
X33232390Y-26765625D01*
X115767611Y-26765625D02*
X139863976Y-26765625D01*
X25734491Y-26968825D02*
X32975309Y-26968825D01*
X116024691Y-26968825D02*
X139882298Y-26968825D01*
X25722254Y-27172025D02*
X32805960Y-27172025D01*
X116194041Y-27172025D02*
X139900619Y-27172025D01*
X25710017Y-27375225D02*
X32670186Y-27375225D01*
X116329815Y-27375225D02*
X139918940Y-27375225D01*
X25697780Y-27578425D02*
X32534412Y-27578425D01*
X116465589Y-27578425D02*
X139937262Y-27578425D01*
X25685543Y-27781625D02*
X32398638Y-27781625D01*
X116601363Y-27781625D02*
X139955583Y-27781625D01*
X25673306Y-27984825D02*
X32262864Y-27984825D01*
X116737137Y-27984825D02*
X139973904Y-27984825D01*
X25661069Y-28188025D02*
X32127090Y-28188025D01*
X116872911Y-28188025D02*
X139992226Y-28188025D01*
X25648832Y-28391225D02*
X31991316Y-28391225D01*
X117008685Y-28391225D02*
X140010547Y-28391225D01*
X25636595Y-28594425D02*
X31855543Y-28594425D01*
X117144459Y-28594425D02*
X140028868Y-28594425D01*
X25624358Y-28797625D02*
X31746561Y-28797625D01*
X117253440Y-28797625D02*
X140047189Y-28797625D01*
X25612121Y-29000825D02*
X31673751Y-29000825D01*
X117326250Y-29000825D02*
X140065511Y-29000825D01*
X25599883Y-29204025D02*
X31633332Y-29204025D01*
X117366669Y-29204025D02*
X140083832Y-29204025D01*
X25587646Y-29407225D02*
X31592913Y-29407225D01*
X117407088Y-29407225D02*
X140102153Y-29407225D01*
X25575409Y-29610425D02*
X31552494Y-29610425D01*
X117447507Y-29610425D02*
X140120475Y-29610425D01*
X25563172Y-29813625D02*
X31512075Y-29813625D01*
X117487926Y-29813625D02*
X140138796Y-29813625D01*
X25550935Y-30016825D02*
X31471656Y-30016825D01*
X117528345Y-30016825D02*
X140157117Y-30016825D01*
X25538698Y-30220025D02*
X31431237Y-30220025D01*
X117568764Y-30220025D02*
X140175439Y-30220025D01*
X25526461Y-30423225D02*
X31390818Y-30423225D01*
X117609183Y-30423225D02*
X140193760Y-30423225D01*
X25514224Y-30626425D02*
X31350399Y-30626425D01*
X117649602Y-30626425D02*
X140212081Y-30626425D01*
X25501987Y-30829625D02*
X31309980Y-30829625D01*
X117690021Y-30829625D02*
X140230402Y-30829625D01*
X25489750Y-31032825D02*
X31290000Y-31032825D01*
X117710000Y-31032825D02*
X140248724Y-31032825D01*
X25477513Y-31236025D02*
X31290000Y-31236025D01*
X117710000Y-31236025D02*
X140267045Y-31236025D01*
X25465276Y-31439225D02*
X31290000Y-31439225D01*
X117710000Y-31439225D02*
X140285366Y-31439225D01*
X25453038Y-31642425D02*
X31290000Y-31642425D01*
X117710000Y-31642425D02*
X140303688Y-31642425D01*
X25440801Y-31845625D02*
X31290000Y-31845625D01*
X117710000Y-31845625D02*
X140322009Y-31845625D01*
X25428564Y-32048825D02*
X31290000Y-32048825D01*
X117710000Y-32048825D02*
X140340330Y-32048825D01*
X25416327Y-32252025D02*
X31290000Y-32252025D01*
X117710000Y-32252025D02*
X140358652Y-32252025D01*
X25404090Y-32455225D02*
X31290000Y-32455225D01*
X117710000Y-32455225D02*
X140376973Y-32455225D01*
X25391853Y-32658425D02*
X31290000Y-32658425D01*
X117710000Y-32658425D02*
X140395294Y-32658425D01*
X25379616Y-32861625D02*
X31290000Y-32861625D01*
X117710000Y-32861625D02*
X140413616Y-32861625D01*
X25367379Y-33064825D02*
X31290000Y-33064825D01*
X117710000Y-33064825D02*
X140431937Y-33064825D01*
X25355142Y-33268025D02*
X31290000Y-33268025D01*
X117710000Y-33268025D02*
X140450258Y-33268025D01*
X25342905Y-33471225D02*
X31290000Y-33471225D01*
X117710000Y-33471225D02*
X140468579Y-33471225D01*
X25330668Y-33674425D02*
X31290000Y-33674425D01*
X117710000Y-33674425D02*
X140486901Y-33674425D01*
X25318431Y-33877625D02*
X31290000Y-33877625D01*
X117710000Y-33877625D02*
X140505222Y-33877625D01*
X25306193Y-34080825D02*
X31290000Y-34080825D01*
X117710000Y-34080825D02*
X140523543Y-34080825D01*
X25293956Y-34284025D02*
X31290000Y-34284025D01*
X117710000Y-34284025D02*
X140541865Y-34284025D01*
X25281719Y-34487225D02*
X31290000Y-34487225D01*
X117710000Y-34487225D02*
X140560186Y-34487225D01*
X25269482Y-34690425D02*
X31290000Y-34690425D01*
X117710000Y-34690425D02*
X140578507Y-34690425D01*
X25257245Y-34893625D02*
X31290000Y-34893625D01*
X117710000Y-34893625D02*
X140596829Y-34893625D01*
X25245008Y-35096825D02*
X31290000Y-35096825D01*
X117710000Y-35096825D02*
X140615150Y-35096825D01*
X25232771Y-35300025D02*
X31290000Y-35300025D01*
X117710000Y-35300025D02*
X140633471Y-35300025D01*
X25220534Y-35503225D02*
X31290000Y-35503225D01*
X117710000Y-35503225D02*
X140651792Y-35503225D01*
X25208297Y-35706425D02*
X31290000Y-35706425D01*
X117710000Y-35706425D02*
X140658138Y-35706425D01*
X25196060Y-35909625D02*
X31290000Y-35909625D01*
X117710000Y-35909625D02*
X140655259Y-35909625D01*
X25183823Y-36112825D02*
X31290000Y-36112825D01*
X117710000Y-36112825D02*
X140652379Y-36112825D01*
X25171586Y-36316025D02*
X31290000Y-36316025D01*
X117710000Y-36316025D02*
X140649500Y-36316025D01*
X25159349Y-36519225D02*
X31290000Y-36519225D01*
X117710000Y-36519225D02*
X140646620Y-36519225D01*
X25147111Y-36722425D02*
X31290000Y-36722425D01*
X117710000Y-36722425D02*
X140643741Y-36722425D01*
X25134874Y-36925625D02*
X31290000Y-36925625D01*
X117710000Y-36925625D02*
X140640862Y-36925625D01*
X25122637Y-37128825D02*
X31290000Y-37128825D01*
X117710000Y-37128825D02*
X140637982Y-37128825D01*
X25110400Y-37332025D02*
X31290000Y-37332025D01*
X117710000Y-37332025D02*
X140635103Y-37332025D01*
X25098163Y-37535225D02*
X31290000Y-37535225D01*
X117710000Y-37535225D02*
X140632224Y-37535225D01*
X25085926Y-37738425D02*
X31290000Y-37738425D01*
X117710000Y-37738425D02*
X140629344Y-37738425D01*
X25073689Y-37941625D02*
X31290000Y-37941625D01*
X117710000Y-37941625D02*
X140626465Y-37941625D01*
X25061452Y-38144825D02*
X31290000Y-38144825D01*
X117710000Y-38144825D02*
X140623586Y-38144825D01*
X25049215Y-38348025D02*
X31290000Y-38348025D01*
X117710000Y-38348025D02*
X140620706Y-38348025D01*
X25036978Y-38551225D02*
X31290000Y-38551225D01*
X117710000Y-38551225D02*
X140617827Y-38551225D01*
X25024741Y-38754425D02*
X31290000Y-38754425D01*
X117710000Y-38754425D02*
X140614948Y-38754425D01*
X25012504Y-38957625D02*
X31290000Y-38957625D01*
X117710000Y-38957625D02*
X140612068Y-38957625D01*
X25000266Y-39160825D02*
X31290000Y-39160825D01*
X117710000Y-39160825D02*
X140609189Y-39160825D01*
X24988029Y-39364025D02*
X31290000Y-39364025D01*
X117710000Y-39364025D02*
X140606310Y-39364025D01*
X24975792Y-39567225D02*
X31290000Y-39567225D01*
X117710000Y-39567225D02*
X140603430Y-39567225D01*
X24963555Y-39770425D02*
X31290000Y-39770425D01*
X117710000Y-39770425D02*
X140600551Y-39770425D01*
X24951318Y-39973625D02*
X31290000Y-39973625D01*
X117710000Y-39973625D02*
X140597672Y-39973625D01*
X24939081Y-40176825D02*
X31290000Y-40176825D01*
X117710000Y-40176825D02*
X140594792Y-40176825D01*
X24926844Y-40380025D02*
X31290000Y-40380025D01*
X117710000Y-40380025D02*
X140591913Y-40380025D01*
X24914607Y-40583225D02*
X31290000Y-40583225D01*
X117710000Y-40583225D02*
X140589033Y-40583225D01*
X24902370Y-40786425D02*
X31290000Y-40786425D01*
X117710000Y-40786425D02*
X140586154Y-40786425D01*
X24890133Y-40989625D02*
X31290000Y-40989625D01*
X117710000Y-40989625D02*
X140583275Y-40989625D01*
X24877896Y-41192825D02*
X31290000Y-41192825D01*
X117710000Y-41192825D02*
X140580395Y-41192825D01*
X24865659Y-41396025D02*
X31290000Y-41396025D01*
X117710000Y-41396025D02*
X140577516Y-41396025D01*
X24853421Y-41599225D02*
X31290000Y-41599225D01*
X117710000Y-41599225D02*
X140574637Y-41599225D01*
X24841184Y-41802425D02*
X31290000Y-41802425D01*
X117710000Y-41802425D02*
X140571757Y-41802425D01*
X24828947Y-42005625D02*
X31290000Y-42005625D01*
X117710000Y-42005625D02*
X140568878Y-42005625D01*
X24816710Y-42208825D02*
X31290000Y-42208825D01*
X117710000Y-42208825D02*
X140565999Y-42208825D01*
X24804473Y-42412025D02*
X31290000Y-42412025D01*
X117710000Y-42412025D02*
X140563119Y-42412025D01*
X24792236Y-42615225D02*
X31290000Y-42615225D01*
X117710000Y-42615225D02*
X140560240Y-42615225D01*
X24779999Y-42818425D02*
X31290000Y-42818425D01*
X117710000Y-42818425D02*
X140557361Y-42818425D01*
X24767762Y-43021625D02*
X31290000Y-43021625D01*
X117710000Y-43021625D02*
X140554481Y-43021625D01*
X24755525Y-43224825D02*
X31290000Y-43224825D01*
X117710000Y-43224825D02*
X140551602Y-43224825D01*
X24743288Y-43428025D02*
X31290000Y-43428025D01*
X117710000Y-43428025D02*
X140548723Y-43428025D01*
X24731051Y-43631225D02*
X31290000Y-43631225D01*
X117710000Y-43631225D02*
X140545843Y-43631225D01*
X24718814Y-43834425D02*
X31290000Y-43834425D01*
X117710000Y-43834425D02*
X140542964Y-43834425D01*
X24706577Y-44037625D02*
X31290000Y-44037625D01*
X117710000Y-44037625D02*
X140540084Y-44037625D01*
X24694339Y-44240825D02*
X31290000Y-44240825D01*
X117710000Y-44240825D02*
X140537205Y-44240825D01*
X24682102Y-44444025D02*
X31290000Y-44444025D01*
X117710000Y-44444025D02*
X140534326Y-44444025D01*
X24669865Y-44647225D02*
X31290000Y-44647225D01*
X117710000Y-44647225D02*
X140531446Y-44647225D01*
X24657628Y-44850425D02*
X31290000Y-44850425D01*
X117710000Y-44850425D02*
X140528567Y-44850425D01*
X24645391Y-45053625D02*
X31290000Y-45053625D01*
X117710000Y-45053625D02*
X140525688Y-45053625D01*
X24633154Y-45256825D02*
X31290000Y-45256825D01*
X117710000Y-45256825D02*
X140522808Y-45256825D01*
X24620917Y-45460025D02*
X31290000Y-45460025D01*
X117710000Y-45460025D02*
X140519929Y-45460025D01*
X24608680Y-45663225D02*
X31290000Y-45663225D01*
X117710000Y-45663225D02*
X140517050Y-45663225D01*
X24596443Y-45866425D02*
X31290000Y-45866425D01*
X117710000Y-45866425D02*
X140514170Y-45866425D01*
X24584206Y-46069625D02*
X31290000Y-46069625D01*
X117710000Y-46069625D02*
X140511291Y-46069625D01*
X24571969Y-46272825D02*
X31290000Y-46272825D01*
X117710000Y-46272825D02*
X140508412Y-46272825D01*
X24559732Y-46476025D02*
X31290000Y-46476025D01*
X117710000Y-46476025D02*
X140505532Y-46476025D01*
X24547494Y-46679225D02*
X31290000Y-46679225D01*
X117710000Y-46679225D02*
X140502653Y-46679225D01*
X24535257Y-46882425D02*
X31290000Y-46882425D01*
X117710000Y-46882425D02*
X140499774Y-46882425D01*
X24523020Y-47085625D02*
X31290000Y-47085625D01*
X117710000Y-47085625D02*
X140496894Y-47085625D01*
X24510783Y-47288825D02*
X31290000Y-47288825D01*
X117710000Y-47288825D02*
X140494015Y-47288825D01*
X24498546Y-47492025D02*
X31290000Y-47492025D01*
X117710000Y-47492025D02*
X140491136Y-47492025D01*
X24486309Y-47695225D02*
X31290000Y-47695225D01*
X117710000Y-47695225D02*
X140488256Y-47695225D01*
X24474072Y-47898425D02*
X31290000Y-47898425D01*
X117710000Y-47898425D02*
X140485377Y-47898425D01*
X24461835Y-48101625D02*
X31290000Y-48101625D01*
X117710000Y-48101625D02*
X140482497Y-48101625D01*
X24449598Y-48304825D02*
X31290000Y-48304825D01*
X117710000Y-48304825D02*
X140479618Y-48304825D01*
X24437361Y-48508025D02*
X31290000Y-48508025D01*
X117710000Y-48508025D02*
X140476739Y-48508025D01*
X24425124Y-48711225D02*
X31290000Y-48711225D01*
X117710000Y-48711225D02*
X140473859Y-48711225D01*
X24412887Y-48914425D02*
X31290000Y-48914425D01*
X117710000Y-48914425D02*
X140470980Y-48914425D01*
X24400649Y-49117625D02*
X31290000Y-49117625D01*
X117710000Y-49117625D02*
X140468101Y-49117625D01*
X24388412Y-49320825D02*
X31290000Y-49320825D01*
X117710000Y-49320825D02*
X140465221Y-49320825D01*
X24376175Y-49524025D02*
X31290000Y-49524025D01*
X117710000Y-49524025D02*
X140462342Y-49524025D01*
X24363938Y-49727225D02*
X31290000Y-49727225D01*
X117710000Y-49727225D02*
X140459463Y-49727225D01*
X24351701Y-49930425D02*
X31290000Y-49930425D01*
X117710000Y-49930425D02*
X140456583Y-49930425D01*
X24339464Y-50133625D02*
X31290000Y-50133625D01*
X117710000Y-50133625D02*
X140453704Y-50133625D01*
X24327227Y-50336825D02*
X31290000Y-50336825D01*
X117710000Y-50336825D02*
X140450825Y-50336825D01*
X24314990Y-50540025D02*
X31290000Y-50540025D01*
X117710000Y-50540025D02*
X140447945Y-50540025D01*
X24302753Y-50743225D02*
X31290000Y-50743225D01*
X117710000Y-50743225D02*
X140445066Y-50743225D01*
X24290516Y-50946425D02*
X31290000Y-50946425D01*
X117710000Y-50946425D02*
X140442187Y-50946425D01*
X24278279Y-51149625D02*
X31290000Y-51149625D01*
X117710000Y-51149625D02*
X140439307Y-51149625D01*
X24266042Y-51352825D02*
X31290000Y-51352825D01*
X117710000Y-51352825D02*
X140436428Y-51352825D01*
X24253805Y-51556025D02*
X31290000Y-51556025D01*
X117710000Y-51556025D02*
X140433549Y-51556025D01*
X24241567Y-51759225D02*
X31290000Y-51759225D01*
X117710000Y-51759225D02*
X140430669Y-51759225D01*
X24229330Y-51962425D02*
X31290000Y-51962425D01*
X117710000Y-51962425D02*
X140427790Y-51962425D01*
X24217093Y-52165625D02*
X31290000Y-52165625D01*
X117710000Y-52165625D02*
X140424910Y-52165625D01*
X24204856Y-52368825D02*
X31290000Y-52368825D01*
X117710000Y-52368825D02*
X140422031Y-52368825D01*
X24192619Y-52572025D02*
X31290000Y-52572025D01*
X117710000Y-52572025D02*
X140419152Y-52572025D01*
X24180382Y-52775225D02*
X31290000Y-52775225D01*
X117710000Y-52775225D02*
X140416272Y-52775225D01*
X24168145Y-52978425D02*
X31290000Y-52978425D01*
X117710000Y-52978425D02*
X140413393Y-52978425D01*
X24155908Y-53181625D02*
X31290000Y-53181625D01*
X117710000Y-53181625D02*
X140410514Y-53181625D01*
X24143671Y-53384825D02*
X31290000Y-53384825D01*
X117710000Y-53384825D02*
X140407634Y-53384825D01*
X24131434Y-53588025D02*
X31290000Y-53588025D01*
X117710000Y-53588025D02*
X140404755Y-53588025D01*
X24119197Y-53791225D02*
X31290000Y-53791225D01*
X117710000Y-53791225D02*
X140401876Y-53791225D01*
X24106960Y-53994425D02*
X31290000Y-53994425D01*
X117710000Y-53994425D02*
X140398996Y-53994425D01*
X24094722Y-54197625D02*
X31290000Y-54197625D01*
X117710000Y-54197625D02*
X140396117Y-54197625D01*
X24082485Y-54400825D02*
X31290000Y-54400825D01*
X117710000Y-54400825D02*
X140393238Y-54400825D01*
X24070248Y-54604025D02*
X31290000Y-54604025D01*
X117710000Y-54604025D02*
X140390358Y-54604025D01*
X24058011Y-54807225D02*
X31290000Y-54807225D01*
X117710000Y-54807225D02*
X140387479Y-54807225D01*
X24045774Y-55010425D02*
X31290000Y-55010425D01*
X117710000Y-55010425D02*
X140384600Y-55010425D01*
X24033537Y-55213625D02*
X31290000Y-55213625D01*
X117710000Y-55213625D02*
X140381720Y-55213625D01*
X24021300Y-55416825D02*
X31290000Y-55416825D01*
X117710000Y-55416825D02*
X140378841Y-55416825D01*
X24009063Y-55620025D02*
X31290000Y-55620025D01*
X117710000Y-55620025D02*
X140375962Y-55620025D01*
X23996826Y-55823225D02*
X31290000Y-55823225D01*
X117710000Y-55823225D02*
X140373082Y-55823225D01*
X23984589Y-56026425D02*
X31290000Y-56026425D01*
X117710000Y-56026425D02*
X140370203Y-56026425D01*
X23972352Y-56229625D02*
X31290000Y-56229625D01*
X117710000Y-56229625D02*
X140367323Y-56229625D01*
X23960115Y-56432825D02*
X31290000Y-56432825D01*
X117710000Y-56432825D02*
X140364444Y-56432825D01*
X23947877Y-56636025D02*
X31290000Y-56636025D01*
X117710000Y-56636025D02*
X140361565Y-56636025D01*
X23935640Y-56839225D02*
X31290000Y-56839225D01*
X117710000Y-56839225D02*
X140358685Y-56839225D01*
X23923403Y-57042425D02*
X31290000Y-57042425D01*
X117710000Y-57042425D02*
X140355806Y-57042425D01*
X23911166Y-57245625D02*
X31290000Y-57245625D01*
X117710000Y-57245625D02*
X140352927Y-57245625D01*
X23898929Y-57448825D02*
X31290000Y-57448825D01*
X117710000Y-57448825D02*
X140350047Y-57448825D01*
X23886692Y-57652025D02*
X31290000Y-57652025D01*
X117710000Y-57652025D02*
X140347168Y-57652025D01*
X23874455Y-57855225D02*
X31290000Y-57855225D01*
X117710000Y-57855225D02*
X140344289Y-57855225D01*
X23862218Y-58058425D02*
X31290000Y-58058425D01*
X117710000Y-58058425D02*
X140341409Y-58058425D01*
X23849981Y-58261625D02*
X31290000Y-58261625D01*
X117710000Y-58261625D02*
X140338530Y-58261625D01*
X23837744Y-58464825D02*
X31290000Y-58464825D01*
X117710000Y-58464825D02*
X140335651Y-58464825D01*
X23825507Y-58668025D02*
X31290000Y-58668025D01*
X117710000Y-58668025D02*
X140332771Y-58668025D01*
X23813270Y-58871225D02*
X31290000Y-58871225D01*
X117710000Y-58871225D02*
X140329892Y-58871225D01*
X23801032Y-59074425D02*
X31290000Y-59074425D01*
X117710000Y-59074425D02*
X140327013Y-59074425D01*
X23788795Y-59277625D02*
X31290000Y-59277625D01*
X117710000Y-59277625D02*
X140324133Y-59277625D01*
X23776558Y-59480825D02*
X31290000Y-59480825D01*
X117710000Y-59480825D02*
X140321254Y-59480825D01*
X23764321Y-59684025D02*
X31290000Y-59684025D01*
X117710000Y-59684025D02*
X140318374Y-59684025D01*
X23752084Y-59887225D02*
X31290000Y-59887225D01*
X117710000Y-59887225D02*
X140315495Y-59887225D01*
X23739847Y-60090425D02*
X31290000Y-60090425D01*
X117710000Y-60090425D02*
X140312616Y-60090425D01*
X23727610Y-60293625D02*
X31290000Y-60293625D01*
X117710000Y-60293625D02*
X140309736Y-60293625D01*
X23715373Y-60496825D02*
X31290000Y-60496825D01*
X117710000Y-60496825D02*
X140306857Y-60496825D01*
X23703136Y-60700025D02*
X31290000Y-60700025D01*
X117710000Y-60700025D02*
X140303978Y-60700025D01*
X23690899Y-60903225D02*
X31290000Y-60903225D01*
X117710000Y-60903225D02*
X140301098Y-60903225D01*
X23678662Y-61106425D02*
X31290000Y-61106425D01*
X117710000Y-61106425D02*
X140298219Y-61106425D01*
X23666425Y-61309625D02*
X31290000Y-61309625D01*
X117710000Y-61309625D02*
X140295340Y-61309625D01*
X23654188Y-61512825D02*
X31290000Y-61512825D01*
X117710000Y-61512825D02*
X140292460Y-61512825D01*
X23641950Y-61716025D02*
X31290000Y-61716025D01*
X117710000Y-61716025D02*
X140289581Y-61716025D01*
X23629713Y-61919225D02*
X31290000Y-61919225D01*
X117710000Y-61919225D02*
X140286702Y-61919225D01*
X23617476Y-62122425D02*
X31290000Y-62122425D01*
X117710000Y-62122425D02*
X140283822Y-62122425D01*
X23605239Y-62325625D02*
X31290000Y-62325625D01*
X117710000Y-62325625D02*
X140280943Y-62325625D01*
X23593002Y-62528825D02*
X31290000Y-62528825D01*
X117710000Y-62528825D02*
X140278064Y-62528825D01*
X23580765Y-62732025D02*
X31290000Y-62732025D01*
X117710000Y-62732025D02*
X140275184Y-62732025D01*
X23568528Y-62935225D02*
X31290000Y-62935225D01*
X117710000Y-62935225D02*
X140272305Y-62935225D01*
X23556291Y-63138425D02*
X31290000Y-63138425D01*
X117710000Y-63138425D02*
X140269426Y-63138425D01*
X23544054Y-63341625D02*
X31290000Y-63341625D01*
X117710000Y-63341625D02*
X140266546Y-63341625D01*
X23531817Y-63544825D02*
X31290000Y-63544825D01*
X117710000Y-63544825D02*
X140263667Y-63544825D01*
X23519580Y-63748025D02*
X31290000Y-63748025D01*
X117710000Y-63748025D02*
X140260787Y-63748025D01*
X23507343Y-63951225D02*
X31290000Y-63951225D01*
X117710000Y-63951225D02*
X140257908Y-63951225D01*
X23495105Y-64154425D02*
X31290000Y-64154425D01*
X117710000Y-64154425D02*
X140255029Y-64154425D01*
X23482868Y-64357625D02*
X31290000Y-64357625D01*
X117710000Y-64357625D02*
X140252149Y-64357625D01*
X23470631Y-64560825D02*
X31290000Y-64560825D01*
X117710000Y-64560825D02*
X140249270Y-64560825D01*
X23458394Y-64764025D02*
X31290000Y-64764025D01*
X117710000Y-64764025D02*
X140246391Y-64764025D01*
X23446157Y-64967225D02*
X31290000Y-64967225D01*
X117710000Y-64967225D02*
X140243511Y-64967225D01*
X23433920Y-65170425D02*
X31290000Y-65170425D01*
X117710000Y-65170425D02*
X140240632Y-65170425D01*
X23421683Y-65373625D02*
X31290000Y-65373625D01*
X117710000Y-65373625D02*
X140237753Y-65373625D01*
X23409446Y-65576825D02*
X31290000Y-65576825D01*
X117710000Y-65576825D02*
X140234873Y-65576825D01*
X23397209Y-65780025D02*
X31290000Y-65780025D01*
X117710000Y-65780025D02*
X140231994Y-65780025D01*
X23384972Y-65983225D02*
X31290000Y-65983225D01*
X117710000Y-65983225D02*
X140229115Y-65983225D01*
X23372735Y-66186425D02*
X31290000Y-66186425D01*
X117710000Y-66186425D02*
X140226235Y-66186425D01*
X23360498Y-66389625D02*
X31290000Y-66389625D01*
X117710000Y-66389625D02*
X140223356Y-66389625D01*
X23348260Y-66592825D02*
X31290000Y-66592825D01*
X117710000Y-66592825D02*
X140220477Y-66592825D01*
X23336023Y-66796025D02*
X31290000Y-66796025D01*
X117710000Y-66796025D02*
X140217597Y-66796025D01*
X23323786Y-66999225D02*
X31290000Y-66999225D01*
X117710000Y-66999225D02*
X140214718Y-66999225D01*
X23311549Y-67202425D02*
X31290000Y-67202425D01*
X117710000Y-67202425D02*
X140211839Y-67202425D01*
X23299312Y-67405625D02*
X31290000Y-67405625D01*
X117710000Y-67405625D02*
X140208959Y-67405625D01*
X23287075Y-67608825D02*
X31290000Y-67608825D01*
X117710000Y-67608825D02*
X140206080Y-67608825D01*
X23274838Y-67812025D02*
X31290000Y-67812025D01*
X117710000Y-67812025D02*
X140203200Y-67812025D01*
X23262601Y-68015225D02*
X31290000Y-68015225D01*
X117710000Y-68015225D02*
X140200321Y-68015225D01*
X23250364Y-68218425D02*
X31290000Y-68218425D01*
X117710000Y-68218425D02*
X140197442Y-68218425D01*
X23238127Y-68421625D02*
X31290000Y-68421625D01*
X117710000Y-68421625D02*
X140194562Y-68421625D01*
X23225890Y-68624825D02*
X31290000Y-68624825D01*
X117710000Y-68624825D02*
X140191683Y-68624825D01*
X23213653Y-68828025D02*
X31290000Y-68828025D01*
X117710000Y-68828025D02*
X140188804Y-68828025D01*
X23201416Y-69031225D02*
X31290000Y-69031225D01*
X117710000Y-69031225D02*
X140185924Y-69031225D01*
X23189178Y-69234425D02*
X31290000Y-69234425D01*
X117710000Y-69234425D02*
X140183045Y-69234425D01*
X23176941Y-69437625D02*
X31290000Y-69437625D01*
X117710000Y-69437625D02*
X140180166Y-69437625D01*
X23164704Y-69640825D02*
X31290000Y-69640825D01*
X117710000Y-69640825D02*
X140177286Y-69640825D01*
X23152467Y-69844025D02*
X31290000Y-69844025D01*
X117710000Y-69844025D02*
X140174407Y-69844025D01*
X23140230Y-70047225D02*
X31290000Y-70047225D01*
X117710000Y-70047225D02*
X140171528Y-70047225D01*
X23127993Y-70250425D02*
X31290000Y-70250425D01*
X117710000Y-70250425D02*
X140168648Y-70250425D01*
X23115756Y-70453625D02*
X31290000Y-70453625D01*
X117710000Y-70453625D02*
X140165769Y-70453625D01*
X23103519Y-70656825D02*
X31290000Y-70656825D01*
X117710000Y-70656825D02*
X140162890Y-70656825D01*
X23091282Y-70860025D02*
X31290000Y-70860025D01*
X117710000Y-70860025D02*
X140160010Y-70860025D01*
X23079045Y-71063225D02*
X31290000Y-71063225D01*
X117710000Y-71063225D02*
X140157131Y-71063225D01*
X23066808Y-71266425D02*
X31290000Y-71266425D01*
X117710000Y-71266425D02*
X140154252Y-71266425D01*
X23054571Y-71469625D02*
X31290000Y-71469625D01*
X117710000Y-71469625D02*
X140151372Y-71469625D01*
X23042333Y-71672825D02*
X31290000Y-71672825D01*
X117710000Y-71672825D02*
X140148493Y-71672825D01*
X23030096Y-71876025D02*
X31290000Y-71876025D01*
X117710000Y-71876025D02*
X140145613Y-71876025D01*
X23017859Y-72079225D02*
X31290000Y-72079225D01*
X117710000Y-72079225D02*
X140142734Y-72079225D01*
X23005622Y-72282425D02*
X31290000Y-72282425D01*
X117710000Y-72282425D02*
X140139855Y-72282425D01*
X22993385Y-72485625D02*
X31290000Y-72485625D01*
X117710000Y-72485625D02*
X140136975Y-72485625D01*
X22981148Y-72688825D02*
X31290000Y-72688825D01*
X117710000Y-72688825D02*
X140134096Y-72688825D01*
X22968911Y-72892025D02*
X31290000Y-72892025D01*
X117710000Y-72892025D02*
X140131217Y-72892025D01*
X22956674Y-73095225D02*
X31290000Y-73095225D01*
X117710000Y-73095225D02*
X140128337Y-73095225D01*
X22944437Y-73298425D02*
X31290000Y-73298425D01*
X117710000Y-73298425D02*
X140125458Y-73298425D01*
X22932200Y-73501625D02*
X31290000Y-73501625D01*
X117710000Y-73501625D02*
X140122579Y-73501625D01*
X22919963Y-73704825D02*
X31290000Y-73704825D01*
X117710000Y-73704825D02*
X140119699Y-73704825D01*
X22907726Y-73908025D02*
X31290000Y-73908025D01*
X117710000Y-73908025D02*
X140116820Y-73908025D01*
X22895488Y-74111225D02*
X31290000Y-74111225D01*
X117710000Y-74111225D02*
X140113941Y-74111225D01*
X22883251Y-74314425D02*
X31290000Y-74314425D01*
X117710000Y-74314425D02*
X140111061Y-74314425D01*
X22871014Y-74517625D02*
X31290000Y-74517625D01*
X117710000Y-74517625D02*
X140108182Y-74517625D01*
X22858777Y-74720825D02*
X31290000Y-74720825D01*
X117710000Y-74720825D02*
X140105303Y-74720825D01*
X22846540Y-74924025D02*
X31290000Y-74924025D01*
X117710000Y-74924025D02*
X140102423Y-74924025D01*
X22834303Y-75127225D02*
X31290000Y-75127225D01*
X117710000Y-75127225D02*
X140099544Y-75127225D01*
X22822066Y-75330425D02*
X31290000Y-75330425D01*
X117710000Y-75330425D02*
X140096664Y-75330425D01*
X22809829Y-75533625D02*
X31290000Y-75533625D01*
X117710000Y-75533625D02*
X140093785Y-75533625D01*
X22797592Y-75736825D02*
X31290000Y-75736825D01*
X117710000Y-75736825D02*
X140090906Y-75736825D01*
X22785355Y-75940025D02*
X31290000Y-75940025D01*
X117710000Y-75940025D02*
X140088026Y-75940025D01*
X22773118Y-76143225D02*
X31304579Y-76143225D01*
X117695420Y-76143225D02*
X140085147Y-76143225D01*
X22760881Y-76346425D02*
X31344998Y-76346425D01*
X117655001Y-76346425D02*
X140082268Y-76346425D01*
X22748643Y-76549625D02*
X31385416Y-76549625D01*
X117614583Y-76549625D02*
X140079388Y-76549625D01*
X22736406Y-76752825D02*
X31425835Y-76752825D01*
X117574164Y-76752825D02*
X140076509Y-76752825D01*
X22724169Y-76956025D02*
X31466254Y-76956025D01*
X117533745Y-76956025D02*
X140073630Y-76956025D01*
X22711932Y-77159225D02*
X31506673Y-77159225D01*
X117493326Y-77159225D02*
X140070750Y-77159225D01*
X22699695Y-77362425D02*
X31547092Y-77362425D01*
X117452907Y-77362425D02*
X140067871Y-77362425D01*
X22687458Y-77565625D02*
X31587511Y-77565625D01*
X117412488Y-77565625D02*
X140064992Y-77565625D01*
X22675221Y-77768825D02*
X31627930Y-77768825D01*
X117372069Y-77768825D02*
X140062112Y-77768825D01*
X22662984Y-77972025D02*
X31668349Y-77972025D01*
X117331650Y-77972025D02*
X140059233Y-77972025D01*
X22650747Y-78175225D02*
X31735314Y-78175225D01*
X117264685Y-78175225D02*
X140056354Y-78175225D01*
X22638510Y-78378425D02*
X31837401Y-78378425D01*
X117162599Y-78378425D02*
X140053474Y-78378425D01*
X22626273Y-78581625D02*
X31973174Y-78581625D01*
X117026825Y-78581625D02*
X140050595Y-78581625D01*
X22614036Y-78784825D02*
X32108948Y-78784825D01*
X116891051Y-78784825D02*
X140047716Y-78784825D01*
X22601799Y-78988025D02*
X32244722Y-78988025D01*
X116755277Y-78988025D02*
X140044836Y-78988025D01*
X22589561Y-79191225D02*
X32380496Y-79191225D01*
X116619503Y-79191225D02*
X140041957Y-79191225D01*
X22577324Y-79394425D02*
X32516270Y-79394425D01*
X116483729Y-79394425D02*
X140039077Y-79394425D01*
X22565087Y-79597625D02*
X32652044Y-79597625D01*
X116347955Y-79597625D02*
X140036198Y-79597625D01*
X22552850Y-79800825D02*
X32787818Y-79800825D01*
X116212181Y-79800825D02*
X140033319Y-79800825D01*
X22540613Y-80004025D02*
X32948159Y-80004025D01*
X116051841Y-80004025D02*
X140030439Y-80004025D01*
X22528376Y-80207225D02*
X33191756Y-80207225D01*
X115808243Y-80207225D02*
X140027560Y-80207225D01*
X22516139Y-80410425D02*
X33495866Y-80410425D01*
X115504132Y-80410425D02*
X140024681Y-80410425D01*
X22503902Y-80613625D02*
X33799976Y-80613625D01*
X115200022Y-80613625D02*
X140021801Y-80613625D01*
X22491665Y-80816825D02*
X34104086Y-80816825D01*
X114895912Y-80816825D02*
X140018922Y-80816825D01*
X22479428Y-81020025D02*
X34408196Y-81020025D01*
X114591802Y-81020025D02*
X140016043Y-81020025D01*
X22467191Y-81223225D02*
X34724679Y-81223225D01*
X114275318Y-81223225D02*
X140013163Y-81223225D01*
X22454954Y-81426425D02*
X35504440Y-81426425D01*
X113495559Y-81426425D02*
X140010284Y-81426425D01*
X22442716Y-81629625D02*
X36525996Y-81629625D01*
X112474003Y-81629625D02*
X140007405Y-81629625D01*
X22430479Y-81832825D02*
X40916213Y-81832825D01*
X90327000Y-81832825D02*
X140004525Y-81832825D01*
X22418242Y-82036025D02*
X40916509Y-82036025D01*
X90327000Y-82036025D02*
X140001646Y-82036025D01*
X22406005Y-82239225D02*
X40916805Y-82239225D01*
X90327000Y-82239225D02*
X139998767Y-82239225D01*
X22393768Y-82442425D02*
X40917102Y-82442425D01*
X90327000Y-82442425D02*
X139995887Y-82442425D01*
X22381531Y-82645625D02*
X40917398Y-82645625D01*
X90327000Y-82645625D02*
X139993008Y-82645625D01*
X22369294Y-82848825D02*
X40917694Y-82848825D01*
X90327000Y-82848825D02*
X139990129Y-82848825D01*
X22357057Y-83052025D02*
X40917991Y-83052025D01*
X90327000Y-83052025D02*
X139987249Y-83052025D01*
X22344820Y-83255225D02*
X40918287Y-83255225D01*
X90327000Y-83255225D02*
X139984370Y-83255225D01*
X22332583Y-83458425D02*
X40918583Y-83458425D01*
X90327000Y-83458425D02*
X139981490Y-83458425D01*
X22320346Y-83661625D02*
X40918880Y-83661625D01*
X90327000Y-83661625D02*
X139978611Y-83661625D01*
X22308109Y-83864825D02*
X40926314Y-83864825D01*
X90306461Y-83864825D02*
X139975732Y-83864825D01*
X22295871Y-84068025D02*
X139972852Y-84068025D01*
X22283634Y-84271225D02*
X139969973Y-84271225D01*
X22271397Y-84474425D02*
X139967094Y-84474425D01*
X22259160Y-84677625D02*
X139964214Y-84677625D01*
X22246923Y-84880825D02*
X138903988Y-84880825D01*
X22234686Y-85084025D02*
X127476407Y-85084025D01*
X22222449Y-85287225D02*
X116048826Y-85287225D01*
X22210212Y-85490425D02*
X104621244Y-85490425D01*
X22197975Y-85693625D02*
X93193663Y-85693625D01*
X22185738Y-85896825D02*
X81766082Y-85896825D01*
X22173501Y-86100025D02*
X70338501Y-86100025D01*
X22161264Y-86303225D02*
X58910920Y-86303225D01*
X22149027Y-86506425D02*
X47483339Y-86506425D01*
X22136789Y-86709625D02*
X36055758Y-86709625D01*
X22124552Y-86912825D02*
X24628176Y-86912825D01*
X37069930Y-26710000D02*
X111930069Y-26710000D01*
X36048374Y-26913200D02*
X112951625Y-26913200D01*
X35263349Y-27116400D02*
X113736650Y-27116400D01*
X34959239Y-27319600D02*
X114040760Y-27319600D01*
X34655128Y-27522800D02*
X114344870Y-27522800D01*
X34351018Y-27726000D02*
X114648980Y-27726000D01*
X34046907Y-27929200D02*
X114953090Y-27929200D01*
X33872076Y-28132400D02*
X115127923Y-28132400D01*
X33736302Y-28335600D02*
X115263697Y-28335600D01*
X33600528Y-28538800D02*
X115399471Y-28538800D01*
X33464754Y-28742000D02*
X115535245Y-28742000D01*
X33328980Y-28945200D02*
X115671019Y-28945200D01*
X33193206Y-29148400D02*
X115806793Y-29148400D01*
X33057432Y-29351600D02*
X115942567Y-29351600D01*
X33011377Y-29554800D02*
X115988622Y-29554800D01*
X32970959Y-29758000D02*
X116029040Y-29758000D01*
X32930540Y-29961200D02*
X116069459Y-29961200D01*
X32890121Y-30164400D02*
X116109878Y-30164400D01*
X32849702Y-30367600D02*
X116150297Y-30367600D01*
X32809283Y-30570800D02*
X116190716Y-30570800D01*
X32768864Y-30774000D02*
X116231135Y-30774000D01*
X32728445Y-30977200D02*
X116271554Y-30977200D01*
X32710000Y-31180400D02*
X116290000Y-31180400D01*
X32710000Y-31383600D02*
X116290000Y-31383600D01*
X32710000Y-31586800D02*
X116290000Y-31586800D01*
X32710000Y-31790000D02*
X116290000Y-31790000D01*
X32710000Y-31993200D02*
X116290000Y-31993200D01*
X32710000Y-32196400D02*
X116290000Y-32196400D01*
X32710000Y-32399600D02*
X116290000Y-32399600D01*
X32710000Y-32602800D02*
X116290000Y-32602800D01*
X32710000Y-32806000D02*
X116290000Y-32806000D01*
X32710000Y-33009200D02*
X116290000Y-33009200D01*
X32710000Y-33212400D02*
X104259261Y-33212400D01*
X105094827Y-33212400D02*
X116290000Y-33212400D01*
X32710000Y-33415600D02*
X103768691Y-33415600D01*
X105608596Y-33415600D02*
X116290000Y-33415600D01*
X32710000Y-33618800D02*
X103508962Y-33618800D01*
X105847967Y-33618800D02*
X116290000Y-33618800D01*
X32710000Y-33822000D02*
X103328781Y-33822000D01*
X106058907Y-33822000D02*
X116290000Y-33822000D01*
X32710000Y-34025200D02*
X103157944Y-34025200D01*
X106222954Y-34025200D02*
X116290000Y-34025200D01*
X32710000Y-34228400D02*
X103081195Y-34228400D01*
X106307122Y-34228400D02*
X116290000Y-34228400D01*
X32710000Y-34431600D02*
X98883200Y-34431600D01*
X100441984Y-34431600D02*
X102999560Y-34431600D01*
X106391290Y-34431600D02*
X116290000Y-34431600D01*
X32710000Y-34634800D02*
X98556447Y-34634800D01*
X100784889Y-34634800D02*
X102927697Y-34634800D01*
X106450274Y-34634800D02*
X116290000Y-34634800D01*
X32710000Y-34838000D02*
X98352893Y-34838000D01*
X100979627Y-34838000D02*
X102925587Y-34838000D01*
X106450097Y-34838000D02*
X116290000Y-34838000D01*
X32710000Y-35041200D02*
X98154887Y-35041200D01*
X101145759Y-35041200D02*
X102919530Y-35041200D01*
X106453756Y-35041200D02*
X116290000Y-35041200D01*
X32710000Y-35244400D02*
X97990273Y-35244400D01*
X101276884Y-35244400D02*
X102905517Y-35244400D01*
X106460159Y-35244400D02*
X116290000Y-35244400D01*
X32710000Y-35447600D02*
X97807950Y-35447600D01*
X101328866Y-35447600D02*
X102891503Y-35447600D01*
X106419862Y-35447600D02*
X116290000Y-35447600D01*
X32710000Y-35650800D02*
X97625627Y-35650800D01*
X101398904Y-35650800D02*
X102908727Y-35650800D01*
X106405849Y-35650800D02*
X116290000Y-35650800D01*
X32710000Y-35854000D02*
X97443304Y-35854000D01*
X101432831Y-35854000D02*
X102943324Y-35854000D01*
X106370369Y-35854000D02*
X116290000Y-35854000D01*
X32710000Y-36057200D02*
X97260980Y-36057200D01*
X101420035Y-36057200D02*
X102969372Y-36057200D01*
X106303649Y-36057200D02*
X116290000Y-36057200D01*
X32710000Y-36260400D02*
X97078657Y-36260400D01*
X101418151Y-36260400D02*
X103053340Y-36260400D01*
X106248460Y-36260400D02*
X116290000Y-36260400D01*
X32710000Y-36463600D02*
X96918021Y-36463600D01*
X101375652Y-36463600D02*
X103169736Y-36463600D01*
X106138284Y-36463600D02*
X116290000Y-36463600D01*
X32710000Y-36666800D02*
X96809138Y-36666800D01*
X101291319Y-36666800D02*
X103286133Y-36666800D01*
X105981261Y-36666800D02*
X116290000Y-36666800D01*
X32710000Y-36870000D02*
X96688725Y-36870000D01*
X101214085Y-36870000D02*
X103506380Y-36870000D01*
X105824238Y-36870000D02*
X116290000Y-36870000D01*
X32710000Y-37073200D02*
X96625762Y-37073200D01*
X101096167Y-37073200D02*
X103769337Y-37073200D01*
X105496027Y-37073200D02*
X116290000Y-37073200D01*
X32710000Y-37276400D02*
X96596660Y-37276400D01*
X100896270Y-37276400D02*
X104343860Y-37276400D01*
X104912365Y-37276400D02*
X116290000Y-37276400D01*
X32710000Y-37479600D02*
X96567558Y-37479600D01*
X100713946Y-37479600D02*
X101426683Y-37479600D01*
X102863161Y-37479600D02*
X116290000Y-37479600D01*
X32710000Y-37682800D02*
X96561467Y-37682800D01*
X100531623Y-37682800D02*
X100936115Y-37682800D01*
X103357856Y-37682800D02*
X116290000Y-37682800D01*
X32710000Y-37886000D02*
X96613449Y-37886000D01*
X100349299Y-37886000D02*
X100576671Y-37886000D01*
X103724324Y-37886000D02*
X116290000Y-37886000D01*
X32710000Y-38089200D02*
X96665432Y-38089200D01*
X100166976Y-38089200D02*
X100373117Y-38089200D01*
X103927170Y-38089200D02*
X116290000Y-38089200D01*
X32710000Y-38292400D02*
X96718388Y-38292400D01*
X99984653Y-38292400D02*
X100169562Y-38292400D01*
X104130016Y-38292400D02*
X116290000Y-38292400D01*
X32710000Y-38495600D02*
X96870676Y-38495600D01*
X99802330Y-38495600D02*
X99966007Y-38495600D01*
X104332862Y-38495600D02*
X116290000Y-38495600D01*
X32710000Y-38698800D02*
X96400707Y-38698800D01*
X99620007Y-38698800D02*
X99852721Y-38698800D01*
X104448607Y-38698800D02*
X106560707Y-38698800D01*
X107949905Y-38698800D02*
X116290000Y-38698800D01*
X32710000Y-38902000D02*
X96073319Y-38902000D01*
X99351740Y-38902000D02*
X99770481Y-38902000D01*
X104532775Y-38902000D02*
X106233319Y-38902000D01*
X108203517Y-38902000D02*
X116290000Y-38902000D01*
X32710000Y-39105200D02*
X95893199Y-39105200D01*
X99080607Y-39105200D02*
X99687481Y-39105200D01*
X104616944Y-39105200D02*
X106053199Y-39105200D01*
X108420364Y-39105200D02*
X116290000Y-39105200D01*
X32710000Y-39308400D02*
X95740190Y-39308400D01*
X98379588Y-39308400D02*
X99603105Y-39308400D01*
X104701112Y-39308400D02*
X105900190Y-39308400D01*
X108539588Y-39308400D02*
X116290000Y-39308400D01*
X32710000Y-39511600D02*
X95664796Y-39511600D01*
X98477891Y-39511600D02*
X99521552Y-39511600D01*
X104779353Y-39511600D02*
X105824796Y-39511600D01*
X108637891Y-39511600D02*
X116290000Y-39511600D01*
X32710000Y-39714800D02*
X95591974Y-39714800D01*
X98547509Y-39714800D02*
X99518450Y-39714800D01*
X104779175Y-39714800D02*
X105751974Y-39714800D01*
X108707509Y-39714800D02*
X116290000Y-39714800D01*
X32710000Y-39918000D02*
X95584197Y-39918000D01*
X98555998Y-39918000D02*
X99520102Y-39918000D01*
X104778998Y-39918000D02*
X105744197Y-39918000D01*
X108715998Y-39918000D02*
X116290000Y-39918000D01*
X32710000Y-40121200D02*
X95584020Y-40121200D01*
X98555821Y-40121200D02*
X99521020Y-40121200D01*
X104779729Y-40121200D02*
X105744020Y-40121200D01*
X108715821Y-40121200D02*
X116290000Y-40121200D01*
X32710000Y-40324400D02*
X95583896Y-40324400D01*
X98555644Y-40324400D02*
X99520843Y-40324400D01*
X104781381Y-40324400D02*
X105743896Y-40324400D01*
X108715644Y-40324400D02*
X116290000Y-40324400D01*
X32710000Y-40527600D02*
X95650976Y-40527600D01*
X98482529Y-40527600D02*
X99520666Y-40527600D01*
X104783033Y-40527600D02*
X105810976Y-40527600D01*
X108642529Y-40527600D02*
X116290000Y-40527600D01*
X32710000Y-40730800D02*
X95751818Y-40730800D01*
X98410970Y-40730800D02*
X99590273Y-40730800D01*
X104705532Y-40730800D02*
X105911818Y-40730800D01*
X108570970Y-40730800D02*
X116290000Y-40730800D01*
X32710000Y-40934000D02*
X95868503Y-40934000D01*
X98267637Y-40934000D02*
X99674441Y-40934000D01*
X104621156Y-40934000D02*
X106028503Y-40934000D01*
X108427637Y-40934000D02*
X116290000Y-40934000D01*
X32710000Y-41137200D02*
X96075720Y-41137200D01*
X98083730Y-41137200D02*
X99758609Y-41137200D01*
X104537937Y-41137200D02*
X106235720Y-41137200D01*
X108243730Y-41137200D02*
X116290000Y-41137200D01*
X32710000Y-41340400D02*
X96324720Y-41340400D01*
X97789633Y-41340400D02*
X99842777Y-41340400D01*
X104455698Y-41340400D02*
X106484720Y-41340400D01*
X107949633Y-41340400D02*
X116290000Y-41340400D01*
X32710000Y-41543600D02*
X99946375Y-41543600D01*
X104354829Y-41543600D02*
X116290000Y-41543600D01*
X32710000Y-41746800D02*
X100149220Y-41746800D01*
X104151274Y-41746800D02*
X116290000Y-41746800D01*
X32710000Y-41950000D02*
X100352066Y-41950000D01*
X103947720Y-41950000D02*
X116290000Y-41950000D01*
X32710000Y-42153200D02*
X100554912Y-42153200D01*
X103744165Y-42153200D02*
X116290000Y-42153200D01*
X32710000Y-42356400D02*
X100890750Y-42356400D01*
X103414101Y-42356400D02*
X116290000Y-42356400D01*
X32710000Y-42559600D02*
X101386747Y-42559600D01*
X102923532Y-42559600D02*
X116290000Y-42559600D01*
X32710000Y-42762800D02*
X116290000Y-42762800D01*
X32710000Y-42966000D02*
X116290000Y-42966000D01*
X32710000Y-43169200D02*
X116290000Y-43169200D01*
X32710000Y-43372400D02*
X116290000Y-43372400D01*
X32710000Y-43575600D02*
X116290000Y-43575600D01*
X32710000Y-43778800D02*
X116290000Y-43778800D01*
X32710000Y-43982000D02*
X116290000Y-43982000D01*
X32710000Y-44185200D02*
X116290000Y-44185200D01*
X32710000Y-44388400D02*
X116290000Y-44388400D01*
X32710000Y-44591600D02*
X116290000Y-44591600D01*
X32710000Y-44794800D02*
X116290000Y-44794800D01*
X32710000Y-44998000D02*
X116290000Y-44998000D01*
X32710000Y-45201200D02*
X116290000Y-45201200D01*
X32710000Y-45404400D02*
X116290000Y-45404400D01*
X32710000Y-45607600D02*
X116290000Y-45607600D01*
X32710000Y-45810800D02*
X116290000Y-45810800D01*
X32710000Y-46014000D02*
X116290000Y-46014000D01*
X32710000Y-46217200D02*
X116290000Y-46217200D01*
X32710000Y-46420400D02*
X116290000Y-46420400D01*
X32710000Y-46623600D02*
X116290000Y-46623600D01*
X32710000Y-46826800D02*
X116290000Y-46826800D01*
X32710000Y-47030000D02*
X116290000Y-47030000D01*
X32710000Y-47233200D02*
X116290000Y-47233200D01*
X32710000Y-47436400D02*
X116290000Y-47436400D01*
X32710000Y-47639600D02*
X116290000Y-47639600D01*
X32710000Y-47842800D02*
X116290000Y-47842800D01*
X32710000Y-48046000D02*
X116290000Y-48046000D01*
X32710000Y-48249200D02*
X116290000Y-48249200D01*
X32710000Y-48452400D02*
X116290000Y-48452400D01*
X32710000Y-48655600D02*
X116290000Y-48655600D01*
X32710000Y-48858800D02*
X116290000Y-48858800D01*
X32710000Y-49062000D02*
X116290000Y-49062000D01*
X32710000Y-49265200D02*
X116290000Y-49265200D01*
X32710000Y-49468400D02*
X116290000Y-49468400D01*
X32710000Y-49671600D02*
X116290000Y-49671600D01*
X32710000Y-49874800D02*
X116290000Y-49874800D01*
X32710000Y-50078000D02*
X116290000Y-50078000D01*
X32710000Y-50281200D02*
X116290000Y-50281200D01*
X32710000Y-50484400D02*
X116290000Y-50484400D01*
X32710000Y-50687600D02*
X116290000Y-50687600D01*
X32710000Y-50890800D02*
X116290000Y-50890800D01*
X32710000Y-51094000D02*
X116290000Y-51094000D01*
X32710000Y-51297200D02*
X116290000Y-51297200D01*
X32710000Y-51500400D02*
X116290000Y-51500400D01*
X32710000Y-51703600D02*
X116290000Y-51703600D01*
X32710000Y-51906800D02*
X116290000Y-51906800D01*
X32710000Y-52110000D02*
X40910698Y-52110000D01*
X90288918Y-52110000D02*
X116290000Y-52110000D01*
X32710000Y-52313200D02*
X40873164Y-52313200D01*
X90327000Y-52313200D02*
X116290000Y-52313200D01*
X32710000Y-52516400D02*
X40873461Y-52516400D01*
X90327000Y-52516400D02*
X116290000Y-52516400D01*
X32710000Y-52719600D02*
X40873757Y-52719600D01*
X90327000Y-52719600D02*
X116290000Y-52719600D01*
X32710000Y-52922800D02*
X40874053Y-52922800D01*
X90327000Y-52922800D02*
X116290000Y-52922800D01*
X32710000Y-53126000D02*
X40874350Y-53126000D01*
X90327000Y-53126000D02*
X116290000Y-53126000D01*
X32710000Y-53329200D02*
X40874646Y-53329200D01*
X90327000Y-53329200D02*
X116290000Y-53329200D01*
X32710000Y-53532400D02*
X40874942Y-53532400D01*
X90327000Y-53532400D02*
X116290000Y-53532400D01*
X32710000Y-53735600D02*
X40875239Y-53735600D01*
X90327000Y-53735600D02*
X116290000Y-53735600D01*
X32710000Y-53938800D02*
X40875535Y-53938800D01*
X90327000Y-53938800D02*
X116290000Y-53938800D01*
X32710000Y-54142000D02*
X40875831Y-54142000D01*
X90327000Y-54142000D02*
X116290000Y-54142000D01*
X32710000Y-54345200D02*
X40876128Y-54345200D01*
X90327000Y-54345200D02*
X116290000Y-54345200D01*
X32710000Y-54548400D02*
X40876424Y-54548400D01*
X90327000Y-54548400D02*
X116290000Y-54548400D01*
X32710000Y-54751600D02*
X40876720Y-54751600D01*
X90327000Y-54751600D02*
X116290000Y-54751600D01*
X32710000Y-54954800D02*
X40877017Y-54954800D01*
X90327000Y-54954800D02*
X116290000Y-54954800D01*
X32710000Y-55158000D02*
X40877313Y-55158000D01*
X90327000Y-55158000D02*
X116290000Y-55158000D01*
X32710000Y-55361200D02*
X40877609Y-55361200D01*
X90327000Y-55361200D02*
X116290000Y-55361200D01*
X32710000Y-55564400D02*
X40877905Y-55564400D01*
X90327000Y-55564400D02*
X116290000Y-55564400D01*
X32710000Y-55767600D02*
X40878202Y-55767600D01*
X90327000Y-55767600D02*
X116290000Y-55767600D01*
X32710000Y-55970800D02*
X40878498Y-55970800D01*
X90327000Y-55970800D02*
X116290000Y-55970800D01*
X32710000Y-56174000D02*
X40878794Y-56174000D01*
X90327000Y-56174000D02*
X116290000Y-56174000D01*
X32710000Y-56377200D02*
X40879091Y-56377200D01*
X90327000Y-56377200D02*
X116290000Y-56377200D01*
X32710000Y-56580400D02*
X40879387Y-56580400D01*
X90327000Y-56580400D02*
X116290000Y-56580400D01*
X32710000Y-56783600D02*
X40879683Y-56783600D01*
X90327000Y-56783600D02*
X116290000Y-56783600D01*
X32710000Y-56986800D02*
X40879980Y-56986800D01*
X90327000Y-56986800D02*
X116290000Y-56986800D01*
X32710000Y-57190000D02*
X40880276Y-57190000D01*
X90327000Y-57190000D02*
X116290000Y-57190000D01*
X32710000Y-57393200D02*
X40880572Y-57393200D01*
X90327000Y-57393200D02*
X116290000Y-57393200D01*
X32710000Y-57596400D02*
X40880869Y-57596400D01*
X90327000Y-57596400D02*
X116290000Y-57596400D01*
X32710000Y-57799600D02*
X40881165Y-57799600D01*
X90327000Y-57799600D02*
X116290000Y-57799600D01*
X32710000Y-58002800D02*
X40881461Y-58002800D01*
X90327000Y-58002800D02*
X116290000Y-58002800D01*
X32710000Y-58206000D02*
X40881758Y-58206000D01*
X90327000Y-58206000D02*
X116290000Y-58206000D01*
X32710000Y-58409200D02*
X40882054Y-58409200D01*
X90327000Y-58409200D02*
X116290000Y-58409200D01*
X32710000Y-58612400D02*
X40882350Y-58612400D01*
X90327000Y-58612400D02*
X116290000Y-58612400D01*
X32710000Y-58815600D02*
X40882647Y-58815600D01*
X90327000Y-58815600D02*
X116290000Y-58815600D01*
X32710000Y-59018800D02*
X40882943Y-59018800D01*
X90327000Y-59018800D02*
X116290000Y-59018800D01*
X32710000Y-59222000D02*
X40883239Y-59222000D01*
X90327000Y-59222000D02*
X116290000Y-59222000D01*
X32710000Y-59425200D02*
X40883536Y-59425200D01*
X90327000Y-59425200D02*
X116290000Y-59425200D01*
X32710000Y-59628400D02*
X40883832Y-59628400D01*
X90327000Y-59628400D02*
X116290000Y-59628400D01*
X32710000Y-59831600D02*
X40884128Y-59831600D01*
X90327000Y-59831600D02*
X116290000Y-59831600D01*
X32710000Y-60034800D02*
X40884425Y-60034800D01*
X90327000Y-60034800D02*
X116290000Y-60034800D01*
X32710000Y-60238000D02*
X40884721Y-60238000D01*
X90327000Y-60238000D02*
X116290000Y-60238000D01*
X32710000Y-60441200D02*
X40885017Y-60441200D01*
X90327000Y-60441200D02*
X116290000Y-60441200D01*
X32710000Y-60644400D02*
X40885314Y-60644400D01*
X90327000Y-60644400D02*
X116290000Y-60644400D01*
X32710000Y-60847600D02*
X40885610Y-60847600D01*
X90327000Y-60847600D02*
X116290000Y-60847600D01*
X32710000Y-61050800D02*
X40885906Y-61050800D01*
X90327000Y-61050800D02*
X116290000Y-61050800D01*
X32710000Y-61254000D02*
X40886203Y-61254000D01*
X90327000Y-61254000D02*
X116290000Y-61254000D01*
X32710000Y-61457200D02*
X40886499Y-61457200D01*
X90327000Y-61457200D02*
X116290000Y-61457200D01*
X32710000Y-61660400D02*
X40886795Y-61660400D01*
X90327000Y-61660400D02*
X116290000Y-61660400D01*
X32710000Y-61863600D02*
X40887092Y-61863600D01*
X90327000Y-61863600D02*
X116290000Y-61863600D01*
X32710000Y-62066800D02*
X40887388Y-62066800D01*
X90327000Y-62066800D02*
X116290000Y-62066800D01*
X32710000Y-62270000D02*
X40887684Y-62270000D01*
X90327000Y-62270000D02*
X116290000Y-62270000D01*
X32710000Y-62473200D02*
X40887980Y-62473200D01*
X90327000Y-62473200D02*
X116290000Y-62473200D01*
X32710000Y-62676400D02*
X40888277Y-62676400D01*
X90327000Y-62676400D02*
X116290000Y-62676400D01*
X32710000Y-62879600D02*
X40888573Y-62879600D01*
X90327000Y-62879600D02*
X116290000Y-62879600D01*
X32710000Y-63082800D02*
X40888869Y-63082800D01*
X90327000Y-63082800D02*
X90508614Y-63082800D01*
X91691109Y-63082800D02*
X116290000Y-63082800D01*
X32710000Y-63286000D02*
X40889166Y-63286000D01*
X92011791Y-63286000D02*
X116290000Y-63286000D01*
X32710000Y-63489200D02*
X40889462Y-63489200D01*
X97515102Y-63489200D02*
X116290000Y-63489200D01*
X32710000Y-63692400D02*
X40889758Y-63692400D01*
X97814685Y-63692400D02*
X116290000Y-63692400D01*
X32710000Y-63895600D02*
X40890055Y-63895600D01*
X97973918Y-63895600D02*
X116290000Y-63895600D01*
X32710000Y-64098800D02*
X40890351Y-64098800D01*
X98057878Y-64098800D02*
X116290000Y-64098800D01*
X32710000Y-64302000D02*
X40890647Y-64302000D01*
X98085042Y-64302000D02*
X116290000Y-64302000D01*
X32710000Y-64505200D02*
X40890944Y-64505200D01*
X98084865Y-64505200D02*
X116290000Y-64505200D01*
X32710000Y-64708400D02*
X40891240Y-64708400D01*
X98013582Y-64708400D02*
X116290000Y-64708400D01*
X32710000Y-64911600D02*
X40891536Y-64911600D01*
X97910864Y-64911600D02*
X116290000Y-64911600D01*
X32710000Y-65114800D02*
X40891833Y-65114800D01*
X97737220Y-65114800D02*
X116290000Y-65114800D01*
X32710000Y-65318000D02*
X40892129Y-65318000D01*
X97940066Y-65318000D02*
X116290000Y-65318000D01*
X32710000Y-65521200D02*
X40892425Y-65521200D01*
X98025815Y-65521200D02*
X116290000Y-65521200D01*
X32710000Y-65724400D02*
X40892722Y-65724400D01*
X98085110Y-65724400D02*
X116290000Y-65724400D01*
X32710000Y-65927600D02*
X40893018Y-65927600D01*
X98084933Y-65927600D02*
X116290000Y-65927600D01*
X32710000Y-66130800D02*
X40893314Y-66130800D01*
X98045805Y-66130800D02*
X116290000Y-66130800D01*
X32710000Y-66334000D02*
X40893611Y-66334000D01*
X97961428Y-66334000D02*
X116290000Y-66334000D01*
X32710000Y-66537200D02*
X40893907Y-66537200D01*
X97785044Y-66537200D02*
X116290000Y-66537200D01*
X32710000Y-66740400D02*
X40894203Y-66740400D01*
X97480914Y-66740400D02*
X116290000Y-66740400D01*
X32710000Y-66943600D02*
X40894500Y-66943600D01*
X97277714Y-66943600D02*
X116290000Y-66943600D01*
X32710000Y-67146800D02*
X40894796Y-67146800D01*
X96982074Y-67146800D02*
X116290000Y-67146800D01*
X32710000Y-67350000D02*
X40895092Y-67350000D01*
X92075636Y-67350000D02*
X116290000Y-67350000D01*
X32710000Y-67553200D02*
X40895389Y-67553200D01*
X90327000Y-67553200D02*
X90354762Y-67553200D01*
X91846279Y-67553200D02*
X116290000Y-67553200D01*
X32710000Y-67756400D02*
X40895685Y-67756400D01*
X90327000Y-67756400D02*
X116290000Y-67756400D01*
X32710000Y-67959600D02*
X40895981Y-67959600D01*
X90327000Y-67959600D02*
X116290000Y-67959600D01*
X32710000Y-68162800D02*
X40896278Y-68162800D01*
X90327000Y-68162800D02*
X116290000Y-68162800D01*
X32710000Y-68366000D02*
X40896574Y-68366000D01*
X90327000Y-68366000D02*
X116290000Y-68366000D01*
X32710000Y-68569200D02*
X40896870Y-68569200D01*
X90327000Y-68569200D02*
X116290000Y-68569200D01*
X32710000Y-68772400D02*
X40897167Y-68772400D01*
X90327000Y-68772400D02*
X116290000Y-68772400D01*
X32710000Y-68975600D02*
X40897463Y-68975600D01*
X90327000Y-68975600D02*
X116290000Y-68975600D01*
X32710000Y-69178800D02*
X40897759Y-69178800D01*
X90327000Y-69178800D02*
X116290000Y-69178800D01*
X32710000Y-69382000D02*
X40898056Y-69382000D01*
X90327000Y-69382000D02*
X116290000Y-69382000D01*
X32710000Y-69585200D02*
X40898352Y-69585200D01*
X90327000Y-69585200D02*
X116290000Y-69585200D01*
X32710000Y-69788400D02*
X40898648Y-69788400D01*
X90327000Y-69788400D02*
X116290000Y-69788400D01*
X32710000Y-69991600D02*
X40898944Y-69991600D01*
X90327000Y-69991600D02*
X116290000Y-69991600D01*
X32710000Y-70194800D02*
X40899241Y-70194800D01*
X90327000Y-70194800D02*
X116290000Y-70194800D01*
X32710000Y-70398000D02*
X40899537Y-70398000D01*
X90327000Y-70398000D02*
X116290000Y-70398000D01*
X32710000Y-70601200D02*
X40899833Y-70601200D01*
X90327000Y-70601200D02*
X116290000Y-70601200D01*
X32710000Y-70804400D02*
X40900130Y-70804400D01*
X90327000Y-70804400D02*
X116290000Y-70804400D01*
X32710000Y-71007600D02*
X40900426Y-71007600D01*
X90327000Y-71007600D02*
X116290000Y-71007600D01*
X32710000Y-71210800D02*
X40900722Y-71210800D01*
X90327000Y-71210800D02*
X116290000Y-71210800D01*
X32710000Y-71414000D02*
X40901019Y-71414000D01*
X90327000Y-71414000D02*
X116290000Y-71414000D01*
X32710000Y-71617200D02*
X40901315Y-71617200D01*
X90327000Y-71617200D02*
X116290000Y-71617200D01*
X32710000Y-71820400D02*
X40901611Y-71820400D01*
X90327000Y-71820400D02*
X116290000Y-71820400D01*
X32710000Y-72023600D02*
X40901908Y-72023600D01*
X90327000Y-72023600D02*
X116290000Y-72023600D01*
X32710000Y-72226800D02*
X40902204Y-72226800D01*
X90327000Y-72226800D02*
X116290000Y-72226800D01*
X32710000Y-72430000D02*
X40902500Y-72430000D01*
X90327000Y-72430000D02*
X116290000Y-72430000D01*
X32710000Y-72633200D02*
X40902797Y-72633200D01*
X90327000Y-72633200D02*
X116290000Y-72633200D01*
X32710000Y-72836400D02*
X40903093Y-72836400D01*
X90327000Y-72836400D02*
X116290000Y-72836400D01*
X32710000Y-73039600D02*
X40903389Y-73039600D01*
X90327000Y-73039600D02*
X116290000Y-73039600D01*
X32710000Y-73242800D02*
X40903686Y-73242800D01*
X90327000Y-73242800D02*
X116290000Y-73242800D01*
X32710000Y-73446000D02*
X40903982Y-73446000D01*
X90327000Y-73446000D02*
X116290000Y-73446000D01*
X32710000Y-73649200D02*
X40904278Y-73649200D01*
X90327000Y-73649200D02*
X116290000Y-73649200D01*
X32710000Y-73852400D02*
X40904575Y-73852400D01*
X90327000Y-73852400D02*
X116290000Y-73852400D01*
X32710000Y-74055600D02*
X40904871Y-74055600D01*
X90327000Y-74055600D02*
X116290000Y-74055600D01*
X32710000Y-74258800D02*
X40905167Y-74258800D01*
X90327000Y-74258800D02*
X116290000Y-74258800D01*
X32710000Y-74462000D02*
X40905464Y-74462000D01*
X90327000Y-74462000D02*
X116290000Y-74462000D01*
X32710000Y-74665200D02*
X40905760Y-74665200D01*
X90327000Y-74665200D02*
X116290000Y-74665200D01*
X32710000Y-74868400D02*
X40906056Y-74868400D01*
X90327000Y-74868400D02*
X116290000Y-74868400D01*
X32710000Y-75071600D02*
X40906353Y-75071600D01*
X90327000Y-75071600D02*
X116290000Y-75071600D01*
X32710000Y-75274800D02*
X40906649Y-75274800D01*
X90327000Y-75274800D02*
X116290000Y-75274800D01*
X32710000Y-75478000D02*
X40906945Y-75478000D01*
X90327000Y-75478000D02*
X116290000Y-75478000D01*
X32710000Y-75681200D02*
X40907242Y-75681200D01*
X90327000Y-75681200D02*
X116290000Y-75681200D01*
X32710000Y-75884400D02*
X40907538Y-75884400D01*
X90327000Y-75884400D02*
X116290000Y-75884400D01*
X32741335Y-76087600D02*
X40907834Y-76087600D01*
X90327000Y-76087600D02*
X116258666Y-76087600D01*
X32781754Y-76290800D02*
X40908131Y-76290800D01*
X90327000Y-76290800D02*
X116218247Y-76290800D01*
X32822173Y-76494000D02*
X40908427Y-76494000D01*
X90327000Y-76494000D02*
X116177828Y-76494000D01*
X32862592Y-76697200D02*
X40908723Y-76697200D01*
X90327000Y-76697200D02*
X116137409Y-76697200D01*
X32903011Y-76900400D02*
X40909019Y-76900400D01*
X90327000Y-76900400D02*
X116096990Y-76900400D01*
X32943430Y-77103600D02*
X40909316Y-77103600D01*
X90327000Y-77103600D02*
X116056571Y-77103600D01*
X32983849Y-77306800D02*
X40909612Y-77306800D01*
X90327000Y-77306800D02*
X116016152Y-77306800D01*
X33024268Y-77510000D02*
X40909908Y-77510000D01*
X90327000Y-77510000D02*
X115975733Y-77510000D01*
X33100731Y-77713200D02*
X40910205Y-77713200D01*
X90327000Y-77713200D02*
X115899270Y-77713200D01*
X33236505Y-77916400D02*
X40910501Y-77916400D01*
X90327000Y-77916400D02*
X115763496Y-77916400D01*
X33372279Y-78119600D02*
X40910797Y-78119600D01*
X90327000Y-78119600D02*
X115627722Y-78119600D01*
X33508053Y-78322800D02*
X40911094Y-78322800D01*
X90327000Y-78322800D02*
X115491948Y-78322800D01*
X33643827Y-78526000D02*
X40911390Y-78526000D01*
X90327000Y-78526000D02*
X115356174Y-78526000D01*
X33779601Y-78729200D02*
X40911686Y-78729200D01*
X90327000Y-78729200D02*
X115220400Y-78729200D01*
X33915375Y-78932400D02*
X40911983Y-78932400D01*
X90327000Y-78932400D02*
X115084626Y-78932400D01*
X34143889Y-79135600D02*
X40912279Y-79135600D01*
X90327000Y-79135600D02*
X114856111Y-79135600D01*
X34447999Y-79338800D02*
X40912575Y-79338800D01*
X90327000Y-79338800D02*
X114552001Y-79338800D01*
X34752109Y-79542000D02*
X40912872Y-79542000D01*
X90327000Y-79542000D02*
X114247891Y-79542000D01*
X35056220Y-79745200D02*
X40913168Y-79745200D01*
X90327000Y-79745200D02*
X113943781Y-79745200D01*
X35360330Y-79948400D02*
X40913464Y-79948400D01*
X90327000Y-79948400D02*
X113639671Y-79948400D01*
X36374147Y-80151600D02*
X40913761Y-80151600D01*
X90327000Y-80151600D02*
X112625854Y-80151600D01*
X92212275Y-65213600D02*
X96464066Y-65213600D01*
X92142363Y-65416800D02*
X96317478Y-65416800D01*
X140659764Y-35591631D02*
X139961601Y-84862019D01*
X22121869Y-86957391D01*
X25491727Y-31000000D01*
X31290000Y-31000000D01*
X31290000Y-76000000D01*
X31303642Y-76068584D01*
X31303642Y-76138514D01*
X31684244Y-78051931D01*
X31759208Y-78232908D01*
X31790259Y-78307872D01*
X32874123Y-79929989D01*
X33070011Y-80125877D01*
X34692128Y-81209742D01*
X34841722Y-81271705D01*
X34948069Y-81315756D01*
X36861486Y-81696358D01*
X36931416Y-81696358D01*
X37000000Y-81710000D01*
X40916034Y-81710000D01*
X40919121Y-83826805D01*
X40927831Y-83872843D01*
X40955134Y-83915223D01*
X40996774Y-83943641D01*
X41046190Y-83953620D01*
X90200069Y-83927000D01*
X90246159Y-83918315D01*
X90288553Y-83891035D01*
X90316994Y-83849410D01*
X90327000Y-83800000D01*
X90327000Y-81710000D01*
X112000000Y-81710000D01*
X112068584Y-81696358D01*
X112138514Y-81696358D01*
X114051931Y-81315756D01*
X114232908Y-81240792D01*
X114307872Y-81209741D01*
X115929989Y-80125877D01*
X116125877Y-79929989D01*
X117209742Y-78307872D01*
X117271843Y-78157945D01*
X117315756Y-78051931D01*
X117696358Y-76138514D01*
X117696358Y-76068584D01*
X117710000Y-76000000D01*
X117710000Y-31000000D01*
X117696358Y-30931416D01*
X117696358Y-30861486D01*
X117315756Y-28948069D01*
X117271843Y-28842055D01*
X117209742Y-28692128D01*
X116125877Y-27070011D01*
X115929989Y-26874123D01*
X114307872Y-25790259D01*
X114232908Y-25759208D01*
X114051931Y-25684244D01*
X112138514Y-25303642D01*
X112068584Y-25303642D01*
X112000000Y-25290000D01*
X37000000Y-25290000D01*
X36931416Y-25303642D01*
X34948069Y-25684244D01*
X34842055Y-25728157D01*
X34692128Y-25790258D01*
X33070011Y-26874123D01*
X32874123Y-27070011D01*
X31790259Y-28692128D01*
X31790259Y-28692129D01*
X31684244Y-28948069D01*
X31303642Y-30861486D01*
X31303642Y-30931416D01*
X31290000Y-31000000D01*
X25491727Y-31000000D01*
X25906464Y-24113183D01*
X139570836Y-23514425D01*
X140659764Y-35591631D01*
X139570836Y-23514425D02*
X139570836Y-23514425D01*
X100996653Y-23717625D02*
X139589157Y-23717625D01*
X62422470Y-23920825D02*
X139607478Y-23920825D01*
X25905811Y-24124025D02*
X139625799Y-24124025D01*
X25893573Y-24327225D02*
X139644121Y-24327225D01*
X25881336Y-24530425D02*
X139662442Y-24530425D01*
X25869099Y-24733625D02*
X139680763Y-24733625D01*
X25856862Y-24936825D02*
X139699085Y-24936825D01*
X25844625Y-25140025D02*
X139717406Y-25140025D01*
X25832388Y-25343225D02*
X36725146Y-25343225D01*
X112337512Y-25343225D02*
X139735727Y-25343225D01*
X25820151Y-25546425D02*
X35666255Y-25546425D01*
X113359068Y-25546425D02*
X139754049Y-25546425D01*
X25807914Y-25749625D02*
X34790226Y-25749625D01*
X114209773Y-25749625D02*
X139772370Y-25749625D01*
X25795677Y-25952825D02*
X34448830Y-25952825D01*
X114551170Y-25952825D02*
X139790691Y-25952825D01*
X25783440Y-26156025D02*
X34144720Y-26156025D01*
X114855280Y-26156025D02*
X139809012Y-26156025D01*
X25771203Y-26359225D02*
X33840610Y-26359225D01*
X115159390Y-26359225D02*
X139827334Y-26359225D01*
X25758966Y-26562425D02*
X33536500Y-26562425D01*
X115463501Y-26562425D02*
X139845655Y-26562425D01*
X25746728Y-26765625D02*
X33232390Y-26765625D01*
X115767611Y-26765625D02*
X139863976Y-26765625D01*
X25734491Y-26968825D02*
X32975309Y-26968825D01*
X116024691Y-26968825D02*
X139882298Y-26968825D01*
X25722254Y-27172025D02*
X32805960Y-27172025D01*
X116194041Y-27172025D02*
X139900619Y-27172025D01*
X25710017Y-27375225D02*
X32670186Y-27375225D01*
X116329815Y-27375225D02*
X139918940Y-27375225D01*
X25697780Y-27578425D02*
X32534412Y-27578425D01*
X116465589Y-27578425D02*
X139937262Y-27578425D01*
X25685543Y-27781625D02*
X32398638Y-27781625D01*
X116601363Y-27781625D02*
X139955583Y-27781625D01*
X25673306Y-27984825D02*
X32262864Y-27984825D01*
X116737137Y-27984825D02*
X139973904Y-27984825D01*
X25661069Y-28188025D02*
X32127090Y-28188025D01*
X116872911Y-28188025D02*
X139992226Y-28188025D01*
X25648832Y-28391225D02*
X31991316Y-28391225D01*
X117008685Y-28391225D02*
X140010547Y-28391225D01*
X25636595Y-28594425D02*
X31855543Y-28594425D01*
X117144459Y-28594425D02*
X140028868Y-28594425D01*
X25624358Y-28797625D02*
X31746561Y-28797625D01*
X117253440Y-28797625D02*
X140047189Y-28797625D01*
X25612121Y-29000825D02*
X31673751Y-29000825D01*
X117326250Y-29000825D02*
X140065511Y-29000825D01*
X25599883Y-29204025D02*
X31633332Y-29204025D01*
X117366669Y-29204025D02*
X140083832Y-29204025D01*
X25587646Y-29407225D02*
X31592913Y-29407225D01*
X117407088Y-29407225D02*
X140102153Y-29407225D01*
X25575409Y-29610425D02*
X31552494Y-29610425D01*
X117447507Y-29610425D02*
X140120475Y-29610425D01*
X25563172Y-29813625D02*
X31512075Y-29813625D01*
X117487926Y-29813625D02*
X140138796Y-29813625D01*
X25550935Y-30016825D02*
X31471656Y-30016825D01*
X117528345Y-30016825D02*
X140157117Y-30016825D01*
X25538698Y-30220025D02*
X31431237Y-30220025D01*
X117568764Y-30220025D02*
X140175439Y-30220025D01*
X25526461Y-30423225D02*
X31390818Y-30423225D01*
X117609183Y-30423225D02*
X140193760Y-30423225D01*
X25514224Y-30626425D02*
X31350399Y-30626425D01*
X117649602Y-30626425D02*
X140212081Y-30626425D01*
X25501987Y-30829625D02*
X31309980Y-30829625D01*
X117690021Y-30829625D02*
X140230402Y-30829625D01*
X25489750Y-31032825D02*
X31290000Y-31032825D01*
X117710000Y-31032825D02*
X140248724Y-31032825D01*
X25477513Y-31236025D02*
X31290000Y-31236025D01*
X117710000Y-31236025D02*
X140267045Y-31236025D01*
X25465276Y-31439225D02*
X31290000Y-31439225D01*
X117710000Y-31439225D02*
X140285366Y-31439225D01*
X25453038Y-31642425D02*
X31290000Y-31642425D01*
X117710000Y-31642425D02*
X140303688Y-31642425D01*
X25440801Y-31845625D02*
X31290000Y-31845625D01*
X117710000Y-31845625D02*
X140322009Y-31845625D01*
X25428564Y-32048825D02*
X31290000Y-32048825D01*
X117710000Y-32048825D02*
X140340330Y-32048825D01*
X25416327Y-32252025D02*
X31290000Y-32252025D01*
X117710000Y-32252025D02*
X140358652Y-32252025D01*
X25404090Y-32455225D02*
X31290000Y-32455225D01*
X117710000Y-32455225D02*
X140376973Y-32455225D01*
X25391853Y-32658425D02*
X31290000Y-32658425D01*
X117710000Y-32658425D02*
X140395294Y-32658425D01*
X25379616Y-32861625D02*
X31290000Y-32861625D01*
X117710000Y-32861625D02*
X140413616Y-32861625D01*
X25367379Y-33064825D02*
X31290000Y-33064825D01*
X117710000Y-33064825D02*
X140431937Y-33064825D01*
X25355142Y-33268025D02*
X31290000Y-33268025D01*
X117710000Y-33268025D02*
X140450258Y-33268025D01*
X25342905Y-33471225D02*
X31290000Y-33471225D01*
X117710000Y-33471225D02*
X140468579Y-33471225D01*
X25330668Y-33674425D02*
X31290000Y-33674425D01*
X117710000Y-33674425D02*
X140486901Y-33674425D01*
X25318431Y-33877625D02*
X31290000Y-33877625D01*
X117710000Y-33877625D02*
X140505222Y-33877625D01*
X25306193Y-34080825D02*
X31290000Y-34080825D01*
X117710000Y-34080825D02*
X140523543Y-34080825D01*
X25293956Y-34284025D02*
X31290000Y-34284025D01*
X117710000Y-34284025D02*
X140541865Y-34284025D01*
X25281719Y-34487225D02*
X31290000Y-34487225D01*
X117710000Y-34487225D02*
X140560186Y-34487225D01*
X25269482Y-34690425D02*
X31290000Y-34690425D01*
X117710000Y-34690425D02*
X140578507Y-34690425D01*
X25257245Y-34893625D02*
X31290000Y-34893625D01*
X117710000Y-34893625D02*
X140596829Y-34893625D01*
X25245008Y-35096825D02*
X31290000Y-35096825D01*
X117710000Y-35096825D02*
X140615150Y-35096825D01*
X25232771Y-35300025D02*
X31290000Y-35300025D01*
X117710000Y-35300025D02*
X140633471Y-35300025D01*
X25220534Y-35503225D02*
X31290000Y-35503225D01*
X117710000Y-35503225D02*
X140651792Y-35503225D01*
X25208297Y-35706425D02*
X31290000Y-35706425D01*
X117710000Y-35706425D02*
X140658138Y-35706425D01*
X25196060Y-35909625D02*
X31290000Y-35909625D01*
X117710000Y-35909625D02*
X140655259Y-35909625D01*
X25183823Y-36112825D02*
X31290000Y-36112825D01*
X117710000Y-36112825D02*
X140652379Y-36112825D01*
X25171586Y-36316025D02*
X31290000Y-36316025D01*
X117710000Y-36316025D02*
X140649500Y-36316025D01*
X25159349Y-36519225D02*
X31290000Y-36519225D01*
X117710000Y-36519225D02*
X140646620Y-36519225D01*
X25147111Y-36722425D02*
X31290000Y-36722425D01*
X117710000Y-36722425D02*
X140643741Y-36722425D01*
X25134874Y-36925625D02*
X31290000Y-36925625D01*
X117710000Y-36925625D02*
X140640862Y-36925625D01*
X25122637Y-37128825D02*
X31290000Y-37128825D01*
X117710000Y-37128825D02*
X140637982Y-37128825D01*
X25110400Y-37332025D02*
X31290000Y-37332025D01*
X117710000Y-37332025D02*
X140635103Y-37332025D01*
X25098163Y-37535225D02*
X31290000Y-37535225D01*
X117710000Y-37535225D02*
X140632224Y-37535225D01*
X25085926Y-37738425D02*
X31290000Y-37738425D01*
X117710000Y-37738425D02*
X140629344Y-37738425D01*
X25073689Y-37941625D02*
X31290000Y-37941625D01*
X117710000Y-37941625D02*
X140626465Y-37941625D01*
X25061452Y-38144825D02*
X31290000Y-38144825D01*
X117710000Y-38144825D02*
X140623586Y-38144825D01*
X25049215Y-38348025D02*
X31290000Y-38348025D01*
X117710000Y-38348025D02*
X140620706Y-38348025D01*
X25036978Y-38551225D02*
X31290000Y-38551225D01*
X117710000Y-38551225D02*
X140617827Y-38551225D01*
X25024741Y-38754425D02*
X31290000Y-38754425D01*
X117710000Y-38754425D02*
X140614948Y-38754425D01*
X25012504Y-38957625D02*
X31290000Y-38957625D01*
X117710000Y-38957625D02*
X140612068Y-38957625D01*
X25000266Y-39160825D02*
X31290000Y-39160825D01*
X117710000Y-39160825D02*
X140609189Y-39160825D01*
X24988029Y-39364025D02*
X31290000Y-39364025D01*
X117710000Y-39364025D02*
X140606310Y-39364025D01*
X24975792Y-39567225D02*
X31290000Y-39567225D01*
X117710000Y-39567225D02*
X140603430Y-39567225D01*
X24963555Y-39770425D02*
X31290000Y-39770425D01*
X117710000Y-39770425D02*
X140600551Y-39770425D01*
X24951318Y-39973625D02*
X31290000Y-39973625D01*
X117710000Y-39973625D02*
X140597672Y-39973625D01*
X24939081Y-40176825D02*
X31290000Y-40176825D01*
X117710000Y-40176825D02*
X140594792Y-40176825D01*
X24926844Y-40380025D02*
X31290000Y-40380025D01*
X117710000Y-40380025D02*
X140591913Y-40380025D01*
X24914607Y-40583225D02*
X31290000Y-40583225D01*
X117710000Y-40583225D02*
X140589033Y-40583225D01*
X24902370Y-40786425D02*
X31290000Y-40786425D01*
X117710000Y-40786425D02*
X140586154Y-40786425D01*
X24890133Y-40989625D02*
X31290000Y-40989625D01*
X117710000Y-40989625D02*
X140583275Y-40989625D01*
X24877896Y-41192825D02*
X31290000Y-41192825D01*
X117710000Y-41192825D02*
X140580395Y-41192825D01*
X24865659Y-41396025D02*
X31290000Y-41396025D01*
X117710000Y-41396025D02*
X140577516Y-41396025D01*
X24853421Y-41599225D02*
X31290000Y-41599225D01*
X117710000Y-41599225D02*
X140574637Y-41599225D01*
X24841184Y-41802425D02*
X31290000Y-41802425D01*
X117710000Y-41802425D02*
X140571757Y-41802425D01*
X24828947Y-42005625D02*
X31290000Y-42005625D01*
X117710000Y-42005625D02*
X140568878Y-42005625D01*
X24816710Y-42208825D02*
X31290000Y-42208825D01*
X117710000Y-42208825D02*
X140565999Y-42208825D01*
X24804473Y-42412025D02*
X31290000Y-42412025D01*
X117710000Y-42412025D02*
X140563119Y-42412025D01*
X24792236Y-42615225D02*
X31290000Y-42615225D01*
X117710000Y-42615225D02*
X140560240Y-42615225D01*
X24779999Y-42818425D02*
X31290000Y-42818425D01*
X117710000Y-42818425D02*
X140557361Y-42818425D01*
X24767762Y-43021625D02*
X31290000Y-43021625D01*
X117710000Y-43021625D02*
X140554481Y-43021625D01*
X24755525Y-43224825D02*
X31290000Y-43224825D01*
X117710000Y-43224825D02*
X140551602Y-43224825D01*
X24743288Y-43428025D02*
X31290000Y-43428025D01*
X117710000Y-43428025D02*
X140548723Y-43428025D01*
X24731051Y-43631225D02*
X31290000Y-43631225D01*
X117710000Y-43631225D02*
X140545843Y-43631225D01*
X24718814Y-43834425D02*
X31290000Y-43834425D01*
X117710000Y-43834425D02*
X140542964Y-43834425D01*
X24706577Y-44037625D02*
X31290000Y-44037625D01*
X117710000Y-44037625D02*
X140540084Y-44037625D01*
X24694339Y-44240825D02*
X31290000Y-44240825D01*
X117710000Y-44240825D02*
X140537205Y-44240825D01*
X24682102Y-44444025D02*
X31290000Y-44444025D01*
X117710000Y-44444025D02*
X140534326Y-44444025D01*
X24669865Y-44647225D02*
X31290000Y-44647225D01*
X117710000Y-44647225D02*
X140531446Y-44647225D01*
X24657628Y-44850425D02*
X31290000Y-44850425D01*
X117710000Y-44850425D02*
X140528567Y-44850425D01*
X24645391Y-45053625D02*
X31290000Y-45053625D01*
X117710000Y-45053625D02*
X140525688Y-45053625D01*
X24633154Y-45256825D02*
X31290000Y-45256825D01*
X117710000Y-45256825D02*
X140522808Y-45256825D01*
X24620917Y-45460025D02*
X31290000Y-45460025D01*
X117710000Y-45460025D02*
X140519929Y-45460025D01*
X24608680Y-45663225D02*
X31290000Y-45663225D01*
X117710000Y-45663225D02*
X140517050Y-45663225D01*
X24596443Y-45866425D02*
X31290000Y-45866425D01*
X117710000Y-45866425D02*
X140514170Y-45866425D01*
X24584206Y-46069625D02*
X31290000Y-46069625D01*
X117710000Y-46069625D02*
X140511291Y-46069625D01*
X24571969Y-46272825D02*
X31290000Y-46272825D01*
X117710000Y-46272825D02*
X140508412Y-46272825D01*
X24559732Y-46476025D02*
X31290000Y-46476025D01*
X117710000Y-46476025D02*
X140505532Y-46476025D01*
X24547494Y-46679225D02*
X31290000Y-46679225D01*
X117710000Y-46679225D02*
X140502653Y-46679225D01*
X24535257Y-46882425D02*
X31290000Y-46882425D01*
X117710000Y-46882425D02*
X140499774Y-46882425D01*
X24523020Y-47085625D02*
X31290000Y-47085625D01*
X117710000Y-47085625D02*
X140496894Y-47085625D01*
X24510783Y-47288825D02*
X31290000Y-47288825D01*
X117710000Y-47288825D02*
X140494015Y-47288825D01*
X24498546Y-47492025D02*
X31290000Y-47492025D01*
X117710000Y-47492025D02*
X140491136Y-47492025D01*
X24486309Y-47695225D02*
X31290000Y-47695225D01*
X117710000Y-47695225D02*
X140488256Y-47695225D01*
X24474072Y-47898425D02*
X31290000Y-47898425D01*
X117710000Y-47898425D02*
X140485377Y-47898425D01*
X24461835Y-48101625D02*
X31290000Y-48101625D01*
X117710000Y-48101625D02*
X140482497Y-48101625D01*
X24449598Y-48304825D02*
X31290000Y-48304825D01*
X117710000Y-48304825D02*
X140479618Y-48304825D01*
X24437361Y-48508025D02*
X31290000Y-48508025D01*
X117710000Y-48508025D02*
X140476739Y-48508025D01*
X24425124Y-48711225D02*
X31290000Y-48711225D01*
X117710000Y-48711225D02*
X140473859Y-48711225D01*
X24412887Y-48914425D02*
X31290000Y-48914425D01*
X117710000Y-48914425D02*
X140470980Y-48914425D01*
X24400649Y-49117625D02*
X31290000Y-49117625D01*
X117710000Y-49117625D02*
X140468101Y-49117625D01*
X24388412Y-49320825D02*
X31290000Y-49320825D01*
X117710000Y-49320825D02*
X140465221Y-49320825D01*
X24376175Y-49524025D02*
X31290000Y-49524025D01*
X117710000Y-49524025D02*
X140462342Y-49524025D01*
X24363938Y-49727225D02*
X31290000Y-49727225D01*
X117710000Y-49727225D02*
X140459463Y-49727225D01*
X24351701Y-49930425D02*
X31290000Y-49930425D01*
X117710000Y-49930425D02*
X140456583Y-49930425D01*
X24339464Y-50133625D02*
X31290000Y-50133625D01*
X117710000Y-50133625D02*
X140453704Y-50133625D01*
X24327227Y-50336825D02*
X31290000Y-50336825D01*
X117710000Y-50336825D02*
X140450825Y-50336825D01*
X24314990Y-50540025D02*
X31290000Y-50540025D01*
X117710000Y-50540025D02*
X140447945Y-50540025D01*
X24302753Y-50743225D02*
X31290000Y-50743225D01*
X117710000Y-50743225D02*
X140445066Y-50743225D01*
X24290516Y-50946425D02*
X31290000Y-50946425D01*
X117710000Y-50946425D02*
X140442187Y-50946425D01*
X24278279Y-51149625D02*
X31290000Y-51149625D01*
X117710000Y-51149625D02*
X140439307Y-51149625D01*
X24266042Y-51352825D02*
X31290000Y-51352825D01*
X117710000Y-51352825D02*
X140436428Y-51352825D01*
X24253805Y-51556025D02*
X31290000Y-51556025D01*
X117710000Y-51556025D02*
X140433549Y-51556025D01*
X24241567Y-51759225D02*
X31290000Y-51759225D01*
X117710000Y-51759225D02*
X140430669Y-51759225D01*
X24229330Y-51962425D02*
X31290000Y-51962425D01*
X117710000Y-51962425D02*
X140427790Y-51962425D01*
X24217093Y-52165625D02*
X31290000Y-52165625D01*
X117710000Y-52165625D02*
X140424910Y-52165625D01*
X24204856Y-52368825D02*
X31290000Y-52368825D01*
X117710000Y-52368825D02*
X140422031Y-52368825D01*
X24192619Y-52572025D02*
X31290000Y-52572025D01*
X117710000Y-52572025D02*
X140419152Y-52572025D01*
X24180382Y-52775225D02*
X31290000Y-52775225D01*
X117710000Y-52775225D02*
X140416272Y-52775225D01*
X24168145Y-52978425D02*
X31290000Y-52978425D01*
X117710000Y-52978425D02*
X140413393Y-52978425D01*
X24155908Y-53181625D02*
X31290000Y-53181625D01*
X117710000Y-53181625D02*
X140410514Y-53181625D01*
X24143671Y-53384825D02*
X31290000Y-53384825D01*
X117710000Y-53384825D02*
X140407634Y-53384825D01*
X24131434Y-53588025D02*
X31290000Y-53588025D01*
X117710000Y-53588025D02*
X140404755Y-53588025D01*
X24119197Y-53791225D02*
X31290000Y-53791225D01*
X117710000Y-53791225D02*
X140401876Y-53791225D01*
X24106960Y-53994425D02*
X31290000Y-53994425D01*
X117710000Y-53994425D02*
X140398996Y-53994425D01*
X24094722Y-54197625D02*
X31290000Y-54197625D01*
X117710000Y-54197625D02*
X140396117Y-54197625D01*
X24082485Y-54400825D02*
X31290000Y-54400825D01*
X117710000Y-54400825D02*
X140393238Y-54400825D01*
X24070248Y-54604025D02*
X31290000Y-54604025D01*
X117710000Y-54604025D02*
X140390358Y-54604025D01*
X24058011Y-54807225D02*
X31290000Y-54807225D01*
X117710000Y-54807225D02*
X140387479Y-54807225D01*
X24045774Y-55010425D02*
X31290000Y-55010425D01*
X117710000Y-55010425D02*
X140384600Y-55010425D01*
X24033537Y-55213625D02*
X31290000Y-55213625D01*
X117710000Y-55213625D02*
X140381720Y-55213625D01*
X24021300Y-55416825D02*
X31290000Y-55416825D01*
X117710000Y-55416825D02*
X140378841Y-55416825D01*
X24009063Y-55620025D02*
X31290000Y-55620025D01*
X117710000Y-55620025D02*
X140375962Y-55620025D01*
X23996826Y-55823225D02*
X31290000Y-55823225D01*
X117710000Y-55823225D02*
X140373082Y-55823225D01*
X23984589Y-56026425D02*
X31290000Y-56026425D01*
X117710000Y-56026425D02*
X140370203Y-56026425D01*
X23972352Y-56229625D02*
X31290000Y-56229625D01*
X117710000Y-56229625D02*
X140367323Y-56229625D01*
X23960115Y-56432825D02*
X31290000Y-56432825D01*
X117710000Y-56432825D02*
X140364444Y-56432825D01*
X23947877Y-56636025D02*
X31290000Y-56636025D01*
X117710000Y-56636025D02*
X140361565Y-56636025D01*
X23935640Y-56839225D02*
X31290000Y-56839225D01*
X117710000Y-56839225D02*
X140358685Y-56839225D01*
X23923403Y-57042425D02*
X31290000Y-57042425D01*
X117710000Y-57042425D02*
X140355806Y-57042425D01*
X23911166Y-57245625D02*
X31290000Y-57245625D01*
X117710000Y-57245625D02*
X140352927Y-57245625D01*
X23898929Y-57448825D02*
X31290000Y-57448825D01*
X117710000Y-57448825D02*
X140350047Y-57448825D01*
X23886692Y-57652025D02*
X31290000Y-57652025D01*
X117710000Y-57652025D02*
X140347168Y-57652025D01*
X23874455Y-57855225D02*
X31290000Y-57855225D01*
X117710000Y-57855225D02*
X140344289Y-57855225D01*
X23862218Y-58058425D02*
X31290000Y-58058425D01*
X117710000Y-58058425D02*
X140341409Y-58058425D01*
X23849981Y-58261625D02*
X31290000Y-58261625D01*
X117710000Y-58261625D02*
X140338530Y-58261625D01*
X23837744Y-58464825D02*
X31290000Y-58464825D01*
X117710000Y-58464825D02*
X140335651Y-58464825D01*
X23825507Y-58668025D02*
X31290000Y-58668025D01*
X117710000Y-58668025D02*
X140332771Y-58668025D01*
X23813270Y-58871225D02*
X31290000Y-58871225D01*
X117710000Y-58871225D02*
X140329892Y-58871225D01*
X23801032Y-59074425D02*
X31290000Y-59074425D01*
X117710000Y-59074425D02*
X140327013Y-59074425D01*
X23788795Y-59277625D02*
X31290000Y-59277625D01*
X117710000Y-59277625D02*
X140324133Y-59277625D01*
X23776558Y-59480825D02*
X31290000Y-59480825D01*
X117710000Y-59480825D02*
X140321254Y-59480825D01*
X23764321Y-59684025D02*
X31290000Y-59684025D01*
X117710000Y-59684025D02*
X140318374Y-59684025D01*
X23752084Y-59887225D02*
X31290000Y-59887225D01*
X117710000Y-59887225D02*
X140315495Y-59887225D01*
X23739847Y-60090425D02*
X31290000Y-60090425D01*
X117710000Y-60090425D02*
X140312616Y-60090425D01*
X23727610Y-60293625D02*
X31290000Y-60293625D01*
X117710000Y-60293625D02*
X140309736Y-60293625D01*
X23715373Y-60496825D02*
X31290000Y-60496825D01*
X117710000Y-60496825D02*
X140306857Y-60496825D01*
X23703136Y-60700025D02*
X31290000Y-60700025D01*
X117710000Y-60700025D02*
X140303978Y-60700025D01*
X23690899Y-60903225D02*
X31290000Y-60903225D01*
X117710000Y-60903225D02*
X140301098Y-60903225D01*
X23678662Y-61106425D02*
X31290000Y-61106425D01*
X117710000Y-61106425D02*
X140298219Y-61106425D01*
X23666425Y-61309625D02*
X31290000Y-61309625D01*
X117710000Y-61309625D02*
X140295340Y-61309625D01*
X23654188Y-61512825D02*
X31290000Y-61512825D01*
X117710000Y-61512825D02*
X140292460Y-61512825D01*
X23641950Y-61716025D02*
X31290000Y-61716025D01*
X117710000Y-61716025D02*
X140289581Y-61716025D01*
X23629713Y-61919225D02*
X31290000Y-61919225D01*
X117710000Y-61919225D02*
X140286702Y-61919225D01*
X23617476Y-62122425D02*
X31290000Y-62122425D01*
X117710000Y-62122425D02*
X140283822Y-62122425D01*
X23605239Y-62325625D02*
X31290000Y-62325625D01*
X117710000Y-62325625D02*
X140280943Y-62325625D01*
X23593002Y-62528825D02*
X31290000Y-62528825D01*
X117710000Y-62528825D02*
X140278064Y-62528825D01*
X23580765Y-62732025D02*
X31290000Y-62732025D01*
X117710000Y-62732025D02*
X140275184Y-62732025D01*
X23568528Y-62935225D02*
X31290000Y-62935225D01*
X117710000Y-62935225D02*
X140272305Y-62935225D01*
X23556291Y-63138425D02*
X31290000Y-63138425D01*
X117710000Y-63138425D02*
X140269426Y-63138425D01*
X23544054Y-63341625D02*
X31290000Y-63341625D01*
X117710000Y-63341625D02*
X140266546Y-63341625D01*
X23531817Y-63544825D02*
X31290000Y-63544825D01*
X117710000Y-63544825D02*
X140263667Y-63544825D01*
X23519580Y-63748025D02*
X31290000Y-63748025D01*
X117710000Y-63748025D02*
X140260787Y-63748025D01*
X23507343Y-63951225D02*
X31290000Y-63951225D01*
X117710000Y-63951225D02*
X140257908Y-63951225D01*
X23495105Y-64154425D02*
X31290000Y-64154425D01*
X117710000Y-64154425D02*
X140255029Y-64154425D01*
X23482868Y-64357625D02*
X31290000Y-64357625D01*
X117710000Y-64357625D02*
X140252149Y-64357625D01*
X23470631Y-64560825D02*
X31290000Y-64560825D01*
X117710000Y-64560825D02*
X140249270Y-64560825D01*
X23458394Y-64764025D02*
X31290000Y-64764025D01*
X117710000Y-64764025D02*
X140246391Y-64764025D01*
X23446157Y-64967225D02*
X31290000Y-64967225D01*
X117710000Y-64967225D02*
X140243511Y-64967225D01*
X23433920Y-65170425D02*
X31290000Y-65170425D01*
X117710000Y-65170425D02*
X140240632Y-65170425D01*
X23421683Y-65373625D02*
X31290000Y-65373625D01*
X117710000Y-65373625D02*
X140237753Y-65373625D01*
X23409446Y-65576825D02*
X31290000Y-65576825D01*
X117710000Y-65576825D02*
X140234873Y-65576825D01*
X23397209Y-65780025D02*
X31290000Y-65780025D01*
X117710000Y-65780025D02*
X140231994Y-65780025D01*
X23384972Y-65983225D02*
X31290000Y-65983225D01*
X117710000Y-65983225D02*
X140229115Y-65983225D01*
X23372735Y-66186425D02*
X31290000Y-66186425D01*
X117710000Y-66186425D02*
X140226235Y-66186425D01*
X23360498Y-66389625D02*
X31290000Y-66389625D01*
X117710000Y-66389625D02*
X140223356Y-66389625D01*
X23348260Y-66592825D02*
X31290000Y-66592825D01*
X117710000Y-66592825D02*
X140220477Y-66592825D01*
X23336023Y-66796025D02*
X31290000Y-66796025D01*
X117710000Y-66796025D02*
X140217597Y-66796025D01*
X23323786Y-66999225D02*
X31290000Y-66999225D01*
X117710000Y-66999225D02*
X140214718Y-66999225D01*
X23311549Y-67202425D02*
X31290000Y-67202425D01*
X117710000Y-67202425D02*
X140211839Y-67202425D01*
X23299312Y-67405625D02*
X31290000Y-67405625D01*
X117710000Y-67405625D02*
X140208959Y-67405625D01*
X23287075Y-67608825D02*
X31290000Y-67608825D01*
X117710000Y-67608825D02*
X140206080Y-67608825D01*
X23274838Y-67812025D02*
X31290000Y-67812025D01*
X117710000Y-67812025D02*
X140203200Y-67812025D01*
X23262601Y-68015225D02*
X31290000Y-68015225D01*
X117710000Y-68015225D02*
X140200321Y-68015225D01*
X23250364Y-68218425D02*
X31290000Y-68218425D01*
X117710000Y-68218425D02*
X140197442Y-68218425D01*
X23238127Y-68421625D02*
X31290000Y-68421625D01*
X117710000Y-68421625D02*
X140194562Y-68421625D01*
X23225890Y-68624825D02*
X31290000Y-68624825D01*
X117710000Y-68624825D02*
X140191683Y-68624825D01*
X23213653Y-68828025D02*
X31290000Y-68828025D01*
X117710000Y-68828025D02*
X140188804Y-68828025D01*
X23201416Y-69031225D02*
X31290000Y-69031225D01*
X117710000Y-69031225D02*
X140185924Y-69031225D01*
X23189178Y-69234425D02*
X31290000Y-69234425D01*
X117710000Y-69234425D02*
X140183045Y-69234425D01*
X23176941Y-69437625D02*
X31290000Y-69437625D01*
X117710000Y-69437625D02*
X140180166Y-69437625D01*
X23164704Y-69640825D02*
X31290000Y-69640825D01*
X117710000Y-69640825D02*
X140177286Y-69640825D01*
X23152467Y-69844025D02*
X31290000Y-69844025D01*
X117710000Y-69844025D02*
X140174407Y-69844025D01*
X23140230Y-70047225D02*
X31290000Y-70047225D01*
X117710000Y-70047225D02*
X140171528Y-70047225D01*
X23127993Y-70250425D02*
X31290000Y-70250425D01*
X117710000Y-70250425D02*
X140168648Y-70250425D01*
X23115756Y-70453625D02*
X31290000Y-70453625D01*
X117710000Y-70453625D02*
X140165769Y-70453625D01*
X23103519Y-70656825D02*
X31290000Y-70656825D01*
X117710000Y-70656825D02*
X140162890Y-70656825D01*
X23091282Y-70860025D02*
X31290000Y-70860025D01*
X117710000Y-70860025D02*
X140160010Y-70860025D01*
X23079045Y-71063225D02*
X31290000Y-71063225D01*
X117710000Y-71063225D02*
X140157131Y-71063225D01*
X23066808Y-71266425D02*
X31290000Y-71266425D01*
X117710000Y-71266425D02*
X140154252Y-71266425D01*
X23054571Y-71469625D02*
X31290000Y-71469625D01*
X117710000Y-71469625D02*
X140151372Y-71469625D01*
X23042333Y-71672825D02*
X31290000Y-71672825D01*
X117710000Y-71672825D02*
X140148493Y-71672825D01*
X23030096Y-71876025D02*
X31290000Y-71876025D01*
X117710000Y-71876025D02*
X140145613Y-71876025D01*
X23017859Y-72079225D02*
X31290000Y-72079225D01*
X117710000Y-72079225D02*
X140142734Y-72079225D01*
X23005622Y-72282425D02*
X31290000Y-72282425D01*
X117710000Y-72282425D02*
X140139855Y-72282425D01*
X22993385Y-72485625D02*
X31290000Y-72485625D01*
X117710000Y-72485625D02*
X140136975Y-72485625D01*
X22981148Y-72688825D02*
X31290000Y-72688825D01*
X117710000Y-72688825D02*
X140134096Y-72688825D01*
X22968911Y-72892025D02*
X31290000Y-72892025D01*
X117710000Y-72892025D02*
X140131217Y-72892025D01*
X22956674Y-73095225D02*
X31290000Y-73095225D01*
X117710000Y-73095225D02*
X140128337Y-73095225D01*
X22944437Y-73298425D02*
X31290000Y-73298425D01*
X117710000Y-73298425D02*
X140125458Y-73298425D01*
X22932200Y-73501625D02*
X31290000Y-73501625D01*
X117710000Y-73501625D02*
X140122579Y-73501625D01*
X22919963Y-73704825D02*
X31290000Y-73704825D01*
X117710000Y-73704825D02*
X140119699Y-73704825D01*
X22907726Y-73908025D02*
X31290000Y-73908025D01*
X117710000Y-73908025D02*
X140116820Y-73908025D01*
X22895488Y-74111225D02*
X31290000Y-74111225D01*
X117710000Y-74111225D02*
X140113941Y-74111225D01*
X22883251Y-74314425D02*
X31290000Y-74314425D01*
X117710000Y-74314425D02*
X140111061Y-74314425D01*
X22871014Y-74517625D02*
X31290000Y-74517625D01*
X117710000Y-74517625D02*
X140108182Y-74517625D01*
X22858777Y-74720825D02*
X31290000Y-74720825D01*
X117710000Y-74720825D02*
X140105303Y-74720825D01*
X22846540Y-74924025D02*
X31290000Y-74924025D01*
X117710000Y-74924025D02*
X140102423Y-74924025D01*
X22834303Y-75127225D02*
X31290000Y-75127225D01*
X117710000Y-75127225D02*
X140099544Y-75127225D01*
X22822066Y-75330425D02*
X31290000Y-75330425D01*
X117710000Y-75330425D02*
X140096664Y-75330425D01*
X22809829Y-75533625D02*
X31290000Y-75533625D01*
X117710000Y-75533625D02*
X140093785Y-75533625D01*
X22797592Y-75736825D02*
X31290000Y-75736825D01*
X117710000Y-75736825D02*
X140090906Y-75736825D01*
X22785355Y-75940025D02*
X31290000Y-75940025D01*
X117710000Y-75940025D02*
X140088026Y-75940025D01*
X22773118Y-76143225D02*
X31304579Y-76143225D01*
X117695420Y-76143225D02*
X140085147Y-76143225D01*
X22760881Y-76346425D02*
X31344998Y-76346425D01*
X117655001Y-76346425D02*
X140082268Y-76346425D01*
X22748643Y-76549625D02*
X31385416Y-76549625D01*
X117614583Y-76549625D02*
X140079388Y-76549625D01*
X22736406Y-76752825D02*
X31425835Y-76752825D01*
X117574164Y-76752825D02*
X140076509Y-76752825D01*
X22724169Y-76956025D02*
X31466254Y-76956025D01*
X117533745Y-76956025D02*
X140073630Y-76956025D01*
X22711932Y-77159225D02*
X31506673Y-77159225D01*
X117493326Y-77159225D02*
X140070750Y-77159225D01*
X22699695Y-77362425D02*
X31547092Y-77362425D01*
X117452907Y-77362425D02*
X140067871Y-77362425D01*
X22687458Y-77565625D02*
X31587511Y-77565625D01*
X117412488Y-77565625D02*
X140064992Y-77565625D01*
X22675221Y-77768825D02*
X31627930Y-77768825D01*
X117372069Y-77768825D02*
X140062112Y-77768825D01*
X22662984Y-77972025D02*
X31668349Y-77972025D01*
X117331650Y-77972025D02*
X140059233Y-77972025D01*
X22650747Y-78175225D02*
X31735314Y-78175225D01*
X117264685Y-78175225D02*
X140056354Y-78175225D01*
X22638510Y-78378425D02*
X31837401Y-78378425D01*
X117162599Y-78378425D02*
X140053474Y-78378425D01*
X22626273Y-78581625D02*
X31973174Y-78581625D01*
X117026825Y-78581625D02*
X140050595Y-78581625D01*
X22614036Y-78784825D02*
X32108948Y-78784825D01*
X116891051Y-78784825D02*
X140047716Y-78784825D01*
X22601799Y-78988025D02*
X32244722Y-78988025D01*
X116755277Y-78988025D02*
X140044836Y-78988025D01*
X22589561Y-79191225D02*
X32380496Y-79191225D01*
X116619503Y-79191225D02*
X140041957Y-79191225D01*
X22577324Y-79394425D02*
X32516270Y-79394425D01*
X116483729Y-79394425D02*
X140039077Y-79394425D01*
X22565087Y-79597625D02*
X32652044Y-79597625D01*
X116347955Y-79597625D02*
X140036198Y-79597625D01*
X22552850Y-79800825D02*
X32787818Y-79800825D01*
X116212181Y-79800825D02*
X140033319Y-79800825D01*
X22540613Y-80004025D02*
X32948159Y-80004025D01*
X116051841Y-80004025D02*
X140030439Y-80004025D01*
X22528376Y-80207225D02*
X33191756Y-80207225D01*
X115808243Y-80207225D02*
X140027560Y-80207225D01*
X22516139Y-80410425D02*
X33495866Y-80410425D01*
X115504132Y-80410425D02*
X140024681Y-80410425D01*
X22503902Y-80613625D02*
X33799976Y-80613625D01*
X115200022Y-80613625D02*
X140021801Y-80613625D01*
X22491665Y-80816825D02*
X34104086Y-80816825D01*
X114895912Y-80816825D02*
X140018922Y-80816825D01*
X22479428Y-81020025D02*
X34408196Y-81020025D01*
X114591802Y-81020025D02*
X140016043Y-81020025D01*
X22467191Y-81223225D02*
X34724679Y-81223225D01*
X114275318Y-81223225D02*
X140013163Y-81223225D01*
X22454954Y-81426425D02*
X35504440Y-81426425D01*
X113495559Y-81426425D02*
X140010284Y-81426425D01*
X22442716Y-81629625D02*
X36525996Y-81629625D01*
X112474003Y-81629625D02*
X140007405Y-81629625D01*
X22430479Y-81832825D02*
X40916213Y-81832825D01*
X90327000Y-81832825D02*
X140004525Y-81832825D01*
X22418242Y-82036025D02*
X40916509Y-82036025D01*
X90327000Y-82036025D02*
X140001646Y-82036025D01*
X22406005Y-82239225D02*
X40916805Y-82239225D01*
X90327000Y-82239225D02*
X139998767Y-82239225D01*
X22393768Y-82442425D02*
X40917102Y-82442425D01*
X90327000Y-82442425D02*
X139995887Y-82442425D01*
X22381531Y-82645625D02*
X40917398Y-82645625D01*
X90327000Y-82645625D02*
X139993008Y-82645625D01*
X22369294Y-82848825D02*
X40917694Y-82848825D01*
X90327000Y-82848825D02*
X139990129Y-82848825D01*
X22357057Y-83052025D02*
X40917991Y-83052025D01*
X90327000Y-83052025D02*
X139987249Y-83052025D01*
X22344820Y-83255225D02*
X40918287Y-83255225D01*
X90327000Y-83255225D02*
X139984370Y-83255225D01*
X22332583Y-83458425D02*
X40918583Y-83458425D01*
X90327000Y-83458425D02*
X139981490Y-83458425D01*
X22320346Y-83661625D02*
X40918880Y-83661625D01*
X90327000Y-83661625D02*
X139978611Y-83661625D01*
X22308109Y-83864825D02*
X40926314Y-83864825D01*
X90306461Y-83864825D02*
X139975732Y-83864825D01*
X22295871Y-84068025D02*
X139972852Y-84068025D01*
X22283634Y-84271225D02*
X139969973Y-84271225D01*
X22271397Y-84474425D02*
X139967094Y-84474425D01*
X22259160Y-84677625D02*
X139964214Y-84677625D01*
X22246923Y-84880825D02*
X138903988Y-84880825D01*
X22234686Y-85084025D02*
X127476407Y-85084025D01*
X22222449Y-85287225D02*
X116048826Y-85287225D01*
X22210212Y-85490425D02*
X104621244Y-85490425D01*
X22197975Y-85693625D02*
X93193663Y-85693625D01*
X22185738Y-85896825D02*
X81766082Y-85896825D01*
X22173501Y-86100025D02*
X70338501Y-86100025D01*
X22161264Y-86303225D02*
X58910920Y-86303225D01*
X22149027Y-86506425D02*
X47483339Y-86506425D01*
X22136789Y-86709625D02*
X36055758Y-86709625D01*
X22124552Y-86912825D02*
X24628176Y-86912825D01*
X37069930Y-26710000D02*
X111930069Y-26710000D01*
X36048374Y-26913200D02*
X112951625Y-26913200D01*
X35263349Y-27116400D02*
X113736650Y-27116400D01*
X34959239Y-27319600D02*
X114040760Y-27319600D01*
X34655128Y-27522800D02*
X114344870Y-27522800D01*
X34351018Y-27726000D02*
X114648980Y-27726000D01*
X34046907Y-27929200D02*
X114953090Y-27929200D01*
X33872076Y-28132400D02*
X115127923Y-28132400D01*
X33736302Y-28335600D02*
X115263697Y-28335600D01*
X33600528Y-28538800D02*
X115399471Y-28538800D01*
X33464754Y-28742000D02*
X115535245Y-28742000D01*
X33328980Y-28945200D02*
X115671019Y-28945200D01*
X33193206Y-29148400D02*
X115806793Y-29148400D01*
X33057432Y-29351600D02*
X115942567Y-29351600D01*
X33011377Y-29554800D02*
X115988622Y-29554800D01*
X32970959Y-29758000D02*
X116029040Y-29758000D01*
X32930540Y-29961200D02*
X116069459Y-29961200D01*
X32890121Y-30164400D02*
X116109878Y-30164400D01*
X32849702Y-30367600D02*
X116150297Y-30367600D01*
X32809283Y-30570800D02*
X116190716Y-30570800D01*
X32768864Y-30774000D02*
X116231135Y-30774000D01*
X32728445Y-30977200D02*
X116271554Y-30977200D01*
X32710000Y-31180400D02*
X116290000Y-31180400D01*
X32710000Y-31383600D02*
X116290000Y-31383600D01*
X32710000Y-31586800D02*
X116290000Y-31586800D01*
X32710000Y-31790000D02*
X116290000Y-31790000D01*
X32710000Y-31993200D02*
X116290000Y-31993200D01*
X32710000Y-32196400D02*
X116290000Y-32196400D01*
X32710000Y-32399600D02*
X116290000Y-32399600D01*
X32710000Y-32602800D02*
X116290000Y-32602800D01*
X32710000Y-32806000D02*
X116290000Y-32806000D01*
X32710000Y-33009200D02*
X116290000Y-33009200D01*
X32710000Y-33212400D02*
X104259261Y-33212400D01*
X105094827Y-33212400D02*
X116290000Y-33212400D01*
X32710000Y-33415600D02*
X103768691Y-33415600D01*
X105608596Y-33415600D02*
X116290000Y-33415600D01*
X32710000Y-33618800D02*
X103508962Y-33618800D01*
X105847967Y-33618800D02*
X116290000Y-33618800D01*
X32710000Y-33822000D02*
X103328781Y-33822000D01*
X106058907Y-33822000D02*
X116290000Y-33822000D01*
X32710000Y-34025200D02*
X103157944Y-34025200D01*
X106222954Y-34025200D02*
X116290000Y-34025200D01*
X32710000Y-34228400D02*
X103081195Y-34228400D01*
X106307122Y-34228400D02*
X116290000Y-34228400D01*
X32710000Y-34431600D02*
X98883200Y-34431600D01*
X100441984Y-34431600D02*
X102999560Y-34431600D01*
X106391290Y-34431600D02*
X116290000Y-34431600D01*
X32710000Y-34634800D02*
X98556447Y-34634800D01*
X100784889Y-34634800D02*
X102927697Y-34634800D01*
X106450274Y-34634800D02*
X116290000Y-34634800D01*
X32710000Y-34838000D02*
X98352893Y-34838000D01*
X100979627Y-34838000D02*
X102925587Y-34838000D01*
X106450097Y-34838000D02*
X116290000Y-34838000D01*
X32710000Y-35041200D02*
X98154887Y-35041200D01*
X101145759Y-35041200D02*
X102919530Y-35041200D01*
X106453756Y-35041200D02*
X116290000Y-35041200D01*
X32710000Y-35244400D02*
X97990273Y-35244400D01*
X101276884Y-35244400D02*
X102905517Y-35244400D01*
X106460159Y-35244400D02*
X116290000Y-35244400D01*
X32710000Y-35447600D02*
X97807950Y-35447600D01*
X101328866Y-35447600D02*
X102891503Y-35447600D01*
X106419862Y-35447600D02*
X116290000Y-35447600D01*
X32710000Y-35650800D02*
X97625627Y-35650800D01*
X101398904Y-35650800D02*
X102908727Y-35650800D01*
X106405849Y-35650800D02*
X116290000Y-35650800D01*
X32710000Y-35854000D02*
X97443304Y-35854000D01*
X101432831Y-35854000D02*
X102943324Y-35854000D01*
X106370369Y-35854000D02*
X116290000Y-35854000D01*
X32710000Y-36057200D02*
X97260980Y-36057200D01*
X101420035Y-36057200D02*
X102969372Y-36057200D01*
X106303649Y-36057200D02*
X116290000Y-36057200D01*
X32710000Y-36260400D02*
X97078657Y-36260400D01*
X101418151Y-36260400D02*
X103053340Y-36260400D01*
X106248460Y-36260400D02*
X116290000Y-36260400D01*
X32710000Y-36463600D02*
X96918021Y-36463600D01*
X101375652Y-36463600D02*
X103169736Y-36463600D01*
X106138284Y-36463600D02*
X116290000Y-36463600D01*
X32710000Y-36666800D02*
X96809138Y-36666800D01*
X101291319Y-36666800D02*
X103286133Y-36666800D01*
X105981261Y-36666800D02*
X116290000Y-36666800D01*
X32710000Y-36870000D02*
X96688725Y-36870000D01*
X101214085Y-36870000D02*
X103506380Y-36870000D01*
X105824238Y-36870000D02*
X116290000Y-36870000D01*
X32710000Y-37073200D02*
X96625762Y-37073200D01*
X101096167Y-37073200D02*
X103769337Y-37073200D01*
X105496027Y-37073200D02*
X116290000Y-37073200D01*
X32710000Y-37276400D02*
X96596660Y-37276400D01*
X100896270Y-37276400D02*
X104343860Y-37276400D01*
X104912365Y-37276400D02*
X116290000Y-37276400D01*
X32710000Y-37479600D02*
X96567558Y-37479600D01*
X100713946Y-37479600D02*
X101426683Y-37479600D01*
X102863161Y-37479600D02*
X116290000Y-37479600D01*
X32710000Y-37682800D02*
X96561467Y-37682800D01*
X100531623Y-37682800D02*
X100936115Y-37682800D01*
X103357856Y-37682800D02*
X116290000Y-37682800D01*
X32710000Y-37886000D02*
X96613449Y-37886000D01*
X100349299Y-37886000D02*
X100576671Y-37886000D01*
X103724324Y-37886000D02*
X116290000Y-37886000D01*
X32710000Y-38089200D02*
X96665432Y-38089200D01*
X100166976Y-38089200D02*
X100373117Y-38089200D01*
X103927170Y-38089200D02*
X116290000Y-38089200D01*
X32710000Y-38292400D02*
X96718388Y-38292400D01*
X99984653Y-38292400D02*
X100169562Y-38292400D01*
X104130016Y-38292400D02*
X116290000Y-38292400D01*
X32710000Y-38495600D02*
X96870676Y-38495600D01*
X99802330Y-38495600D02*
X99966007Y-38495600D01*
X104332862Y-38495600D02*
X116290000Y-38495600D01*
X32710000Y-38698800D02*
X96400707Y-38698800D01*
X99620007Y-38698800D02*
X99852721Y-38698800D01*
X104448607Y-38698800D02*
X106560707Y-38698800D01*
X107949905Y-38698800D02*
X116290000Y-38698800D01*
X32710000Y-38902000D02*
X96073319Y-38902000D01*
X99351740Y-38902000D02*
X99770481Y-38902000D01*
X104532775Y-38902000D02*
X106233319Y-38902000D01*
X108203517Y-38902000D02*
X116290000Y-38902000D01*
X32710000Y-39105200D02*
X95893199Y-39105200D01*
X99080607Y-39105200D02*
X99687481Y-39105200D01*
X104616944Y-39105200D02*
X106053199Y-39105200D01*
X108420364Y-39105200D02*
X116290000Y-39105200D01*
X32710000Y-39308400D02*
X95740190Y-39308400D01*
X98379588Y-39308400D02*
X99603105Y-39308400D01*
X104701112Y-39308400D02*
X105900190Y-39308400D01*
X108539588Y-39308400D02*
X116290000Y-39308400D01*
X32710000Y-39511600D02*
X95664796Y-39511600D01*
X98477891Y-39511600D02*
X99521552Y-39511600D01*
X104779353Y-39511600D02*
X105824796Y-39511600D01*
X108637891Y-39511600D02*
X116290000Y-39511600D01*
X32710000Y-39714800D02*
X95591974Y-39714800D01*
X98547509Y-39714800D02*
X99518450Y-39714800D01*
X104779175Y-39714800D02*
X105751974Y-39714800D01*
X108707509Y-39714800D02*
X116290000Y-39714800D01*
X32710000Y-39918000D02*
X95584197Y-39918000D01*
X98555998Y-39918000D02*
X99520102Y-39918000D01*
X104778998Y-39918000D02*
X105744197Y-39918000D01*
X108715998Y-39918000D02*
X116290000Y-39918000D01*
X32710000Y-40121200D02*
X95584020Y-40121200D01*
X98555821Y-40121200D02*
X99521020Y-40121200D01*
X104779729Y-40121200D02*
X105744020Y-40121200D01*
X108715821Y-40121200D02*
X116290000Y-40121200D01*
X32710000Y-40324400D02*
X95583896Y-40324400D01*
X98555644Y-40324400D02*
X99520843Y-40324400D01*
X104781381Y-40324400D02*
X105743896Y-40324400D01*
X108715644Y-40324400D02*
X116290000Y-40324400D01*
X32710000Y-40527600D02*
X95650976Y-40527600D01*
X98482529Y-40527600D02*
X99520666Y-40527600D01*
X104783033Y-40527600D02*
X105810976Y-40527600D01*
X108642529Y-40527600D02*
X116290000Y-40527600D01*
X32710000Y-40730800D02*
X95751818Y-40730800D01*
X98410970Y-40730800D02*
X99590273Y-40730800D01*
X104705532Y-40730800D02*
X105911818Y-40730800D01*
X108570970Y-40730800D02*
X116290000Y-40730800D01*
X32710000Y-40934000D02*
X95868503Y-40934000D01*
X98267637Y-40934000D02*
X99674441Y-40934000D01*
X104621156Y-40934000D02*
X106028503Y-40934000D01*
X108427637Y-40934000D02*
X116290000Y-40934000D01*
X32710000Y-41137200D02*
X96075720Y-41137200D01*
X98083730Y-41137200D02*
X99758609Y-41137200D01*
X104537937Y-41137200D02*
X106235720Y-41137200D01*
X108243730Y-41137200D02*
X116290000Y-41137200D01*
X32710000Y-41340400D02*
X96324720Y-41340400D01*
X97789633Y-41340400D02*
X99842777Y-41340400D01*
X104455698Y-41340400D02*
X106484720Y-41340400D01*
X107949633Y-41340400D02*
X116290000Y-41340400D01*
X32710000Y-41543600D02*
X99946375Y-41543600D01*
X104354829Y-41543600D02*
X116290000Y-41543600D01*
X32710000Y-41746800D02*
X100149220Y-41746800D01*
X104151274Y-41746800D02*
X116290000Y-41746800D01*
X32710000Y-41950000D02*
X100352066Y-41950000D01*
X103947720Y-41950000D02*
X116290000Y-41950000D01*
X32710000Y-42153200D02*
X100554912Y-42153200D01*
X103744165Y-42153200D02*
X116290000Y-42153200D01*
X32710000Y-42356400D02*
X100890750Y-42356400D01*
X103414101Y-42356400D02*
X116290000Y-42356400D01*
X32710000Y-42559600D02*
X101386747Y-42559600D01*
X102923532Y-42559600D02*
X116290000Y-42559600D01*
X32710000Y-42762800D02*
X116290000Y-42762800D01*
X32710000Y-42966000D02*
X116290000Y-42966000D01*
X32710000Y-43169200D02*
X116290000Y-43169200D01*
X32710000Y-43372400D02*
X116290000Y-43372400D01*
X32710000Y-43575600D02*
X116290000Y-43575600D01*
X32710000Y-43778800D02*
X116290000Y-43778800D01*
X32710000Y-43982000D02*
X116290000Y-43982000D01*
X32710000Y-44185200D02*
X116290000Y-44185200D01*
X32710000Y-44388400D02*
X116290000Y-44388400D01*
X32710000Y-44591600D02*
X116290000Y-44591600D01*
X32710000Y-44794800D02*
X116290000Y-44794800D01*
X32710000Y-44998000D02*
X116290000Y-44998000D01*
X32710000Y-45201200D02*
X116290000Y-45201200D01*
X32710000Y-45404400D02*
X116290000Y-45404400D01*
X32710000Y-45607600D02*
X116290000Y-45607600D01*
X32710000Y-45810800D02*
X116290000Y-45810800D01*
X32710000Y-46014000D02*
X116290000Y-46014000D01*
X32710000Y-46217200D02*
X116290000Y-46217200D01*
X32710000Y-46420400D02*
X116290000Y-46420400D01*
X32710000Y-46623600D02*
X116290000Y-46623600D01*
X32710000Y-46826800D02*
X116290000Y-46826800D01*
X32710000Y-47030000D02*
X116290000Y-47030000D01*
X32710000Y-47233200D02*
X116290000Y-47233200D01*
X32710000Y-47436400D02*
X116290000Y-47436400D01*
X32710000Y-47639600D02*
X116290000Y-47639600D01*
X32710000Y-47842800D02*
X116290000Y-47842800D01*
X32710000Y-48046000D02*
X116290000Y-48046000D01*
X32710000Y-48249200D02*
X116290000Y-48249200D01*
X32710000Y-48452400D02*
X116290000Y-48452400D01*
X32710000Y-48655600D02*
X116290000Y-48655600D01*
X32710000Y-48858800D02*
X116290000Y-48858800D01*
X32710000Y-49062000D02*
X116290000Y-49062000D01*
X32710000Y-49265200D02*
X116290000Y-49265200D01*
X32710000Y-49468400D02*
X116290000Y-49468400D01*
X32710000Y-49671600D02*
X116290000Y-49671600D01*
X32710000Y-49874800D02*
X116290000Y-49874800D01*
X32710000Y-50078000D02*
X116290000Y-50078000D01*
X32710000Y-50281200D02*
X116290000Y-50281200D01*
X32710000Y-50484400D02*
X116290000Y-50484400D01*
X32710000Y-50687600D02*
X116290000Y-50687600D01*
X32710000Y-50890800D02*
X116290000Y-50890800D01*
X32710000Y-51094000D02*
X116290000Y-51094000D01*
X32710000Y-51297200D02*
X116290000Y-51297200D01*
X32710000Y-51500400D02*
X116290000Y-51500400D01*
X32710000Y-51703600D02*
X116290000Y-51703600D01*
X32710000Y-51906800D02*
X116290000Y-51906800D01*
X32710000Y-52110000D02*
X40910698Y-52110000D01*
X90288918Y-52110000D02*
X116290000Y-52110000D01*
X32710000Y-52313200D02*
X40873164Y-52313200D01*
X90327000Y-52313200D02*
X116290000Y-52313200D01*
X32710000Y-52516400D02*
X40873461Y-52516400D01*
X90327000Y-52516400D02*
X116290000Y-52516400D01*
X32710000Y-52719600D02*
X40873757Y-52719600D01*
X90327000Y-52719600D02*
X116290000Y-52719600D01*
X32710000Y-52922800D02*
X40874053Y-52922800D01*
X90327000Y-52922800D02*
X116290000Y-52922800D01*
X32710000Y-53126000D02*
X40874350Y-53126000D01*
X90327000Y-53126000D02*
X116290000Y-53126000D01*
X32710000Y-53329200D02*
X40874646Y-53329200D01*
X90327000Y-53329200D02*
X116290000Y-53329200D01*
X32710000Y-53532400D02*
X40874942Y-53532400D01*
X90327000Y-53532400D02*
X116290000Y-53532400D01*
X32710000Y-53735600D02*
X40875239Y-53735600D01*
X90327000Y-53735600D02*
X116290000Y-53735600D01*
X32710000Y-53938800D02*
X40875535Y-53938800D01*
X90327000Y-53938800D02*
X116290000Y-53938800D01*
X32710000Y-54142000D02*
X40875831Y-54142000D01*
X90327000Y-54142000D02*
X116290000Y-54142000D01*
X32710000Y-54345200D02*
X40876128Y-54345200D01*
X90327000Y-54345200D02*
X116290000Y-54345200D01*
X32710000Y-54548400D02*
X40876424Y-54548400D01*
X90327000Y-54548400D02*
X116290000Y-54548400D01*
X32710000Y-54751600D02*
X40876720Y-54751600D01*
X90327000Y-54751600D02*
X116290000Y-54751600D01*
X32710000Y-54954800D02*
X40877017Y-54954800D01*
X90327000Y-54954800D02*
X116290000Y-54954800D01*
X32710000Y-55158000D02*
X40877313Y-55158000D01*
X90327000Y-55158000D02*
X116290000Y-55158000D01*
X32710000Y-55361200D02*
X40877609Y-55361200D01*
X90327000Y-55361200D02*
X116290000Y-55361200D01*
X32710000Y-55564400D02*
X40877905Y-55564400D01*
X90327000Y-55564400D02*
X116290000Y-55564400D01*
X32710000Y-55767600D02*
X40878202Y-55767600D01*
X90327000Y-55767600D02*
X116290000Y-55767600D01*
X32710000Y-55970800D02*
X40878498Y-55970800D01*
X90327000Y-55970800D02*
X116290000Y-55970800D01*
X32710000Y-56174000D02*
X40878794Y-56174000D01*
X90327000Y-56174000D02*
X116290000Y-56174000D01*
X32710000Y-56377200D02*
X40879091Y-56377200D01*
X90327000Y-56377200D02*
X116290000Y-56377200D01*
X32710000Y-56580400D02*
X40879387Y-56580400D01*
X90327000Y-56580400D02*
X116290000Y-56580400D01*
X32710000Y-56783600D02*
X40879683Y-56783600D01*
X90327000Y-56783600D02*
X116290000Y-56783600D01*
X32710000Y-56986800D02*
X40879980Y-56986800D01*
X90327000Y-56986800D02*
X116290000Y-56986800D01*
X32710000Y-57190000D02*
X40880276Y-57190000D01*
X90327000Y-57190000D02*
X116290000Y-57190000D01*
X32710000Y-57393200D02*
X40880572Y-57393200D01*
X90327000Y-57393200D02*
X116290000Y-57393200D01*
X32710000Y-57596400D02*
X40880869Y-57596400D01*
X90327000Y-57596400D02*
X116290000Y-57596400D01*
X32710000Y-57799600D02*
X40881165Y-57799600D01*
X90327000Y-57799600D02*
X116290000Y-57799600D01*
X32710000Y-58002800D02*
X40881461Y-58002800D01*
X90327000Y-58002800D02*
X116290000Y-58002800D01*
X32710000Y-58206000D02*
X40881758Y-58206000D01*
X90327000Y-58206000D02*
X116290000Y-58206000D01*
X32710000Y-58409200D02*
X40882054Y-58409200D01*
X90327000Y-58409200D02*
X116290000Y-58409200D01*
X32710000Y-58612400D02*
X40882350Y-58612400D01*
X90327000Y-58612400D02*
X116290000Y-58612400D01*
X32710000Y-58815600D02*
X40882647Y-58815600D01*
X90327000Y-58815600D02*
X116290000Y-58815600D01*
X32710000Y-59018800D02*
X40882943Y-59018800D01*
X90327000Y-59018800D02*
X116290000Y-59018800D01*
X32710000Y-59222000D02*
X40883239Y-59222000D01*
X90327000Y-59222000D02*
X116290000Y-59222000D01*
X32710000Y-59425200D02*
X40883536Y-59425200D01*
X90327000Y-59425200D02*
X116290000Y-59425200D01*
X32710000Y-59628400D02*
X40883832Y-59628400D01*
X90327000Y-59628400D02*
X116290000Y-59628400D01*
X32710000Y-59831600D02*
X40884128Y-59831600D01*
X90327000Y-59831600D02*
X116290000Y-59831600D01*
X32710000Y-60034800D02*
X40884425Y-60034800D01*
X90327000Y-60034800D02*
X116290000Y-60034800D01*
X32710000Y-60238000D02*
X40884721Y-60238000D01*
X90327000Y-60238000D02*
X116290000Y-60238000D01*
X32710000Y-60441200D02*
X40885017Y-60441200D01*
X90327000Y-60441200D02*
X116290000Y-60441200D01*
X32710000Y-60644400D02*
X40885314Y-60644400D01*
X90327000Y-60644400D02*
X116290000Y-60644400D01*
X32710000Y-60847600D02*
X40885610Y-60847600D01*
X90327000Y-60847600D02*
X116290000Y-60847600D01*
X32710000Y-61050800D02*
X40885906Y-61050800D01*
X90327000Y-61050800D02*
X116290000Y-61050800D01*
X32710000Y-61254000D02*
X40886203Y-61254000D01*
X90327000Y-61254000D02*
X116290000Y-61254000D01*
X32710000Y-61457200D02*
X40886499Y-61457200D01*
X90327000Y-61457200D02*
X116290000Y-61457200D01*
X32710000Y-61660400D02*
X40886795Y-61660400D01*
X90327000Y-61660400D02*
X116290000Y-61660400D01*
X32710000Y-61863600D02*
X40887092Y-61863600D01*
X90327000Y-61863600D02*
X116290000Y-61863600D01*
X32710000Y-62066800D02*
X40887388Y-62066800D01*
X90327000Y-62066800D02*
X116290000Y-62066800D01*
X32710000Y-62270000D02*
X40887684Y-62270000D01*
X90327000Y-62270000D02*
X116290000Y-62270000D01*
X32710000Y-62473200D02*
X40887980Y-62473200D01*
X90327000Y-62473200D02*
X116290000Y-62473200D01*
X32710000Y-62676400D02*
X40888277Y-62676400D01*
X90327000Y-62676400D02*
X116290000Y-62676400D01*
X32710000Y-62879600D02*
X40888573Y-62879600D01*
X90327000Y-62879600D02*
X116290000Y-62879600D01*
X32710000Y-63082800D02*
X40888869Y-63082800D01*
X90327000Y-63082800D02*
X90508614Y-63082800D01*
X91691109Y-63082800D02*
X116290000Y-63082800D01*
X32710000Y-63286000D02*
X40889166Y-63286000D01*
X92011791Y-63286000D02*
X116290000Y-63286000D01*
X32710000Y-63489200D02*
X40889462Y-63489200D01*
X97515102Y-63489200D02*
X116290000Y-63489200D01*
X32710000Y-63692400D02*
X40889758Y-63692400D01*
X97814685Y-63692400D02*
X116290000Y-63692400D01*
X32710000Y-63895600D02*
X40890055Y-63895600D01*
X97973918Y-63895600D02*
X116290000Y-63895600D01*
X32710000Y-64098800D02*
X40890351Y-64098800D01*
X98057878Y-64098800D02*
X116290000Y-64098800D01*
X32710000Y-64302000D02*
X40890647Y-64302000D01*
X98085042Y-64302000D02*
X116290000Y-64302000D01*
X32710000Y-64505200D02*
X40890944Y-64505200D01*
X98084865Y-64505200D02*
X116290000Y-64505200D01*
X32710000Y-64708400D02*
X40891240Y-64708400D01*
X98013582Y-64708400D02*
X116290000Y-64708400D01*
X32710000Y-64911600D02*
X40891536Y-64911600D01*
X97910864Y-64911600D02*
X116290000Y-64911600D01*
X32710000Y-65114800D02*
X40891833Y-65114800D01*
X97737220Y-65114800D02*
X116290000Y-65114800D01*
X32710000Y-65318000D02*
X40892129Y-65318000D01*
X97940066Y-65318000D02*
X116290000Y-65318000D01*
X32710000Y-65521200D02*
X40892425Y-65521200D01*
X98025815Y-65521200D02*
X116290000Y-65521200D01*
X32710000Y-65724400D02*
X40892722Y-65724400D01*
X98085110Y-65724400D02*
X116290000Y-65724400D01*
X32710000Y-65927600D02*
X40893018Y-65927600D01*
X98084933Y-65927600D02*
X116290000Y-65927600D01*
X32710000Y-66130800D02*
X40893314Y-66130800D01*
X98045805Y-66130800D02*
X116290000Y-66130800D01*
X32710000Y-66334000D02*
X40893611Y-66334000D01*
X97961428Y-66334000D02*
X116290000Y-66334000D01*
X32710000Y-66537200D02*
X40893907Y-66537200D01*
X97785044Y-66537200D02*
X116290000Y-66537200D01*
X32710000Y-66740400D02*
X40894203Y-66740400D01*
X97480914Y-66740400D02*
X116290000Y-66740400D01*
X32710000Y-66943600D02*
X40894500Y-66943600D01*
X97277714Y-66943600D02*
X116290000Y-66943600D01*
X32710000Y-67146800D02*
X40894796Y-67146800D01*
X96982074Y-67146800D02*
X116290000Y-67146800D01*
X32710000Y-67350000D02*
X40895092Y-67350000D01*
X92075636Y-67350000D02*
X116290000Y-67350000D01*
X32710000Y-67553200D02*
X40895389Y-67553200D01*
X90327000Y-67553200D02*
X90354762Y-67553200D01*
X91846279Y-67553200D02*
X116290000Y-67553200D01*
X32710000Y-67756400D02*
X40895685Y-67756400D01*
X90327000Y-67756400D02*
X116290000Y-67756400D01*
X32710000Y-67959600D02*
X40895981Y-67959600D01*
X90327000Y-67959600D02*
X116290000Y-67959600D01*
X32710000Y-68162800D02*
X40896278Y-68162800D01*
X90327000Y-68162800D02*
X116290000Y-68162800D01*
X32710000Y-68366000D02*
X40896574Y-68366000D01*
X90327000Y-68366000D02*
X116290000Y-68366000D01*
X32710000Y-68569200D02*
X40896870Y-68569200D01*
X90327000Y-68569200D02*
X116290000Y-68569200D01*
X32710000Y-68772400D02*
X40897167Y-68772400D01*
X90327000Y-68772400D02*
X116290000Y-68772400D01*
X32710000Y-68975600D02*
X40897463Y-68975600D01*
X90327000Y-68975600D02*
X116290000Y-68975600D01*
X32710000Y-69178800D02*
X40897759Y-69178800D01*
X90327000Y-69178800D02*
X116290000Y-69178800D01*
X32710000Y-69382000D02*
X40898056Y-69382000D01*
X90327000Y-69382000D02*
X116290000Y-69382000D01*
X32710000Y-69585200D02*
X40898352Y-69585200D01*
X90327000Y-69585200D02*
X116290000Y-69585200D01*
X32710000Y-69788400D02*
X40898648Y-69788400D01*
X90327000Y-69788400D02*
X116290000Y-69788400D01*
X32710000Y-69991600D02*
X40898944Y-69991600D01*
X90327000Y-69991600D02*
X116290000Y-69991600D01*
X32710000Y-70194800D02*
X40899241Y-70194800D01*
X90327000Y-70194800D02*
X116290000Y-70194800D01*
X32710000Y-70398000D02*
X40899537Y-70398000D01*
X90327000Y-70398000D02*
X116290000Y-70398000D01*
X32710000Y-70601200D02*
X40899833Y-70601200D01*
X90327000Y-70601200D02*
X116290000Y-70601200D01*
X32710000Y-70804400D02*
X40900130Y-70804400D01*
X90327000Y-70804400D02*
X116290000Y-70804400D01*
X32710000Y-71007600D02*
X40900426Y-71007600D01*
X90327000Y-71007600D02*
X116290000Y-71007600D01*
X32710000Y-71210800D02*
X40900722Y-71210800D01*
X90327000Y-71210800D02*
X116290000Y-71210800D01*
X32710000Y-71414000D02*
X40901019Y-71414000D01*
X90327000Y-71414000D02*
X116290000Y-71414000D01*
X32710000Y-71617200D02*
X40901315Y-71617200D01*
X90327000Y-71617200D02*
X116290000Y-71617200D01*
X32710000Y-71820400D02*
X40901611Y-71820400D01*
X90327000Y-71820400D02*
X116290000Y-71820400D01*
X32710000Y-72023600D02*
X40901908Y-72023600D01*
X90327000Y-72023600D02*
X116290000Y-72023600D01*
X32710000Y-72226800D02*
X40902204Y-72226800D01*
X90327000Y-72226800D02*
X116290000Y-72226800D01*
X32710000Y-72430000D02*
X40902500Y-72430000D01*
X90327000Y-72430000D02*
X116290000Y-72430000D01*
X32710000Y-72633200D02*
X40902797Y-72633200D01*
X90327000Y-72633200D02*
X116290000Y-72633200D01*
X32710000Y-72836400D02*
X40903093Y-72836400D01*
X90327000Y-72836400D02*
X116290000Y-72836400D01*
X32710000Y-73039600D02*
X40903389Y-73039600D01*
X90327000Y-73039600D02*
X116290000Y-73039600D01*
X32710000Y-73242800D02*
X40903686Y-73242800D01*
X90327000Y-73242800D02*
X116290000Y-73242800D01*
X32710000Y-73446000D02*
X40903982Y-73446000D01*
X90327000Y-73446000D02*
X116290000Y-73446000D01*
X32710000Y-73649200D02*
X40904278Y-73649200D01*
X90327000Y-73649200D02*
X116290000Y-73649200D01*
X32710000Y-73852400D02*
X40904575Y-73852400D01*
X90327000Y-73852400D02*
X116290000Y-73852400D01*
X32710000Y-74055600D02*
X40904871Y-74055600D01*
X90327000Y-74055600D02*
X116290000Y-74055600D01*
X32710000Y-74258800D02*
X40905167Y-74258800D01*
X90327000Y-74258800D02*
X116290000Y-74258800D01*
X32710000Y-74462000D02*
X40905464Y-74462000D01*
X90327000Y-74462000D02*
X116290000Y-74462000D01*
X32710000Y-74665200D02*
X40905760Y-74665200D01*
X90327000Y-74665200D02*
X116290000Y-74665200D01*
X32710000Y-74868400D02*
X40906056Y-74868400D01*
X90327000Y-74868400D02*
X116290000Y-74868400D01*
X32710000Y-75071600D02*
X40906353Y-75071600D01*
X90327000Y-75071600D02*
X116290000Y-75071600D01*
X32710000Y-75274800D02*
X40906649Y-75274800D01*
X90327000Y-75274800D02*
X116290000Y-75274800D01*
X32710000Y-75478000D02*
X40906945Y-75478000D01*
X90327000Y-75478000D02*
X116290000Y-75478000D01*
X32710000Y-75681200D02*
X40907242Y-75681200D01*
X90327000Y-75681200D02*
X116290000Y-75681200D01*
X32710000Y-75884400D02*
X40907538Y-75884400D01*
X90327000Y-75884400D02*
X116290000Y-75884400D01*
X32741335Y-76087600D02*
X40907834Y-76087600D01*
X90327000Y-76087600D02*
X116258666Y-76087600D01*
X32781754Y-76290800D02*
X40908131Y-76290800D01*
X90327000Y-76290800D02*
X116218247Y-76290800D01*
X32822173Y-76494000D02*
X40908427Y-76494000D01*
X90327000Y-76494000D02*
X116177828Y-76494000D01*
X32862592Y-76697200D02*
X40908723Y-76697200D01*
X90327000Y-76697200D02*
X116137409Y-76697200D01*
X32903011Y-76900400D02*
X40909019Y-76900400D01*
X90327000Y-76900400D02*
X116096990Y-76900400D01*
X32943430Y-77103600D02*
X40909316Y-77103600D01*
X90327000Y-77103600D02*
X116056571Y-77103600D01*
X32983849Y-77306800D02*
X40909612Y-77306800D01*
X90327000Y-77306800D02*
X116016152Y-77306800D01*
X33024268Y-77510000D02*
X40909908Y-77510000D01*
X90327000Y-77510000D02*
X115975733Y-77510000D01*
X33100731Y-77713200D02*
X40910205Y-77713200D01*
X90327000Y-77713200D02*
X115899270Y-77713200D01*
X33236505Y-77916400D02*
X40910501Y-77916400D01*
X90327000Y-77916400D02*
X115763496Y-77916400D01*
X33372279Y-78119600D02*
X40910797Y-78119600D01*
X90327000Y-78119600D02*
X115627722Y-78119600D01*
X33508053Y-78322800D02*
X40911094Y-78322800D01*
X90327000Y-78322800D02*
X115491948Y-78322800D01*
X33643827Y-78526000D02*
X40911390Y-78526000D01*
X90327000Y-78526000D02*
X115356174Y-78526000D01*
X33779601Y-78729200D02*
X40911686Y-78729200D01*
X90327000Y-78729200D02*
X115220400Y-78729200D01*
X33915375Y-78932400D02*
X40911983Y-78932400D01*
X90327000Y-78932400D02*
X115084626Y-78932400D01*
X34143889Y-79135600D02*
X40912279Y-79135600D01*
X90327000Y-79135600D02*
X114856111Y-79135600D01*
X34447999Y-79338800D02*
X40912575Y-79338800D01*
X90327000Y-79338800D02*
X114552001Y-79338800D01*
X34752109Y-79542000D02*
X40912872Y-79542000D01*
X90327000Y-79542000D02*
X114247891Y-79542000D01*
X35056220Y-79745200D02*
X40913168Y-79745200D01*
X90327000Y-79745200D02*
X113943781Y-79745200D01*
X35360330Y-79948400D02*
X40913464Y-79948400D01*
X90327000Y-79948400D02*
X113639671Y-79948400D01*
X36374147Y-80151600D02*
X40913761Y-80151600D01*
X90327000Y-80151600D02*
X112625854Y-80151600D01*
X92212275Y-65213600D02*
X96464066Y-65213600D01*
X92142363Y-65416800D02*
X96317478Y-65416800D01*
X113636390Y-27049408D02*
X115023654Y-27976349D01*
X115950592Y-29363610D01*
X116290000Y-31069931D01*
X116290000Y-75930069D01*
X115950592Y-77636390D01*
X115023654Y-79023651D01*
X113636390Y-79950592D01*
X111930069Y-80290000D01*
X90327000Y-80290000D01*
X90327000Y-67541672D01*
X90820900Y-67746757D01*
X91376661Y-67747242D01*
X91890303Y-67535010D01*
X92212275Y-67213600D01*
X96650000Y-67213600D01*
X96980485Y-67147862D01*
X97260657Y-66960657D01*
X97507259Y-66714055D01*
X97678943Y-66643117D01*
X97942192Y-66380327D01*
X98084838Y-66036799D01*
X98085162Y-65664833D01*
X97943117Y-65321057D01*
X97722291Y-65099845D01*
X97942192Y-64880327D01*
X98084838Y-64536799D01*
X98085162Y-64164833D01*
X97943117Y-63821057D01*
X97680327Y-63557808D01*
X97336799Y-63415162D01*
X96964833Y-63414838D01*
X96791639Y-63486400D01*
X92211841Y-63486400D01*
X91892370Y-63166371D01*
X91379100Y-62953243D01*
X90823339Y-62952758D01*
X90327000Y-63157841D01*
X90327000Y-52200000D01*
X90318315Y-52153841D01*
X90291035Y-52111447D01*
X90249410Y-52083006D01*
X90200000Y-52073000D01*
X41000000Y-52073000D01*
X40953668Y-52081753D01*
X40911314Y-52109095D01*
X40882934Y-52150761D01*
X40873000Y-52200185D01*
X40913963Y-80290000D01*
X37069931Y-80290000D01*
X35363610Y-79950592D01*
X33976349Y-79023654D01*
X33049408Y-77636390D01*
X32710000Y-75930069D01*
X32710000Y-39748479D01*
X95581375Y-39748479D01*
X95584340Y-39753540D01*
X95583842Y-40324267D01*
X95632890Y-40442972D01*
X95620480Y-40470625D01*
X95725002Y-40665900D01*
X95809580Y-40870595D01*
X95863451Y-40924560D01*
X95899437Y-40991792D01*
X96070733Y-41132204D01*
X96227206Y-41288951D01*
X96297630Y-41318194D01*
X96356603Y-41366534D01*
X96734783Y-41499715D01*
X96773139Y-41515642D01*
X96780026Y-41515648D01*
X96788479Y-41518625D01*
X96793540Y-41515660D01*
X97364267Y-41516158D01*
X97482972Y-41467110D01*
X97510625Y-41479520D01*
X97705900Y-41374998D01*
X97910595Y-41290420D01*
X97964560Y-41236549D01*
X98031792Y-41200563D01*
X98172204Y-41029267D01*
X98328951Y-40872794D01*
X98358194Y-40802370D01*
X98406534Y-40743397D01*
X98539715Y-40365217D01*
X98555642Y-40326861D01*
X98555648Y-40319974D01*
X98558625Y-40311521D01*
X98555660Y-40306460D01*
X98556158Y-39735733D01*
X98507110Y-39617028D01*
X98519520Y-39589375D01*
X98486918Y-39528465D01*
X99516936Y-39528465D01*
X99521091Y-40039631D01*
X99520645Y-40550626D01*
X99525337Y-40561982D01*
X99525437Y-40574272D01*
X99909295Y-41500987D01*
X99914639Y-41504164D01*
X99920028Y-41517207D01*
X100658904Y-42257373D01*
X100675080Y-42264090D01*
X100679013Y-42270705D01*
X101152859Y-42462481D01*
X101624785Y-42658442D01*
X101637071Y-42658453D01*
X101648465Y-42663064D01*
X102159631Y-42658909D01*
X102670626Y-42659355D01*
X102681982Y-42654663D01*
X102694272Y-42654563D01*
X103620987Y-42270705D01*
X103624164Y-42265361D01*
X103637207Y-42259972D01*
X104377373Y-41521096D01*
X104384090Y-41504920D01*
X104390705Y-41500987D01*
X104582481Y-41027141D01*
X104778442Y-40555215D01*
X104778453Y-40542929D01*
X104783064Y-40531535D01*
X104778909Y-40020369D01*
X104779146Y-39748479D01*
X105741375Y-39748479D01*
X105744340Y-39753540D01*
X105743842Y-40324267D01*
X105792890Y-40442972D01*
X105780480Y-40470625D01*
X105885002Y-40665900D01*
X105969580Y-40870595D01*
X106023451Y-40924560D01*
X106059437Y-40991792D01*
X106230733Y-41132204D01*
X106387206Y-41288951D01*
X106457630Y-41318194D01*
X106516603Y-41366534D01*
X106894783Y-41499715D01*
X106933139Y-41515642D01*
X106940026Y-41515648D01*
X106948479Y-41518625D01*
X106953540Y-41515660D01*
X107524267Y-41516158D01*
X107642972Y-41467110D01*
X107670625Y-41479520D01*
X107865900Y-41374998D01*
X108070595Y-41290420D01*
X108124560Y-41236549D01*
X108191792Y-41200563D01*
X108332204Y-41029267D01*
X108488951Y-40872794D01*
X108518194Y-40802370D01*
X108566534Y-40743397D01*
X108699715Y-40365217D01*
X108715642Y-40326861D01*
X108715648Y-40319974D01*
X108718625Y-40311521D01*
X108715660Y-40306460D01*
X108716158Y-39735733D01*
X108667110Y-39617028D01*
X108679520Y-39589375D01*
X108574998Y-39394100D01*
X108490420Y-39189405D01*
X108436549Y-39135440D01*
X108400563Y-39068208D01*
X108229267Y-38927796D01*
X108072794Y-38771049D01*
X108002370Y-38741806D01*
X107943397Y-38693466D01*
X107565217Y-38560285D01*
X107526861Y-38544358D01*
X107519974Y-38544352D01*
X107511521Y-38541375D01*
X107506460Y-38544340D01*
X106935733Y-38543842D01*
X106817028Y-38592890D01*
X106789375Y-38580480D01*
X106594100Y-38685002D01*
X106389405Y-38769580D01*
X106335440Y-38823451D01*
X106268208Y-38859437D01*
X106127796Y-39030733D01*
X105971049Y-39187206D01*
X105941806Y-39257630D01*
X105893466Y-39316603D01*
X105760285Y-39694783D01*
X105744358Y-39733139D01*
X105744352Y-39740026D01*
X105741375Y-39748479D01*
X104779146Y-39748479D01*
X104779355Y-39509374D01*
X104774663Y-39498018D01*
X104774563Y-39485728D01*
X104390705Y-38559013D01*
X104385361Y-38555836D01*
X104379972Y-38542793D01*
X103641096Y-37802627D01*
X103624920Y-37795910D01*
X103620987Y-37789295D01*
X103147141Y-37597519D01*
X102675215Y-37401558D01*
X102662929Y-37401547D01*
X102651535Y-37396936D01*
X102140369Y-37401091D01*
X101629374Y-37400645D01*
X101618018Y-37405337D01*
X101605728Y-37405437D01*
X100679013Y-37789295D01*
X100675836Y-37794639D01*
X100662793Y-37800028D01*
X99922627Y-38538904D01*
X99915910Y-38555080D01*
X99909295Y-38559013D01*
X99717520Y-39032857D01*
X99521558Y-39504785D01*
X99521547Y-39517071D01*
X99516936Y-39528465D01*
X98486918Y-39528465D01*
X98414998Y-39394100D01*
X98369121Y-39283068D01*
X98399307Y-39287391D01*
X99064601Y-39117196D01*
X99397999Y-38867332D01*
X99565165Y-38759921D01*
X99614119Y-38705361D01*
X99614121Y-38705360D01*
X100389796Y-37840867D01*
X100927680Y-37241394D01*
X101141185Y-37028261D01*
X101159185Y-36984913D01*
X101172773Y-36979379D01*
X101286385Y-36678581D01*
X101291174Y-36667046D01*
X101345928Y-36574648D01*
X101354556Y-36514407D01*
X101409693Y-36381621D01*
X101409719Y-36352042D01*
X101420170Y-36324371D01*
X101413234Y-36104692D01*
X101443285Y-35894867D01*
X101410231Y-35765657D01*
X101410304Y-35681450D01*
X101399008Y-35654113D01*
X101398075Y-35624549D01*
X101361234Y-35535607D01*
X102885433Y-35535607D01*
X102932082Y-35766294D01*
X102978722Y-36130134D01*
X103020353Y-36202812D01*
X103021898Y-36210451D01*
X103040950Y-36238770D01*
X103320053Y-36726015D01*
X103863436Y-37145915D01*
X104526145Y-37325909D01*
X105207290Y-37238594D01*
X105803171Y-36897263D01*
X106146513Y-36452952D01*
X106169276Y-36427513D01*
X106171855Y-36420157D01*
X106223071Y-36353880D01*
X106319217Y-35999884D01*
X106397091Y-35777791D01*
X106407660Y-35624549D01*
X106425994Y-35358694D01*
X106449693Y-35301621D01*
X106449719Y-35272042D01*
X106460170Y-35244371D01*
X106451914Y-34982866D01*
X106454567Y-34944393D01*
X106450024Y-34921929D01*
X106450304Y-34601450D01*
X106439008Y-34574113D01*
X106438075Y-34544549D01*
X106363000Y-34363302D01*
X106361278Y-34349867D01*
X106347399Y-34325638D01*
X106212773Y-34000621D01*
X106199876Y-33995369D01*
X106182925Y-33954343D01*
X106069805Y-33841026D01*
X106019947Y-33753985D01*
X105857955Y-33628806D01*
X105688261Y-33458815D01*
X105644913Y-33440815D01*
X105639379Y-33427227D01*
X105556672Y-33395988D01*
X105476564Y-33334085D01*
X105220174Y-33264449D01*
X105041621Y-33190307D01*
X105012042Y-33190281D01*
X104984371Y-33179830D01*
X104916510Y-33181973D01*
X104813855Y-33154091D01*
X104534784Y-33189865D01*
X104341450Y-33189696D01*
X104314113Y-33200992D01*
X104284549Y-33201925D01*
X104214566Y-33230913D01*
X104132710Y-33241406D01*
X103985093Y-33325963D01*
X103740621Y-33427227D01*
X103735369Y-33440124D01*
X103694343Y-33457075D01*
X103611052Y-33540221D01*
X103536829Y-33582737D01*
X103430084Y-33720873D01*
X103198815Y-33951739D01*
X103180815Y-33995087D01*
X103167227Y-34000621D01*
X103122596Y-34118787D01*
X103116929Y-34126120D01*
X103109513Y-34153425D01*
X103053615Y-34301419D01*
X102930307Y-34598379D01*
X102930281Y-34627958D01*
X102919830Y-34655629D01*
X102928086Y-34917135D01*
X102905433Y-35245607D01*
X102885433Y-35535607D01*
X101361234Y-35535607D01*
X101335463Y-35473391D01*
X101273090Y-35229573D01*
X101186753Y-35114372D01*
X101172773Y-35080621D01*
X101159876Y-35075369D01*
X101142925Y-35034343D01*
X101078131Y-34969436D01*
X100861254Y-34680053D01*
X100684974Y-34575592D01*
X100648261Y-34538815D01*
X100604913Y-34520815D01*
X100599379Y-34507227D01*
X100517274Y-34476216D01*
X100270474Y-34329966D01*
X100079389Y-34302599D01*
X100001621Y-34270307D01*
X99972042Y-34270281D01*
X99944371Y-34259830D01*
X99810313Y-34264063D01*
X99590693Y-34232609D01*
X99445229Y-34269821D01*
X99301450Y-34269696D01*
X99274113Y-34280992D01*
X99244549Y-34281925D01*
X98996846Y-34384527D01*
X98925400Y-34402804D01*
X98891642Y-34428103D01*
X98700621Y-34507227D01*
X98695369Y-34520124D01*
X98654343Y-34537075D01*
X98441994Y-34749053D01*
X98424835Y-34760079D01*
X98375881Y-34814639D01*
X98375879Y-34814640D01*
X98372322Y-34818604D01*
X98158815Y-35031739D01*
X98140815Y-35075087D01*
X98127227Y-35080621D01*
X98119959Y-35099864D01*
X97021258Y-36324371D01*
X96945204Y-36409133D01*
X96856472Y-36586922D01*
X96644072Y-36945352D01*
X96546715Y-37625133D01*
X96716910Y-38290427D01*
X96906917Y-38543957D01*
X96775733Y-38543842D01*
X96657028Y-38592890D01*
X96629375Y-38580480D01*
X96434100Y-38685002D01*
X96229405Y-38769580D01*
X96175440Y-38823451D01*
X96108208Y-38859437D01*
X95967796Y-39030733D01*
X95811049Y-39187206D01*
X95781806Y-39257630D01*
X95733466Y-39316603D01*
X95600285Y-39694783D01*
X95584358Y-39733139D01*
X95584352Y-39740026D01*
X95581375Y-39748479D01*
X32710000Y-39748479D01*
X32710000Y-31069931D01*
X33049408Y-29363610D01*
X33976349Y-27976346D01*
X35363610Y-27049408D01*
X37069931Y-26710000D01*
X111930069Y-26710000D01*
X113636390Y-27049408D01*
X139570836Y-23514425D02*
X139570836Y-23514425D01*
X100996653Y-23717625D02*
X139589157Y-23717625D01*
X62422470Y-23920825D02*
X139607478Y-23920825D01*
X25905811Y-24124025D02*
X139625799Y-24124025D01*
X25893573Y-24327225D02*
X139644121Y-24327225D01*
X25881336Y-24530425D02*
X139662442Y-24530425D01*
X25869099Y-24733625D02*
X139680763Y-24733625D01*
X25856862Y-24936825D02*
X139699085Y-24936825D01*
X25844625Y-25140025D02*
X139717406Y-25140025D01*
X25832388Y-25343225D02*
X36725146Y-25343225D01*
X112337512Y-25343225D02*
X139735727Y-25343225D01*
X25820151Y-25546425D02*
X35666255Y-25546425D01*
X113359068Y-25546425D02*
X139754049Y-25546425D01*
X25807914Y-25749625D02*
X34790226Y-25749625D01*
X114209773Y-25749625D02*
X139772370Y-25749625D01*
X25795677Y-25952825D02*
X34448830Y-25952825D01*
X114551170Y-25952825D02*
X139790691Y-25952825D01*
X25783440Y-26156025D02*
X34144720Y-26156025D01*
X114855280Y-26156025D02*
X139809012Y-26156025D01*
X25771203Y-26359225D02*
X33840610Y-26359225D01*
X115159390Y-26359225D02*
X139827334Y-26359225D01*
X25758966Y-26562425D02*
X33536500Y-26562425D01*
X115463501Y-26562425D02*
X139845655Y-26562425D01*
X25746728Y-26765625D02*
X33232390Y-26765625D01*
X115767611Y-26765625D02*
X139863976Y-26765625D01*
X25734491Y-26968825D02*
X32975309Y-26968825D01*
X116024691Y-26968825D02*
X139882298Y-26968825D01*
X25722254Y-27172025D02*
X32805960Y-27172025D01*
X116194041Y-27172025D02*
X139900619Y-27172025D01*
X25710017Y-27375225D02*
X32670186Y-27375225D01*
X116329815Y-27375225D02*
X139918940Y-27375225D01*
X25697780Y-27578425D02*
X32534412Y-27578425D01*
X116465589Y-27578425D02*
X139937262Y-27578425D01*
X25685543Y-27781625D02*
X32398638Y-27781625D01*
X116601363Y-27781625D02*
X139955583Y-27781625D01*
X25673306Y-27984825D02*
X32262864Y-27984825D01*
X116737137Y-27984825D02*
X139973904Y-27984825D01*
X25661069Y-28188025D02*
X32127090Y-28188025D01*
X116872911Y-28188025D02*
X139992226Y-28188025D01*
X25648832Y-28391225D02*
X31991316Y-28391225D01*
X117008685Y-28391225D02*
X140010547Y-28391225D01*
X25636595Y-28594425D02*
X31855543Y-28594425D01*
X117144459Y-28594425D02*
X140028868Y-28594425D01*
X25624358Y-28797625D02*
X31746561Y-28797625D01*
X117253440Y-28797625D02*
X140047189Y-28797625D01*
X25612121Y-29000825D02*
X31673751Y-29000825D01*
X117326250Y-29000825D02*
X140065511Y-29000825D01*
X25599883Y-29204025D02*
X31633332Y-29204025D01*
X117366669Y-29204025D02*
X140083832Y-29204025D01*
X25587646Y-29407225D02*
X31592913Y-29407225D01*
X117407088Y-29407225D02*
X140102153Y-29407225D01*
X25575409Y-29610425D02*
X31552494Y-29610425D01*
X117447507Y-29610425D02*
X140120475Y-29610425D01*
X25563172Y-29813625D02*
X31512075Y-29813625D01*
X117487926Y-29813625D02*
X140138796Y-29813625D01*
X25550935Y-30016825D02*
X31471656Y-30016825D01*
X117528345Y-30016825D02*
X140157117Y-30016825D01*
X25538698Y-30220025D02*
X31431237Y-30220025D01*
X117568764Y-30220025D02*
X140175439Y-30220025D01*
X25526461Y-30423225D02*
X31390818Y-30423225D01*
X117609183Y-30423225D02*
X140193760Y-30423225D01*
X25514224Y-30626425D02*
X31350399Y-30626425D01*
X117649602Y-30626425D02*
X140212081Y-30626425D01*
X25501987Y-30829625D02*
X31309980Y-30829625D01*
X117690021Y-30829625D02*
X140230402Y-30829625D01*
X25489750Y-31032825D02*
X31290000Y-31032825D01*
X117710000Y-31032825D02*
X140248724Y-31032825D01*
X25477513Y-31236025D02*
X31290000Y-31236025D01*
X117710000Y-31236025D02*
X140267045Y-31236025D01*
X25465276Y-31439225D02*
X31290000Y-31439225D01*
X117710000Y-31439225D02*
X140285366Y-31439225D01*
X25453038Y-31642425D02*
X31290000Y-31642425D01*
X117710000Y-31642425D02*
X140303688Y-31642425D01*
X25440801Y-31845625D02*
X31290000Y-31845625D01*
X117710000Y-31845625D02*
X140322009Y-31845625D01*
X25428564Y-32048825D02*
X31290000Y-32048825D01*
X117710000Y-32048825D02*
X140340330Y-32048825D01*
X25416327Y-32252025D02*
X31290000Y-32252025D01*
X117710000Y-32252025D02*
X140358652Y-32252025D01*
X25404090Y-32455225D02*
X31290000Y-32455225D01*
X117710000Y-32455225D02*
X140376973Y-32455225D01*
X25391853Y-32658425D02*
X31290000Y-32658425D01*
X117710000Y-32658425D02*
X140395294Y-32658425D01*
X25379616Y-32861625D02*
X31290000Y-32861625D01*
X117710000Y-32861625D02*
X140413616Y-32861625D01*
X25367379Y-33064825D02*
X31290000Y-33064825D01*
X117710000Y-33064825D02*
X140431937Y-33064825D01*
X25355142Y-33268025D02*
X31290000Y-33268025D01*
X117710000Y-33268025D02*
X140450258Y-33268025D01*
X25342905Y-33471225D02*
X31290000Y-33471225D01*
X117710000Y-33471225D02*
X140468579Y-33471225D01*
X25330668Y-33674425D02*
X31290000Y-33674425D01*
X117710000Y-33674425D02*
X140486901Y-33674425D01*
X25318431Y-33877625D02*
X31290000Y-33877625D01*
X117710000Y-33877625D02*
X140505222Y-33877625D01*
X25306193Y-34080825D02*
X31290000Y-34080825D01*
X117710000Y-34080825D02*
X140523543Y-34080825D01*
X25293956Y-34284025D02*
X31290000Y-34284025D01*
X117710000Y-34284025D02*
X140541865Y-34284025D01*
X25281719Y-34487225D02*
X31290000Y-34487225D01*
X117710000Y-34487225D02*
X140560186Y-34487225D01*
X25269482Y-34690425D02*
X31290000Y-34690425D01*
X117710000Y-34690425D02*
X140578507Y-34690425D01*
X25257245Y-34893625D02*
X31290000Y-34893625D01*
X117710000Y-34893625D02*
X140596829Y-34893625D01*
X25245008Y-35096825D02*
X31290000Y-35096825D01*
X117710000Y-35096825D02*
X140615150Y-35096825D01*
X25232771Y-35300025D02*
X31290000Y-35300025D01*
X117710000Y-35300025D02*
X140633471Y-35300025D01*
X25220534Y-35503225D02*
X31290000Y-35503225D01*
X117710000Y-35503225D02*
X140651792Y-35503225D01*
X25208297Y-35706425D02*
X31290000Y-35706425D01*
X117710000Y-35706425D02*
X140658138Y-35706425D01*
X25196060Y-35909625D02*
X31290000Y-35909625D01*
X117710000Y-35909625D02*
X140655259Y-35909625D01*
X25183823Y-36112825D02*
X31290000Y-36112825D01*
X117710000Y-36112825D02*
X140652379Y-36112825D01*
X25171586Y-36316025D02*
X31290000Y-36316025D01*
X117710000Y-36316025D02*
X140649500Y-36316025D01*
X25159349Y-36519225D02*
X31290000Y-36519225D01*
X117710000Y-36519225D02*
X140646620Y-36519225D01*
X25147111Y-36722425D02*
X31290000Y-36722425D01*
X117710000Y-36722425D02*
X140643741Y-36722425D01*
X25134874Y-36925625D02*
X31290000Y-36925625D01*
X117710000Y-36925625D02*
X140640862Y-36925625D01*
X25122637Y-37128825D02*
X31290000Y-37128825D01*
X117710000Y-37128825D02*
X140637982Y-37128825D01*
X25110400Y-37332025D02*
X31290000Y-37332025D01*
X117710000Y-37332025D02*
X140635103Y-37332025D01*
X25098163Y-37535225D02*
X31290000Y-37535225D01*
X117710000Y-37535225D02*
X140632224Y-37535225D01*
X25085926Y-37738425D02*
X31290000Y-37738425D01*
X117710000Y-37738425D02*
X140629344Y-37738425D01*
X25073689Y-37941625D02*
X31290000Y-37941625D01*
X117710000Y-37941625D02*
X140626465Y-37941625D01*
X25061452Y-38144825D02*
X31290000Y-38144825D01*
X117710000Y-38144825D02*
X140623586Y-38144825D01*
X25049215Y-38348025D02*
X31290000Y-38348025D01*
X117710000Y-38348025D02*
X140620706Y-38348025D01*
X25036978Y-38551225D02*
X31290000Y-38551225D01*
X117710000Y-38551225D02*
X140617827Y-38551225D01*
X25024741Y-38754425D02*
X31290000Y-38754425D01*
X117710000Y-38754425D02*
X140614948Y-38754425D01*
X25012504Y-38957625D02*
X31290000Y-38957625D01*
X117710000Y-38957625D02*
X140612068Y-38957625D01*
X25000266Y-39160825D02*
X31290000Y-39160825D01*
X117710000Y-39160825D02*
X140609189Y-39160825D01*
X24988029Y-39364025D02*
X31290000Y-39364025D01*
X117710000Y-39364025D02*
X140606310Y-39364025D01*
X24975792Y-39567225D02*
X31290000Y-39567225D01*
X117710000Y-39567225D02*
X140603430Y-39567225D01*
X24963555Y-39770425D02*
X31290000Y-39770425D01*
X117710000Y-39770425D02*
X140600551Y-39770425D01*
X24951318Y-39973625D02*
X31290000Y-39973625D01*
X117710000Y-39973625D02*
X140597672Y-39973625D01*
X24939081Y-40176825D02*
X31290000Y-40176825D01*
X117710000Y-40176825D02*
X140594792Y-40176825D01*
X24926844Y-40380025D02*
X31290000Y-40380025D01*
X117710000Y-40380025D02*
X140591913Y-40380025D01*
X24914607Y-40583225D02*
X31290000Y-40583225D01*
X117710000Y-40583225D02*
X140589033Y-40583225D01*
X24902370Y-40786425D02*
X31290000Y-40786425D01*
X117710000Y-40786425D02*
X140586154Y-40786425D01*
X24890133Y-40989625D02*
X31290000Y-40989625D01*
X117710000Y-40989625D02*
X140583275Y-40989625D01*
X24877896Y-41192825D02*
X31290000Y-41192825D01*
X117710000Y-41192825D02*
X140580395Y-41192825D01*
X24865659Y-41396025D02*
X31290000Y-41396025D01*
X117710000Y-41396025D02*
X140577516Y-41396025D01*
X24853421Y-41599225D02*
X31290000Y-41599225D01*
X117710000Y-41599225D02*
X140574637Y-41599225D01*
X24841184Y-41802425D02*
X31290000Y-41802425D01*
X117710000Y-41802425D02*
X140571757Y-41802425D01*
X24828947Y-42005625D02*
X31290000Y-42005625D01*
X117710000Y-42005625D02*
X140568878Y-42005625D01*
X24816710Y-42208825D02*
X31290000Y-42208825D01*
X117710000Y-42208825D02*
X140565999Y-42208825D01*
X24804473Y-42412025D02*
X31290000Y-42412025D01*
X117710000Y-42412025D02*
X140563119Y-42412025D01*
X24792236Y-42615225D02*
X31290000Y-42615225D01*
X117710000Y-42615225D02*
X140560240Y-42615225D01*
X24779999Y-42818425D02*
X31290000Y-42818425D01*
X117710000Y-42818425D02*
X140557361Y-42818425D01*
X24767762Y-43021625D02*
X31290000Y-43021625D01*
X117710000Y-43021625D02*
X140554481Y-43021625D01*
X24755525Y-43224825D02*
X31290000Y-43224825D01*
X117710000Y-43224825D02*
X140551602Y-43224825D01*
X24743288Y-43428025D02*
X31290000Y-43428025D01*
X117710000Y-43428025D02*
X140548723Y-43428025D01*
X24731051Y-43631225D02*
X31290000Y-43631225D01*
X117710000Y-43631225D02*
X140545843Y-43631225D01*
X24718814Y-43834425D02*
X31290000Y-43834425D01*
X117710000Y-43834425D02*
X140542964Y-43834425D01*
X24706577Y-44037625D02*
X31290000Y-44037625D01*
X117710000Y-44037625D02*
X140540084Y-44037625D01*
X24694339Y-44240825D02*
X31290000Y-44240825D01*
X117710000Y-44240825D02*
X140537205Y-44240825D01*
X24682102Y-44444025D02*
X31290000Y-44444025D01*
X117710000Y-44444025D02*
X140534326Y-44444025D01*
X24669865Y-44647225D02*
X31290000Y-44647225D01*
X117710000Y-44647225D02*
X140531446Y-44647225D01*
X24657628Y-44850425D02*
X31290000Y-44850425D01*
X117710000Y-44850425D02*
X140528567Y-44850425D01*
X24645391Y-45053625D02*
X31290000Y-45053625D01*
X117710000Y-45053625D02*
X140525688Y-45053625D01*
X24633154Y-45256825D02*
X31290000Y-45256825D01*
X117710000Y-45256825D02*
X140522808Y-45256825D01*
X24620917Y-45460025D02*
X31290000Y-45460025D01*
X117710000Y-45460025D02*
X140519929Y-45460025D01*
X24608680Y-45663225D02*
X31290000Y-45663225D01*
X117710000Y-45663225D02*
X140517050Y-45663225D01*
X24596443Y-45866425D02*
X31290000Y-45866425D01*
X117710000Y-45866425D02*
X140514170Y-45866425D01*
X24584206Y-46069625D02*
X31290000Y-46069625D01*
X117710000Y-46069625D02*
X140511291Y-46069625D01*
X24571969Y-46272825D02*
X31290000Y-46272825D01*
X117710000Y-46272825D02*
X140508412Y-46272825D01*
X24559732Y-46476025D02*
X31290000Y-46476025D01*
X117710000Y-46476025D02*
X140505532Y-46476025D01*
X24547494Y-46679225D02*
X31290000Y-46679225D01*
X117710000Y-46679225D02*
X140502653Y-46679225D01*
X24535257Y-46882425D02*
X31290000Y-46882425D01*
X117710000Y-46882425D02*
X140499774Y-46882425D01*
X24523020Y-47085625D02*
X31290000Y-47085625D01*
X117710000Y-47085625D02*
X140496894Y-47085625D01*
X24510783Y-47288825D02*
X31290000Y-47288825D01*
X117710000Y-47288825D02*
X140494015Y-47288825D01*
X24498546Y-47492025D02*
X31290000Y-47492025D01*
X117710000Y-47492025D02*
X140491136Y-47492025D01*
X24486309Y-47695225D02*
X31290000Y-47695225D01*
X117710000Y-47695225D02*
X140488256Y-47695225D01*
X24474072Y-47898425D02*
X31290000Y-47898425D01*
X117710000Y-47898425D02*
X140485377Y-47898425D01*
X24461835Y-48101625D02*
X31290000Y-48101625D01*
X117710000Y-48101625D02*
X140482497Y-48101625D01*
X24449598Y-48304825D02*
X31290000Y-48304825D01*
X117710000Y-48304825D02*
X140479618Y-48304825D01*
X24437361Y-48508025D02*
X31290000Y-48508025D01*
X117710000Y-48508025D02*
X140476739Y-48508025D01*
X24425124Y-48711225D02*
X31290000Y-48711225D01*
X117710000Y-48711225D02*
X140473859Y-48711225D01*
X24412887Y-48914425D02*
X31290000Y-48914425D01*
X117710000Y-48914425D02*
X140470980Y-48914425D01*
X24400649Y-49117625D02*
X31290000Y-49117625D01*
X117710000Y-49117625D02*
X140468101Y-49117625D01*
X24388412Y-49320825D02*
X31290000Y-49320825D01*
X117710000Y-49320825D02*
X140465221Y-49320825D01*
X24376175Y-49524025D02*
X31290000Y-49524025D01*
X117710000Y-49524025D02*
X140462342Y-49524025D01*
X24363938Y-49727225D02*
X31290000Y-49727225D01*
X117710000Y-49727225D02*
X140459463Y-49727225D01*
X24351701Y-49930425D02*
X31290000Y-49930425D01*
X117710000Y-49930425D02*
X140456583Y-49930425D01*
X24339464Y-50133625D02*
X31290000Y-50133625D01*
X117710000Y-50133625D02*
X140453704Y-50133625D01*
X24327227Y-50336825D02*
X31290000Y-50336825D01*
X117710000Y-50336825D02*
X140450825Y-50336825D01*
X24314990Y-50540025D02*
X31290000Y-50540025D01*
X117710000Y-50540025D02*
X140447945Y-50540025D01*
X24302753Y-50743225D02*
X31290000Y-50743225D01*
X117710000Y-50743225D02*
X140445066Y-50743225D01*
X24290516Y-50946425D02*
X31290000Y-50946425D01*
X117710000Y-50946425D02*
X140442187Y-50946425D01*
X24278279Y-51149625D02*
X31290000Y-51149625D01*
X117710000Y-51149625D02*
X140439307Y-51149625D01*
X24266042Y-51352825D02*
X31290000Y-51352825D01*
X117710000Y-51352825D02*
X140436428Y-51352825D01*
X24253805Y-51556025D02*
X31290000Y-51556025D01*
X117710000Y-51556025D02*
X140433549Y-51556025D01*
X24241567Y-51759225D02*
X31290000Y-51759225D01*
X117710000Y-51759225D02*
X140430669Y-51759225D01*
X24229330Y-51962425D02*
X31290000Y-51962425D01*
X117710000Y-51962425D02*
X140427790Y-51962425D01*
X24217093Y-52165625D02*
X31290000Y-52165625D01*
X117710000Y-52165625D02*
X140424910Y-52165625D01*
X24204856Y-52368825D02*
X31290000Y-52368825D01*
X117710000Y-52368825D02*
X140422031Y-52368825D01*
X24192619Y-52572025D02*
X31290000Y-52572025D01*
X117710000Y-52572025D02*
X140419152Y-52572025D01*
X24180382Y-52775225D02*
X31290000Y-52775225D01*
X117710000Y-52775225D02*
X140416272Y-52775225D01*
X24168145Y-52978425D02*
X31290000Y-52978425D01*
X117710000Y-52978425D02*
X140413393Y-52978425D01*
X24155908Y-53181625D02*
X31290000Y-53181625D01*
X117710000Y-53181625D02*
X140410514Y-53181625D01*
X24143671Y-53384825D02*
X31290000Y-53384825D01*
X117710000Y-53384825D02*
X140407634Y-53384825D01*
X24131434Y-53588025D02*
X31290000Y-53588025D01*
X117710000Y-53588025D02*
X140404755Y-53588025D01*
X24119197Y-53791225D02*
X31290000Y-53791225D01*
X117710000Y-53791225D02*
X140401876Y-53791225D01*
X24106960Y-53994425D02*
X31290000Y-53994425D01*
X117710000Y-53994425D02*
X140398996Y-53994425D01*
X24094722Y-54197625D02*
X31290000Y-54197625D01*
X117710000Y-54197625D02*
X140396117Y-54197625D01*
X24082485Y-54400825D02*
X31290000Y-54400825D01*
X117710000Y-54400825D02*
X140393238Y-54400825D01*
X24070248Y-54604025D02*
X31290000Y-54604025D01*
X117710000Y-54604025D02*
X140390358Y-54604025D01*
X24058011Y-54807225D02*
X31290000Y-54807225D01*
X117710000Y-54807225D02*
X140387479Y-54807225D01*
X24045774Y-55010425D02*
X31290000Y-55010425D01*
X117710000Y-55010425D02*
X140384600Y-55010425D01*
X24033537Y-55213625D02*
X31290000Y-55213625D01*
X117710000Y-55213625D02*
X140381720Y-55213625D01*
X24021300Y-55416825D02*
X31290000Y-55416825D01*
X117710000Y-55416825D02*
X140378841Y-55416825D01*
X24009063Y-55620025D02*
X31290000Y-55620025D01*
X117710000Y-55620025D02*
X140375962Y-55620025D01*
X23996826Y-55823225D02*
X31290000Y-55823225D01*
X117710000Y-55823225D02*
X140373082Y-55823225D01*
X23984589Y-56026425D02*
X31290000Y-56026425D01*
X117710000Y-56026425D02*
X140370203Y-56026425D01*
X23972352Y-56229625D02*
X31290000Y-56229625D01*
X117710000Y-56229625D02*
X140367323Y-56229625D01*
X23960115Y-56432825D02*
X31290000Y-56432825D01*
X117710000Y-56432825D02*
X140364444Y-56432825D01*
X23947877Y-56636025D02*
X31290000Y-56636025D01*
X117710000Y-56636025D02*
X140361565Y-56636025D01*
X23935640Y-56839225D02*
X31290000Y-56839225D01*
X117710000Y-56839225D02*
X140358685Y-56839225D01*
X23923403Y-57042425D02*
X31290000Y-57042425D01*
X117710000Y-57042425D02*
X140355806Y-57042425D01*
X23911166Y-57245625D02*
X31290000Y-57245625D01*
X117710000Y-57245625D02*
X140352927Y-57245625D01*
X23898929Y-57448825D02*
X31290000Y-57448825D01*
X117710000Y-57448825D02*
X140350047Y-57448825D01*
X23886692Y-57652025D02*
X31290000Y-57652025D01*
X117710000Y-57652025D02*
X140347168Y-57652025D01*
X23874455Y-57855225D02*
X31290000Y-57855225D01*
X117710000Y-57855225D02*
X140344289Y-57855225D01*
X23862218Y-58058425D02*
X31290000Y-58058425D01*
X117710000Y-58058425D02*
X140341409Y-58058425D01*
X23849981Y-58261625D02*
X31290000Y-58261625D01*
X117710000Y-58261625D02*
X140338530Y-58261625D01*
X23837744Y-58464825D02*
X31290000Y-58464825D01*
X117710000Y-58464825D02*
X140335651Y-58464825D01*
X23825507Y-58668025D02*
X31290000Y-58668025D01*
X117710000Y-58668025D02*
X140332771Y-58668025D01*
X23813270Y-58871225D02*
X31290000Y-58871225D01*
X117710000Y-58871225D02*
X140329892Y-58871225D01*
X23801032Y-59074425D02*
X31290000Y-59074425D01*
X117710000Y-59074425D02*
X140327013Y-59074425D01*
X23788795Y-59277625D02*
X31290000Y-59277625D01*
X117710000Y-59277625D02*
X140324133Y-59277625D01*
X23776558Y-59480825D02*
X31290000Y-59480825D01*
X117710000Y-59480825D02*
X140321254Y-59480825D01*
X23764321Y-59684025D02*
X31290000Y-59684025D01*
X117710000Y-59684025D02*
X140318374Y-59684025D01*
X23752084Y-59887225D02*
X31290000Y-59887225D01*
X117710000Y-59887225D02*
X140315495Y-59887225D01*
X23739847Y-60090425D02*
X31290000Y-60090425D01*
X117710000Y-60090425D02*
X140312616Y-60090425D01*
X23727610Y-60293625D02*
X31290000Y-60293625D01*
X117710000Y-60293625D02*
X140309736Y-60293625D01*
X23715373Y-60496825D02*
X31290000Y-60496825D01*
X117710000Y-60496825D02*
X140306857Y-60496825D01*
X23703136Y-60700025D02*
X31290000Y-60700025D01*
X117710000Y-60700025D02*
X140303978Y-60700025D01*
X23690899Y-60903225D02*
X31290000Y-60903225D01*
X117710000Y-60903225D02*
X140301098Y-60903225D01*
X23678662Y-61106425D02*
X31290000Y-61106425D01*
X117710000Y-61106425D02*
X140298219Y-61106425D01*
X23666425Y-61309625D02*
X31290000Y-61309625D01*
X117710000Y-61309625D02*
X140295340Y-61309625D01*
X23654188Y-61512825D02*
X31290000Y-61512825D01*
X117710000Y-61512825D02*
X140292460Y-61512825D01*
X23641950Y-61716025D02*
X31290000Y-61716025D01*
X117710000Y-61716025D02*
X140289581Y-61716025D01*
X23629713Y-61919225D02*
X31290000Y-61919225D01*
X117710000Y-61919225D02*
X140286702Y-61919225D01*
X23617476Y-62122425D02*
X31290000Y-62122425D01*
X117710000Y-62122425D02*
X140283822Y-62122425D01*
X23605239Y-62325625D02*
X31290000Y-62325625D01*
X117710000Y-62325625D02*
X140280943Y-62325625D01*
X23593002Y-62528825D02*
X31290000Y-62528825D01*
X117710000Y-62528825D02*
X140278064Y-62528825D01*
X23580765Y-62732025D02*
X31290000Y-62732025D01*
X117710000Y-62732025D02*
X140275184Y-62732025D01*
X23568528Y-62935225D02*
X31290000Y-62935225D01*
X117710000Y-62935225D02*
X140272305Y-62935225D01*
X23556291Y-63138425D02*
X31290000Y-63138425D01*
X117710000Y-63138425D02*
X140269426Y-63138425D01*
X23544054Y-63341625D02*
X31290000Y-63341625D01*
X117710000Y-63341625D02*
X140266546Y-63341625D01*
X23531817Y-63544825D02*
X31290000Y-63544825D01*
X117710000Y-63544825D02*
X140263667Y-63544825D01*
X23519580Y-63748025D02*
X31290000Y-63748025D01*
X117710000Y-63748025D02*
X140260787Y-63748025D01*
X23507343Y-63951225D02*
X31290000Y-63951225D01*
X117710000Y-63951225D02*
X140257908Y-63951225D01*
X23495105Y-64154425D02*
X31290000Y-64154425D01*
X117710000Y-64154425D02*
X140255029Y-64154425D01*
X23482868Y-64357625D02*
X31290000Y-64357625D01*
X117710000Y-64357625D02*
X140252149Y-64357625D01*
X23470631Y-64560825D02*
X31290000Y-64560825D01*
X117710000Y-64560825D02*
X140249270Y-64560825D01*
X23458394Y-64764025D02*
X31290000Y-64764025D01*
X117710000Y-64764025D02*
X140246391Y-64764025D01*
X23446157Y-64967225D02*
X31290000Y-64967225D01*
X117710000Y-64967225D02*
X140243511Y-64967225D01*
X23433920Y-65170425D02*
X31290000Y-65170425D01*
X117710000Y-65170425D02*
X140240632Y-65170425D01*
X23421683Y-65373625D02*
X31290000Y-65373625D01*
X117710000Y-65373625D02*
X140237753Y-65373625D01*
X23409446Y-65576825D02*
X31290000Y-65576825D01*
X117710000Y-65576825D02*
X140234873Y-65576825D01*
X23397209Y-65780025D02*
X31290000Y-65780025D01*
X117710000Y-65780025D02*
X140231994Y-65780025D01*
X23384972Y-65983225D02*
X31290000Y-65983225D01*
X117710000Y-65983225D02*
X140229115Y-65983225D01*
X23372735Y-66186425D02*
X31290000Y-66186425D01*
X117710000Y-66186425D02*
X140226235Y-66186425D01*
X23360498Y-66389625D02*
X31290000Y-66389625D01*
X117710000Y-66389625D02*
X140223356Y-66389625D01*
X23348260Y-66592825D02*
X31290000Y-66592825D01*
X117710000Y-66592825D02*
X140220477Y-66592825D01*
X23336023Y-66796025D02*
X31290000Y-66796025D01*
X117710000Y-66796025D02*
X140217597Y-66796025D01*
X23323786Y-66999225D02*
X31290000Y-66999225D01*
X117710000Y-66999225D02*
X140214718Y-66999225D01*
X23311549Y-67202425D02*
X31290000Y-67202425D01*
X117710000Y-67202425D02*
X140211839Y-67202425D01*
X23299312Y-67405625D02*
X31290000Y-67405625D01*
X117710000Y-67405625D02*
X140208959Y-67405625D01*
X23287075Y-67608825D02*
X31290000Y-67608825D01*
X117710000Y-67608825D02*
X140206080Y-67608825D01*
X23274838Y-67812025D02*
X31290000Y-67812025D01*
X117710000Y-67812025D02*
X140203200Y-67812025D01*
X23262601Y-68015225D02*
X31290000Y-68015225D01*
X117710000Y-68015225D02*
X140200321Y-68015225D01*
X23250364Y-68218425D02*
X31290000Y-68218425D01*
X117710000Y-68218425D02*
X140197442Y-68218425D01*
X23238127Y-68421625D02*
X31290000Y-68421625D01*
X117710000Y-68421625D02*
X140194562Y-68421625D01*
X23225890Y-68624825D02*
X31290000Y-68624825D01*
X117710000Y-68624825D02*
X140191683Y-68624825D01*
X23213653Y-68828025D02*
X31290000Y-68828025D01*
X117710000Y-68828025D02*
X140188804Y-68828025D01*
X23201416Y-69031225D02*
X31290000Y-69031225D01*
X117710000Y-69031225D02*
X140185924Y-69031225D01*
X23189178Y-69234425D02*
X31290000Y-69234425D01*
X117710000Y-69234425D02*
X140183045Y-69234425D01*
X23176941Y-69437625D02*
X31290000Y-69437625D01*
X117710000Y-69437625D02*
X140180166Y-69437625D01*
X23164704Y-69640825D02*
X31290000Y-69640825D01*
X117710000Y-69640825D02*
X140177286Y-69640825D01*
X23152467Y-69844025D02*
X31290000Y-69844025D01*
X117710000Y-69844025D02*
X140174407Y-69844025D01*
X23140230Y-70047225D02*
X31290000Y-70047225D01*
X117710000Y-70047225D02*
X140171528Y-70047225D01*
X23127993Y-70250425D02*
X31290000Y-70250425D01*
X117710000Y-70250425D02*
X140168648Y-70250425D01*
X23115756Y-70453625D02*
X31290000Y-70453625D01*
X117710000Y-70453625D02*
X140165769Y-70453625D01*
X23103519Y-70656825D02*
X31290000Y-70656825D01*
X117710000Y-70656825D02*
X140162890Y-70656825D01*
X23091282Y-70860025D02*
X31290000Y-70860025D01*
X117710000Y-70860025D02*
X140160010Y-70860025D01*
X23079045Y-71063225D02*
X31290000Y-71063225D01*
X117710000Y-71063225D02*
X140157131Y-71063225D01*
X23066808Y-71266425D02*
X31290000Y-71266425D01*
X117710000Y-71266425D02*
X140154252Y-71266425D01*
X23054571Y-71469625D02*
X31290000Y-71469625D01*
X117710000Y-71469625D02*
X140151372Y-71469625D01*
X23042333Y-71672825D02*
X31290000Y-71672825D01*
X117710000Y-71672825D02*
X140148493Y-71672825D01*
X23030096Y-71876025D02*
X31290000Y-71876025D01*
X117710000Y-71876025D02*
X140145613Y-71876025D01*
X23017859Y-72079225D02*
X31290000Y-72079225D01*
X117710000Y-72079225D02*
X140142734Y-72079225D01*
X23005622Y-72282425D02*
X31290000Y-72282425D01*
X117710000Y-72282425D02*
X140139855Y-72282425D01*
X22993385Y-72485625D02*
X31290000Y-72485625D01*
X117710000Y-72485625D02*
X140136975Y-72485625D01*
X22981148Y-72688825D02*
X31290000Y-72688825D01*
X117710000Y-72688825D02*
X140134096Y-72688825D01*
X22968911Y-72892025D02*
X31290000Y-72892025D01*
X117710000Y-72892025D02*
X140131217Y-72892025D01*
X22956674Y-73095225D02*
X31290000Y-73095225D01*
X117710000Y-73095225D02*
X140128337Y-73095225D01*
X22944437Y-73298425D02*
X31290000Y-73298425D01*
X117710000Y-73298425D02*
X140125458Y-73298425D01*
X22932200Y-73501625D02*
X31290000Y-73501625D01*
X117710000Y-73501625D02*
X140122579Y-73501625D01*
X22919963Y-73704825D02*
X31290000Y-73704825D01*
X117710000Y-73704825D02*
X140119699Y-73704825D01*
X22907726Y-73908025D02*
X31290000Y-73908025D01*
X117710000Y-73908025D02*
X140116820Y-73908025D01*
X22895488Y-74111225D02*
X31290000Y-74111225D01*
X117710000Y-74111225D02*
X140113941Y-74111225D01*
X22883251Y-74314425D02*
X31290000Y-74314425D01*
X117710000Y-74314425D02*
X140111061Y-74314425D01*
X22871014Y-74517625D02*
X31290000Y-74517625D01*
X117710000Y-74517625D02*
X140108182Y-74517625D01*
X22858777Y-74720825D02*
X31290000Y-74720825D01*
X117710000Y-74720825D02*
X140105303Y-74720825D01*
X22846540Y-74924025D02*
X31290000Y-74924025D01*
X117710000Y-74924025D02*
X140102423Y-74924025D01*
X22834303Y-75127225D02*
X31290000Y-75127225D01*
X117710000Y-75127225D02*
X140099544Y-75127225D01*
X22822066Y-75330425D02*
X31290000Y-75330425D01*
X117710000Y-75330425D02*
X140096664Y-75330425D01*
X22809829Y-75533625D02*
X31290000Y-75533625D01*
X117710000Y-75533625D02*
X140093785Y-75533625D01*
X22797592Y-75736825D02*
X31290000Y-75736825D01*
X117710000Y-75736825D02*
X140090906Y-75736825D01*
X22785355Y-75940025D02*
X31290000Y-75940025D01*
X117710000Y-75940025D02*
X140088026Y-75940025D01*
X22773118Y-76143225D02*
X31304579Y-76143225D01*
X117695420Y-76143225D02*
X140085147Y-76143225D01*
X22760881Y-76346425D02*
X31344998Y-76346425D01*
X117655001Y-76346425D02*
X140082268Y-76346425D01*
X22748643Y-76549625D02*
X31385416Y-76549625D01*
X117614583Y-76549625D02*
X140079388Y-76549625D01*
X22736406Y-76752825D02*
X31425835Y-76752825D01*
X117574164Y-76752825D02*
X140076509Y-76752825D01*
X22724169Y-76956025D02*
X31466254Y-76956025D01*
X117533745Y-76956025D02*
X140073630Y-76956025D01*
X22711932Y-77159225D02*
X31506673Y-77159225D01*
X117493326Y-77159225D02*
X140070750Y-77159225D01*
X22699695Y-77362425D02*
X31547092Y-77362425D01*
X117452907Y-77362425D02*
X140067871Y-77362425D01*
X22687458Y-77565625D02*
X31587511Y-77565625D01*
X117412488Y-77565625D02*
X140064992Y-77565625D01*
X22675221Y-77768825D02*
X31627930Y-77768825D01*
X117372069Y-77768825D02*
X140062112Y-77768825D01*
X22662984Y-77972025D02*
X31668349Y-77972025D01*
X117331650Y-77972025D02*
X140059233Y-77972025D01*
X22650747Y-78175225D02*
X31735314Y-78175225D01*
X117264685Y-78175225D02*
X140056354Y-78175225D01*
X22638510Y-78378425D02*
X31837401Y-78378425D01*
X117162599Y-78378425D02*
X140053474Y-78378425D01*
X22626273Y-78581625D02*
X31973174Y-78581625D01*
X117026825Y-78581625D02*
X140050595Y-78581625D01*
X22614036Y-78784825D02*
X32108948Y-78784825D01*
X116891051Y-78784825D02*
X140047716Y-78784825D01*
X22601799Y-78988025D02*
X32244722Y-78988025D01*
X116755277Y-78988025D02*
X140044836Y-78988025D01*
X22589561Y-79191225D02*
X32380496Y-79191225D01*
X116619503Y-79191225D02*
X140041957Y-79191225D01*
X22577324Y-79394425D02*
X32516270Y-79394425D01*
X116483729Y-79394425D02*
X140039077Y-79394425D01*
X22565087Y-79597625D02*
X32652044Y-79597625D01*
X116347955Y-79597625D02*
X140036198Y-79597625D01*
X22552850Y-79800825D02*
X32787818Y-79800825D01*
X116212181Y-79800825D02*
X140033319Y-79800825D01*
X22540613Y-80004025D02*
X32948159Y-80004025D01*
X116051841Y-80004025D02*
X140030439Y-80004025D01*
X22528376Y-80207225D02*
X33191756Y-80207225D01*
X115808243Y-80207225D02*
X140027560Y-80207225D01*
X22516139Y-80410425D02*
X33495866Y-80410425D01*
X115504132Y-80410425D02*
X140024681Y-80410425D01*
X22503902Y-80613625D02*
X33799976Y-80613625D01*
X115200022Y-80613625D02*
X140021801Y-80613625D01*
X22491665Y-80816825D02*
X34104086Y-80816825D01*
X114895912Y-80816825D02*
X140018922Y-80816825D01*
X22479428Y-81020025D02*
X34408196Y-81020025D01*
X114591802Y-81020025D02*
X140016043Y-81020025D01*
X22467191Y-81223225D02*
X34724679Y-81223225D01*
X114275318Y-81223225D02*
X140013163Y-81223225D01*
X22454954Y-81426425D02*
X35504440Y-81426425D01*
X113495559Y-81426425D02*
X140010284Y-81426425D01*
X22442716Y-81629625D02*
X36525996Y-81629625D01*
X112474003Y-81629625D02*
X140007405Y-81629625D01*
X22430479Y-81832825D02*
X40916213Y-81832825D01*
X90327000Y-81832825D02*
X140004525Y-81832825D01*
X22418242Y-82036025D02*
X40916509Y-82036025D01*
X90327000Y-82036025D02*
X140001646Y-82036025D01*
X22406005Y-82239225D02*
X40916805Y-82239225D01*
X90327000Y-82239225D02*
X139998767Y-82239225D01*
X22393768Y-82442425D02*
X40917102Y-82442425D01*
X90327000Y-82442425D02*
X139995887Y-82442425D01*
X22381531Y-82645625D02*
X40917398Y-82645625D01*
X90327000Y-82645625D02*
X139993008Y-82645625D01*
X22369294Y-82848825D02*
X40917694Y-82848825D01*
X90327000Y-82848825D02*
X139990129Y-82848825D01*
X22357057Y-83052025D02*
X40917991Y-83052025D01*
X90327000Y-83052025D02*
X139987249Y-83052025D01*
X22344820Y-83255225D02*
X40918287Y-83255225D01*
X90327000Y-83255225D02*
X139984370Y-83255225D01*
X22332583Y-83458425D02*
X40918583Y-83458425D01*
X90327000Y-83458425D02*
X139981490Y-83458425D01*
X22320346Y-83661625D02*
X40918880Y-83661625D01*
X90327000Y-83661625D02*
X139978611Y-83661625D01*
X22308109Y-83864825D02*
X40926314Y-83864825D01*
X90306461Y-83864825D02*
X139975732Y-83864825D01*
X22295871Y-84068025D02*
X139972852Y-84068025D01*
X22283634Y-84271225D02*
X139969973Y-84271225D01*
X22271397Y-84474425D02*
X139967094Y-84474425D01*
X22259160Y-84677625D02*
X139964214Y-84677625D01*
X22246923Y-84880825D02*
X138903988Y-84880825D01*
X22234686Y-85084025D02*
X127476407Y-85084025D01*
X22222449Y-85287225D02*
X116048826Y-85287225D01*
X22210212Y-85490425D02*
X104621244Y-85490425D01*
X22197975Y-85693625D02*
X93193663Y-85693625D01*
X22185738Y-85896825D02*
X81766082Y-85896825D01*
X22173501Y-86100025D02*
X70338501Y-86100025D01*
X22161264Y-86303225D02*
X58910920Y-86303225D01*
X22149027Y-86506425D02*
X47483339Y-86506425D01*
X22136789Y-86709625D02*
X36055758Y-86709625D01*
X22124552Y-86912825D02*
X24628176Y-86912825D01*
X37069930Y-26710000D02*
X111930069Y-26710000D01*
X36048374Y-26913200D02*
X112951625Y-26913200D01*
X35263349Y-27116400D02*
X113736650Y-27116400D01*
X34959239Y-27319600D02*
X114040760Y-27319600D01*
X34655128Y-27522800D02*
X114344870Y-27522800D01*
X34351018Y-27726000D02*
X114648980Y-27726000D01*
X34046907Y-27929200D02*
X114953090Y-27929200D01*
X33872076Y-28132400D02*
X115127923Y-28132400D01*
X33736302Y-28335600D02*
X115263697Y-28335600D01*
X33600528Y-28538800D02*
X115399471Y-28538800D01*
X33464754Y-28742000D02*
X115535245Y-28742000D01*
X33328980Y-28945200D02*
X115671019Y-28945200D01*
X33193206Y-29148400D02*
X115806793Y-29148400D01*
X33057432Y-29351600D02*
X115942567Y-29351600D01*
X33011377Y-29554800D02*
X115988622Y-29554800D01*
X32970959Y-29758000D02*
X116029040Y-29758000D01*
X32930540Y-29961200D02*
X116069459Y-29961200D01*
X32890121Y-30164400D02*
X116109878Y-30164400D01*
X32849702Y-30367600D02*
X116150297Y-30367600D01*
X32809283Y-30570800D02*
X116190716Y-30570800D01*
X32768864Y-30774000D02*
X116231135Y-30774000D01*
X32728445Y-30977200D02*
X116271554Y-30977200D01*
X32710000Y-31180400D02*
X116290000Y-31180400D01*
X32710000Y-31383600D02*
X116290000Y-31383600D01*
X32710000Y-31586800D02*
X116290000Y-31586800D01*
X32710000Y-31790000D02*
X116290000Y-31790000D01*
X32710000Y-31993200D02*
X116290000Y-31993200D01*
X32710000Y-32196400D02*
X116290000Y-32196400D01*
X32710000Y-32399600D02*
X116290000Y-32399600D01*
X32710000Y-32602800D02*
X116290000Y-32602800D01*
X32710000Y-32806000D02*
X116290000Y-32806000D01*
X32710000Y-33009200D02*
X116290000Y-33009200D01*
X32710000Y-33212400D02*
X104259261Y-33212400D01*
X105094827Y-33212400D02*
X116290000Y-33212400D01*
X32710000Y-33415600D02*
X103768691Y-33415600D01*
X105608596Y-33415600D02*
X116290000Y-33415600D01*
X32710000Y-33618800D02*
X103508962Y-33618800D01*
X105847967Y-33618800D02*
X116290000Y-33618800D01*
X32710000Y-33822000D02*
X103328781Y-33822000D01*
X106058907Y-33822000D02*
X116290000Y-33822000D01*
X32710000Y-34025200D02*
X103157944Y-34025200D01*
X106222954Y-34025200D02*
X116290000Y-34025200D01*
X32710000Y-34228400D02*
X103081195Y-34228400D01*
X106307122Y-34228400D02*
X116290000Y-34228400D01*
X32710000Y-34431600D02*
X98883200Y-34431600D01*
X100441984Y-34431600D02*
X102999560Y-34431600D01*
X106391290Y-34431600D02*
X116290000Y-34431600D01*
X32710000Y-34634800D02*
X98556447Y-34634800D01*
X100784889Y-34634800D02*
X102927697Y-34634800D01*
X106450274Y-34634800D02*
X116290000Y-34634800D01*
X32710000Y-34838000D02*
X98352893Y-34838000D01*
X100979627Y-34838000D02*
X102925587Y-34838000D01*
X106450097Y-34838000D02*
X116290000Y-34838000D01*
X32710000Y-35041200D02*
X98154887Y-35041200D01*
X101145759Y-35041200D02*
X102919530Y-35041200D01*
X106453756Y-35041200D02*
X116290000Y-35041200D01*
X32710000Y-35244400D02*
X97990273Y-35244400D01*
X101276884Y-35244400D02*
X102905517Y-35244400D01*
X106460159Y-35244400D02*
X116290000Y-35244400D01*
X32710000Y-35447600D02*
X97807950Y-35447600D01*
X101328866Y-35447600D02*
X102891503Y-35447600D01*
X106419862Y-35447600D02*
X116290000Y-35447600D01*
X32710000Y-35650800D02*
X97625627Y-35650800D01*
X101398904Y-35650800D02*
X102908727Y-35650800D01*
X106405849Y-35650800D02*
X116290000Y-35650800D01*
X32710000Y-35854000D02*
X97443304Y-35854000D01*
X101432831Y-35854000D02*
X102943324Y-35854000D01*
X106370369Y-35854000D02*
X116290000Y-35854000D01*
X32710000Y-36057200D02*
X97260980Y-36057200D01*
X101420035Y-36057200D02*
X102969372Y-36057200D01*
X106303649Y-36057200D02*
X116290000Y-36057200D01*
X32710000Y-36260400D02*
X97078657Y-36260400D01*
X101418151Y-36260400D02*
X103053340Y-36260400D01*
X106248460Y-36260400D02*
X116290000Y-36260400D01*
X32710000Y-36463600D02*
X96918021Y-36463600D01*
X101375652Y-36463600D02*
X103169736Y-36463600D01*
X106138284Y-36463600D02*
X116290000Y-36463600D01*
X32710000Y-36666800D02*
X96809138Y-36666800D01*
X101291319Y-36666800D02*
X103286133Y-36666800D01*
X105981261Y-36666800D02*
X116290000Y-36666800D01*
X32710000Y-36870000D02*
X96688725Y-36870000D01*
X101214085Y-36870000D02*
X103506380Y-36870000D01*
X105824238Y-36870000D02*
X116290000Y-36870000D01*
X32710000Y-37073200D02*
X96625762Y-37073200D01*
X101096167Y-37073200D02*
X103769337Y-37073200D01*
X105496027Y-37073200D02*
X116290000Y-37073200D01*
X32710000Y-37276400D02*
X96596660Y-37276400D01*
X100896270Y-37276400D02*
X104343860Y-37276400D01*
X104912365Y-37276400D02*
X116290000Y-37276400D01*
X32710000Y-37479600D02*
X96567558Y-37479600D01*
X100713946Y-37479600D02*
X101426683Y-37479600D01*
X102863161Y-37479600D02*
X116290000Y-37479600D01*
X32710000Y-37682800D02*
X96561467Y-37682800D01*
X100531623Y-37682800D02*
X100936115Y-37682800D01*
X103357856Y-37682800D02*
X116290000Y-37682800D01*
X32710000Y-37886000D02*
X96613449Y-37886000D01*
X100349299Y-37886000D02*
X100576671Y-37886000D01*
X103724324Y-37886000D02*
X116290000Y-37886000D01*
X32710000Y-38089200D02*
X96665432Y-38089200D01*
X100166976Y-38089200D02*
X100373117Y-38089200D01*
X103927170Y-38089200D02*
X116290000Y-38089200D01*
X32710000Y-38292400D02*
X96718388Y-38292400D01*
X99984653Y-38292400D02*
X100169562Y-38292400D01*
X104130016Y-38292400D02*
X116290000Y-38292400D01*
X32710000Y-38495600D02*
X96870676Y-38495600D01*
X99802330Y-38495600D02*
X99966007Y-38495600D01*
X104332862Y-38495600D02*
X116290000Y-38495600D01*
X32710000Y-38698800D02*
X96400707Y-38698800D01*
X99620007Y-38698800D02*
X99852721Y-38698800D01*
X104448607Y-38698800D02*
X106560707Y-38698800D01*
X107949905Y-38698800D02*
X116290000Y-38698800D01*
X32710000Y-38902000D02*
X96073319Y-38902000D01*
X99351740Y-38902000D02*
X99770481Y-38902000D01*
X104532775Y-38902000D02*
X106233319Y-38902000D01*
X108203517Y-38902000D02*
X116290000Y-38902000D01*
X32710000Y-39105200D02*
X95893199Y-39105200D01*
X99080607Y-39105200D02*
X99687481Y-39105200D01*
X104616944Y-39105200D02*
X106053199Y-39105200D01*
X108420364Y-39105200D02*
X116290000Y-39105200D01*
X32710000Y-39308400D02*
X95740190Y-39308400D01*
X98379588Y-39308400D02*
X99603105Y-39308400D01*
X104701112Y-39308400D02*
X105900190Y-39308400D01*
X108539588Y-39308400D02*
X116290000Y-39308400D01*
X32710000Y-39511600D02*
X95664796Y-39511600D01*
X98477891Y-39511600D02*
X99521552Y-39511600D01*
X104779353Y-39511600D02*
X105824796Y-39511600D01*
X108637891Y-39511600D02*
X116290000Y-39511600D01*
X32710000Y-39714800D02*
X95591974Y-39714800D01*
X98547509Y-39714800D02*
X99518450Y-39714800D01*
X104779175Y-39714800D02*
X105751974Y-39714800D01*
X108707509Y-39714800D02*
X116290000Y-39714800D01*
X32710000Y-39918000D02*
X95584197Y-39918000D01*
X98555998Y-39918000D02*
X99520102Y-39918000D01*
X104778998Y-39918000D02*
X105744197Y-39918000D01*
X108715998Y-39918000D02*
X116290000Y-39918000D01*
X32710000Y-40121200D02*
X95584020Y-40121200D01*
X98555821Y-40121200D02*
X99521020Y-40121200D01*
X104779729Y-40121200D02*
X105744020Y-40121200D01*
X108715821Y-40121200D02*
X116290000Y-40121200D01*
X32710000Y-40324400D02*
X95583896Y-40324400D01*
X98555644Y-40324400D02*
X99520843Y-40324400D01*
X104781381Y-40324400D02*
X105743896Y-40324400D01*
X108715644Y-40324400D02*
X116290000Y-40324400D01*
X32710000Y-40527600D02*
X95650976Y-40527600D01*
X98482529Y-40527600D02*
X99520666Y-40527600D01*
X104783033Y-40527600D02*
X105810976Y-40527600D01*
X108642529Y-40527600D02*
X116290000Y-40527600D01*
X32710000Y-40730800D02*
X95751818Y-40730800D01*
X98410970Y-40730800D02*
X99590273Y-40730800D01*
X104705532Y-40730800D02*
X105911818Y-40730800D01*
X108570970Y-40730800D02*
X116290000Y-40730800D01*
X32710000Y-40934000D02*
X95868503Y-40934000D01*
X98267637Y-40934000D02*
X99674441Y-40934000D01*
X104621156Y-40934000D02*
X106028503Y-40934000D01*
X108427637Y-40934000D02*
X116290000Y-40934000D01*
X32710000Y-41137200D02*
X96075720Y-41137200D01*
X98083730Y-41137200D02*
X99758609Y-41137200D01*
X104537937Y-41137200D02*
X106235720Y-41137200D01*
X108243730Y-41137200D02*
X116290000Y-41137200D01*
X32710000Y-41340400D02*
X96324720Y-41340400D01*
X97789633Y-41340400D02*
X99842777Y-41340400D01*
X104455698Y-41340400D02*
X106484720Y-41340400D01*
X107949633Y-41340400D02*
X116290000Y-41340400D01*
X32710000Y-41543600D02*
X99946375Y-41543600D01*
X104354829Y-41543600D02*
X116290000Y-41543600D01*
X32710000Y-41746800D02*
X100149220Y-41746800D01*
X104151274Y-41746800D02*
X116290000Y-41746800D01*
X32710000Y-41950000D02*
X100352066Y-41950000D01*
X103947720Y-41950000D02*
X116290000Y-41950000D01*
X32710000Y-42153200D02*
X100554912Y-42153200D01*
X103744165Y-42153200D02*
X116290000Y-42153200D01*
X32710000Y-42356400D02*
X100890750Y-42356400D01*
X103414101Y-42356400D02*
X116290000Y-42356400D01*
X32710000Y-42559600D02*
X101386747Y-42559600D01*
X102923532Y-42559600D02*
X116290000Y-42559600D01*
X32710000Y-42762800D02*
X116290000Y-42762800D01*
X32710000Y-42966000D02*
X116290000Y-42966000D01*
X32710000Y-43169200D02*
X116290000Y-43169200D01*
X32710000Y-43372400D02*
X116290000Y-43372400D01*
X32710000Y-43575600D02*
X116290000Y-43575600D01*
X32710000Y-43778800D02*
X116290000Y-43778800D01*
X32710000Y-43982000D02*
X116290000Y-43982000D01*
X32710000Y-44185200D02*
X116290000Y-44185200D01*
X32710000Y-44388400D02*
X116290000Y-44388400D01*
X32710000Y-44591600D02*
X116290000Y-44591600D01*
X32710000Y-44794800D02*
X116290000Y-44794800D01*
X32710000Y-44998000D02*
X116290000Y-44998000D01*
X32710000Y-45201200D02*
X116290000Y-45201200D01*
X32710000Y-45404400D02*
X116290000Y-45404400D01*
X32710000Y-45607600D02*
X116290000Y-45607600D01*
X32710000Y-45810800D02*
X116290000Y-45810800D01*
X32710000Y-46014000D02*
X116290000Y-46014000D01*
X32710000Y-46217200D02*
X116290000Y-46217200D01*
X32710000Y-46420400D02*
X116290000Y-46420400D01*
X32710000Y-46623600D02*
X116290000Y-46623600D01*
X32710000Y-46826800D02*
X116290000Y-46826800D01*
X32710000Y-47030000D02*
X116290000Y-47030000D01*
X32710000Y-47233200D02*
X116290000Y-47233200D01*
X32710000Y-47436400D02*
X116290000Y-47436400D01*
X32710000Y-47639600D02*
X116290000Y-47639600D01*
X32710000Y-47842800D02*
X116290000Y-47842800D01*
X32710000Y-48046000D02*
X116290000Y-48046000D01*
X32710000Y-48249200D02*
X116290000Y-48249200D01*
X32710000Y-48452400D02*
X116290000Y-48452400D01*
X32710000Y-48655600D02*
X116290000Y-48655600D01*
X32710000Y-48858800D02*
X116290000Y-48858800D01*
X32710000Y-49062000D02*
X116290000Y-49062000D01*
X32710000Y-49265200D02*
X116290000Y-49265200D01*
X32710000Y-49468400D02*
X116290000Y-49468400D01*
X32710000Y-49671600D02*
X116290000Y-49671600D01*
X32710000Y-49874800D02*
X116290000Y-49874800D01*
X32710000Y-50078000D02*
X116290000Y-50078000D01*
X32710000Y-50281200D02*
X116290000Y-50281200D01*
X32710000Y-50484400D02*
X116290000Y-50484400D01*
X32710000Y-50687600D02*
X116290000Y-50687600D01*
X32710000Y-50890800D02*
X116290000Y-50890800D01*
X32710000Y-51094000D02*
X116290000Y-51094000D01*
X32710000Y-51297200D02*
X116290000Y-51297200D01*
X32710000Y-51500400D02*
X116290000Y-51500400D01*
X32710000Y-51703600D02*
X116290000Y-51703600D01*
X32710000Y-51906800D02*
X116290000Y-51906800D01*
X32710000Y-52110000D02*
X40910698Y-52110000D01*
X90288918Y-52110000D02*
X116290000Y-52110000D01*
X32710000Y-52313200D02*
X40873164Y-52313200D01*
X90327000Y-52313200D02*
X116290000Y-52313200D01*
X32710000Y-52516400D02*
X40873461Y-52516400D01*
X90327000Y-52516400D02*
X116290000Y-52516400D01*
X32710000Y-52719600D02*
X40873757Y-52719600D01*
X90327000Y-52719600D02*
X116290000Y-52719600D01*
X32710000Y-52922800D02*
X40874053Y-52922800D01*
X90327000Y-52922800D02*
X116290000Y-52922800D01*
X32710000Y-53126000D02*
X40874350Y-53126000D01*
X90327000Y-53126000D02*
X116290000Y-53126000D01*
X32710000Y-53329200D02*
X40874646Y-53329200D01*
X90327000Y-53329200D02*
X116290000Y-53329200D01*
X32710000Y-53532400D02*
X40874942Y-53532400D01*
X90327000Y-53532400D02*
X116290000Y-53532400D01*
X32710000Y-53735600D02*
X40875239Y-53735600D01*
X90327000Y-53735600D02*
X116290000Y-53735600D01*
X32710000Y-53938800D02*
X40875535Y-53938800D01*
X90327000Y-53938800D02*
X116290000Y-53938800D01*
X32710000Y-54142000D02*
X40875831Y-54142000D01*
X90327000Y-54142000D02*
X116290000Y-54142000D01*
X32710000Y-54345200D02*
X40876128Y-54345200D01*
X90327000Y-54345200D02*
X116290000Y-54345200D01*
X32710000Y-54548400D02*
X40876424Y-54548400D01*
X90327000Y-54548400D02*
X116290000Y-54548400D01*
X32710000Y-54751600D02*
X40876720Y-54751600D01*
X90327000Y-54751600D02*
X116290000Y-54751600D01*
X32710000Y-54954800D02*
X40877017Y-54954800D01*
X90327000Y-54954800D02*
X116290000Y-54954800D01*
X32710000Y-55158000D02*
X40877313Y-55158000D01*
X90327000Y-55158000D02*
X116290000Y-55158000D01*
X32710000Y-55361200D02*
X40877609Y-55361200D01*
X90327000Y-55361200D02*
X116290000Y-55361200D01*
X32710000Y-55564400D02*
X40877905Y-55564400D01*
X90327000Y-55564400D02*
X116290000Y-55564400D01*
X32710000Y-55767600D02*
X40878202Y-55767600D01*
X90327000Y-55767600D02*
X116290000Y-55767600D01*
X32710000Y-55970800D02*
X40878498Y-55970800D01*
X90327000Y-55970800D02*
X116290000Y-55970800D01*
X32710000Y-56174000D02*
X40878794Y-56174000D01*
X90327000Y-56174000D02*
X116290000Y-56174000D01*
X32710000Y-56377200D02*
X40879091Y-56377200D01*
X90327000Y-56377200D02*
X116290000Y-56377200D01*
X32710000Y-56580400D02*
X40879387Y-56580400D01*
X90327000Y-56580400D02*
X116290000Y-56580400D01*
X32710000Y-56783600D02*
X40879683Y-56783600D01*
X90327000Y-56783600D02*
X116290000Y-56783600D01*
X32710000Y-56986800D02*
X40879980Y-56986800D01*
X90327000Y-56986800D02*
X116290000Y-56986800D01*
X32710000Y-57190000D02*
X40880276Y-57190000D01*
X90327000Y-57190000D02*
X116290000Y-57190000D01*
X32710000Y-57393200D02*
X40880572Y-57393200D01*
X90327000Y-57393200D02*
X116290000Y-57393200D01*
X32710000Y-57596400D02*
X40880869Y-57596400D01*
X90327000Y-57596400D02*
X116290000Y-57596400D01*
X32710000Y-57799600D02*
X40881165Y-57799600D01*
X90327000Y-57799600D02*
X116290000Y-57799600D01*
X32710000Y-58002800D02*
X40881461Y-58002800D01*
X90327000Y-58002800D02*
X116290000Y-58002800D01*
X32710000Y-58206000D02*
X40881758Y-58206000D01*
X90327000Y-58206000D02*
X116290000Y-58206000D01*
X32710000Y-58409200D02*
X40882054Y-58409200D01*
X90327000Y-58409200D02*
X116290000Y-58409200D01*
X32710000Y-58612400D02*
X40882350Y-58612400D01*
X90327000Y-58612400D02*
X116290000Y-58612400D01*
X32710000Y-58815600D02*
X40882647Y-58815600D01*
X90327000Y-58815600D02*
X116290000Y-58815600D01*
X32710000Y-59018800D02*
X40882943Y-59018800D01*
X90327000Y-59018800D02*
X116290000Y-59018800D01*
X32710000Y-59222000D02*
X40883239Y-59222000D01*
X90327000Y-59222000D02*
X116290000Y-59222000D01*
X32710000Y-59425200D02*
X40883536Y-59425200D01*
X90327000Y-59425200D02*
X116290000Y-59425200D01*
X32710000Y-59628400D02*
X40883832Y-59628400D01*
X90327000Y-59628400D02*
X116290000Y-59628400D01*
X32710000Y-59831600D02*
X40884128Y-59831600D01*
X90327000Y-59831600D02*
X116290000Y-59831600D01*
X32710000Y-60034800D02*
X40884425Y-60034800D01*
X90327000Y-60034800D02*
X116290000Y-60034800D01*
X32710000Y-60238000D02*
X40884721Y-60238000D01*
X90327000Y-60238000D02*
X116290000Y-60238000D01*
X32710000Y-60441200D02*
X40885017Y-60441200D01*
X90327000Y-60441200D02*
X116290000Y-60441200D01*
X32710000Y-60644400D02*
X40885314Y-60644400D01*
X90327000Y-60644400D02*
X116290000Y-60644400D01*
X32710000Y-60847600D02*
X40885610Y-60847600D01*
X90327000Y-60847600D02*
X116290000Y-60847600D01*
X32710000Y-61050800D02*
X40885906Y-61050800D01*
X90327000Y-61050800D02*
X116290000Y-61050800D01*
X32710000Y-61254000D02*
X40886203Y-61254000D01*
X90327000Y-61254000D02*
X116290000Y-61254000D01*
X32710000Y-61457200D02*
X40886499Y-61457200D01*
X90327000Y-61457200D02*
X116290000Y-61457200D01*
X32710000Y-61660400D02*
X40886795Y-61660400D01*
X90327000Y-61660400D02*
X116290000Y-61660400D01*
X32710000Y-61863600D02*
X40887092Y-61863600D01*
X90327000Y-61863600D02*
X116290000Y-61863600D01*
X32710000Y-62066800D02*
X40887388Y-62066800D01*
X90327000Y-62066800D02*
X116290000Y-62066800D01*
X32710000Y-62270000D02*
X40887684Y-62270000D01*
X90327000Y-62270000D02*
X116290000Y-62270000D01*
X32710000Y-62473200D02*
X40887980Y-62473200D01*
X90327000Y-62473200D02*
X116290000Y-62473200D01*
X32710000Y-62676400D02*
X40888277Y-62676400D01*
X90327000Y-62676400D02*
X116290000Y-62676400D01*
X32710000Y-62879600D02*
X40888573Y-62879600D01*
X90327000Y-62879600D02*
X116290000Y-62879600D01*
X32710000Y-63082800D02*
X40888869Y-63082800D01*
X90327000Y-63082800D02*
X90508614Y-63082800D01*
X91691109Y-63082800D02*
X116290000Y-63082800D01*
X32710000Y-63286000D02*
X40889166Y-63286000D01*
X92011791Y-63286000D02*
X116290000Y-63286000D01*
X32710000Y-63489200D02*
X40889462Y-63489200D01*
X97515102Y-63489200D02*
X116290000Y-63489200D01*
X32710000Y-63692400D02*
X40889758Y-63692400D01*
X97814685Y-63692400D02*
X116290000Y-63692400D01*
X32710000Y-63895600D02*
X40890055Y-63895600D01*
X97973918Y-63895600D02*
X116290000Y-63895600D01*
X32710000Y-64098800D02*
X40890351Y-64098800D01*
X98057878Y-64098800D02*
X116290000Y-64098800D01*
X32710000Y-64302000D02*
X40890647Y-64302000D01*
X98085042Y-64302000D02*
X116290000Y-64302000D01*
X32710000Y-64505200D02*
X40890944Y-64505200D01*
X98084865Y-64505200D02*
X116290000Y-64505200D01*
X32710000Y-64708400D02*
X40891240Y-64708400D01*
X98013582Y-64708400D02*
X116290000Y-64708400D01*
X32710000Y-64911600D02*
X40891536Y-64911600D01*
X97910864Y-64911600D02*
X116290000Y-64911600D01*
X32710000Y-65114800D02*
X40891833Y-65114800D01*
X97737220Y-65114800D02*
X116290000Y-65114800D01*
X32710000Y-65318000D02*
X40892129Y-65318000D01*
X97940066Y-65318000D02*
X116290000Y-65318000D01*
X32710000Y-65521200D02*
X40892425Y-65521200D01*
X98025815Y-65521200D02*
X116290000Y-65521200D01*
X32710000Y-65724400D02*
X40892722Y-65724400D01*
X98085110Y-65724400D02*
X116290000Y-65724400D01*
X32710000Y-65927600D02*
X40893018Y-65927600D01*
X98084933Y-65927600D02*
X116290000Y-65927600D01*
X32710000Y-66130800D02*
X40893314Y-66130800D01*
X98045805Y-66130800D02*
X116290000Y-66130800D01*
X32710000Y-66334000D02*
X40893611Y-66334000D01*
X97961428Y-66334000D02*
X116290000Y-66334000D01*
X32710000Y-66537200D02*
X40893907Y-66537200D01*
X97785044Y-66537200D02*
X116290000Y-66537200D01*
X32710000Y-66740400D02*
X40894203Y-66740400D01*
X97480914Y-66740400D02*
X116290000Y-66740400D01*
X32710000Y-66943600D02*
X40894500Y-66943600D01*
X97277714Y-66943600D02*
X116290000Y-66943600D01*
X32710000Y-67146800D02*
X40894796Y-67146800D01*
X96982074Y-67146800D02*
X116290000Y-67146800D01*
X32710000Y-67350000D02*
X40895092Y-67350000D01*
X92075636Y-67350000D02*
X116290000Y-67350000D01*
X32710000Y-67553200D02*
X40895389Y-67553200D01*
X90327000Y-67553200D02*
X90354762Y-67553200D01*
X91846279Y-67553200D02*
X116290000Y-67553200D01*
X32710000Y-67756400D02*
X40895685Y-67756400D01*
X90327000Y-67756400D02*
X116290000Y-67756400D01*
X32710000Y-67959600D02*
X40895981Y-67959600D01*
X90327000Y-67959600D02*
X116290000Y-67959600D01*
X32710000Y-68162800D02*
X40896278Y-68162800D01*
X90327000Y-68162800D02*
X116290000Y-68162800D01*
X32710000Y-68366000D02*
X40896574Y-68366000D01*
X90327000Y-68366000D02*
X116290000Y-68366000D01*
X32710000Y-68569200D02*
X40896870Y-68569200D01*
X90327000Y-68569200D02*
X116290000Y-68569200D01*
X32710000Y-68772400D02*
X40897167Y-68772400D01*
X90327000Y-68772400D02*
X116290000Y-68772400D01*
X32710000Y-68975600D02*
X40897463Y-68975600D01*
X90327000Y-68975600D02*
X116290000Y-68975600D01*
X32710000Y-69178800D02*
X40897759Y-69178800D01*
X90327000Y-69178800D02*
X116290000Y-69178800D01*
X32710000Y-69382000D02*
X40898056Y-69382000D01*
X90327000Y-69382000D02*
X116290000Y-69382000D01*
X32710000Y-69585200D02*
X40898352Y-69585200D01*
X90327000Y-69585200D02*
X116290000Y-69585200D01*
X32710000Y-69788400D02*
X40898648Y-69788400D01*
X90327000Y-69788400D02*
X116290000Y-69788400D01*
X32710000Y-69991600D02*
X40898944Y-69991600D01*
X90327000Y-69991600D02*
X116290000Y-69991600D01*
X32710000Y-70194800D02*
X40899241Y-70194800D01*
X90327000Y-70194800D02*
X116290000Y-70194800D01*
X32710000Y-70398000D02*
X40899537Y-70398000D01*
X90327000Y-70398000D02*
X116290000Y-70398000D01*
X32710000Y-70601200D02*
X40899833Y-70601200D01*
X90327000Y-70601200D02*
X116290000Y-70601200D01*
X32710000Y-70804400D02*
X40900130Y-70804400D01*
X90327000Y-70804400D02*
X116290000Y-70804400D01*
X32710000Y-71007600D02*
X40900426Y-71007600D01*
X90327000Y-71007600D02*
X116290000Y-71007600D01*
X32710000Y-71210800D02*
X40900722Y-71210800D01*
X90327000Y-71210800D02*
X116290000Y-71210800D01*
X32710000Y-71414000D02*
X40901019Y-71414000D01*
X90327000Y-71414000D02*
X116290000Y-71414000D01*
X32710000Y-71617200D02*
X40901315Y-71617200D01*
X90327000Y-71617200D02*
X116290000Y-71617200D01*
X32710000Y-71820400D02*
X40901611Y-71820400D01*
X90327000Y-71820400D02*
X116290000Y-71820400D01*
X32710000Y-72023600D02*
X40901908Y-72023600D01*
X90327000Y-72023600D02*
X116290000Y-72023600D01*
X32710000Y-72226800D02*
X40902204Y-72226800D01*
X90327000Y-72226800D02*
X116290000Y-72226800D01*
X32710000Y-72430000D02*
X40902500Y-72430000D01*
X90327000Y-72430000D02*
X116290000Y-72430000D01*
X32710000Y-72633200D02*
X40902797Y-72633200D01*
X90327000Y-72633200D02*
X116290000Y-72633200D01*
X32710000Y-72836400D02*
X40903093Y-72836400D01*
X90327000Y-72836400D02*
X116290000Y-72836400D01*
X32710000Y-73039600D02*
X40903389Y-73039600D01*
X90327000Y-73039600D02*
X116290000Y-73039600D01*
X32710000Y-73242800D02*
X40903686Y-73242800D01*
X90327000Y-73242800D02*
X116290000Y-73242800D01*
X32710000Y-73446000D02*
X40903982Y-73446000D01*
X90327000Y-73446000D02*
X116290000Y-73446000D01*
X32710000Y-73649200D02*
X40904278Y-73649200D01*
X90327000Y-73649200D02*
X116290000Y-73649200D01*
X32710000Y-73852400D02*
X40904575Y-73852400D01*
X90327000Y-73852400D02*
X116290000Y-73852400D01*
X32710000Y-74055600D02*
X40904871Y-74055600D01*
X90327000Y-74055600D02*
X116290000Y-74055600D01*
X32710000Y-74258800D02*
X40905167Y-74258800D01*
X90327000Y-74258800D02*
X116290000Y-74258800D01*
X32710000Y-74462000D02*
X40905464Y-74462000D01*
X90327000Y-74462000D02*
X116290000Y-74462000D01*
X32710000Y-74665200D02*
X40905760Y-74665200D01*
X90327000Y-74665200D02*
X116290000Y-74665200D01*
X32710000Y-74868400D02*
X40906056Y-74868400D01*
X90327000Y-74868400D02*
X116290000Y-74868400D01*
X32710000Y-75071600D02*
X40906353Y-75071600D01*
X90327000Y-75071600D02*
X116290000Y-75071600D01*
X32710000Y-75274800D02*
X40906649Y-75274800D01*
X90327000Y-75274800D02*
X116290000Y-75274800D01*
X32710000Y-75478000D02*
X40906945Y-75478000D01*
X90327000Y-75478000D02*
X116290000Y-75478000D01*
X32710000Y-75681200D02*
X40907242Y-75681200D01*
X90327000Y-75681200D02*
X116290000Y-75681200D01*
X32710000Y-75884400D02*
X40907538Y-75884400D01*
X90327000Y-75884400D02*
X116290000Y-75884400D01*
X32741335Y-76087600D02*
X40907834Y-76087600D01*
X90327000Y-76087600D02*
X116258666Y-76087600D01*
X32781754Y-76290800D02*
X40908131Y-76290800D01*
X90327000Y-76290800D02*
X116218247Y-76290800D01*
X32822173Y-76494000D02*
X40908427Y-76494000D01*
X90327000Y-76494000D02*
X116177828Y-76494000D01*
X32862592Y-76697200D02*
X40908723Y-76697200D01*
X90327000Y-76697200D02*
X116137409Y-76697200D01*
X32903011Y-76900400D02*
X40909019Y-76900400D01*
X90327000Y-76900400D02*
X116096990Y-76900400D01*
X32943430Y-77103600D02*
X40909316Y-77103600D01*
X90327000Y-77103600D02*
X116056571Y-77103600D01*
X32983849Y-77306800D02*
X40909612Y-77306800D01*
X90327000Y-77306800D02*
X116016152Y-77306800D01*
X33024268Y-77510000D02*
X40909908Y-77510000D01*
X90327000Y-77510000D02*
X115975733Y-77510000D01*
X33100731Y-77713200D02*
X40910205Y-77713200D01*
X90327000Y-77713200D02*
X115899270Y-77713200D01*
X33236505Y-77916400D02*
X40910501Y-77916400D01*
X90327000Y-77916400D02*
X115763496Y-77916400D01*
X33372279Y-78119600D02*
X40910797Y-78119600D01*
X90327000Y-78119600D02*
X115627722Y-78119600D01*
X33508053Y-78322800D02*
X40911094Y-78322800D01*
X90327000Y-78322800D02*
X115491948Y-78322800D01*
X33643827Y-78526000D02*
X40911390Y-78526000D01*
X90327000Y-78526000D02*
X115356174Y-78526000D01*
X33779601Y-78729200D02*
X40911686Y-78729200D01*
X90327000Y-78729200D02*
X115220400Y-78729200D01*
X33915375Y-78932400D02*
X40911983Y-78932400D01*
X90327000Y-78932400D02*
X115084626Y-78932400D01*
X34143889Y-79135600D02*
X40912279Y-79135600D01*
X90327000Y-79135600D02*
X114856111Y-79135600D01*
X34447999Y-79338800D02*
X40912575Y-79338800D01*
X90327000Y-79338800D02*
X114552001Y-79338800D01*
X34752109Y-79542000D02*
X40912872Y-79542000D01*
X90327000Y-79542000D02*
X114247891Y-79542000D01*
X35056220Y-79745200D02*
X40913168Y-79745200D01*
X90327000Y-79745200D02*
X113943781Y-79745200D01*
X35360330Y-79948400D02*
X40913464Y-79948400D01*
X90327000Y-79948400D02*
X113639671Y-79948400D01*
X36374147Y-80151600D02*
X40913761Y-80151600D01*
X90327000Y-80151600D02*
X112625854Y-80151600D01*
X92212275Y-65213600D02*
X96464066Y-65213600D01*
X92142363Y-65416800D02*
X96317478Y-65416800D01*
X96357808Y-65319673D02*
X96288577Y-65486400D01*
X92211841Y-65486400D01*
X92075658Y-65349979D01*
X92212275Y-65213600D01*
X96464066Y-65213600D01*
X96357808Y-65319673D01*
M02*
