G04 #@! TF.FileFunction,Soldermask,Top*
%FSLAX46Y46*%
G04 Gerber Fmt 4.6, Leading zero omitted, Abs format (unit mm)*
G04 Created by KiCad (PCBNEW 4.0.6) date 2018 March 28, Wednesday 01:43:25*
%MOMM*%
%LPD*%
G01*
G04 APERTURE LIST*
%ADD10C,0.100000*%
%ADD11C,0.300000*%
%ADD12C,0.200000*%
%ADD13C,0.003331*%
%ADD14C,0.085028*%
%ADD15C,2.650000*%
%ADD16C,2.650000*%
%ADD17C,4.387800*%
%ADD18C,2.101800*%
%ADD19R,1.150000X1.200000*%
%ADD20R,1.200000X1.200000*%
%ADD21R,0.900000X1.300000*%
%ADD22R,1.000000X1.950000*%
%ADD23C,1.606500*%
%ADD24C,1.924000*%
G04 APERTURE END LIST*
D10*
D11*
X101228572Y-71328571D02*
X101228572Y-69828571D01*
X102085715Y-71328571D01*
X102085715Y-69828571D01*
X103300001Y-70542857D02*
X102800001Y-70542857D01*
X102800001Y-71328571D02*
X102800001Y-69828571D01*
X103514287Y-69828571D01*
X104942858Y-71185714D02*
X104871429Y-71257143D01*
X104657143Y-71328571D01*
X104514286Y-71328571D01*
X104300001Y-71257143D01*
X104157143Y-71114286D01*
X104085715Y-70971429D01*
X104014286Y-70685714D01*
X104014286Y-70471429D01*
X104085715Y-70185714D01*
X104157143Y-70042857D01*
X104300001Y-69900000D01*
X104514286Y-69828571D01*
X104657143Y-69828571D01*
X104871429Y-69900000D01*
X104942858Y-69971429D01*
D12*
X110530809Y-65130808D02*
G75*
G03X110530809Y-65130808I-7480809J0D01*
G01*
D13*
G36*
X43784755Y-46052975D02*
X43703562Y-46018410D01*
X45635637Y-44617375D01*
X47258610Y-43680422D01*
X47258610Y-41793593D01*
X47258598Y-41622499D01*
X47258562Y-41455587D01*
X47258505Y-41293536D01*
X47258426Y-41137026D01*
X47258328Y-40986735D01*
X47258211Y-40843343D01*
X47258077Y-40707528D01*
X47257926Y-40579970D01*
X47257760Y-40461347D01*
X47257580Y-40352339D01*
X47257387Y-40253624D01*
X47257183Y-40165882D01*
X47256968Y-40089791D01*
X47256744Y-40026031D01*
X47256512Y-39975280D01*
X47256273Y-39938218D01*
X47256028Y-39915523D01*
X47255779Y-39907875D01*
X47248873Y-39911855D01*
X47228989Y-39923372D01*
X47196713Y-39942086D01*
X47152635Y-39967656D01*
X47097341Y-39999740D01*
X47031419Y-40037999D01*
X46955457Y-40082090D01*
X46870043Y-40131673D01*
X46775763Y-40186407D01*
X46673207Y-40245951D01*
X46562962Y-40309964D01*
X46445615Y-40378105D01*
X46321755Y-40450033D01*
X46191968Y-40525407D01*
X46056842Y-40603886D01*
X45916966Y-40685130D01*
X45772927Y-40768796D01*
X45625313Y-40854545D01*
X43997607Y-41800102D01*
X43997607Y-43682012D01*
X43997607Y-45563919D01*
X44005121Y-45559104D01*
X44012467Y-45554820D01*
X44032736Y-45543076D01*
X44065341Y-45524212D01*
X44109696Y-45498566D01*
X44165214Y-45466478D01*
X44231306Y-45428287D01*
X44307387Y-45384331D01*
X44392869Y-45334950D01*
X44487165Y-45280483D01*
X44589688Y-45221269D01*
X44699851Y-45157647D01*
X44817066Y-45089956D01*
X44940747Y-45018535D01*
X45070307Y-44943724D01*
X45205158Y-44865861D01*
X45344714Y-44785286D01*
X45488386Y-44702337D01*
X45635590Y-44617354D01*
X45635637Y-44617375D01*
X43703562Y-46018410D01*
X43634517Y-43678686D01*
X43634474Y-41800904D01*
X42023485Y-40869923D01*
X41877332Y-40785463D01*
X41734615Y-40702989D01*
X41595919Y-40622839D01*
X41461829Y-40545352D01*
X41332933Y-40470866D01*
X41209814Y-40399720D01*
X41093061Y-40332253D01*
X40983257Y-40268802D01*
X40880990Y-40209707D01*
X40786845Y-40155306D01*
X40701409Y-40105938D01*
X40625266Y-40061941D01*
X40559002Y-40023654D01*
X40503205Y-39991415D01*
X40458459Y-39965563D01*
X40425351Y-39946436D01*
X40404466Y-39934373D01*
X40396390Y-39929713D01*
X40380277Y-39920484D01*
X40381070Y-41801168D01*
X40381864Y-43681853D01*
X42004001Y-44618849D01*
X42151115Y-44703817D01*
X42294674Y-44786716D01*
X42434092Y-44867207D01*
X42568785Y-44944953D01*
X42698166Y-45019616D01*
X42821649Y-45090859D01*
X42938650Y-45158345D01*
X43048582Y-45221735D01*
X43150860Y-45280693D01*
X43244898Y-45334881D01*
X43330111Y-45383961D01*
X43405914Y-45427596D01*
X43471719Y-45465448D01*
X43526943Y-45497180D01*
X43570999Y-45522454D01*
X43603301Y-45540934D01*
X43623265Y-45552280D01*
X43630305Y-45556156D01*
X43630814Y-45552573D01*
X43631283Y-45541227D01*
X43631715Y-45521353D01*
X43632109Y-45492184D01*
X43632468Y-45452953D01*
X43632792Y-45402894D01*
X43633082Y-45341242D01*
X43633341Y-45267229D01*
X43633569Y-45180090D01*
X43633767Y-45079057D01*
X43633937Y-44963365D01*
X43634079Y-44832248D01*
X43634196Y-44684938D01*
X43634288Y-44520670D01*
X43634356Y-44338677D01*
X43634402Y-44138193D01*
X43634427Y-43918451D01*
X43634432Y-43678686D01*
X43634517Y-43678686D01*
X43703562Y-46018410D01*
X43634477Y-39605536D01*
X43634477Y-37831526D01*
X43616988Y-37841427D01*
X43603722Y-37849024D01*
X43576218Y-37864850D01*
X43535378Y-37888383D01*
X43482100Y-37919103D01*
X43417285Y-37956492D01*
X43341834Y-38000027D01*
X43256646Y-38049191D01*
X43162623Y-38103462D01*
X43060664Y-38162321D01*
X42951670Y-38225247D01*
X42836541Y-38291721D01*
X42716177Y-38361222D01*
X42591478Y-38433231D01*
X42463346Y-38507227D01*
X42332679Y-38582691D01*
X42200379Y-38659103D01*
X42067345Y-38735942D01*
X41934479Y-38812688D01*
X41802679Y-38888822D01*
X41672847Y-38963824D01*
X41545883Y-39037173D01*
X41422687Y-39108350D01*
X41304159Y-39176834D01*
X41191200Y-39242105D01*
X41084709Y-39303644D01*
X40985588Y-39360930D01*
X40894736Y-39413444D01*
X40813054Y-39460665D01*
X40741442Y-39502074D01*
X40680801Y-39537150D01*
X40632030Y-39565373D01*
X40596029Y-39586224D01*
X40573700Y-39599182D01*
X40565943Y-39603728D01*
X40573549Y-39608410D01*
X40596120Y-39621740D01*
X40632722Y-39643179D01*
X40682420Y-39672184D01*
X40744281Y-39708216D01*
X40817372Y-39750734D01*
X40900758Y-39799196D01*
X40993505Y-39853064D01*
X41094681Y-39911794D01*
X41203351Y-39974848D01*
X41318582Y-40041684D01*
X41439439Y-40111761D01*
X41564990Y-40184540D01*
X41694300Y-40259478D01*
X41826435Y-40336036D01*
X41960462Y-40413673D01*
X42095447Y-40491847D01*
X42230457Y-40570020D01*
X42364557Y-40647648D01*
X42496814Y-40724193D01*
X42626294Y-40799113D01*
X42752063Y-40871868D01*
X42873188Y-40941916D01*
X42988735Y-41008718D01*
X43097769Y-41071732D01*
X43199358Y-41130417D01*
X43292568Y-41184234D01*
X43376464Y-41232641D01*
X43450114Y-41275098D01*
X43512583Y-41311064D01*
X43562937Y-41339998D01*
X43600244Y-41361360D01*
X43623568Y-41374608D01*
X43631977Y-41379203D01*
X43632207Y-41371073D01*
X43632431Y-41347127D01*
X43632648Y-41308123D01*
X43632856Y-41254820D01*
X43633055Y-41187976D01*
X43633244Y-41108347D01*
X43633421Y-41016694D01*
X43633586Y-40913773D01*
X43633738Y-40800343D01*
X43633875Y-40677162D01*
X43633997Y-40544987D01*
X43634104Y-40404578D01*
X43634193Y-40256691D01*
X43634263Y-40102086D01*
X43634315Y-39941519D01*
X43634347Y-39775750D01*
X43634358Y-39605536D01*
X43634477Y-39605536D01*
X43703562Y-46018410D01*
X43999123Y-37832162D01*
X43998939Y-37840299D01*
X43998761Y-37864207D01*
X43998590Y-37903130D01*
X43998427Y-37956310D01*
X43998271Y-38022993D01*
X43998125Y-38102422D01*
X43997987Y-38193841D01*
X43997860Y-38296494D01*
X43997743Y-38409624D01*
X43997638Y-38532476D01*
X43997544Y-38664293D01*
X43997464Y-38804320D01*
X43997396Y-38951800D01*
X43997342Y-39105977D01*
X43997303Y-39266095D01*
X43997279Y-39431398D01*
X43997271Y-39601129D01*
X43997271Y-41370098D01*
X44008093Y-41363484D01*
X44016110Y-41358819D01*
X44037627Y-41346354D01*
X44071990Y-41326469D01*
X44118546Y-41299539D01*
X44176641Y-41265942D01*
X44245623Y-41226057D01*
X44324838Y-41180261D01*
X44413634Y-41128930D01*
X44511356Y-41072444D01*
X44617352Y-41011178D01*
X44730969Y-40945512D01*
X44851554Y-40875822D01*
X44978453Y-40802486D01*
X45111013Y-40725882D01*
X45248582Y-40646387D01*
X45390505Y-40564379D01*
X45536130Y-40480235D01*
X45536289Y-40480243D01*
X45681876Y-40396119D01*
X45823687Y-40314169D01*
X45961071Y-40234769D01*
X46093379Y-40158295D01*
X46219962Y-40085122D01*
X46340169Y-40015627D01*
X46453352Y-39950184D01*
X46558861Y-39889169D01*
X46656046Y-39832959D01*
X46744258Y-39781928D01*
X46822847Y-39736453D01*
X46891164Y-39696909D01*
X46948559Y-39663672D01*
X46994382Y-39637117D01*
X47027985Y-39617621D01*
X47048717Y-39605558D01*
X47055928Y-39601306D01*
X47042188Y-39592622D01*
X47001874Y-39568631D01*
X46937834Y-39530994D01*
X46852917Y-39481371D01*
X46749971Y-39421424D01*
X46631844Y-39352814D01*
X46501384Y-39277202D01*
X46361440Y-39196249D01*
X46155677Y-39077334D01*
X45961235Y-38964964D01*
X45777848Y-38858986D01*
X45605250Y-38759245D01*
X45443174Y-38665589D01*
X45291355Y-38577863D01*
X45149526Y-38495914D01*
X45017422Y-38419588D01*
X44894776Y-38348732D01*
X44781322Y-38283192D01*
X44676795Y-38222814D01*
X44580927Y-38167445D01*
X44493454Y-38116931D01*
X44414110Y-38071118D01*
X44342627Y-38029853D01*
X44278740Y-37992983D01*
X44222183Y-37960353D01*
X44172690Y-37931810D01*
X44129995Y-37907200D01*
X44093832Y-37886370D01*
X44063935Y-37869167D01*
X44040037Y-37855435D01*
X44021873Y-37845023D01*
X44009177Y-37837776D01*
X44001682Y-37833540D01*
X43999123Y-37832162D01*
X43703562Y-46018410D01*
X44000759Y-33684545D01*
X44000310Y-33709468D01*
X43999908Y-33743782D01*
X43999551Y-33788470D01*
X43999237Y-33844517D01*
X43998963Y-33912904D01*
X43998726Y-33994617D01*
X43998525Y-34090637D01*
X43998357Y-34201948D01*
X43998219Y-34329535D01*
X43998109Y-34474379D01*
X43998025Y-34637466D01*
X43997963Y-34819777D01*
X43997923Y-35022296D01*
X43997900Y-35246007D01*
X43997893Y-35491893D01*
X43997900Y-35658504D01*
X43997921Y-35821051D01*
X43997957Y-35978873D01*
X43998005Y-36131307D01*
X43998065Y-36277692D01*
X43998138Y-36417367D01*
X43998222Y-36549669D01*
X43998317Y-36673939D01*
X43998422Y-36789512D01*
X43998537Y-36895730D01*
X43998661Y-36991928D01*
X43998794Y-37077447D01*
X43998936Y-37151624D01*
X43999084Y-37213798D01*
X43999240Y-37263307D01*
X43999403Y-37299490D01*
X43999571Y-37321685D01*
X43999745Y-37329230D01*
X44006340Y-37325404D01*
X44025398Y-37314149D01*
X44056354Y-37295800D01*
X44098644Y-37270693D01*
X44151707Y-37239165D01*
X44214976Y-37201549D01*
X44287890Y-37158181D01*
X44369885Y-37109398D01*
X44460396Y-37055534D01*
X44558860Y-36996926D01*
X44664714Y-36933908D01*
X44777394Y-36866816D01*
X44896337Y-36795985D01*
X45020978Y-36721752D01*
X45150754Y-36644451D01*
X45285102Y-36564419D01*
X45423458Y-36481989D01*
X45565258Y-36397499D01*
X45565282Y-36397499D01*
X45707075Y-36313002D01*
X45845408Y-36230552D01*
X45979720Y-36150485D01*
X46109448Y-36073137D01*
X46234027Y-35998845D01*
X46352895Y-35927944D01*
X46465489Y-35860771D01*
X46571246Y-35797661D01*
X46669603Y-35738951D01*
X46759996Y-35684978D01*
X46841864Y-35636076D01*
X46914642Y-35592583D01*
X46977768Y-35554834D01*
X47030679Y-35523166D01*
X47072812Y-35497914D01*
X47103603Y-35479415D01*
X47122489Y-35468005D01*
X47128908Y-35464021D01*
X47100773Y-35446545D01*
X47033145Y-35406971D01*
X47018447Y-35398479D01*
X46992277Y-35383357D01*
X46955198Y-35361930D01*
X46907773Y-35334523D01*
X46850563Y-35301461D01*
X46784130Y-35263069D01*
X46709036Y-35219672D01*
X46625845Y-35171593D01*
X46535116Y-35119159D01*
X46437414Y-35062695D01*
X46333299Y-35002524D01*
X46223334Y-34938972D01*
X46108081Y-34872363D01*
X45988102Y-34803023D01*
X45863960Y-34731276D01*
X45736215Y-34657448D01*
X45605431Y-34581862D01*
X45472170Y-34504844D01*
X45331559Y-34423584D01*
X45194577Y-34344428D01*
X45061851Y-34267740D01*
X44934010Y-34193881D01*
X44811681Y-34123216D01*
X44695494Y-34056105D01*
X44586076Y-33992913D01*
X44484056Y-33934002D01*
X44390061Y-33879735D01*
X44304720Y-33830474D01*
X44228662Y-33786581D01*
X44162514Y-33748421D01*
X44106904Y-33716355D01*
X44062462Y-33690746D01*
X44029814Y-33671956D01*
X44009590Y-33660350D01*
X44002417Y-33656288D01*
X44001810Y-33658938D01*
X44001259Y-33668029D01*
X44000759Y-33684545D01*
X43703562Y-46018410D01*
X43634805Y-35225725D01*
X43634772Y-35038615D01*
X43634717Y-34862751D01*
X43634640Y-34698247D01*
X43634541Y-34545216D01*
X43634420Y-34403774D01*
X43634277Y-34274033D01*
X43634113Y-34156107D01*
X43633926Y-34050111D01*
X43633717Y-33956159D01*
X43633486Y-33874364D01*
X43633234Y-33804840D01*
X43632959Y-33747701D01*
X43632662Y-33703062D01*
X43632344Y-33671035D01*
X43632003Y-33651736D01*
X43631641Y-33645278D01*
X43623722Y-33649731D01*
X43601000Y-33662739D01*
X43564394Y-33683768D01*
X43514825Y-33712289D01*
X43453212Y-33747770D01*
X43380475Y-33789680D01*
X43297535Y-33837488D01*
X43205311Y-33890663D01*
X43104724Y-33948673D01*
X42996693Y-34010989D01*
X42882138Y-34077077D01*
X42761979Y-34146408D01*
X42637137Y-34218451D01*
X42508531Y-34292673D01*
X42377082Y-34368545D01*
X42243709Y-34445534D01*
X42109332Y-34523111D01*
X41974872Y-34600743D01*
X41841247Y-34677900D01*
X41709379Y-34754050D01*
X41580188Y-34828663D01*
X41454592Y-34901207D01*
X41333513Y-34971152D01*
X41217870Y-35037966D01*
X41108583Y-35101117D01*
X41006573Y-35160076D01*
X40912759Y-35214310D01*
X40828061Y-35263289D01*
X40753399Y-35306482D01*
X40689694Y-35343357D01*
X40637865Y-35373383D01*
X40598831Y-35396030D01*
X40573515Y-35410766D01*
X40562834Y-35417060D01*
X40553521Y-35422839D01*
X42093377Y-36312740D01*
X42241129Y-36398126D01*
X42385033Y-36481284D01*
X42524431Y-36561834D01*
X42658664Y-36639395D01*
X42787074Y-36713587D01*
X42909003Y-36784029D01*
X43023790Y-36850342D01*
X43130779Y-36912145D01*
X43229311Y-36969057D01*
X43318726Y-37020698D01*
X43398366Y-37066688D01*
X43467574Y-37106647D01*
X43525690Y-37140193D01*
X43572055Y-37166947D01*
X43606012Y-37186528D01*
X43626901Y-37198556D01*
X43634064Y-37202650D01*
X43634114Y-37194468D01*
X43634167Y-37170429D01*
X43634225Y-37131293D01*
X43634285Y-37077820D01*
X43634346Y-37010771D01*
X43634408Y-36930906D01*
X43634470Y-36838986D01*
X43634531Y-36735769D01*
X43634589Y-36622018D01*
X43634644Y-36498491D01*
X43634695Y-36365950D01*
X43634741Y-36225154D01*
X43634780Y-36076864D01*
X43634813Y-35921840D01*
X43634837Y-35760842D01*
X43634853Y-35594631D01*
X43634858Y-35423967D01*
X43634816Y-35423967D01*
X43634805Y-35225725D01*
X43703562Y-46018410D01*
X43695162Y-46013516D01*
X43675287Y-46001993D01*
X43644410Y-45984116D01*
X43603007Y-45960159D01*
X43551552Y-45930396D01*
X43490519Y-45895102D01*
X43420384Y-45854550D01*
X43341620Y-45809015D01*
X43254702Y-45758771D01*
X43160105Y-45704093D01*
X43058302Y-45645254D01*
X42949769Y-45582530D01*
X42834980Y-45516193D01*
X42714410Y-45446519D01*
X42588532Y-45373781D01*
X42457822Y-45298255D01*
X42322754Y-45220213D01*
X42183802Y-45139931D01*
X42041441Y-45057683D01*
X41896146Y-44973742D01*
X41750877Y-44889811D01*
X41608595Y-44807593D01*
X41469771Y-44727359D01*
X41334879Y-44649384D01*
X41204389Y-44573941D01*
X41078776Y-44501304D01*
X40958511Y-44431745D01*
X40844066Y-44365540D01*
X40735914Y-44302959D01*
X40634527Y-44244279D01*
X40540378Y-44189771D01*
X40453939Y-44139709D01*
X40375682Y-44094366D01*
X40029164Y-39300833D01*
X40029958Y-37422041D01*
X40030082Y-37131605D01*
X40030185Y-36872731D01*
X40030263Y-36643596D01*
X40030309Y-36442375D01*
X40030318Y-36267243D01*
X40030283Y-36116376D01*
X40030200Y-35987948D01*
X40030063Y-35880135D01*
X40029865Y-35791113D01*
X40029602Y-35719056D01*
X40029268Y-35662140D01*
X40028856Y-35618541D01*
X40028362Y-35586433D01*
X40027780Y-35563992D01*
X40027104Y-35549393D01*
X40026328Y-35540812D01*
X40025447Y-35536423D01*
X40024454Y-35534403D01*
X40024531Y-35534403D01*
X40018671Y-35530464D01*
X40002508Y-35520601D01*
X39976106Y-35504851D01*
X39939528Y-35483251D01*
X39892835Y-35455837D01*
X39836092Y-35422645D01*
X39769362Y-35383712D01*
X39692707Y-35339075D01*
X39606190Y-35288770D01*
X39509874Y-35232834D01*
X39403823Y-35171304D01*
X39288099Y-35104215D01*
X39162764Y-35031605D01*
X39027883Y-34953510D01*
X38883519Y-34869966D01*
X38729733Y-34781010D01*
X38566589Y-34686680D01*
X38394150Y-34587010D01*
X38246859Y-34501894D01*
X38103119Y-34418838D01*
X37963518Y-34338182D01*
X37828641Y-34260263D01*
X37699076Y-34185421D01*
X37575410Y-34113993D01*
X37458228Y-34046320D01*
X37348118Y-33982739D01*
X37245667Y-33923589D01*
X37151460Y-33869208D01*
X37066084Y-33819936D01*
X36990127Y-33776111D01*
X36924174Y-33738072D01*
X36868812Y-33706157D01*
X36824629Y-33680705D01*
X36792210Y-33662055D01*
X36772142Y-33650545D01*
X36765013Y-33646514D01*
X36764291Y-33648276D01*
X36763640Y-33655040D01*
X36763057Y-33668138D01*
X36762538Y-33688899D01*
X36762079Y-33718654D01*
X36761678Y-33758734D01*
X36761330Y-33810469D01*
X36761033Y-33875190D01*
X36760783Y-33954228D01*
X36760576Y-34048913D01*
X36760408Y-34160576D01*
X36760278Y-34290547D01*
X36760180Y-34440157D01*
X36760112Y-34610737D01*
X36760069Y-34803617D01*
X36760050Y-35020128D01*
X36760050Y-35261600D01*
X36760065Y-35529364D01*
X36760218Y-37414166D01*
X38394690Y-38357500D01*
X40029164Y-39300833D01*
X40375682Y-44094366D01*
X40025055Y-35108274D01*
X40084354Y-35142339D01*
X40132008Y-35169660D01*
X40167184Y-35189756D01*
X40189050Y-35202148D01*
X40196772Y-35206353D01*
X40203818Y-35202457D01*
X40223773Y-35191100D01*
X40256050Y-35172618D01*
X40300067Y-35147350D01*
X40355236Y-35115633D01*
X40420974Y-35077802D01*
X40496696Y-35034197D01*
X40581816Y-34985153D01*
X40675749Y-34931009D01*
X40777912Y-34872101D01*
X40887717Y-34808767D01*
X41004582Y-34741344D01*
X41127920Y-34670168D01*
X41257147Y-34595578D01*
X41391678Y-34517910D01*
X41530927Y-34437502D01*
X41674310Y-34354691D01*
X41821242Y-34269813D01*
X41821235Y-34269813D01*
X41968147Y-34184927D01*
X42111469Y-34102090D01*
X42250619Y-34021640D01*
X42385013Y-33943914D01*
X42514068Y-33869252D01*
X42637202Y-33797991D01*
X42753830Y-33730468D01*
X42863370Y-33667023D01*
X42965239Y-33607992D01*
X43058853Y-33553714D01*
X43143630Y-33504528D01*
X43218987Y-33460770D01*
X43284339Y-33422779D01*
X43339105Y-33390893D01*
X43382701Y-33365449D01*
X43414544Y-33346787D01*
X43434051Y-33335243D01*
X43440638Y-33331157D01*
X43433938Y-33327071D01*
X43414317Y-33315532D01*
X43382357Y-33296878D01*
X43338644Y-33271447D01*
X43283761Y-33239576D01*
X43218293Y-33201604D01*
X43142823Y-33157868D01*
X43057936Y-33108705D01*
X42964216Y-33054455D01*
X42862247Y-32995454D01*
X42752613Y-32932040D01*
X42635898Y-32864552D01*
X42512687Y-32793326D01*
X42383563Y-32718701D01*
X42249110Y-32641015D01*
X42109913Y-32560605D01*
X41966556Y-32477809D01*
X41819623Y-32392965D01*
X40199333Y-31457452D01*
X40188803Y-31462998D01*
X40179206Y-31468423D01*
X40155714Y-31481882D01*
X40119150Y-31502900D01*
X40070334Y-31531003D01*
X40010087Y-31565716D01*
X39939231Y-31606566D01*
X39858587Y-31653077D01*
X39768976Y-31704775D01*
X39671219Y-31761186D01*
X39566137Y-31821835D01*
X39454552Y-31886249D01*
X39337284Y-31953952D01*
X39215155Y-32024470D01*
X39088987Y-32097329D01*
X38959599Y-32172055D01*
X38827814Y-32248172D01*
X38694452Y-32325207D01*
X38560336Y-32402685D01*
X38426285Y-32480132D01*
X38293121Y-32557074D01*
X38161665Y-32633035D01*
X38032739Y-32707542D01*
X37907163Y-32780119D01*
X37785759Y-32850294D01*
X37669348Y-32917591D01*
X37558751Y-32981536D01*
X37454789Y-33041654D01*
X37358284Y-33097472D01*
X37270057Y-33148514D01*
X37190928Y-33194306D01*
X37121719Y-33234375D01*
X37063252Y-33268245D01*
X37016346Y-33295442D01*
X36981824Y-33315491D01*
X36960507Y-33327919D01*
X36953216Y-33332251D01*
X36960566Y-33336754D01*
X36982081Y-33349427D01*
X37016927Y-33369788D01*
X37064272Y-33397356D01*
X37123284Y-33431651D01*
X37193129Y-33472190D01*
X37272976Y-33518494D01*
X37361992Y-33570081D01*
X37459344Y-33626469D01*
X37564200Y-33687179D01*
X37675727Y-33751728D01*
X37793092Y-33819637D01*
X37915463Y-33890423D01*
X38042008Y-33963605D01*
X38171894Y-34038704D01*
X38304288Y-34115237D01*
X38438358Y-34192724D01*
X38573271Y-34270683D01*
X38708194Y-34348634D01*
X38842296Y-34426095D01*
X38974743Y-34502585D01*
X39104703Y-34577624D01*
X39231344Y-34650730D01*
X39353832Y-34721422D01*
X39471336Y-34789220D01*
X39583022Y-34853641D01*
X39688059Y-34914206D01*
X39785613Y-34970433D01*
X39874852Y-35021840D01*
X39954944Y-35067948D01*
X40025055Y-35108274D01*
X40375682Y-44094366D01*
X40306080Y-44054017D01*
X40395614Y-35858494D01*
X40395231Y-35910454D01*
X40394911Y-35976985D01*
X40394648Y-36059830D01*
X40394437Y-36160733D01*
X40394272Y-36281434D01*
X40394148Y-36423677D01*
X40394059Y-36589205D01*
X40394000Y-36779760D01*
X40393964Y-36997084D01*
X40393947Y-37242920D01*
X40393942Y-37519011D01*
X40393956Y-37689468D01*
X40393995Y-37855248D01*
X40394060Y-38015621D01*
X40394147Y-38169855D01*
X40394256Y-38317221D01*
X40394386Y-38456987D01*
X40394534Y-38588423D01*
X40394700Y-38710798D01*
X40394882Y-38823382D01*
X40395079Y-38925445D01*
X40395289Y-39016255D01*
X40395510Y-39095082D01*
X40395743Y-39161195D01*
X40395984Y-39213864D01*
X40396233Y-39252359D01*
X40396487Y-39275948D01*
X40396747Y-39283901D01*
X40404002Y-39279742D01*
X40424863Y-39267731D01*
X40458676Y-39248246D01*
X40504786Y-39221663D01*
X40562539Y-39188360D01*
X40631282Y-39148713D01*
X40710359Y-39103100D01*
X40799115Y-39051898D01*
X40896898Y-38995483D01*
X41003052Y-38934233D01*
X41116922Y-38868526D01*
X41237856Y-38798737D01*
X41365197Y-38725244D01*
X41498292Y-38648424D01*
X41636487Y-38568654D01*
X41779127Y-38486311D01*
X41925557Y-38401773D01*
X41925610Y-38401773D01*
X42072025Y-38317232D01*
X42214620Y-38234882D01*
X42352741Y-38155100D01*
X42485737Y-38078264D01*
X42612956Y-38004750D01*
X42733745Y-37934936D01*
X42847453Y-37869200D01*
X42953426Y-37807918D01*
X43051013Y-37751468D01*
X43139561Y-37700227D01*
X43218418Y-37654572D01*
X43286933Y-37614882D01*
X43344452Y-37581532D01*
X43390323Y-37554901D01*
X43423895Y-37535365D01*
X43444515Y-37523303D01*
X43451531Y-37519090D01*
X43443785Y-37514462D01*
X43421173Y-37501251D01*
X43384625Y-37479994D01*
X43335066Y-37451227D01*
X43273426Y-37415486D01*
X43200631Y-37373307D01*
X43117608Y-37325227D01*
X43025287Y-37271780D01*
X42924593Y-37213505D01*
X42816455Y-37150936D01*
X42701800Y-37084610D01*
X42581557Y-37015063D01*
X42456651Y-36942830D01*
X42328012Y-36868449D01*
X42196566Y-36792455D01*
X42063241Y-36715384D01*
X41928965Y-36637773D01*
X41794666Y-36560157D01*
X41661270Y-36483073D01*
X41529706Y-36407056D01*
X41400900Y-36332644D01*
X41275782Y-36260371D01*
X41155277Y-36190775D01*
X41040314Y-36124390D01*
X40931821Y-36061754D01*
X40830725Y-36003402D01*
X40737953Y-35949871D01*
X40654433Y-35901697D01*
X40581093Y-35859415D01*
X40518860Y-35823562D01*
X40468661Y-35794674D01*
X40431426Y-35773287D01*
X40408080Y-35759938D01*
X40399552Y-35755161D01*
X40398673Y-35756284D01*
X40397890Y-35761523D01*
X40397199Y-35772621D01*
X40396593Y-35791321D01*
X40396066Y-35819364D01*
X40395614Y-35858494D01*
X40306080Y-44054017D01*
X40245605Y-44018934D01*
X40194729Y-43989391D01*
X40153925Y-43965661D01*
X40123665Y-43948018D01*
X40104422Y-43936735D01*
X40096667Y-43932086D01*
X40054170Y-43892329D01*
X40025328Y-43839431D01*
X40024480Y-43836380D01*
X40023712Y-43831121D01*
X40023018Y-43822257D01*
X40022393Y-43808391D01*
X40021831Y-43788126D01*
X40021329Y-43760064D01*
X40020880Y-43722808D01*
X40020479Y-43674962D01*
X40020121Y-43615127D01*
X40019801Y-43541908D01*
X40019514Y-43453905D01*
X40019254Y-43349724D01*
X40019017Y-43227965D01*
X40018797Y-43087233D01*
X40018589Y-42926130D01*
X40018388Y-42743258D01*
X40018189Y-42537221D01*
X40017986Y-42306621D01*
X40017774Y-42050062D01*
X40017549Y-41766146D01*
X40015697Y-39709512D01*
X47249291Y-35824226D01*
X47240605Y-35829267D01*
X47216749Y-35843395D01*
X47178703Y-35866025D01*
X47127448Y-35896570D01*
X47063964Y-35934444D01*
X46989231Y-35979058D01*
X46904229Y-36029828D01*
X46809938Y-36086167D01*
X46707340Y-36147487D01*
X46597413Y-36213202D01*
X46481138Y-36282727D01*
X46359496Y-36355473D01*
X46233466Y-36430855D01*
X46104029Y-36508285D01*
X45972165Y-36587178D01*
X45838855Y-36666947D01*
X45705078Y-36747005D01*
X45571815Y-36826765D01*
X45440045Y-36905641D01*
X45310750Y-36983046D01*
X45184909Y-37058394D01*
X45063503Y-37131099D01*
X44947512Y-37200572D01*
X44837915Y-37266229D01*
X44735694Y-37327482D01*
X44641829Y-37383744D01*
X44557299Y-37434430D01*
X44483085Y-37478952D01*
X44420167Y-37516724D01*
X44369526Y-37547159D01*
X44332141Y-37569671D01*
X44308994Y-37583674D01*
X44301063Y-37588579D01*
X44309009Y-37593407D01*
X44332179Y-37607014D01*
X44369592Y-37628833D01*
X44420267Y-37658298D01*
X44483222Y-37694840D01*
X44557477Y-37737894D01*
X44642049Y-37786894D01*
X44735959Y-37841271D01*
X44838224Y-37900459D01*
X44947863Y-37963892D01*
X45063895Y-38031003D01*
X45185339Y-38101225D01*
X45311213Y-38173991D01*
X45440537Y-38248735D01*
X45572328Y-38324889D01*
X45705607Y-38401887D01*
X45839391Y-38479162D01*
X45972700Y-38556148D01*
X46104551Y-38632277D01*
X46233964Y-38706983D01*
X46359958Y-38779698D01*
X46481551Y-38849857D01*
X46597763Y-38916893D01*
X46707611Y-38980238D01*
X46810115Y-39039326D01*
X46904293Y-39093590D01*
X46989164Y-39142464D01*
X47063747Y-39185380D01*
X47127061Y-39221772D01*
X47178124Y-39251073D01*
X47215955Y-39272716D01*
X47239574Y-39286134D01*
X47247997Y-39290761D01*
X47248535Y-39287053D01*
X47249029Y-39275258D01*
X47249480Y-39254536D01*
X47249890Y-39224049D01*
X47250260Y-39182956D01*
X47250592Y-39130418D01*
X47250887Y-39065597D01*
X47251148Y-38987652D01*
X47251374Y-38895744D01*
X47251568Y-38789035D01*
X47251732Y-38666685D01*
X47251866Y-38527854D01*
X47251973Y-38371703D01*
X47252053Y-38197394D01*
X47252109Y-38004085D01*
X47252141Y-37790939D01*
X47252151Y-37557116D01*
X47252122Y-37557116D01*
X47252109Y-37388247D01*
X47252069Y-37224334D01*
X47252005Y-37066059D01*
X47251917Y-36914104D01*
X47251808Y-36769151D01*
X47251678Y-36631883D01*
X47251529Y-36502982D01*
X47251362Y-36383129D01*
X47251179Y-36273008D01*
X47250981Y-36173300D01*
X47250769Y-36084688D01*
X47250545Y-36007854D01*
X47250310Y-35943480D01*
X47250066Y-35892248D01*
X47249814Y-35854840D01*
X47249555Y-35831939D01*
X47249291Y-35824226D01*
X40015697Y-39709512D01*
X50872739Y-33657938D01*
X50860251Y-33665246D01*
X50852479Y-33669877D01*
X50831848Y-33682195D01*
X50798944Y-33701851D01*
X50754354Y-33728494D01*
X50698663Y-33761773D01*
X50632460Y-33801338D01*
X50556329Y-33846838D01*
X50470858Y-33897922D01*
X50376633Y-33954240D01*
X50274240Y-34015442D01*
X50164267Y-34081177D01*
X50047298Y-34151095D01*
X49923922Y-34224844D01*
X49794724Y-34302074D01*
X49660291Y-34382435D01*
X49521210Y-34465576D01*
X49378066Y-34551147D01*
X49231446Y-34638796D01*
X47615139Y-35605040D01*
X47615139Y-37448079D01*
X47615146Y-37615207D01*
X47615168Y-37778258D01*
X47615203Y-37936570D01*
X47615253Y-38089477D01*
X47615317Y-38236316D01*
X47615393Y-38376424D01*
X47615483Y-38509138D01*
X47615586Y-38633792D01*
X47615701Y-38749725D01*
X47615828Y-38856272D01*
X47615967Y-38952769D01*
X47616119Y-39038553D01*
X47616281Y-39112960D01*
X47616455Y-39175327D01*
X47616639Y-39224990D01*
X47616834Y-39261285D01*
X47617040Y-39283548D01*
X47617255Y-39291117D01*
X47624946Y-39286790D01*
X47647125Y-39274095D01*
X47683053Y-39253459D01*
X47731986Y-39225309D01*
X47793184Y-39190074D01*
X47865905Y-39148181D01*
X47949406Y-39100057D01*
X48042947Y-39046130D01*
X48145786Y-38986827D01*
X48257181Y-38922577D01*
X48376389Y-38853806D01*
X48502671Y-38780943D01*
X48635283Y-38704415D01*
X48773485Y-38624649D01*
X48916535Y-38542074D01*
X49063690Y-38457116D01*
X49063613Y-38457115D01*
X49195344Y-38381056D01*
X49325328Y-38306007D01*
X49452978Y-38232304D01*
X49577710Y-38160287D01*
X49698938Y-38090293D01*
X49816076Y-38022659D01*
X49928538Y-37957726D01*
X50035741Y-37895829D01*
X50137097Y-37837308D01*
X50232021Y-37782500D01*
X50319928Y-37731743D01*
X50400233Y-37685376D01*
X50472350Y-37643737D01*
X50535692Y-37607163D01*
X50589676Y-37575993D01*
X50633715Y-37550565D01*
X50667225Y-37531216D01*
X50689618Y-37518286D01*
X50871151Y-37413458D01*
X50871945Y-35535698D01*
X50872739Y-33657938D01*
X40015697Y-39709512D01*
X38251997Y-38688132D01*
X38017551Y-38552368D01*
X37804515Y-38429003D01*
X37611854Y-38317424D01*
X37438531Y-38217018D01*
X37283511Y-38127170D01*
X37145756Y-38047267D01*
X37024231Y-37976695D01*
X36917900Y-37914840D01*
X36825727Y-37861089D01*
X36746675Y-37814827D01*
X36679708Y-37775440D01*
X36623790Y-37742316D01*
X36577885Y-37714839D01*
X36540957Y-37692397D01*
X36511969Y-37674375D01*
X36489886Y-37660160D01*
X36473671Y-37649138D01*
X36462288Y-37640695D01*
X36454700Y-37634218D01*
X36449873Y-37629092D01*
X36446768Y-37624703D01*
X36444352Y-37620438D01*
X36441586Y-37615684D01*
X36423568Y-37577379D01*
X36414995Y-37554064D01*
X36412614Y-35448949D01*
X36412427Y-35284998D01*
X36412244Y-35124271D01*
X36412066Y-34967249D01*
X36411892Y-34814415D01*
X36411725Y-34666250D01*
X36411563Y-34523236D01*
X36411409Y-34385855D01*
X36411261Y-34254590D01*
X36411121Y-34129921D01*
X36410990Y-34012330D01*
X36410867Y-33902300D01*
X36410754Y-33800313D01*
X36410650Y-33706850D01*
X36410556Y-33622393D01*
X36410474Y-33547425D01*
X36410402Y-33482426D01*
X36410343Y-33427879D01*
X36410295Y-33384266D01*
X36410261Y-33352068D01*
X36410240Y-33331768D01*
X36410233Y-33323848D01*
X36435077Y-33240576D01*
X36472042Y-33196145D01*
X36522146Y-33166043D01*
X36529949Y-33161836D01*
X36549287Y-33150956D01*
X36579686Y-33133676D01*
X36620671Y-33110269D01*
X36671768Y-33081009D01*
X36732503Y-33046168D01*
X36802402Y-33006020D01*
X36880989Y-32960838D01*
X36967790Y-32910895D01*
X37062333Y-32856465D01*
X37164140Y-32797819D01*
X37272740Y-32735233D01*
X37387657Y-32668978D01*
X37508416Y-32599328D01*
X37634544Y-32526555D01*
X37765566Y-32450935D01*
X37901008Y-32372738D01*
X38040395Y-32292239D01*
X38183253Y-32209711D01*
X38329108Y-32125426D01*
X38474952Y-32041140D01*
X38617778Y-31958609D01*
X38757113Y-31878105D01*
X38892482Y-31799902D01*
X39023413Y-31724272D01*
X39149431Y-31651490D01*
X39270064Y-31581828D01*
X39384838Y-31515560D01*
X39493279Y-31452959D01*
X39594915Y-31394298D01*
X39689271Y-31339850D01*
X39775874Y-31289889D01*
X39854251Y-31244688D01*
X44211834Y-33322177D01*
X44192146Y-33333737D01*
X44185400Y-33337829D01*
X44217392Y-33358514D01*
X44295258Y-33404475D01*
X44311489Y-33413854D01*
X44339492Y-33430038D01*
X44378685Y-33452689D01*
X44428486Y-33481472D01*
X44488311Y-33516049D01*
X44557578Y-33556084D01*
X44635705Y-33601241D01*
X44722109Y-33651181D01*
X44816207Y-33705569D01*
X44917417Y-33764068D01*
X45025156Y-33826342D01*
X45138841Y-33892052D01*
X45257891Y-33960864D01*
X45381722Y-34032439D01*
X45509751Y-34106441D01*
X45641397Y-34182534D01*
X45776076Y-34260381D01*
X45913206Y-34339644D01*
X46065809Y-34427831D01*
X46212759Y-34512711D01*
X46353595Y-34594020D01*
X46487860Y-34671493D01*
X46615092Y-34744868D01*
X46734834Y-34813879D01*
X46846625Y-34878263D01*
X46950006Y-34937755D01*
X47044517Y-34992092D01*
X47129700Y-35041009D01*
X47205095Y-35084242D01*
X47270242Y-35121527D01*
X47324682Y-35152599D01*
X47367955Y-35177195D01*
X47399603Y-35195051D01*
X47419166Y-35205902D01*
X47426184Y-35209485D01*
X47433397Y-35205523D01*
X47453585Y-35194108D01*
X47486161Y-35175577D01*
X47530534Y-35150268D01*
X47586117Y-35118518D01*
X47652321Y-35080664D01*
X47728557Y-35037044D01*
X47814237Y-34987993D01*
X47908772Y-34933851D01*
X48011573Y-34874954D01*
X48122053Y-34811638D01*
X48239621Y-34744242D01*
X48363690Y-34673103D01*
X48493671Y-34598557D01*
X48628976Y-34520943D01*
X48769015Y-34440596D01*
X48913201Y-34357855D01*
X49060944Y-34273057D01*
X49060915Y-34273053D01*
X49208630Y-34188257D01*
X49352735Y-34105523D01*
X49492642Y-34025189D01*
X49627766Y-33947590D01*
X49757520Y-33873065D01*
X49881319Y-33801949D01*
X49998575Y-33734581D01*
X50108703Y-33671296D01*
X50211116Y-33612433D01*
X50305229Y-33558328D01*
X50390455Y-33509317D01*
X50466208Y-33465739D01*
X50531901Y-33427929D01*
X50586948Y-33396226D01*
X50630764Y-33370965D01*
X50662761Y-33352484D01*
X50682354Y-33341120D01*
X50688957Y-33337210D01*
X50659826Y-33320391D01*
X50584749Y-33277038D01*
X50479814Y-33216539D01*
X50420855Y-33182580D01*
X50353223Y-33143621D01*
X50277559Y-33100032D01*
X50194504Y-33052182D01*
X50104698Y-33000440D01*
X50008783Y-32945175D01*
X49907398Y-32886757D01*
X49801185Y-32825555D01*
X49690783Y-32761938D01*
X49576834Y-32696275D01*
X49459979Y-32628935D01*
X49340857Y-32560289D01*
X49220109Y-32490704D01*
X49098377Y-32420550D01*
X48976300Y-32350196D01*
X48854520Y-32280012D01*
X48733677Y-32210366D01*
X48614411Y-32141629D01*
X48497364Y-32074169D01*
X48383175Y-32008355D01*
X48272486Y-31944557D01*
X48165938Y-31883143D01*
X48064169Y-31824484D01*
X47967823Y-31768947D01*
X47877538Y-31716904D01*
X47793956Y-31668722D01*
X47717717Y-31624770D01*
X47649463Y-31585419D01*
X47589832Y-31551038D01*
X47539467Y-31521994D01*
X47499008Y-31498659D01*
X47469095Y-31481401D01*
X47450370Y-31470588D01*
X47443472Y-31466591D01*
X47433259Y-31460403D01*
X45809762Y-32397778D01*
X45662539Y-32482791D01*
X45518899Y-32565751D01*
X45379429Y-32646322D01*
X45244713Y-32724163D01*
X45115336Y-32798936D01*
X44991882Y-32870304D01*
X44874937Y-32937927D01*
X44765086Y-33001467D01*
X44662913Y-33060585D01*
X44569004Y-33114943D01*
X44483943Y-33164203D01*
X44408315Y-33208026D01*
X44342706Y-33246073D01*
X44287699Y-33278006D01*
X44243880Y-33303487D01*
X44211834Y-33322177D01*
X39854251Y-31244688D01*
X39923928Y-31204519D01*
X39984432Y-31169657D01*
X40035289Y-31140375D01*
X40076025Y-31116945D01*
X40106169Y-31099642D01*
X40125245Y-31088738D01*
X40132780Y-31084506D01*
X40200726Y-31066173D01*
X40268948Y-31074584D01*
X40275575Y-31077911D01*
X40290797Y-31086260D01*
X40314623Y-31099638D01*
X40347063Y-31118049D01*
X40388128Y-31141500D01*
X40437827Y-31169997D01*
X40496171Y-31203545D01*
X40563170Y-31242151D01*
X40638833Y-31285819D01*
X40723171Y-31334555D01*
X40816193Y-31388367D01*
X40917911Y-31447258D01*
X41028333Y-31511236D01*
X41147470Y-31580305D01*
X41275333Y-31654472D01*
X41411930Y-31733743D01*
X41557272Y-31818122D01*
X41711370Y-31907617D01*
X41874233Y-32002232D01*
X42045871Y-32101974D01*
X42189183Y-32185265D01*
X42329449Y-32266784D01*
X42466208Y-32346262D01*
X42598996Y-32423430D01*
X42727352Y-32498021D01*
X42850814Y-32569765D01*
X42968919Y-32638395D01*
X43081205Y-32703641D01*
X43187210Y-32765235D01*
X43286473Y-32822908D01*
X43378529Y-32876392D01*
X43462919Y-32925419D01*
X43539179Y-32969720D01*
X43606847Y-33009026D01*
X43665460Y-33043069D01*
X43714558Y-33071581D01*
X43753677Y-33094292D01*
X43782356Y-33110934D01*
X43800132Y-33121239D01*
X43806544Y-33124939D01*
X43827568Y-33119170D01*
X43901473Y-33077729D01*
X44039944Y-32997568D01*
X44178008Y-32917660D01*
X44315486Y-32838107D01*
X44452202Y-32759013D01*
X44587977Y-32680479D01*
X44722633Y-32602609D01*
X44855993Y-32525505D01*
X44987879Y-32449269D01*
X45118113Y-32374003D01*
X45246517Y-32299811D01*
X45372913Y-32226795D01*
X45497124Y-32155057D01*
X45618971Y-32084700D01*
X45738278Y-32015827D01*
X45854865Y-31948539D01*
X45968556Y-31882939D01*
X46079172Y-31819130D01*
X46186535Y-31757215D01*
X46290469Y-31697296D01*
X46390794Y-31639474D01*
X46487333Y-31583854D01*
X46579909Y-31530537D01*
X46668343Y-31479626D01*
X46752457Y-31431223D01*
X46832075Y-31385431D01*
X46907017Y-31342353D01*
X46977107Y-31302090D01*
X47042165Y-31264746D01*
X47102015Y-31230422D01*
X47156479Y-31199222D01*
X47205379Y-31171248D01*
X47248537Y-31146602D01*
X47285774Y-31125387D01*
X47316915Y-31107706D01*
X47341779Y-31093660D01*
X47360191Y-31083353D01*
X47371971Y-31076887D01*
X47376942Y-31074364D01*
X47430237Y-31066146D01*
X47523503Y-31090202D01*
X47531289Y-31094623D01*
X47550485Y-31105641D01*
X47580622Y-31122983D01*
X47621229Y-31146379D01*
X47671838Y-31175558D01*
X47731979Y-31210249D01*
X47801182Y-31250180D01*
X47878979Y-31295081D01*
X47964900Y-31344681D01*
X48058474Y-31398708D01*
X48159234Y-31456891D01*
X48266709Y-31518960D01*
X48380430Y-31584642D01*
X48499928Y-31653668D01*
X48624733Y-31725766D01*
X48754375Y-31800665D01*
X48888386Y-31878095D01*
X49026295Y-31957782D01*
X49167634Y-32039458D01*
X49311933Y-32122851D01*
X49456188Y-32206216D01*
X49597398Y-32287811D01*
X49735098Y-32367366D01*
X49868821Y-32444614D01*
X49998101Y-32519285D01*
X50122473Y-32591110D01*
X50241470Y-32659820D01*
X50354627Y-32725147D01*
X50461477Y-32786821D01*
X50561553Y-32844573D01*
X50654392Y-32898136D01*
X50739525Y-32947239D01*
X50816487Y-32991613D01*
X50884813Y-33030991D01*
X50944035Y-33065103D01*
X50993689Y-33093680D01*
X51033307Y-33116453D01*
X51062425Y-33133153D01*
X51080575Y-33143512D01*
X51087292Y-33147260D01*
X51121519Y-33158719D01*
X51198479Y-33207561D01*
X51242550Y-33288871D01*
X51240168Y-33378805D01*
X51239377Y-33382320D01*
X51238657Y-33388540D01*
X51238005Y-33398782D01*
X51237415Y-33414368D01*
X51236883Y-33436617D01*
X51236404Y-33466848D01*
X51235973Y-33506381D01*
X51235585Y-33556536D01*
X51235236Y-33618633D01*
X51234920Y-33693991D01*
X51234633Y-33783930D01*
X51234370Y-33889769D01*
X51234126Y-34012828D01*
X51233896Y-34154428D01*
X51233676Y-34315887D01*
X51233460Y-34498526D01*
X51233245Y-34703663D01*
X51233024Y-34932619D01*
X51232793Y-35186714D01*
X51232548Y-35467266D01*
X51230696Y-37537408D01*
X51223261Y-37559299D01*
X51170004Y-37639001D01*
X51164918Y-37642706D01*
X51154147Y-37649637D01*
X51137161Y-37660102D01*
X51113428Y-37674412D01*
X51082417Y-37692874D01*
X51043595Y-37715798D01*
X50996432Y-37743493D01*
X50940395Y-37776267D01*
X50874955Y-37814430D01*
X50799579Y-37858290D01*
X50713736Y-37908157D01*
X50616894Y-37964340D01*
X50508522Y-38027147D01*
X50388088Y-38096887D01*
X50255062Y-38173870D01*
X50108911Y-38258405D01*
X49949105Y-38350799D01*
X49775111Y-38451363D01*
X49586399Y-38560405D01*
X49382436Y-38678235D01*
X47615088Y-39699148D01*
X47615051Y-41754520D01*
X47615039Y-41964926D01*
X47615011Y-42163104D01*
X47614968Y-42349219D01*
X47614909Y-42523439D01*
X47614833Y-42685931D01*
X47614740Y-42836862D01*
X47614630Y-42976400D01*
X47614502Y-43104712D01*
X47614357Y-43221965D01*
X47614193Y-43328325D01*
X47614010Y-43423961D01*
X47613808Y-43509040D01*
X47613586Y-43583728D01*
X47613344Y-43648193D01*
X47613082Y-43702601D01*
X47612799Y-43747121D01*
X47612496Y-43781920D01*
X47612170Y-43807164D01*
X47611823Y-43823021D01*
X47611453Y-43829657D01*
X47583179Y-43896504D01*
X47531202Y-43948802D01*
X47523787Y-43953168D01*
X47504789Y-43964180D01*
X47474681Y-43981565D01*
X47433938Y-44005050D01*
X47383036Y-44034363D01*
X47322448Y-44069230D01*
X47252649Y-44109379D01*
X47174115Y-44154537D01*
X47087319Y-44204431D01*
X46992736Y-44258788D01*
X46890842Y-44317337D01*
X46782110Y-44379803D01*
X46667016Y-44445915D01*
X46546034Y-44515399D01*
X46419638Y-44587982D01*
X46288304Y-44663393D01*
X46152506Y-44741357D01*
X46012718Y-44821603D01*
X45869416Y-44903857D01*
X45723074Y-44987847D01*
X45576725Y-45071839D01*
X45433402Y-45154099D01*
X45293580Y-45234354D01*
X45157734Y-45312331D01*
X45026339Y-45387757D01*
X44899872Y-45460359D01*
X44778806Y-45529864D01*
X44663617Y-45595999D01*
X44554780Y-45658493D01*
X44452771Y-45717070D01*
X44358065Y-45771460D01*
X44271136Y-45821388D01*
X44192461Y-45866582D01*
X44122514Y-45906769D01*
X44061771Y-45941676D01*
X44010707Y-45971030D01*
X43969796Y-45994559D01*
X43939515Y-46011989D01*
X43920339Y-46023047D01*
X43912742Y-46027461D01*
X43849408Y-46051227D01*
X43784501Y-46052967D01*
X43784755Y-46052975D01*
X43784755Y-46052975D01*
G37*
X43784755Y-46052975D02*
X43703562Y-46018410D01*
X45635637Y-44617375D01*
X47258610Y-43680422D01*
X47258610Y-41793593D01*
X47258598Y-41622499D01*
X47258562Y-41455587D01*
X47258505Y-41293536D01*
X47258426Y-41137026D01*
X47258328Y-40986735D01*
X47258211Y-40843343D01*
X47258077Y-40707528D01*
X47257926Y-40579970D01*
X47257760Y-40461347D01*
X47257580Y-40352339D01*
X47257387Y-40253624D01*
X47257183Y-40165882D01*
X47256968Y-40089791D01*
X47256744Y-40026031D01*
X47256512Y-39975280D01*
X47256273Y-39938218D01*
X47256028Y-39915523D01*
X47255779Y-39907875D01*
X47248873Y-39911855D01*
X47228989Y-39923372D01*
X47196713Y-39942086D01*
X47152635Y-39967656D01*
X47097341Y-39999740D01*
X47031419Y-40037999D01*
X46955457Y-40082090D01*
X46870043Y-40131673D01*
X46775763Y-40186407D01*
X46673207Y-40245951D01*
X46562962Y-40309964D01*
X46445615Y-40378105D01*
X46321755Y-40450033D01*
X46191968Y-40525407D01*
X46056842Y-40603886D01*
X45916966Y-40685130D01*
X45772927Y-40768796D01*
X45625313Y-40854545D01*
X43997607Y-41800102D01*
X43997607Y-43682012D01*
X43997607Y-45563919D01*
X44005121Y-45559104D01*
X44012467Y-45554820D01*
X44032736Y-45543076D01*
X44065341Y-45524212D01*
X44109696Y-45498566D01*
X44165214Y-45466478D01*
X44231306Y-45428287D01*
X44307387Y-45384331D01*
X44392869Y-45334950D01*
X44487165Y-45280483D01*
X44589688Y-45221269D01*
X44699851Y-45157647D01*
X44817066Y-45089956D01*
X44940747Y-45018535D01*
X45070307Y-44943724D01*
X45205158Y-44865861D01*
X45344714Y-44785286D01*
X45488386Y-44702337D01*
X45635590Y-44617354D01*
X45635637Y-44617375D01*
X43703562Y-46018410D01*
X43634517Y-43678686D01*
X43634474Y-41800904D01*
X42023485Y-40869923D01*
X41877332Y-40785463D01*
X41734615Y-40702989D01*
X41595919Y-40622839D01*
X41461829Y-40545352D01*
X41332933Y-40470866D01*
X41209814Y-40399720D01*
X41093061Y-40332253D01*
X40983257Y-40268802D01*
X40880990Y-40209707D01*
X40786845Y-40155306D01*
X40701409Y-40105938D01*
X40625266Y-40061941D01*
X40559002Y-40023654D01*
X40503205Y-39991415D01*
X40458459Y-39965563D01*
X40425351Y-39946436D01*
X40404466Y-39934373D01*
X40396390Y-39929713D01*
X40380277Y-39920484D01*
X40381070Y-41801168D01*
X40381864Y-43681853D01*
X42004001Y-44618849D01*
X42151115Y-44703817D01*
X42294674Y-44786716D01*
X42434092Y-44867207D01*
X42568785Y-44944953D01*
X42698166Y-45019616D01*
X42821649Y-45090859D01*
X42938650Y-45158345D01*
X43048582Y-45221735D01*
X43150860Y-45280693D01*
X43244898Y-45334881D01*
X43330111Y-45383961D01*
X43405914Y-45427596D01*
X43471719Y-45465448D01*
X43526943Y-45497180D01*
X43570999Y-45522454D01*
X43603301Y-45540934D01*
X43623265Y-45552280D01*
X43630305Y-45556156D01*
X43630814Y-45552573D01*
X43631283Y-45541227D01*
X43631715Y-45521353D01*
X43632109Y-45492184D01*
X43632468Y-45452953D01*
X43632792Y-45402894D01*
X43633082Y-45341242D01*
X43633341Y-45267229D01*
X43633569Y-45180090D01*
X43633767Y-45079057D01*
X43633937Y-44963365D01*
X43634079Y-44832248D01*
X43634196Y-44684938D01*
X43634288Y-44520670D01*
X43634356Y-44338677D01*
X43634402Y-44138193D01*
X43634427Y-43918451D01*
X43634432Y-43678686D01*
X43634517Y-43678686D01*
X43703562Y-46018410D01*
X43634477Y-39605536D01*
X43634477Y-37831526D01*
X43616988Y-37841427D01*
X43603722Y-37849024D01*
X43576218Y-37864850D01*
X43535378Y-37888383D01*
X43482100Y-37919103D01*
X43417285Y-37956492D01*
X43341834Y-38000027D01*
X43256646Y-38049191D01*
X43162623Y-38103462D01*
X43060664Y-38162321D01*
X42951670Y-38225247D01*
X42836541Y-38291721D01*
X42716177Y-38361222D01*
X42591478Y-38433231D01*
X42463346Y-38507227D01*
X42332679Y-38582691D01*
X42200379Y-38659103D01*
X42067345Y-38735942D01*
X41934479Y-38812688D01*
X41802679Y-38888822D01*
X41672847Y-38963824D01*
X41545883Y-39037173D01*
X41422687Y-39108350D01*
X41304159Y-39176834D01*
X41191200Y-39242105D01*
X41084709Y-39303644D01*
X40985588Y-39360930D01*
X40894736Y-39413444D01*
X40813054Y-39460665D01*
X40741442Y-39502074D01*
X40680801Y-39537150D01*
X40632030Y-39565373D01*
X40596029Y-39586224D01*
X40573700Y-39599182D01*
X40565943Y-39603728D01*
X40573549Y-39608410D01*
X40596120Y-39621740D01*
X40632722Y-39643179D01*
X40682420Y-39672184D01*
X40744281Y-39708216D01*
X40817372Y-39750734D01*
X40900758Y-39799196D01*
X40993505Y-39853064D01*
X41094681Y-39911794D01*
X41203351Y-39974848D01*
X41318582Y-40041684D01*
X41439439Y-40111761D01*
X41564990Y-40184540D01*
X41694300Y-40259478D01*
X41826435Y-40336036D01*
X41960462Y-40413673D01*
X42095447Y-40491847D01*
X42230457Y-40570020D01*
X42364557Y-40647648D01*
X42496814Y-40724193D01*
X42626294Y-40799113D01*
X42752063Y-40871868D01*
X42873188Y-40941916D01*
X42988735Y-41008718D01*
X43097769Y-41071732D01*
X43199358Y-41130417D01*
X43292568Y-41184234D01*
X43376464Y-41232641D01*
X43450114Y-41275098D01*
X43512583Y-41311064D01*
X43562937Y-41339998D01*
X43600244Y-41361360D01*
X43623568Y-41374608D01*
X43631977Y-41379203D01*
X43632207Y-41371073D01*
X43632431Y-41347127D01*
X43632648Y-41308123D01*
X43632856Y-41254820D01*
X43633055Y-41187976D01*
X43633244Y-41108347D01*
X43633421Y-41016694D01*
X43633586Y-40913773D01*
X43633738Y-40800343D01*
X43633875Y-40677162D01*
X43633997Y-40544987D01*
X43634104Y-40404578D01*
X43634193Y-40256691D01*
X43634263Y-40102086D01*
X43634315Y-39941519D01*
X43634347Y-39775750D01*
X43634358Y-39605536D01*
X43634477Y-39605536D01*
X43703562Y-46018410D01*
X43999123Y-37832162D01*
X43998939Y-37840299D01*
X43998761Y-37864207D01*
X43998590Y-37903130D01*
X43998427Y-37956310D01*
X43998271Y-38022993D01*
X43998125Y-38102422D01*
X43997987Y-38193841D01*
X43997860Y-38296494D01*
X43997743Y-38409624D01*
X43997638Y-38532476D01*
X43997544Y-38664293D01*
X43997464Y-38804320D01*
X43997396Y-38951800D01*
X43997342Y-39105977D01*
X43997303Y-39266095D01*
X43997279Y-39431398D01*
X43997271Y-39601129D01*
X43997271Y-41370098D01*
X44008093Y-41363484D01*
X44016110Y-41358819D01*
X44037627Y-41346354D01*
X44071990Y-41326469D01*
X44118546Y-41299539D01*
X44176641Y-41265942D01*
X44245623Y-41226057D01*
X44324838Y-41180261D01*
X44413634Y-41128930D01*
X44511356Y-41072444D01*
X44617352Y-41011178D01*
X44730969Y-40945512D01*
X44851554Y-40875822D01*
X44978453Y-40802486D01*
X45111013Y-40725882D01*
X45248582Y-40646387D01*
X45390505Y-40564379D01*
X45536130Y-40480235D01*
X45536289Y-40480243D01*
X45681876Y-40396119D01*
X45823687Y-40314169D01*
X45961071Y-40234769D01*
X46093379Y-40158295D01*
X46219962Y-40085122D01*
X46340169Y-40015627D01*
X46453352Y-39950184D01*
X46558861Y-39889169D01*
X46656046Y-39832959D01*
X46744258Y-39781928D01*
X46822847Y-39736453D01*
X46891164Y-39696909D01*
X46948559Y-39663672D01*
X46994382Y-39637117D01*
X47027985Y-39617621D01*
X47048717Y-39605558D01*
X47055928Y-39601306D01*
X47042188Y-39592622D01*
X47001874Y-39568631D01*
X46937834Y-39530994D01*
X46852917Y-39481371D01*
X46749971Y-39421424D01*
X46631844Y-39352814D01*
X46501384Y-39277202D01*
X46361440Y-39196249D01*
X46155677Y-39077334D01*
X45961235Y-38964964D01*
X45777848Y-38858986D01*
X45605250Y-38759245D01*
X45443174Y-38665589D01*
X45291355Y-38577863D01*
X45149526Y-38495914D01*
X45017422Y-38419588D01*
X44894776Y-38348732D01*
X44781322Y-38283192D01*
X44676795Y-38222814D01*
X44580927Y-38167445D01*
X44493454Y-38116931D01*
X44414110Y-38071118D01*
X44342627Y-38029853D01*
X44278740Y-37992983D01*
X44222183Y-37960353D01*
X44172690Y-37931810D01*
X44129995Y-37907200D01*
X44093832Y-37886370D01*
X44063935Y-37869167D01*
X44040037Y-37855435D01*
X44021873Y-37845023D01*
X44009177Y-37837776D01*
X44001682Y-37833540D01*
X43999123Y-37832162D01*
X43703562Y-46018410D01*
X44000759Y-33684545D01*
X44000310Y-33709468D01*
X43999908Y-33743782D01*
X43999551Y-33788470D01*
X43999237Y-33844517D01*
X43998963Y-33912904D01*
X43998726Y-33994617D01*
X43998525Y-34090637D01*
X43998357Y-34201948D01*
X43998219Y-34329535D01*
X43998109Y-34474379D01*
X43998025Y-34637466D01*
X43997963Y-34819777D01*
X43997923Y-35022296D01*
X43997900Y-35246007D01*
X43997893Y-35491893D01*
X43997900Y-35658504D01*
X43997921Y-35821051D01*
X43997957Y-35978873D01*
X43998005Y-36131307D01*
X43998065Y-36277692D01*
X43998138Y-36417367D01*
X43998222Y-36549669D01*
X43998317Y-36673939D01*
X43998422Y-36789512D01*
X43998537Y-36895730D01*
X43998661Y-36991928D01*
X43998794Y-37077447D01*
X43998936Y-37151624D01*
X43999084Y-37213798D01*
X43999240Y-37263307D01*
X43999403Y-37299490D01*
X43999571Y-37321685D01*
X43999745Y-37329230D01*
X44006340Y-37325404D01*
X44025398Y-37314149D01*
X44056354Y-37295800D01*
X44098644Y-37270693D01*
X44151707Y-37239165D01*
X44214976Y-37201549D01*
X44287890Y-37158181D01*
X44369885Y-37109398D01*
X44460396Y-37055534D01*
X44558860Y-36996926D01*
X44664714Y-36933908D01*
X44777394Y-36866816D01*
X44896337Y-36795985D01*
X45020978Y-36721752D01*
X45150754Y-36644451D01*
X45285102Y-36564419D01*
X45423458Y-36481989D01*
X45565258Y-36397499D01*
X45565282Y-36397499D01*
X45707075Y-36313002D01*
X45845408Y-36230552D01*
X45979720Y-36150485D01*
X46109448Y-36073137D01*
X46234027Y-35998845D01*
X46352895Y-35927944D01*
X46465489Y-35860771D01*
X46571246Y-35797661D01*
X46669603Y-35738951D01*
X46759996Y-35684978D01*
X46841864Y-35636076D01*
X46914642Y-35592583D01*
X46977768Y-35554834D01*
X47030679Y-35523166D01*
X47072812Y-35497914D01*
X47103603Y-35479415D01*
X47122489Y-35468005D01*
X47128908Y-35464021D01*
X47100773Y-35446545D01*
X47033145Y-35406971D01*
X47018447Y-35398479D01*
X46992277Y-35383357D01*
X46955198Y-35361930D01*
X46907773Y-35334523D01*
X46850563Y-35301461D01*
X46784130Y-35263069D01*
X46709036Y-35219672D01*
X46625845Y-35171593D01*
X46535116Y-35119159D01*
X46437414Y-35062695D01*
X46333299Y-35002524D01*
X46223334Y-34938972D01*
X46108081Y-34872363D01*
X45988102Y-34803023D01*
X45863960Y-34731276D01*
X45736215Y-34657448D01*
X45605431Y-34581862D01*
X45472170Y-34504844D01*
X45331559Y-34423584D01*
X45194577Y-34344428D01*
X45061851Y-34267740D01*
X44934010Y-34193881D01*
X44811681Y-34123216D01*
X44695494Y-34056105D01*
X44586076Y-33992913D01*
X44484056Y-33934002D01*
X44390061Y-33879735D01*
X44304720Y-33830474D01*
X44228662Y-33786581D01*
X44162514Y-33748421D01*
X44106904Y-33716355D01*
X44062462Y-33690746D01*
X44029814Y-33671956D01*
X44009590Y-33660350D01*
X44002417Y-33656288D01*
X44001810Y-33658938D01*
X44001259Y-33668029D01*
X44000759Y-33684545D01*
X43703562Y-46018410D01*
X43634805Y-35225725D01*
X43634772Y-35038615D01*
X43634717Y-34862751D01*
X43634640Y-34698247D01*
X43634541Y-34545216D01*
X43634420Y-34403774D01*
X43634277Y-34274033D01*
X43634113Y-34156107D01*
X43633926Y-34050111D01*
X43633717Y-33956159D01*
X43633486Y-33874364D01*
X43633234Y-33804840D01*
X43632959Y-33747701D01*
X43632662Y-33703062D01*
X43632344Y-33671035D01*
X43632003Y-33651736D01*
X43631641Y-33645278D01*
X43623722Y-33649731D01*
X43601000Y-33662739D01*
X43564394Y-33683768D01*
X43514825Y-33712289D01*
X43453212Y-33747770D01*
X43380475Y-33789680D01*
X43297535Y-33837488D01*
X43205311Y-33890663D01*
X43104724Y-33948673D01*
X42996693Y-34010989D01*
X42882138Y-34077077D01*
X42761979Y-34146408D01*
X42637137Y-34218451D01*
X42508531Y-34292673D01*
X42377082Y-34368545D01*
X42243709Y-34445534D01*
X42109332Y-34523111D01*
X41974872Y-34600743D01*
X41841247Y-34677900D01*
X41709379Y-34754050D01*
X41580188Y-34828663D01*
X41454592Y-34901207D01*
X41333513Y-34971152D01*
X41217870Y-35037966D01*
X41108583Y-35101117D01*
X41006573Y-35160076D01*
X40912759Y-35214310D01*
X40828061Y-35263289D01*
X40753399Y-35306482D01*
X40689694Y-35343357D01*
X40637865Y-35373383D01*
X40598831Y-35396030D01*
X40573515Y-35410766D01*
X40562834Y-35417060D01*
X40553521Y-35422839D01*
X42093377Y-36312740D01*
X42241129Y-36398126D01*
X42385033Y-36481284D01*
X42524431Y-36561834D01*
X42658664Y-36639395D01*
X42787074Y-36713587D01*
X42909003Y-36784029D01*
X43023790Y-36850342D01*
X43130779Y-36912145D01*
X43229311Y-36969057D01*
X43318726Y-37020698D01*
X43398366Y-37066688D01*
X43467574Y-37106647D01*
X43525690Y-37140193D01*
X43572055Y-37166947D01*
X43606012Y-37186528D01*
X43626901Y-37198556D01*
X43634064Y-37202650D01*
X43634114Y-37194468D01*
X43634167Y-37170429D01*
X43634225Y-37131293D01*
X43634285Y-37077820D01*
X43634346Y-37010771D01*
X43634408Y-36930906D01*
X43634470Y-36838986D01*
X43634531Y-36735769D01*
X43634589Y-36622018D01*
X43634644Y-36498491D01*
X43634695Y-36365950D01*
X43634741Y-36225154D01*
X43634780Y-36076864D01*
X43634813Y-35921840D01*
X43634837Y-35760842D01*
X43634853Y-35594631D01*
X43634858Y-35423967D01*
X43634816Y-35423967D01*
X43634805Y-35225725D01*
X43703562Y-46018410D01*
X43695162Y-46013516D01*
X43675287Y-46001993D01*
X43644410Y-45984116D01*
X43603007Y-45960159D01*
X43551552Y-45930396D01*
X43490519Y-45895102D01*
X43420384Y-45854550D01*
X43341620Y-45809015D01*
X43254702Y-45758771D01*
X43160105Y-45704093D01*
X43058302Y-45645254D01*
X42949769Y-45582530D01*
X42834980Y-45516193D01*
X42714410Y-45446519D01*
X42588532Y-45373781D01*
X42457822Y-45298255D01*
X42322754Y-45220213D01*
X42183802Y-45139931D01*
X42041441Y-45057683D01*
X41896146Y-44973742D01*
X41750877Y-44889811D01*
X41608595Y-44807593D01*
X41469771Y-44727359D01*
X41334879Y-44649384D01*
X41204389Y-44573941D01*
X41078776Y-44501304D01*
X40958511Y-44431745D01*
X40844066Y-44365540D01*
X40735914Y-44302959D01*
X40634527Y-44244279D01*
X40540378Y-44189771D01*
X40453939Y-44139709D01*
X40375682Y-44094366D01*
X40029164Y-39300833D01*
X40029958Y-37422041D01*
X40030082Y-37131605D01*
X40030185Y-36872731D01*
X40030263Y-36643596D01*
X40030309Y-36442375D01*
X40030318Y-36267243D01*
X40030283Y-36116376D01*
X40030200Y-35987948D01*
X40030063Y-35880135D01*
X40029865Y-35791113D01*
X40029602Y-35719056D01*
X40029268Y-35662140D01*
X40028856Y-35618541D01*
X40028362Y-35586433D01*
X40027780Y-35563992D01*
X40027104Y-35549393D01*
X40026328Y-35540812D01*
X40025447Y-35536423D01*
X40024454Y-35534403D01*
X40024531Y-35534403D01*
X40018671Y-35530464D01*
X40002508Y-35520601D01*
X39976106Y-35504851D01*
X39939528Y-35483251D01*
X39892835Y-35455837D01*
X39836092Y-35422645D01*
X39769362Y-35383712D01*
X39692707Y-35339075D01*
X39606190Y-35288770D01*
X39509874Y-35232834D01*
X39403823Y-35171304D01*
X39288099Y-35104215D01*
X39162764Y-35031605D01*
X39027883Y-34953510D01*
X38883519Y-34869966D01*
X38729733Y-34781010D01*
X38566589Y-34686680D01*
X38394150Y-34587010D01*
X38246859Y-34501894D01*
X38103119Y-34418838D01*
X37963518Y-34338182D01*
X37828641Y-34260263D01*
X37699076Y-34185421D01*
X37575410Y-34113993D01*
X37458228Y-34046320D01*
X37348118Y-33982739D01*
X37245667Y-33923589D01*
X37151460Y-33869208D01*
X37066084Y-33819936D01*
X36990127Y-33776111D01*
X36924174Y-33738072D01*
X36868812Y-33706157D01*
X36824629Y-33680705D01*
X36792210Y-33662055D01*
X36772142Y-33650545D01*
X36765013Y-33646514D01*
X36764291Y-33648276D01*
X36763640Y-33655040D01*
X36763057Y-33668138D01*
X36762538Y-33688899D01*
X36762079Y-33718654D01*
X36761678Y-33758734D01*
X36761330Y-33810469D01*
X36761033Y-33875190D01*
X36760783Y-33954228D01*
X36760576Y-34048913D01*
X36760408Y-34160576D01*
X36760278Y-34290547D01*
X36760180Y-34440157D01*
X36760112Y-34610737D01*
X36760069Y-34803617D01*
X36760050Y-35020128D01*
X36760050Y-35261600D01*
X36760065Y-35529364D01*
X36760218Y-37414166D01*
X38394690Y-38357500D01*
X40029164Y-39300833D01*
X40375682Y-44094366D01*
X40025055Y-35108274D01*
X40084354Y-35142339D01*
X40132008Y-35169660D01*
X40167184Y-35189756D01*
X40189050Y-35202148D01*
X40196772Y-35206353D01*
X40203818Y-35202457D01*
X40223773Y-35191100D01*
X40256050Y-35172618D01*
X40300067Y-35147350D01*
X40355236Y-35115633D01*
X40420974Y-35077802D01*
X40496696Y-35034197D01*
X40581816Y-34985153D01*
X40675749Y-34931009D01*
X40777912Y-34872101D01*
X40887717Y-34808767D01*
X41004582Y-34741344D01*
X41127920Y-34670168D01*
X41257147Y-34595578D01*
X41391678Y-34517910D01*
X41530927Y-34437502D01*
X41674310Y-34354691D01*
X41821242Y-34269813D01*
X41821235Y-34269813D01*
X41968147Y-34184927D01*
X42111469Y-34102090D01*
X42250619Y-34021640D01*
X42385013Y-33943914D01*
X42514068Y-33869252D01*
X42637202Y-33797991D01*
X42753830Y-33730468D01*
X42863370Y-33667023D01*
X42965239Y-33607992D01*
X43058853Y-33553714D01*
X43143630Y-33504528D01*
X43218987Y-33460770D01*
X43284339Y-33422779D01*
X43339105Y-33390893D01*
X43382701Y-33365449D01*
X43414544Y-33346787D01*
X43434051Y-33335243D01*
X43440638Y-33331157D01*
X43433938Y-33327071D01*
X43414317Y-33315532D01*
X43382357Y-33296878D01*
X43338644Y-33271447D01*
X43283761Y-33239576D01*
X43218293Y-33201604D01*
X43142823Y-33157868D01*
X43057936Y-33108705D01*
X42964216Y-33054455D01*
X42862247Y-32995454D01*
X42752613Y-32932040D01*
X42635898Y-32864552D01*
X42512687Y-32793326D01*
X42383563Y-32718701D01*
X42249110Y-32641015D01*
X42109913Y-32560605D01*
X41966556Y-32477809D01*
X41819623Y-32392965D01*
X40199333Y-31457452D01*
X40188803Y-31462998D01*
X40179206Y-31468423D01*
X40155714Y-31481882D01*
X40119150Y-31502900D01*
X40070334Y-31531003D01*
X40010087Y-31565716D01*
X39939231Y-31606566D01*
X39858587Y-31653077D01*
X39768976Y-31704775D01*
X39671219Y-31761186D01*
X39566137Y-31821835D01*
X39454552Y-31886249D01*
X39337284Y-31953952D01*
X39215155Y-32024470D01*
X39088987Y-32097329D01*
X38959599Y-32172055D01*
X38827814Y-32248172D01*
X38694452Y-32325207D01*
X38560336Y-32402685D01*
X38426285Y-32480132D01*
X38293121Y-32557074D01*
X38161665Y-32633035D01*
X38032739Y-32707542D01*
X37907163Y-32780119D01*
X37785759Y-32850294D01*
X37669348Y-32917591D01*
X37558751Y-32981536D01*
X37454789Y-33041654D01*
X37358284Y-33097472D01*
X37270057Y-33148514D01*
X37190928Y-33194306D01*
X37121719Y-33234375D01*
X37063252Y-33268245D01*
X37016346Y-33295442D01*
X36981824Y-33315491D01*
X36960507Y-33327919D01*
X36953216Y-33332251D01*
X36960566Y-33336754D01*
X36982081Y-33349427D01*
X37016927Y-33369788D01*
X37064272Y-33397356D01*
X37123284Y-33431651D01*
X37193129Y-33472190D01*
X37272976Y-33518494D01*
X37361992Y-33570081D01*
X37459344Y-33626469D01*
X37564200Y-33687179D01*
X37675727Y-33751728D01*
X37793092Y-33819637D01*
X37915463Y-33890423D01*
X38042008Y-33963605D01*
X38171894Y-34038704D01*
X38304288Y-34115237D01*
X38438358Y-34192724D01*
X38573271Y-34270683D01*
X38708194Y-34348634D01*
X38842296Y-34426095D01*
X38974743Y-34502585D01*
X39104703Y-34577624D01*
X39231344Y-34650730D01*
X39353832Y-34721422D01*
X39471336Y-34789220D01*
X39583022Y-34853641D01*
X39688059Y-34914206D01*
X39785613Y-34970433D01*
X39874852Y-35021840D01*
X39954944Y-35067948D01*
X40025055Y-35108274D01*
X40375682Y-44094366D01*
X40306080Y-44054017D01*
X40395614Y-35858494D01*
X40395231Y-35910454D01*
X40394911Y-35976985D01*
X40394648Y-36059830D01*
X40394437Y-36160733D01*
X40394272Y-36281434D01*
X40394148Y-36423677D01*
X40394059Y-36589205D01*
X40394000Y-36779760D01*
X40393964Y-36997084D01*
X40393947Y-37242920D01*
X40393942Y-37519011D01*
X40393956Y-37689468D01*
X40393995Y-37855248D01*
X40394060Y-38015621D01*
X40394147Y-38169855D01*
X40394256Y-38317221D01*
X40394386Y-38456987D01*
X40394534Y-38588423D01*
X40394700Y-38710798D01*
X40394882Y-38823382D01*
X40395079Y-38925445D01*
X40395289Y-39016255D01*
X40395510Y-39095082D01*
X40395743Y-39161195D01*
X40395984Y-39213864D01*
X40396233Y-39252359D01*
X40396487Y-39275948D01*
X40396747Y-39283901D01*
X40404002Y-39279742D01*
X40424863Y-39267731D01*
X40458676Y-39248246D01*
X40504786Y-39221663D01*
X40562539Y-39188360D01*
X40631282Y-39148713D01*
X40710359Y-39103100D01*
X40799115Y-39051898D01*
X40896898Y-38995483D01*
X41003052Y-38934233D01*
X41116922Y-38868526D01*
X41237856Y-38798737D01*
X41365197Y-38725244D01*
X41498292Y-38648424D01*
X41636487Y-38568654D01*
X41779127Y-38486311D01*
X41925557Y-38401773D01*
X41925610Y-38401773D01*
X42072025Y-38317232D01*
X42214620Y-38234882D01*
X42352741Y-38155100D01*
X42485737Y-38078264D01*
X42612956Y-38004750D01*
X42733745Y-37934936D01*
X42847453Y-37869200D01*
X42953426Y-37807918D01*
X43051013Y-37751468D01*
X43139561Y-37700227D01*
X43218418Y-37654572D01*
X43286933Y-37614882D01*
X43344452Y-37581532D01*
X43390323Y-37554901D01*
X43423895Y-37535365D01*
X43444515Y-37523303D01*
X43451531Y-37519090D01*
X43443785Y-37514462D01*
X43421173Y-37501251D01*
X43384625Y-37479994D01*
X43335066Y-37451227D01*
X43273426Y-37415486D01*
X43200631Y-37373307D01*
X43117608Y-37325227D01*
X43025287Y-37271780D01*
X42924593Y-37213505D01*
X42816455Y-37150936D01*
X42701800Y-37084610D01*
X42581557Y-37015063D01*
X42456651Y-36942830D01*
X42328012Y-36868449D01*
X42196566Y-36792455D01*
X42063241Y-36715384D01*
X41928965Y-36637773D01*
X41794666Y-36560157D01*
X41661270Y-36483073D01*
X41529706Y-36407056D01*
X41400900Y-36332644D01*
X41275782Y-36260371D01*
X41155277Y-36190775D01*
X41040314Y-36124390D01*
X40931821Y-36061754D01*
X40830725Y-36003402D01*
X40737953Y-35949871D01*
X40654433Y-35901697D01*
X40581093Y-35859415D01*
X40518860Y-35823562D01*
X40468661Y-35794674D01*
X40431426Y-35773287D01*
X40408080Y-35759938D01*
X40399552Y-35755161D01*
X40398673Y-35756284D01*
X40397890Y-35761523D01*
X40397199Y-35772621D01*
X40396593Y-35791321D01*
X40396066Y-35819364D01*
X40395614Y-35858494D01*
X40306080Y-44054017D01*
X40245605Y-44018934D01*
X40194729Y-43989391D01*
X40153925Y-43965661D01*
X40123665Y-43948018D01*
X40104422Y-43936735D01*
X40096667Y-43932086D01*
X40054170Y-43892329D01*
X40025328Y-43839431D01*
X40024480Y-43836380D01*
X40023712Y-43831121D01*
X40023018Y-43822257D01*
X40022393Y-43808391D01*
X40021831Y-43788126D01*
X40021329Y-43760064D01*
X40020880Y-43722808D01*
X40020479Y-43674962D01*
X40020121Y-43615127D01*
X40019801Y-43541908D01*
X40019514Y-43453905D01*
X40019254Y-43349724D01*
X40019017Y-43227965D01*
X40018797Y-43087233D01*
X40018589Y-42926130D01*
X40018388Y-42743258D01*
X40018189Y-42537221D01*
X40017986Y-42306621D01*
X40017774Y-42050062D01*
X40017549Y-41766146D01*
X40015697Y-39709512D01*
X47249291Y-35824226D01*
X47240605Y-35829267D01*
X47216749Y-35843395D01*
X47178703Y-35866025D01*
X47127448Y-35896570D01*
X47063964Y-35934444D01*
X46989231Y-35979058D01*
X46904229Y-36029828D01*
X46809938Y-36086167D01*
X46707340Y-36147487D01*
X46597413Y-36213202D01*
X46481138Y-36282727D01*
X46359496Y-36355473D01*
X46233466Y-36430855D01*
X46104029Y-36508285D01*
X45972165Y-36587178D01*
X45838855Y-36666947D01*
X45705078Y-36747005D01*
X45571815Y-36826765D01*
X45440045Y-36905641D01*
X45310750Y-36983046D01*
X45184909Y-37058394D01*
X45063503Y-37131099D01*
X44947512Y-37200572D01*
X44837915Y-37266229D01*
X44735694Y-37327482D01*
X44641829Y-37383744D01*
X44557299Y-37434430D01*
X44483085Y-37478952D01*
X44420167Y-37516724D01*
X44369526Y-37547159D01*
X44332141Y-37569671D01*
X44308994Y-37583674D01*
X44301063Y-37588579D01*
X44309009Y-37593407D01*
X44332179Y-37607014D01*
X44369592Y-37628833D01*
X44420267Y-37658298D01*
X44483222Y-37694840D01*
X44557477Y-37737894D01*
X44642049Y-37786894D01*
X44735959Y-37841271D01*
X44838224Y-37900459D01*
X44947863Y-37963892D01*
X45063895Y-38031003D01*
X45185339Y-38101225D01*
X45311213Y-38173991D01*
X45440537Y-38248735D01*
X45572328Y-38324889D01*
X45705607Y-38401887D01*
X45839391Y-38479162D01*
X45972700Y-38556148D01*
X46104551Y-38632277D01*
X46233964Y-38706983D01*
X46359958Y-38779698D01*
X46481551Y-38849857D01*
X46597763Y-38916893D01*
X46707611Y-38980238D01*
X46810115Y-39039326D01*
X46904293Y-39093590D01*
X46989164Y-39142464D01*
X47063747Y-39185380D01*
X47127061Y-39221772D01*
X47178124Y-39251073D01*
X47215955Y-39272716D01*
X47239574Y-39286134D01*
X47247997Y-39290761D01*
X47248535Y-39287053D01*
X47249029Y-39275258D01*
X47249480Y-39254536D01*
X47249890Y-39224049D01*
X47250260Y-39182956D01*
X47250592Y-39130418D01*
X47250887Y-39065597D01*
X47251148Y-38987652D01*
X47251374Y-38895744D01*
X47251568Y-38789035D01*
X47251732Y-38666685D01*
X47251866Y-38527854D01*
X47251973Y-38371703D01*
X47252053Y-38197394D01*
X47252109Y-38004085D01*
X47252141Y-37790939D01*
X47252151Y-37557116D01*
X47252122Y-37557116D01*
X47252109Y-37388247D01*
X47252069Y-37224334D01*
X47252005Y-37066059D01*
X47251917Y-36914104D01*
X47251808Y-36769151D01*
X47251678Y-36631883D01*
X47251529Y-36502982D01*
X47251362Y-36383129D01*
X47251179Y-36273008D01*
X47250981Y-36173300D01*
X47250769Y-36084688D01*
X47250545Y-36007854D01*
X47250310Y-35943480D01*
X47250066Y-35892248D01*
X47249814Y-35854840D01*
X47249555Y-35831939D01*
X47249291Y-35824226D01*
X40015697Y-39709512D01*
X50872739Y-33657938D01*
X50860251Y-33665246D01*
X50852479Y-33669877D01*
X50831848Y-33682195D01*
X50798944Y-33701851D01*
X50754354Y-33728494D01*
X50698663Y-33761773D01*
X50632460Y-33801338D01*
X50556329Y-33846838D01*
X50470858Y-33897922D01*
X50376633Y-33954240D01*
X50274240Y-34015442D01*
X50164267Y-34081177D01*
X50047298Y-34151095D01*
X49923922Y-34224844D01*
X49794724Y-34302074D01*
X49660291Y-34382435D01*
X49521210Y-34465576D01*
X49378066Y-34551147D01*
X49231446Y-34638796D01*
X47615139Y-35605040D01*
X47615139Y-37448079D01*
X47615146Y-37615207D01*
X47615168Y-37778258D01*
X47615203Y-37936570D01*
X47615253Y-38089477D01*
X47615317Y-38236316D01*
X47615393Y-38376424D01*
X47615483Y-38509138D01*
X47615586Y-38633792D01*
X47615701Y-38749725D01*
X47615828Y-38856272D01*
X47615967Y-38952769D01*
X47616119Y-39038553D01*
X47616281Y-39112960D01*
X47616455Y-39175327D01*
X47616639Y-39224990D01*
X47616834Y-39261285D01*
X47617040Y-39283548D01*
X47617255Y-39291117D01*
X47624946Y-39286790D01*
X47647125Y-39274095D01*
X47683053Y-39253459D01*
X47731986Y-39225309D01*
X47793184Y-39190074D01*
X47865905Y-39148181D01*
X47949406Y-39100057D01*
X48042947Y-39046130D01*
X48145786Y-38986827D01*
X48257181Y-38922577D01*
X48376389Y-38853806D01*
X48502671Y-38780943D01*
X48635283Y-38704415D01*
X48773485Y-38624649D01*
X48916535Y-38542074D01*
X49063690Y-38457116D01*
X49063613Y-38457115D01*
X49195344Y-38381056D01*
X49325328Y-38306007D01*
X49452978Y-38232304D01*
X49577710Y-38160287D01*
X49698938Y-38090293D01*
X49816076Y-38022659D01*
X49928538Y-37957726D01*
X50035741Y-37895829D01*
X50137097Y-37837308D01*
X50232021Y-37782500D01*
X50319928Y-37731743D01*
X50400233Y-37685376D01*
X50472350Y-37643737D01*
X50535692Y-37607163D01*
X50589676Y-37575993D01*
X50633715Y-37550565D01*
X50667225Y-37531216D01*
X50689618Y-37518286D01*
X50871151Y-37413458D01*
X50871945Y-35535698D01*
X50872739Y-33657938D01*
X40015697Y-39709512D01*
X38251997Y-38688132D01*
X38017551Y-38552368D01*
X37804515Y-38429003D01*
X37611854Y-38317424D01*
X37438531Y-38217018D01*
X37283511Y-38127170D01*
X37145756Y-38047267D01*
X37024231Y-37976695D01*
X36917900Y-37914840D01*
X36825727Y-37861089D01*
X36746675Y-37814827D01*
X36679708Y-37775440D01*
X36623790Y-37742316D01*
X36577885Y-37714839D01*
X36540957Y-37692397D01*
X36511969Y-37674375D01*
X36489886Y-37660160D01*
X36473671Y-37649138D01*
X36462288Y-37640695D01*
X36454700Y-37634218D01*
X36449873Y-37629092D01*
X36446768Y-37624703D01*
X36444352Y-37620438D01*
X36441586Y-37615684D01*
X36423568Y-37577379D01*
X36414995Y-37554064D01*
X36412614Y-35448949D01*
X36412427Y-35284998D01*
X36412244Y-35124271D01*
X36412066Y-34967249D01*
X36411892Y-34814415D01*
X36411725Y-34666250D01*
X36411563Y-34523236D01*
X36411409Y-34385855D01*
X36411261Y-34254590D01*
X36411121Y-34129921D01*
X36410990Y-34012330D01*
X36410867Y-33902300D01*
X36410754Y-33800313D01*
X36410650Y-33706850D01*
X36410556Y-33622393D01*
X36410474Y-33547425D01*
X36410402Y-33482426D01*
X36410343Y-33427879D01*
X36410295Y-33384266D01*
X36410261Y-33352068D01*
X36410240Y-33331768D01*
X36410233Y-33323848D01*
X36435077Y-33240576D01*
X36472042Y-33196145D01*
X36522146Y-33166043D01*
X36529949Y-33161836D01*
X36549287Y-33150956D01*
X36579686Y-33133676D01*
X36620671Y-33110269D01*
X36671768Y-33081009D01*
X36732503Y-33046168D01*
X36802402Y-33006020D01*
X36880989Y-32960838D01*
X36967790Y-32910895D01*
X37062333Y-32856465D01*
X37164140Y-32797819D01*
X37272740Y-32735233D01*
X37387657Y-32668978D01*
X37508416Y-32599328D01*
X37634544Y-32526555D01*
X37765566Y-32450935D01*
X37901008Y-32372738D01*
X38040395Y-32292239D01*
X38183253Y-32209711D01*
X38329108Y-32125426D01*
X38474952Y-32041140D01*
X38617778Y-31958609D01*
X38757113Y-31878105D01*
X38892482Y-31799902D01*
X39023413Y-31724272D01*
X39149431Y-31651490D01*
X39270064Y-31581828D01*
X39384838Y-31515560D01*
X39493279Y-31452959D01*
X39594915Y-31394298D01*
X39689271Y-31339850D01*
X39775874Y-31289889D01*
X39854251Y-31244688D01*
X44211834Y-33322177D01*
X44192146Y-33333737D01*
X44185400Y-33337829D01*
X44217392Y-33358514D01*
X44295258Y-33404475D01*
X44311489Y-33413854D01*
X44339492Y-33430038D01*
X44378685Y-33452689D01*
X44428486Y-33481472D01*
X44488311Y-33516049D01*
X44557578Y-33556084D01*
X44635705Y-33601241D01*
X44722109Y-33651181D01*
X44816207Y-33705569D01*
X44917417Y-33764068D01*
X45025156Y-33826342D01*
X45138841Y-33892052D01*
X45257891Y-33960864D01*
X45381722Y-34032439D01*
X45509751Y-34106441D01*
X45641397Y-34182534D01*
X45776076Y-34260381D01*
X45913206Y-34339644D01*
X46065809Y-34427831D01*
X46212759Y-34512711D01*
X46353595Y-34594020D01*
X46487860Y-34671493D01*
X46615092Y-34744868D01*
X46734834Y-34813879D01*
X46846625Y-34878263D01*
X46950006Y-34937755D01*
X47044517Y-34992092D01*
X47129700Y-35041009D01*
X47205095Y-35084242D01*
X47270242Y-35121527D01*
X47324682Y-35152599D01*
X47367955Y-35177195D01*
X47399603Y-35195051D01*
X47419166Y-35205902D01*
X47426184Y-35209485D01*
X47433397Y-35205523D01*
X47453585Y-35194108D01*
X47486161Y-35175577D01*
X47530534Y-35150268D01*
X47586117Y-35118518D01*
X47652321Y-35080664D01*
X47728557Y-35037044D01*
X47814237Y-34987993D01*
X47908772Y-34933851D01*
X48011573Y-34874954D01*
X48122053Y-34811638D01*
X48239621Y-34744242D01*
X48363690Y-34673103D01*
X48493671Y-34598557D01*
X48628976Y-34520943D01*
X48769015Y-34440596D01*
X48913201Y-34357855D01*
X49060944Y-34273057D01*
X49060915Y-34273053D01*
X49208630Y-34188257D01*
X49352735Y-34105523D01*
X49492642Y-34025189D01*
X49627766Y-33947590D01*
X49757520Y-33873065D01*
X49881319Y-33801949D01*
X49998575Y-33734581D01*
X50108703Y-33671296D01*
X50211116Y-33612433D01*
X50305229Y-33558328D01*
X50390455Y-33509317D01*
X50466208Y-33465739D01*
X50531901Y-33427929D01*
X50586948Y-33396226D01*
X50630764Y-33370965D01*
X50662761Y-33352484D01*
X50682354Y-33341120D01*
X50688957Y-33337210D01*
X50659826Y-33320391D01*
X50584749Y-33277038D01*
X50479814Y-33216539D01*
X50420855Y-33182580D01*
X50353223Y-33143621D01*
X50277559Y-33100032D01*
X50194504Y-33052182D01*
X50104698Y-33000440D01*
X50008783Y-32945175D01*
X49907398Y-32886757D01*
X49801185Y-32825555D01*
X49690783Y-32761938D01*
X49576834Y-32696275D01*
X49459979Y-32628935D01*
X49340857Y-32560289D01*
X49220109Y-32490704D01*
X49098377Y-32420550D01*
X48976300Y-32350196D01*
X48854520Y-32280012D01*
X48733677Y-32210366D01*
X48614411Y-32141629D01*
X48497364Y-32074169D01*
X48383175Y-32008355D01*
X48272486Y-31944557D01*
X48165938Y-31883143D01*
X48064169Y-31824484D01*
X47967823Y-31768947D01*
X47877538Y-31716904D01*
X47793956Y-31668722D01*
X47717717Y-31624770D01*
X47649463Y-31585419D01*
X47589832Y-31551038D01*
X47539467Y-31521994D01*
X47499008Y-31498659D01*
X47469095Y-31481401D01*
X47450370Y-31470588D01*
X47443472Y-31466591D01*
X47433259Y-31460403D01*
X45809762Y-32397778D01*
X45662539Y-32482791D01*
X45518899Y-32565751D01*
X45379429Y-32646322D01*
X45244713Y-32724163D01*
X45115336Y-32798936D01*
X44991882Y-32870304D01*
X44874937Y-32937927D01*
X44765086Y-33001467D01*
X44662913Y-33060585D01*
X44569004Y-33114943D01*
X44483943Y-33164203D01*
X44408315Y-33208026D01*
X44342706Y-33246073D01*
X44287699Y-33278006D01*
X44243880Y-33303487D01*
X44211834Y-33322177D01*
X39854251Y-31244688D01*
X39923928Y-31204519D01*
X39984432Y-31169657D01*
X40035289Y-31140375D01*
X40076025Y-31116945D01*
X40106169Y-31099642D01*
X40125245Y-31088738D01*
X40132780Y-31084506D01*
X40200726Y-31066173D01*
X40268948Y-31074584D01*
X40275575Y-31077911D01*
X40290797Y-31086260D01*
X40314623Y-31099638D01*
X40347063Y-31118049D01*
X40388128Y-31141500D01*
X40437827Y-31169997D01*
X40496171Y-31203545D01*
X40563170Y-31242151D01*
X40638833Y-31285819D01*
X40723171Y-31334555D01*
X40816193Y-31388367D01*
X40917911Y-31447258D01*
X41028333Y-31511236D01*
X41147470Y-31580305D01*
X41275333Y-31654472D01*
X41411930Y-31733743D01*
X41557272Y-31818122D01*
X41711370Y-31907617D01*
X41874233Y-32002232D01*
X42045871Y-32101974D01*
X42189183Y-32185265D01*
X42329449Y-32266784D01*
X42466208Y-32346262D01*
X42598996Y-32423430D01*
X42727352Y-32498021D01*
X42850814Y-32569765D01*
X42968919Y-32638395D01*
X43081205Y-32703641D01*
X43187210Y-32765235D01*
X43286473Y-32822908D01*
X43378529Y-32876392D01*
X43462919Y-32925419D01*
X43539179Y-32969720D01*
X43606847Y-33009026D01*
X43665460Y-33043069D01*
X43714558Y-33071581D01*
X43753677Y-33094292D01*
X43782356Y-33110934D01*
X43800132Y-33121239D01*
X43806544Y-33124939D01*
X43827568Y-33119170D01*
X43901473Y-33077729D01*
X44039944Y-32997568D01*
X44178008Y-32917660D01*
X44315486Y-32838107D01*
X44452202Y-32759013D01*
X44587977Y-32680479D01*
X44722633Y-32602609D01*
X44855993Y-32525505D01*
X44987879Y-32449269D01*
X45118113Y-32374003D01*
X45246517Y-32299811D01*
X45372913Y-32226795D01*
X45497124Y-32155057D01*
X45618971Y-32084700D01*
X45738278Y-32015827D01*
X45854865Y-31948539D01*
X45968556Y-31882939D01*
X46079172Y-31819130D01*
X46186535Y-31757215D01*
X46290469Y-31697296D01*
X46390794Y-31639474D01*
X46487333Y-31583854D01*
X46579909Y-31530537D01*
X46668343Y-31479626D01*
X46752457Y-31431223D01*
X46832075Y-31385431D01*
X46907017Y-31342353D01*
X46977107Y-31302090D01*
X47042165Y-31264746D01*
X47102015Y-31230422D01*
X47156479Y-31199222D01*
X47205379Y-31171248D01*
X47248537Y-31146602D01*
X47285774Y-31125387D01*
X47316915Y-31107706D01*
X47341779Y-31093660D01*
X47360191Y-31083353D01*
X47371971Y-31076887D01*
X47376942Y-31074364D01*
X47430237Y-31066146D01*
X47523503Y-31090202D01*
X47531289Y-31094623D01*
X47550485Y-31105641D01*
X47580622Y-31122983D01*
X47621229Y-31146379D01*
X47671838Y-31175558D01*
X47731979Y-31210249D01*
X47801182Y-31250180D01*
X47878979Y-31295081D01*
X47964900Y-31344681D01*
X48058474Y-31398708D01*
X48159234Y-31456891D01*
X48266709Y-31518960D01*
X48380430Y-31584642D01*
X48499928Y-31653668D01*
X48624733Y-31725766D01*
X48754375Y-31800665D01*
X48888386Y-31878095D01*
X49026295Y-31957782D01*
X49167634Y-32039458D01*
X49311933Y-32122851D01*
X49456188Y-32206216D01*
X49597398Y-32287811D01*
X49735098Y-32367366D01*
X49868821Y-32444614D01*
X49998101Y-32519285D01*
X50122473Y-32591110D01*
X50241470Y-32659820D01*
X50354627Y-32725147D01*
X50461477Y-32786821D01*
X50561553Y-32844573D01*
X50654392Y-32898136D01*
X50739525Y-32947239D01*
X50816487Y-32991613D01*
X50884813Y-33030991D01*
X50944035Y-33065103D01*
X50993689Y-33093680D01*
X51033307Y-33116453D01*
X51062425Y-33133153D01*
X51080575Y-33143512D01*
X51087292Y-33147260D01*
X51121519Y-33158719D01*
X51198479Y-33207561D01*
X51242550Y-33288871D01*
X51240168Y-33378805D01*
X51239377Y-33382320D01*
X51238657Y-33388540D01*
X51238005Y-33398782D01*
X51237415Y-33414368D01*
X51236883Y-33436617D01*
X51236404Y-33466848D01*
X51235973Y-33506381D01*
X51235585Y-33556536D01*
X51235236Y-33618633D01*
X51234920Y-33693991D01*
X51234633Y-33783930D01*
X51234370Y-33889769D01*
X51234126Y-34012828D01*
X51233896Y-34154428D01*
X51233676Y-34315887D01*
X51233460Y-34498526D01*
X51233245Y-34703663D01*
X51233024Y-34932619D01*
X51232793Y-35186714D01*
X51232548Y-35467266D01*
X51230696Y-37537408D01*
X51223261Y-37559299D01*
X51170004Y-37639001D01*
X51164918Y-37642706D01*
X51154147Y-37649637D01*
X51137161Y-37660102D01*
X51113428Y-37674412D01*
X51082417Y-37692874D01*
X51043595Y-37715798D01*
X50996432Y-37743493D01*
X50940395Y-37776267D01*
X50874955Y-37814430D01*
X50799579Y-37858290D01*
X50713736Y-37908157D01*
X50616894Y-37964340D01*
X50508522Y-38027147D01*
X50388088Y-38096887D01*
X50255062Y-38173870D01*
X50108911Y-38258405D01*
X49949105Y-38350799D01*
X49775111Y-38451363D01*
X49586399Y-38560405D01*
X49382436Y-38678235D01*
X47615088Y-39699148D01*
X47615051Y-41754520D01*
X47615039Y-41964926D01*
X47615011Y-42163104D01*
X47614968Y-42349219D01*
X47614909Y-42523439D01*
X47614833Y-42685931D01*
X47614740Y-42836862D01*
X47614630Y-42976400D01*
X47614502Y-43104712D01*
X47614357Y-43221965D01*
X47614193Y-43328325D01*
X47614010Y-43423961D01*
X47613808Y-43509040D01*
X47613586Y-43583728D01*
X47613344Y-43648193D01*
X47613082Y-43702601D01*
X47612799Y-43747121D01*
X47612496Y-43781920D01*
X47612170Y-43807164D01*
X47611823Y-43823021D01*
X47611453Y-43829657D01*
X47583179Y-43896504D01*
X47531202Y-43948802D01*
X47523787Y-43953168D01*
X47504789Y-43964180D01*
X47474681Y-43981565D01*
X47433938Y-44005050D01*
X47383036Y-44034363D01*
X47322448Y-44069230D01*
X47252649Y-44109379D01*
X47174115Y-44154537D01*
X47087319Y-44204431D01*
X46992736Y-44258788D01*
X46890842Y-44317337D01*
X46782110Y-44379803D01*
X46667016Y-44445915D01*
X46546034Y-44515399D01*
X46419638Y-44587982D01*
X46288304Y-44663393D01*
X46152506Y-44741357D01*
X46012718Y-44821603D01*
X45869416Y-44903857D01*
X45723074Y-44987847D01*
X45576725Y-45071839D01*
X45433402Y-45154099D01*
X45293580Y-45234354D01*
X45157734Y-45312331D01*
X45026339Y-45387757D01*
X44899872Y-45460359D01*
X44778806Y-45529864D01*
X44663617Y-45595999D01*
X44554780Y-45658493D01*
X44452771Y-45717070D01*
X44358065Y-45771460D01*
X44271136Y-45821388D01*
X44192461Y-45866582D01*
X44122514Y-45906769D01*
X44061771Y-45941676D01*
X44010707Y-45971030D01*
X43969796Y-45994559D01*
X43939515Y-46011989D01*
X43920339Y-46023047D01*
X43912742Y-46027461D01*
X43849408Y-46051227D01*
X43784501Y-46052967D01*
X43784755Y-46052975D01*
D10*
G36*
X54112293Y-45031469D02*
X54757753Y-45031469D01*
X54844220Y-45014723D01*
X54879538Y-44948655D01*
X54851528Y-44882282D01*
X54757753Y-44856099D01*
X54112293Y-44856099D01*
X54112293Y-44442029D01*
X55057344Y-44442029D01*
X55133764Y-44425284D01*
X55164515Y-44359216D01*
X55139244Y-44292843D01*
X55057344Y-44266659D01*
X54019736Y-44266659D01*
X53965542Y-44285536D01*
X53936922Y-44373830D01*
X53936922Y-45708593D01*
X53960062Y-45791406D01*
X54019736Y-45815763D01*
X55057344Y-45815763D01*
X55133764Y-45799018D01*
X55164515Y-45732950D01*
X55139244Y-45666577D01*
X55057344Y-45640393D01*
X54112293Y-45640393D01*
X54112293Y-45031469D01*
X54112293Y-45031469D01*
G37*
G36*
X55585891Y-45869349D02*
X55649309Y-45854464D01*
X55708397Y-45811974D01*
X55734469Y-45745128D01*
X55708939Y-45679364D01*
X55650392Y-45636334D01*
X55585891Y-45620908D01*
X55522472Y-45635793D01*
X55463384Y-45678282D01*
X55437313Y-45745128D01*
X55461219Y-45810892D01*
X55518142Y-45853923D01*
X55585891Y-45869349D01*
X55585891Y-45869349D01*
G37*
G36*
X56903604Y-45730514D02*
X56903604Y-45068004D01*
X57780455Y-45068004D01*
X57780455Y-45730514D01*
X57809075Y-45811805D01*
X57870576Y-45832813D01*
X57938775Y-45800845D01*
X57955826Y-45730514D01*
X57955826Y-44354344D01*
X57929946Y-44272748D01*
X57865705Y-44249609D01*
X57797505Y-44282795D01*
X57780455Y-44354344D01*
X57780455Y-44892633D01*
X56903604Y-44892633D01*
X56903604Y-44354344D01*
X56882900Y-44280969D01*
X56811047Y-44249609D01*
X56756852Y-44268181D01*
X56728233Y-44354344D01*
X56728233Y-45730514D01*
X56760202Y-45815459D01*
X56815919Y-45832813D01*
X56882596Y-45805411D01*
X56903604Y-45730514D01*
X56903604Y-45730514D01*
G37*
G36*
X58540393Y-45031469D02*
X59185853Y-45031469D01*
X59272320Y-45014723D01*
X59307638Y-44948655D01*
X59279627Y-44882282D01*
X59185853Y-44856099D01*
X58540393Y-44856099D01*
X58540393Y-44442029D01*
X59485444Y-44442029D01*
X59561864Y-44425284D01*
X59592615Y-44359216D01*
X59567345Y-44292843D01*
X59485444Y-44266659D01*
X58447836Y-44266659D01*
X58393642Y-44285536D01*
X58365022Y-44373830D01*
X58365022Y-45708593D01*
X58388162Y-45791406D01*
X58447836Y-45815763D01*
X59485444Y-45815763D01*
X59561864Y-45799018D01*
X59592615Y-45732950D01*
X59567345Y-45666577D01*
X59485444Y-45640393D01*
X58540393Y-45640393D01*
X58540393Y-45031469D01*
X58540393Y-45031469D01*
G37*
G36*
X59996941Y-45815763D02*
X60900585Y-45815763D01*
X60985835Y-45785926D01*
X61005320Y-45730514D01*
X60981268Y-45667186D01*
X60900585Y-45640393D01*
X60089498Y-45640393D01*
X60089498Y-44347037D01*
X60060269Y-44270008D01*
X60001813Y-44249609D01*
X59943355Y-44270008D01*
X59914127Y-44347037D01*
X59914127Y-45711028D01*
X59942746Y-45797191D01*
X59996941Y-45815763D01*
X59996941Y-45815763D01*
G37*
G36*
X61346317Y-45815763D02*
X62249962Y-45815763D01*
X62335212Y-45785926D01*
X62354697Y-45730514D01*
X62330645Y-45667186D01*
X62249962Y-45640393D01*
X61438874Y-45640393D01*
X61438874Y-44347037D01*
X61409646Y-44270008D01*
X61351189Y-44249609D01*
X61292732Y-44270008D01*
X61263504Y-44347037D01*
X61263504Y-45711028D01*
X61292123Y-45797191D01*
X61346317Y-45815763D01*
X61346317Y-45815763D01*
G37*
G36*
X63138992Y-45837685D02*
X63466898Y-45553926D01*
X63405087Y-45600661D01*
X63329776Y-45634609D01*
X63241049Y-45655312D01*
X63138992Y-45662315D01*
X63036935Y-45655312D01*
X62948208Y-45634609D01*
X62872897Y-45600661D01*
X62811086Y-45553926D01*
X62762862Y-45494860D01*
X62728311Y-45423920D01*
X62707517Y-45341563D01*
X62700566Y-45248245D01*
X62700566Y-44834177D01*
X62707317Y-44742258D01*
X62727626Y-44660557D01*
X62761578Y-44589703D01*
X62809259Y-44530323D01*
X62870756Y-44483046D01*
X62946153Y-44448499D01*
X63035537Y-44427310D01*
X63138992Y-44420108D01*
X63242447Y-44427310D01*
X63331831Y-44448499D01*
X63407228Y-44483046D01*
X63468725Y-44530323D01*
X63516406Y-44589703D01*
X63550359Y-44660557D01*
X63570667Y-44742258D01*
X63577418Y-44834177D01*
X63577418Y-45248245D01*
X63570468Y-45341563D01*
X63549674Y-45423920D01*
X63515122Y-45494860D01*
X63466898Y-45553926D01*
X63138992Y-45837685D01*
X63234539Y-45832417D01*
X63324113Y-45816794D01*
X63407054Y-45791092D01*
X63482706Y-45755585D01*
X63550407Y-45710547D01*
X63609501Y-45656254D01*
X63659328Y-45592978D01*
X63699228Y-45520996D01*
X63728545Y-45440582D01*
X63746618Y-45352009D01*
X63752788Y-45255553D01*
X63752788Y-44826870D01*
X63746618Y-44730414D01*
X63728545Y-44641841D01*
X63699228Y-44561426D01*
X63659328Y-44489444D01*
X63609501Y-44426169D01*
X63550407Y-44371875D01*
X63482706Y-44326838D01*
X63407054Y-44291331D01*
X63324113Y-44265629D01*
X63234539Y-44250006D01*
X63138992Y-44244738D01*
X63042896Y-44250006D01*
X62952982Y-44265629D01*
X62869876Y-44291331D01*
X62794203Y-44326838D01*
X62726589Y-44371875D01*
X62667660Y-44426169D01*
X62618042Y-44489444D01*
X62578361Y-44561426D01*
X62549242Y-44641841D01*
X62531312Y-44730414D01*
X62525196Y-44826870D01*
X62525196Y-45255553D01*
X62531312Y-45352009D01*
X62549242Y-45440582D01*
X62578361Y-45520996D01*
X62618042Y-45592978D01*
X62667660Y-45656254D01*
X62726589Y-45710547D01*
X62794203Y-45755585D01*
X62869876Y-45791092D01*
X62952982Y-45816794D01*
X63042896Y-45832417D01*
X63138992Y-45837685D01*
X63138992Y-45837685D01*
G37*
G36*
X64076737Y-44853663D02*
X64076737Y-45228760D01*
X64083133Y-45341511D01*
X64101892Y-45444193D01*
X64132373Y-45536382D01*
X64173931Y-45617654D01*
X64225923Y-45687585D01*
X64287707Y-45745752D01*
X64358639Y-45791730D01*
X64438077Y-45825097D01*
X64525378Y-45845428D01*
X64619897Y-45852299D01*
X64963331Y-45852299D01*
X65064547Y-45840447D01*
X65137348Y-45807825D01*
X65186197Y-45758829D01*
X65215561Y-45697858D01*
X65229904Y-45629309D01*
X65233693Y-45557580D01*
X65202334Y-45465936D01*
X65143572Y-45445537D01*
X65075373Y-45478724D01*
X65058323Y-45550272D01*
X65049302Y-45626410D01*
X65015383Y-45665742D01*
X64946281Y-45676929D01*
X64619897Y-45676929D01*
X64520531Y-45666674D01*
X64437270Y-45636651D01*
X64369816Y-45587965D01*
X64317871Y-45521726D01*
X64281136Y-45439040D01*
X64259315Y-45341015D01*
X64252107Y-45228760D01*
X64252107Y-44853663D01*
X64259315Y-44741407D01*
X64281136Y-44643383D01*
X64317871Y-44560697D01*
X64369816Y-44494457D01*
X64437270Y-44445772D01*
X64520531Y-44415748D01*
X64619897Y-44405494D01*
X64690533Y-44405494D01*
X64789132Y-44415748D01*
X64872095Y-44445772D01*
X64939591Y-44494457D01*
X64991792Y-44560697D01*
X65028867Y-44643383D01*
X65050988Y-44741407D01*
X65058323Y-44853663D01*
X65054403Y-44988691D01*
X65041578Y-45078965D01*
X65018248Y-45134529D01*
X64982816Y-45165432D01*
X64795876Y-44841788D01*
X64817189Y-44904241D01*
X64822060Y-45007112D01*
X64817189Y-45111390D01*
X64795876Y-45174566D01*
X64748076Y-45205773D01*
X64663740Y-45214146D01*
X64580812Y-45206115D01*
X64533734Y-45175479D01*
X64512688Y-45112417D01*
X64507855Y-45007112D01*
X64512688Y-44903214D01*
X64533734Y-44840875D01*
X64580812Y-44810505D01*
X64663740Y-44802513D01*
X64748076Y-44810848D01*
X64795876Y-44841788D01*
X64982816Y-45165432D01*
X64994690Y-45092665D01*
X64997430Y-45007112D01*
X64993006Y-44907071D01*
X64978144Y-44822070D01*
X64950456Y-44752237D01*
X64907558Y-44697700D01*
X64847064Y-44658587D01*
X64766586Y-44635025D01*
X64663740Y-44627143D01*
X64561796Y-44635025D01*
X64481964Y-44658587D01*
X64421903Y-44697700D01*
X64379267Y-44752237D01*
X64351715Y-44822070D01*
X64336902Y-44907071D01*
X64332485Y-45007112D01*
X64336902Y-45108055D01*
X64351715Y-45193702D01*
X64379267Y-45263967D01*
X64421903Y-45318767D01*
X64481964Y-45358015D01*
X64561796Y-45381627D01*
X64663740Y-45389516D01*
X64798342Y-45384063D01*
X64909963Y-45368113D01*
X65000745Y-45342281D01*
X65072827Y-45307182D01*
X65128353Y-45263431D01*
X65169461Y-45211642D01*
X65198294Y-45152432D01*
X65216993Y-45086414D01*
X65227698Y-45014203D01*
X65232551Y-44936414D01*
X65233693Y-44853663D01*
X65227297Y-44740912D01*
X65208537Y-44638230D01*
X65178057Y-44546041D01*
X65136499Y-44464769D01*
X65084507Y-44394838D01*
X65022723Y-44336671D01*
X64951790Y-44290692D01*
X64872353Y-44257326D01*
X64785052Y-44236995D01*
X64690533Y-44230124D01*
X64619897Y-44230124D01*
X64525378Y-44236995D01*
X64438077Y-44257326D01*
X64358639Y-44290692D01*
X64287707Y-44336671D01*
X64225923Y-44394838D01*
X64173931Y-44464769D01*
X64132373Y-44546041D01*
X64101892Y-44638230D01*
X64083133Y-44740912D01*
X64076737Y-44853663D01*
X64076737Y-44853663D01*
G37*
G36*
X65991195Y-45070440D02*
X65991195Y-45737821D01*
X66021033Y-45812719D01*
X66083753Y-45832813D01*
X66160477Y-45800845D01*
X66178744Y-45737821D01*
X66178744Y-45070440D01*
X66699984Y-44395751D01*
X66724341Y-44332423D01*
X66694504Y-44271835D01*
X66639092Y-44249609D01*
X66556278Y-44303194D01*
X66083753Y-44926733D01*
X65608791Y-44303194D01*
X65574996Y-44266355D01*
X65528413Y-44249609D01*
X65471174Y-44272748D01*
X65443163Y-44332423D01*
X65467520Y-44395751D01*
X65991195Y-45070440D01*
X65991195Y-45070440D01*
G37*
G36*
X67153024Y-45735385D02*
X67153024Y-44349473D01*
X67121969Y-44268486D01*
X67065339Y-44249609D01*
X67008709Y-44268486D01*
X66977654Y-44349473D01*
X66977654Y-45735385D01*
X67007491Y-45814241D01*
X67062903Y-45832813D01*
X67134452Y-45801453D01*
X67153024Y-45735385D01*
X67153024Y-45735385D01*
G37*
G36*
X70190340Y-45832813D02*
X70258539Y-45800845D01*
X70275589Y-45730514D01*
X70275589Y-44354344D01*
X70249710Y-44272748D01*
X70185468Y-44249609D01*
X70130056Y-44270008D01*
X70100219Y-44361651D01*
X70100219Y-45528351D01*
X69223367Y-44305631D01*
X69180743Y-44263005D01*
X69130811Y-44249609D01*
X69076617Y-44268181D01*
X69047997Y-44354344D01*
X69047997Y-45730514D01*
X69079965Y-45815459D01*
X69135682Y-45832813D01*
X69206013Y-45804498D01*
X69223367Y-45737821D01*
X69223367Y-44556507D01*
X70122140Y-45815763D01*
X70190340Y-45832813D01*
X70190340Y-45832813D01*
G37*
G36*
X71612788Y-45815763D02*
X71713824Y-45803912D01*
X71786173Y-45771289D01*
X71834436Y-45722293D01*
X71863213Y-45661322D01*
X71877106Y-45592773D01*
X71880714Y-45521044D01*
X71856966Y-45434881D01*
X71793029Y-45409002D01*
X71736399Y-45429401D01*
X71705344Y-45513737D01*
X71696413Y-45589875D01*
X71663125Y-45629207D01*
X71595738Y-45640393D01*
X71269354Y-45640393D01*
X71136797Y-45638305D01*
X71031764Y-45629656D01*
X70951655Y-45610866D01*
X70893873Y-45578357D01*
X70855818Y-45528550D01*
X70834891Y-45457865D01*
X70828492Y-45362724D01*
X70828492Y-44719699D01*
X70835018Y-44624558D01*
X70855647Y-44553873D01*
X70891956Y-44504065D01*
X70945520Y-44471556D01*
X71017916Y-44452766D01*
X71110722Y-44444117D01*
X71225512Y-44442029D01*
X71595738Y-44442029D01*
X71663125Y-44453215D01*
X71696413Y-44492547D01*
X71705344Y-44568686D01*
X71736399Y-44653022D01*
X71793029Y-44673421D01*
X71849659Y-44654240D01*
X71880714Y-44563815D01*
X71877106Y-44491059D01*
X71863213Y-44421822D01*
X71834436Y-44360434D01*
X71786173Y-44311223D01*
X71713824Y-44278522D01*
X71612788Y-44266659D01*
X71225512Y-44266659D01*
X71121888Y-44269080D01*
X71027558Y-44277259D01*
X70942902Y-44292570D01*
X70868302Y-44316386D01*
X70804136Y-44350082D01*
X70750784Y-44395030D01*
X70708627Y-44452605D01*
X70678044Y-44524181D01*
X70659416Y-44611130D01*
X70653122Y-44714828D01*
X70653122Y-45367595D01*
X70659394Y-45471292D01*
X70678161Y-45558242D01*
X70709350Y-45629817D01*
X70752889Y-45687392D01*
X70808703Y-45732341D01*
X70876720Y-45766036D01*
X70956866Y-45789852D01*
X71049070Y-45805163D01*
X71153257Y-45813342D01*
X71269354Y-45815763D01*
X71612788Y-45815763D01*
X71612788Y-45815763D01*
G37*
G36*
X72662601Y-44266615D02*
X72770885Y-44520038D01*
X73041247Y-45180002D01*
X72505338Y-45180002D01*
X72770885Y-44520038D01*
X72662601Y-44266615D01*
X72085339Y-45725709D01*
X72078035Y-45771877D01*
X72113658Y-45837973D01*
X72165721Y-45854746D01*
X72217202Y-45837059D01*
X72255896Y-45786491D01*
X72423960Y-45355372D01*
X73101029Y-45355372D01*
X73269092Y-45786491D01*
X73302306Y-45832492D01*
X73359268Y-45854746D01*
X73412245Y-45837973D01*
X73446954Y-45771877D01*
X73439650Y-45725709D01*
X72862389Y-44266615D01*
X72662601Y-44266615D01*
X72662601Y-44266615D01*
G37*
G36*
X74572162Y-44997368D02*
X74650679Y-44721063D01*
X74621417Y-44778517D01*
X74569422Y-44817432D01*
X74492054Y-44841123D01*
X74386676Y-44852907D01*
X74250649Y-44856099D01*
X73885295Y-44856099D01*
X73885295Y-44429851D01*
X74250649Y-44429851D01*
X74383294Y-44432692D01*
X74487724Y-44443653D01*
X74565768Y-44466386D01*
X74619252Y-44504546D01*
X74650003Y-44561784D01*
X74659847Y-44641757D01*
X74650679Y-44721063D01*
X74572162Y-44997368D01*
X74662185Y-44960326D01*
X74735256Y-44905046D01*
X74789621Y-44831994D01*
X74823526Y-44741640D01*
X74835217Y-44634449D01*
X74827279Y-44537606D01*
X74803824Y-44457262D01*
X74765394Y-44392053D01*
X74712530Y-44340616D01*
X74645774Y-44301588D01*
X74565666Y-44273606D01*
X74472749Y-44255306D01*
X74367563Y-44245326D01*
X74250649Y-44242302D01*
X73792738Y-44242302D01*
X73738544Y-44261179D01*
X73709924Y-44349473D01*
X73709924Y-45735385D01*
X73739762Y-45814241D01*
X73795174Y-45832813D01*
X73866723Y-45801453D01*
X73885295Y-45735385D01*
X73885295Y-45031469D01*
X74338335Y-45031469D01*
X74419321Y-45107570D01*
X74488891Y-45205507D01*
X74547272Y-45316060D01*
X74594692Y-45430010D01*
X74631380Y-45538136D01*
X74657563Y-45631221D01*
X74673472Y-45700044D01*
X74679333Y-45735385D01*
X74700035Y-45799627D01*
X74764582Y-45832813D01*
X74829737Y-45803280D01*
X74854703Y-45735385D01*
X74849556Y-45702375D01*
X74834532Y-45634799D01*
X74810261Y-45541476D01*
X74777369Y-45431227D01*
X74736486Y-45312872D01*
X74688238Y-45195231D01*
X74633254Y-45087123D01*
X74572162Y-44997368D01*
X74572162Y-44997368D01*
G37*
G36*
X75865519Y-45165432D02*
X75268773Y-45165432D01*
X75189612Y-45196487D01*
X75168909Y-45253117D01*
X75190526Y-45314618D01*
X75268773Y-45343238D01*
X75865519Y-45343238D01*
X75941938Y-45319794D01*
X75972689Y-45257989D01*
X75943765Y-45189789D01*
X75865519Y-45165432D01*
X75865519Y-45165432D01*
G37*
G36*
X77387830Y-45329350D02*
X77563200Y-44718654D01*
X77556909Y-44614957D01*
X77538298Y-44528007D01*
X77507761Y-44456432D01*
X77465695Y-44398856D01*
X77412492Y-44353908D01*
X77348547Y-44320212D01*
X77274256Y-44296396D01*
X77190013Y-44281085D01*
X77096211Y-44272906D01*
X76993247Y-44270485D01*
X76418422Y-44270485D01*
X76364228Y-44289362D01*
X76335608Y-44377656D01*
X76335608Y-45712419D01*
X76352354Y-45786099D01*
X76418422Y-45819589D01*
X76949404Y-45819589D01*
X77064842Y-45817168D01*
X77168500Y-45808989D01*
X77260292Y-45793679D01*
X77340129Y-45769862D01*
X77407924Y-45736167D01*
X77463590Y-45691219D01*
X77507038Y-45633644D01*
X77538181Y-45562068D01*
X77556931Y-45475119D01*
X77563200Y-45371421D01*
X77563200Y-44718654D01*
X77387830Y-45329350D01*
X77381439Y-45424492D01*
X77360562Y-45495176D01*
X77322641Y-45544984D01*
X77265122Y-45577493D01*
X77185447Y-45596282D01*
X77081060Y-45604932D01*
X76949404Y-45607019D01*
X76510978Y-45607019D01*
X76510978Y-44408656D01*
X76993247Y-44408656D01*
X77107902Y-44410743D01*
X77200359Y-44419393D01*
X77272280Y-44438182D01*
X77325326Y-44470691D01*
X77361158Y-44520499D01*
X77381439Y-44591184D01*
X77387830Y-44686326D01*
X77387830Y-45329350D01*
X77387830Y-45329350D01*
G37*
G36*
X78118540Y-45031469D02*
X78764000Y-45031469D01*
X78850467Y-45014723D01*
X78885785Y-44948655D01*
X78857774Y-44882282D01*
X78764000Y-44856099D01*
X78118540Y-44856099D01*
X78118540Y-44442029D01*
X79063591Y-44442029D01*
X79140011Y-44425284D01*
X79170761Y-44359216D01*
X79145491Y-44292843D01*
X79063591Y-44266659D01*
X78025983Y-44266659D01*
X77971789Y-44285536D01*
X77943169Y-44373830D01*
X77943169Y-45708593D01*
X77966309Y-45791406D01*
X78025983Y-45815763D01*
X79063591Y-45815763D01*
X79140011Y-45799018D01*
X79170761Y-45732950D01*
X79145491Y-45666577D01*
X79063591Y-45640393D01*
X78118540Y-45640393D01*
X78118540Y-45031469D01*
X78118540Y-45031469D01*
G37*
G36*
X79611623Y-44658806D02*
X79617878Y-44602435D01*
X79640618Y-44539866D01*
X79685805Y-44481858D01*
X79759402Y-44439165D01*
X79867371Y-44422544D01*
X80125556Y-44422544D01*
X80258745Y-44424518D01*
X80363729Y-44432969D01*
X80443318Y-44451687D01*
X80500327Y-44484466D01*
X80537565Y-44535097D01*
X80557846Y-44607373D01*
X80563981Y-44705085D01*
X80587729Y-44780287D01*
X80651666Y-44809819D01*
X80710428Y-44788507D01*
X80741788Y-44705085D01*
X80735318Y-44596971D01*
X80716047Y-44506877D01*
X80684178Y-44433239D01*
X80639917Y-44374492D01*
X80583467Y-44329074D01*
X80515034Y-44295420D01*
X80434821Y-44271967D01*
X80343034Y-44257150D01*
X80239878Y-44249407D01*
X80125556Y-44247174D01*
X79940443Y-44247174D01*
X79803392Y-44256855D01*
X79692115Y-44283976D01*
X79604302Y-44325654D01*
X79537639Y-44379006D01*
X79489814Y-44441150D01*
X79458517Y-44509202D01*
X79441433Y-44580279D01*
X79436253Y-44651500D01*
X79444079Y-44754307D01*
X79468819Y-44841484D01*
X79512369Y-44913642D01*
X79576621Y-44971388D01*
X79663472Y-45015332D01*
X79774815Y-45046083D01*
X80439760Y-45170303D01*
X80474964Y-45189941D01*
X80516790Y-45236067D01*
X80551765Y-45311422D01*
X80566417Y-45418744D01*
X80560591Y-45476558D01*
X80539683Y-45540452D01*
X80498549Y-45599551D01*
X80432044Y-45642985D01*
X80335025Y-45659879D01*
X80047613Y-45659879D01*
X79916994Y-45657635D01*
X79813601Y-45648488D01*
X79734835Y-45628818D01*
X79678097Y-45595003D01*
X79640788Y-45543420D01*
X79620308Y-45470448D01*
X79614059Y-45372466D01*
X79590615Y-45297264D01*
X79528809Y-45267731D01*
X79460610Y-45295437D01*
X79436253Y-45372466D01*
X79442849Y-45481308D01*
X79462422Y-45572116D01*
X79494651Y-45646439D01*
X79539215Y-45705826D01*
X79595791Y-45751826D01*
X79664059Y-45785990D01*
X79743696Y-45809864D01*
X79834382Y-45825000D01*
X79935795Y-45832945D01*
X80047613Y-45835249D01*
X80281440Y-45835249D01*
X80404719Y-45825559D01*
X80505448Y-45798371D01*
X80585513Y-45756512D01*
X80646795Y-45702808D01*
X80691180Y-45640084D01*
X80720551Y-45571166D01*
X80736793Y-45498880D01*
X80741788Y-45426052D01*
X80736852Y-45346575D01*
X80720797Y-45268633D01*
X80691746Y-45194951D01*
X80647825Y-45128257D01*
X80587160Y-45071277D01*
X80507875Y-45026739D01*
X80408097Y-44997368D01*
X79738279Y-44878020D01*
X79675132Y-44839048D01*
X79629305Y-44762730D01*
X79611623Y-44658806D01*
X79611623Y-44658806D01*
G37*
G36*
X81270335Y-45735385D02*
X81270335Y-44349473D01*
X81239279Y-44268486D01*
X81182649Y-44249609D01*
X81126020Y-44268486D01*
X81094964Y-44349473D01*
X81094964Y-45735385D01*
X81124802Y-45814241D01*
X81180214Y-45832813D01*
X81251763Y-45801453D01*
X81270335Y-45735385D01*
X81270335Y-45735385D01*
G37*
G36*
X82700090Y-45240939D02*
X82700090Y-45523479D01*
X82691159Y-45594927D01*
X82657871Y-45630650D01*
X82590483Y-45640393D01*
X82220258Y-45640393D01*
X82104700Y-45638319D01*
X82011597Y-45629770D01*
X81939243Y-45611250D01*
X81885935Y-45579266D01*
X81849967Y-45530325D01*
X81829637Y-45460933D01*
X81823239Y-45367595D01*
X81823239Y-44714828D01*
X81829765Y-44622257D01*
X81850990Y-44553163D01*
X81889386Y-44504179D01*
X81947424Y-44471939D01*
X82027575Y-44453079D01*
X82132309Y-44444230D01*
X82264100Y-44442029D01*
X82590483Y-44442029D01*
X82657871Y-44452584D01*
X82691159Y-44490743D01*
X82700090Y-44566250D01*
X82724751Y-44648150D01*
X82787775Y-44673421D01*
X82851712Y-44647541D01*
X82875461Y-44561379D01*
X82871852Y-44489650D01*
X82857959Y-44421101D01*
X82829182Y-44360129D01*
X82780919Y-44311133D01*
X82708569Y-44278510D01*
X82607533Y-44266659D01*
X82264100Y-44266659D01*
X82149186Y-44268875D01*
X82045686Y-44276499D01*
X81953760Y-44290991D01*
X81873570Y-44313814D01*
X81805275Y-44346428D01*
X81749037Y-44390295D01*
X81705017Y-44446876D01*
X81673375Y-44517633D01*
X81654272Y-44604028D01*
X81647868Y-44707521D01*
X81647868Y-45374902D01*
X81654096Y-45477211D01*
X81672557Y-45562918D01*
X81702913Y-45633398D01*
X81744829Y-45690023D01*
X81797968Y-45734167D01*
X81861995Y-45767205D01*
X81936574Y-45790510D01*
X82021368Y-45805455D01*
X82116041Y-45813415D01*
X82220258Y-45815763D01*
X82607533Y-45815763D01*
X82725187Y-45799727D01*
X82802857Y-45756449D01*
X82848492Y-45693179D01*
X82870043Y-45617166D01*
X82875461Y-45535658D01*
X82875461Y-45065568D01*
X82390757Y-45065568D01*
X82302462Y-45084140D01*
X82268971Y-45155689D01*
X82298809Y-45217495D01*
X82390757Y-45240939D01*
X82700090Y-45240939D01*
X82700090Y-45240939D01*
G37*
G36*
X84395335Y-45832813D02*
X84463534Y-45800845D01*
X84480584Y-45730514D01*
X84480584Y-44354344D01*
X84454705Y-44272748D01*
X84390463Y-44249609D01*
X84335051Y-44270008D01*
X84305214Y-44361651D01*
X84305214Y-45528351D01*
X83428362Y-44305631D01*
X83385738Y-44263005D01*
X83335806Y-44249609D01*
X83281611Y-44268181D01*
X83252992Y-44354344D01*
X83252992Y-45730514D01*
X83284960Y-45815459D01*
X83340677Y-45832813D01*
X83411008Y-45804498D01*
X83428362Y-45737821D01*
X83428362Y-44556507D01*
X84327135Y-45815763D01*
X84395335Y-45832813D01*
X84395335Y-45832813D01*
G37*
G36*
X85009131Y-44658806D02*
X85015386Y-44602435D01*
X85038125Y-44539866D01*
X85083312Y-44481858D01*
X85156909Y-44439165D01*
X85264879Y-44422544D01*
X85523063Y-44422544D01*
X85656253Y-44424518D01*
X85761236Y-44432969D01*
X85840826Y-44451687D01*
X85897834Y-44484466D01*
X85935073Y-44535097D01*
X85955354Y-44607373D01*
X85961489Y-44705085D01*
X85985237Y-44780287D01*
X86049174Y-44809819D01*
X86107935Y-44788507D01*
X86139295Y-44705085D01*
X86132825Y-44596971D01*
X86113554Y-44506877D01*
X86081685Y-44433239D01*
X86037424Y-44374492D01*
X85980974Y-44329074D01*
X85912541Y-44295420D01*
X85832328Y-44271967D01*
X85740542Y-44257150D01*
X85637385Y-44249407D01*
X85523063Y-44247174D01*
X85337950Y-44247174D01*
X85200899Y-44256855D01*
X85089623Y-44283976D01*
X85001809Y-44325654D01*
X84935146Y-44379006D01*
X84887322Y-44441150D01*
X84856024Y-44509202D01*
X84838941Y-44580279D01*
X84833761Y-44651500D01*
X84841586Y-44754307D01*
X84866327Y-44841484D01*
X84909876Y-44913642D01*
X84974129Y-44971388D01*
X85060979Y-45015332D01*
X85172323Y-45046083D01*
X85837268Y-45170303D01*
X85872472Y-45189941D01*
X85914297Y-45236067D01*
X85949272Y-45311422D01*
X85963924Y-45418744D01*
X85958098Y-45476558D01*
X85937190Y-45540452D01*
X85896056Y-45599551D01*
X85829552Y-45642985D01*
X85732533Y-45659879D01*
X85445121Y-45659879D01*
X85314502Y-45657635D01*
X85211109Y-45648488D01*
X85132343Y-45628818D01*
X85075604Y-45595003D01*
X85038295Y-45543420D01*
X85017815Y-45470448D01*
X85011566Y-45372466D01*
X84988123Y-45297264D01*
X84926317Y-45267731D01*
X84858117Y-45295437D01*
X84833761Y-45372466D01*
X84840356Y-45481308D01*
X84859930Y-45572116D01*
X84892159Y-45646439D01*
X84936722Y-45705826D01*
X84993299Y-45751826D01*
X85061567Y-45785990D01*
X85141204Y-45809864D01*
X85231890Y-45825000D01*
X85333303Y-45832945D01*
X85445121Y-45835249D01*
X85678948Y-45835249D01*
X85802226Y-45825559D01*
X85902956Y-45798371D01*
X85983020Y-45756512D01*
X86044302Y-45702808D01*
X86088687Y-45640084D01*
X86118058Y-45571166D01*
X86134299Y-45498880D01*
X86139295Y-45426052D01*
X86134359Y-45346575D01*
X86118303Y-45268633D01*
X86089253Y-45194951D01*
X86045332Y-45128257D01*
X85984667Y-45071277D01*
X85905382Y-45026739D01*
X85805604Y-44997368D01*
X85135787Y-44878020D01*
X85072639Y-44839048D01*
X85026812Y-44762730D01*
X85009131Y-44658806D01*
X85009131Y-44658806D01*
G37*
G36*
X86572851Y-45869349D02*
X86636269Y-45854464D01*
X86695358Y-45811974D01*
X86721429Y-45745128D01*
X86695899Y-45679364D01*
X86637352Y-45636334D01*
X86572851Y-45620908D01*
X86509433Y-45635793D01*
X86450345Y-45678282D01*
X86424274Y-45745128D01*
X86448179Y-45810892D01*
X86505102Y-45853923D01*
X86572851Y-45869349D01*
X86572851Y-45869349D01*
G37*
G36*
X87980683Y-45815763D02*
X88081719Y-45803912D01*
X88154068Y-45771289D01*
X88202331Y-45722293D01*
X88231109Y-45661322D01*
X88245001Y-45592773D01*
X88248609Y-45521044D01*
X88224861Y-45434881D01*
X88160924Y-45409002D01*
X88104294Y-45429401D01*
X88073239Y-45513737D01*
X88064308Y-45589875D01*
X88031020Y-45629207D01*
X87963633Y-45640393D01*
X87637249Y-45640393D01*
X87504692Y-45638305D01*
X87399659Y-45629656D01*
X87319550Y-45610866D01*
X87261768Y-45578357D01*
X87223713Y-45528550D01*
X87202786Y-45457865D01*
X87196388Y-45362724D01*
X87196388Y-44719699D01*
X87202914Y-44624558D01*
X87223543Y-44553873D01*
X87259851Y-44504065D01*
X87313415Y-44471556D01*
X87385812Y-44452766D01*
X87478617Y-44444117D01*
X87593407Y-44442029D01*
X87963633Y-44442029D01*
X88031020Y-44453215D01*
X88064308Y-44492547D01*
X88073239Y-44568686D01*
X88104294Y-44653022D01*
X88160924Y-44673421D01*
X88217555Y-44654240D01*
X88248609Y-44563815D01*
X88245001Y-44491059D01*
X88231109Y-44421822D01*
X88202331Y-44360434D01*
X88154068Y-44311223D01*
X88081719Y-44278522D01*
X87980683Y-44266659D01*
X87593407Y-44266659D01*
X87489783Y-44269080D01*
X87395453Y-44277259D01*
X87310798Y-44292570D01*
X87236197Y-44316386D01*
X87172031Y-44350082D01*
X87118679Y-44395030D01*
X87076522Y-44452605D01*
X87045939Y-44524181D01*
X87027311Y-44611130D01*
X87021017Y-44714828D01*
X87021017Y-45367595D01*
X87027289Y-45471292D01*
X87046056Y-45558242D01*
X87077246Y-45629817D01*
X87120784Y-45687392D01*
X87176598Y-45732341D01*
X87244615Y-45766036D01*
X87324762Y-45789852D01*
X87416965Y-45805163D01*
X87521152Y-45813342D01*
X87637249Y-45815763D01*
X87980683Y-45815763D01*
X87980683Y-45815763D01*
G37*
G36*
X89157127Y-45837685D02*
X89485033Y-45553926D01*
X89423222Y-45600661D01*
X89347911Y-45634609D01*
X89259184Y-45655312D01*
X89157127Y-45662315D01*
X89055070Y-45655312D01*
X88966344Y-45634609D01*
X88891032Y-45600661D01*
X88829221Y-45553926D01*
X88780997Y-45494860D01*
X88746446Y-45423920D01*
X88725652Y-45341563D01*
X88718701Y-45248245D01*
X88718701Y-44834177D01*
X88725452Y-44742258D01*
X88745760Y-44660557D01*
X88779713Y-44589703D01*
X88827394Y-44530323D01*
X88888891Y-44483046D01*
X88964288Y-44448499D01*
X89053672Y-44427310D01*
X89157127Y-44420108D01*
X89260583Y-44427310D01*
X89349966Y-44448499D01*
X89425363Y-44483046D01*
X89486860Y-44530323D01*
X89534542Y-44589703D01*
X89568494Y-44660557D01*
X89588802Y-44742258D01*
X89595553Y-44834177D01*
X89595553Y-45248245D01*
X89588603Y-45341563D01*
X89567809Y-45423920D01*
X89533257Y-45494860D01*
X89485033Y-45553926D01*
X89157127Y-45837685D01*
X89252674Y-45832417D01*
X89342247Y-45816794D01*
X89425189Y-45791092D01*
X89500840Y-45755585D01*
X89568542Y-45710547D01*
X89627636Y-45656254D01*
X89677463Y-45592978D01*
X89717363Y-45520996D01*
X89746680Y-45440582D01*
X89764752Y-45352009D01*
X89770923Y-45255553D01*
X89770923Y-44826870D01*
X89764752Y-44730414D01*
X89746680Y-44641841D01*
X89717363Y-44561426D01*
X89677463Y-44489444D01*
X89627636Y-44426169D01*
X89568542Y-44371875D01*
X89500840Y-44326838D01*
X89425189Y-44291331D01*
X89342247Y-44265629D01*
X89252674Y-44250006D01*
X89157127Y-44244738D01*
X89061031Y-44250006D01*
X88971117Y-44265629D01*
X88888011Y-44291331D01*
X88812338Y-44326838D01*
X88744724Y-44371875D01*
X88685795Y-44426169D01*
X88636177Y-44489444D01*
X88596495Y-44561426D01*
X88567377Y-44641841D01*
X88549447Y-44730414D01*
X88543331Y-44826870D01*
X88543331Y-45255553D01*
X88549447Y-45352009D01*
X88567377Y-45440582D01*
X88596495Y-45520996D01*
X88636177Y-45592978D01*
X88685795Y-45656254D01*
X88744724Y-45710547D01*
X88812338Y-45755585D01*
X88888011Y-45791092D01*
X88971117Y-45816794D01*
X89061031Y-45832417D01*
X89157127Y-45837685D01*
X89157127Y-45837685D01*
G37*
G36*
X90769559Y-45136204D02*
X90837759Y-45106975D01*
X91234778Y-44541893D01*
X91234778Y-45723207D01*
X91258221Y-45807238D01*
X91320027Y-45832813D01*
X91384268Y-45809065D01*
X91410148Y-45730514D01*
X91410148Y-44354344D01*
X91386704Y-44273661D01*
X91324898Y-44249609D01*
X91275270Y-44264832D01*
X91234778Y-44305631D01*
X90769559Y-44953526D01*
X90306776Y-44305631D01*
X90264151Y-44263005D01*
X90214219Y-44249609D01*
X90160025Y-44268181D01*
X90131405Y-44354344D01*
X90131405Y-45730514D01*
X90163374Y-45815459D01*
X90219091Y-45832813D01*
X90289421Y-45799018D01*
X90306776Y-45723207D01*
X90306776Y-44541893D01*
X90703795Y-45106975D01*
X90769559Y-45136204D01*
X90769559Y-45136204D01*
G37*
G36*
X68000647Y-44266659D02*
X68108931Y-44520082D01*
X68379293Y-45180046D01*
X67843385Y-45180046D01*
X68108931Y-44520082D01*
X68000647Y-44266659D01*
X67423386Y-45725753D01*
X67416082Y-45771921D01*
X67451704Y-45838017D01*
X67503767Y-45854790D01*
X67555249Y-45837104D01*
X67593943Y-45786535D01*
X67762007Y-45355416D01*
X68439076Y-45355416D01*
X68607139Y-45786535D01*
X68640353Y-45832537D01*
X68697315Y-45854790D01*
X68750292Y-45838017D01*
X68785000Y-45771921D01*
X68777696Y-45725753D01*
X68200436Y-44266659D01*
X68000647Y-44266659D01*
X68000647Y-44266659D01*
G37*
G36*
X55465851Y-42954748D02*
X55022775Y-41622974D01*
X54976621Y-41557085D01*
X54913279Y-41538942D01*
X54859167Y-41555812D01*
X54808876Y-41620428D01*
X54368346Y-42954748D01*
X53950734Y-41607695D01*
X53909992Y-41550083D01*
X53853971Y-41536396D01*
X53786809Y-41557722D01*
X53767393Y-41615334D01*
X53777579Y-41661170D01*
X54274129Y-43199203D01*
X54460017Y-43199203D01*
X54913279Y-41847058D01*
X55369086Y-43199203D01*
X55557521Y-43199203D01*
X56051525Y-41671356D01*
X56061711Y-41625520D01*
X56048025Y-41574592D01*
X55975133Y-41546582D01*
X55919111Y-41561224D01*
X55878369Y-41617881D01*
X55465851Y-42954748D01*
X55465851Y-42954748D01*
G37*
G36*
X56267864Y-43255224D02*
X56334165Y-43239663D01*
X56395939Y-43195242D01*
X56423195Y-43125357D01*
X56396505Y-43056604D01*
X56335296Y-43011617D01*
X56267864Y-42995490D01*
X56201563Y-43011051D01*
X56139789Y-43055472D01*
X56112533Y-43125357D01*
X56137525Y-43194110D01*
X56197036Y-43239097D01*
X56267864Y-43255224D01*
X56267864Y-43255224D01*
G37*
G36*
X57744570Y-42420001D02*
X57744570Y-43117718D01*
X57775764Y-43196020D01*
X57841334Y-43217028D01*
X57921546Y-43183606D01*
X57940644Y-43117718D01*
X57940644Y-42420001D01*
X58485576Y-41714645D01*
X58511040Y-41648438D01*
X58479847Y-41585096D01*
X58421916Y-41561860D01*
X58383401Y-41573637D01*
X58335338Y-41617881D01*
X57841334Y-42269763D01*
X57344784Y-41617881D01*
X57309452Y-41579367D01*
X57260752Y-41561860D01*
X57200911Y-41586051D01*
X57171628Y-41648438D01*
X57197092Y-41714645D01*
X57744570Y-42420001D01*
X57744570Y-42420001D01*
G37*
G36*
X58897988Y-43115171D02*
X58897988Y-41666263D01*
X58865522Y-41581595D01*
X58806318Y-41561860D01*
X58747113Y-41581595D01*
X58714646Y-41666263D01*
X58714646Y-43115171D01*
X58745840Y-43197611D01*
X58803771Y-43217028D01*
X58878572Y-43184243D01*
X58897988Y-43115171D01*
X58897988Y-43115171D01*
G37*
G36*
X59722896Y-41579763D02*
X59836826Y-41844479D01*
X60119478Y-42534667D01*
X59559157Y-42534667D01*
X59836826Y-41844479D01*
X59722896Y-41579763D01*
X59119396Y-43104953D01*
X59111760Y-43153445D01*
X59149002Y-43222490D01*
X59203431Y-43239968D01*
X59257279Y-43221534D01*
X59297759Y-43168724D01*
X59473295Y-42718008D01*
X60181253Y-42718008D01*
X60356956Y-43168724D01*
X60391623Y-43216760D01*
X60451118Y-43239968D01*
X60506502Y-43222490D01*
X60542788Y-43153445D01*
X60535153Y-43104953D01*
X59931653Y-41579763D01*
X59722896Y-41579763D01*
X59722896Y-41579763D01*
G37*
G36*
X61950925Y-43217028D02*
X62022224Y-43183606D01*
X62040049Y-43110079D01*
X62040049Y-41671356D01*
X62012993Y-41586051D01*
X61945831Y-41561860D01*
X61887901Y-41583186D01*
X61856708Y-41678995D01*
X61856708Y-42898726D01*
X60939999Y-41620428D01*
X60895437Y-41575865D01*
X60843236Y-41561860D01*
X60786578Y-41581276D01*
X60756657Y-41671356D01*
X60756657Y-43110079D01*
X60790079Y-43198885D01*
X60848328Y-43217028D01*
X60921856Y-43187426D01*
X60939999Y-43117718D01*
X60939999Y-41882708D01*
X61879625Y-43199203D01*
X61950925Y-43217028D01*
X61950925Y-43217028D01*
G37*
G36*
X63376809Y-43199203D02*
X63482438Y-43186813D01*
X63558076Y-43152708D01*
X63608532Y-43101484D01*
X63638618Y-43037742D01*
X63653142Y-42966077D01*
X63656914Y-42891087D01*
X63632087Y-42801008D01*
X63565244Y-42773952D01*
X63506039Y-42795278D01*
X63473572Y-42883447D01*
X63464236Y-42963047D01*
X63429435Y-43004167D01*
X63358984Y-43015862D01*
X63017765Y-43015862D01*
X62879182Y-43013679D01*
X62769375Y-43004637D01*
X62685625Y-42984993D01*
X62625216Y-42951006D01*
X62585431Y-42898934D01*
X62563553Y-42825036D01*
X62556864Y-42725570D01*
X62556864Y-42053317D01*
X62563687Y-41953851D01*
X62585253Y-41879953D01*
X62623212Y-41827882D01*
X62679210Y-41793895D01*
X62754898Y-41774251D01*
X62851921Y-41765209D01*
X62971929Y-41763026D01*
X63358984Y-41763026D01*
X63429435Y-41774721D01*
X63464236Y-41815841D01*
X63473572Y-41895440D01*
X63506039Y-41983609D01*
X63565244Y-42004935D01*
X63624448Y-41984882D01*
X63656914Y-41890347D01*
X63653142Y-41814285D01*
X63638618Y-41741901D01*
X63608532Y-41677722D01*
X63558076Y-41626275D01*
X63482438Y-41592087D01*
X63376809Y-41579685D01*
X62971929Y-41579685D01*
X62863595Y-41582216D01*
X62764977Y-41590767D01*
X62676474Y-41606773D01*
X62598483Y-41631672D01*
X62531400Y-41666899D01*
X62475623Y-41713891D01*
X62431550Y-41774083D01*
X62399577Y-41848912D01*
X62380102Y-41939814D01*
X62373522Y-42048225D01*
X62373522Y-42730663D01*
X62380079Y-42839074D01*
X62399699Y-42929976D01*
X62432306Y-43004805D01*
X62477823Y-43064997D01*
X62536174Y-43111989D01*
X62607283Y-43147216D01*
X62691073Y-43172115D01*
X62787467Y-43188121D01*
X62896390Y-43196672D01*
X63017765Y-43199203D01*
X63376809Y-43199203D01*
X63376809Y-43199203D01*
G37*
G36*
X66348259Y-42343609D02*
X66430345Y-42054744D01*
X66399752Y-42114809D01*
X66345394Y-42155492D01*
X66264510Y-42180261D01*
X66154342Y-42192580D01*
X66012133Y-42195917D01*
X65630171Y-42195917D01*
X65630171Y-41750294D01*
X66012133Y-41750294D01*
X66150806Y-41753265D01*
X66259983Y-41764724D01*
X66341574Y-41788491D01*
X66397489Y-41828384D01*
X66429637Y-41888225D01*
X66439929Y-41971832D01*
X66430345Y-42054744D01*
X66348259Y-42343609D01*
X66427869Y-42312674D01*
X66495385Y-42268442D01*
X66549743Y-42211195D01*
X66589885Y-42141216D01*
X66614747Y-42058788D01*
X66623271Y-41964193D01*
X66616541Y-41872273D01*
X66596625Y-41794439D01*
X66563937Y-41729653D01*
X66518888Y-41676876D01*
X66461892Y-41635069D01*
X66393361Y-41603193D01*
X66313706Y-41580209D01*
X66223342Y-41565078D01*
X66122680Y-41556762D01*
X66012133Y-41554220D01*
X65533407Y-41554220D01*
X65476749Y-41573955D01*
X65446829Y-41666263D01*
X65446829Y-43115171D01*
X65478022Y-43197611D01*
X65535953Y-43217028D01*
X65610754Y-43184243D01*
X65630171Y-43115171D01*
X65630171Y-42379258D01*
X66103803Y-42379258D01*
X66179657Y-42448675D01*
X66246060Y-42536975D01*
X66303178Y-42637389D01*
X66351179Y-42743147D01*
X66390231Y-42847480D01*
X66420501Y-42943618D01*
X66442158Y-43024793D01*
X66455369Y-43084233D01*
X66460301Y-43115171D01*
X66481944Y-43182333D01*
X66549426Y-43217028D01*
X66617542Y-43186152D01*
X66643643Y-43115171D01*
X66639381Y-43086448D01*
X66626904Y-43028363D01*
X66606672Y-42947391D01*
X66579147Y-42850009D01*
X66544790Y-42742693D01*
X66504061Y-42631919D01*
X66457422Y-42524163D01*
X66405334Y-42425901D01*
X66348259Y-42343609D01*
X66348259Y-42343609D01*
G37*
G36*
X67639184Y-42519311D02*
X67015313Y-42519311D01*
X66932554Y-42551778D01*
X66910909Y-42610982D01*
X66933509Y-42675279D01*
X67015313Y-42705199D01*
X67639184Y-42705199D01*
X67719078Y-42680690D01*
X67751226Y-42616074D01*
X67720987Y-42544775D01*
X67639184Y-42519311D01*
X67639184Y-42519311D01*
G37*
G36*
X69169471Y-42716130D02*
X69352812Y-42046760D01*
X69346235Y-41938349D01*
X69326778Y-41847447D01*
X69294854Y-41772618D01*
X69250875Y-41712426D01*
X69195253Y-41665434D01*
X69128403Y-41630207D01*
X69050734Y-41605308D01*
X68962662Y-41589302D01*
X68864597Y-41580751D01*
X68756952Y-41578220D01*
X68155999Y-41578220D01*
X68099341Y-41597954D01*
X68069421Y-41690262D01*
X68069421Y-43085696D01*
X68086927Y-43162725D01*
X68155999Y-43197738D01*
X68711117Y-43197738D01*
X68831801Y-43195207D01*
X68940172Y-43186656D01*
X69036136Y-43170649D01*
X69119602Y-43145751D01*
X69190479Y-43110524D01*
X69248674Y-43063532D01*
X69294097Y-43003340D01*
X69326656Y-42928511D01*
X69346258Y-42837609D01*
X69352812Y-42729198D01*
X69352812Y-42046760D01*
X69169471Y-42716130D01*
X69162789Y-42815596D01*
X69140963Y-42889494D01*
X69101319Y-42941566D01*
X69041185Y-42975553D01*
X68957889Y-42995197D01*
X68848757Y-43004239D01*
X68711117Y-43006422D01*
X68252762Y-43006422D01*
X68252762Y-41753587D01*
X68756952Y-41753587D01*
X68876819Y-41755769D01*
X68973479Y-41764812D01*
X69048668Y-41784455D01*
X69104125Y-41818442D01*
X69141586Y-41870514D01*
X69162789Y-41944411D01*
X69169471Y-42043877D01*
X69169471Y-42716130D01*
X69169471Y-42716130D01*
G37*
G36*
X69872175Y-42379258D02*
X70546974Y-42379258D01*
X70637371Y-42361752D01*
X70674294Y-42292680D01*
X70645010Y-42223291D01*
X70546974Y-42195917D01*
X69872175Y-42195917D01*
X69872175Y-41763026D01*
X70860182Y-41763026D01*
X70940076Y-41745520D01*
X70972225Y-41676448D01*
X70945806Y-41607059D01*
X70860182Y-41579685D01*
X69775411Y-41579685D01*
X69718753Y-41599419D01*
X69688833Y-41691727D01*
X69688833Y-43087161D01*
X69713024Y-43173739D01*
X69775411Y-43199203D01*
X70860182Y-43199203D01*
X70940076Y-43181697D01*
X70972225Y-43112625D01*
X70945806Y-43043235D01*
X70860182Y-43015862D01*
X69872175Y-43015862D01*
X69872175Y-42379258D01*
X69872175Y-42379258D01*
G37*
G36*
X71371905Y-41989657D02*
X71378444Y-41930723D01*
X71402217Y-41865311D01*
X71449458Y-41804666D01*
X71526401Y-41760032D01*
X71639278Y-41742655D01*
X71909198Y-41742655D01*
X72048441Y-41744719D01*
X72158197Y-41753554D01*
X72241404Y-41773123D01*
X72301004Y-41807392D01*
X72339935Y-41860325D01*
X72361138Y-41935886D01*
X72367552Y-42038039D01*
X72392380Y-42116660D01*
X72459223Y-42147535D01*
X72520655Y-42125254D01*
X72553440Y-42038039D01*
X72547848Y-41934484D01*
X72531178Y-41846620D01*
X72503593Y-41773220D01*
X72465251Y-41713055D01*
X72416314Y-41664897D01*
X72356944Y-41627518D01*
X72287299Y-41599689D01*
X72207541Y-41580182D01*
X72117831Y-41567770D01*
X72018330Y-41561223D01*
X71909198Y-41559314D01*
X71715671Y-41559314D01*
X71586935Y-41567355D01*
X71479703Y-41590066D01*
X71392276Y-41625332D01*
X71322957Y-41671034D01*
X71270048Y-41725057D01*
X71231852Y-41785284D01*
X71206671Y-41849597D01*
X71192807Y-41915881D01*
X71188563Y-41982018D01*
X71194539Y-42075159D01*
X71213300Y-42156228D01*
X71246091Y-42225627D01*
X71294161Y-42283757D01*
X71358757Y-42331017D01*
X71441126Y-42367810D01*
X71542514Y-42394536D01*
X72237685Y-42524404D01*
X72274489Y-42544934D01*
X72318215Y-42593157D01*
X72354780Y-42671936D01*
X72370098Y-42784137D01*
X72364007Y-42844579D01*
X72342149Y-42911377D01*
X72299145Y-42973163D01*
X72229618Y-43018571D01*
X72128189Y-43036233D01*
X71827713Y-43036233D01*
X71691157Y-43033887D01*
X71583064Y-43024325D01*
X71500718Y-43003760D01*
X71441401Y-42968407D01*
X71402395Y-42914480D01*
X71380985Y-42838191D01*
X71374451Y-42735756D01*
X71349942Y-42657135D01*
X71285327Y-42626260D01*
X71214027Y-42655225D01*
X71188563Y-42735756D01*
X71194266Y-42840004D01*
X71211207Y-42928548D01*
X71239134Y-43002607D01*
X71277793Y-43063396D01*
X71326932Y-43112131D01*
X71386300Y-43150031D01*
X71455642Y-43178311D01*
X71534707Y-43198189D01*
X71623242Y-43210881D01*
X71720995Y-43217604D01*
X71827713Y-43219574D01*
X72072168Y-43219574D01*
X72201051Y-43209443D01*
X72306359Y-43181020D01*
X72390062Y-43137258D01*
X72454130Y-43081113D01*
X72500532Y-43015538D01*
X72531238Y-42943487D01*
X72548218Y-42867916D01*
X72553440Y-42791777D01*
X72548280Y-42708688D01*
X72531495Y-42627203D01*
X72501124Y-42550172D01*
X72455207Y-42480447D01*
X72391784Y-42420877D01*
X72308896Y-42374314D01*
X72204582Y-42343609D01*
X71504318Y-42218834D01*
X71438300Y-42178092D01*
X71390390Y-42098304D01*
X71371905Y-41989657D01*
X71371905Y-41989657D01*
G37*
G36*
X73044792Y-43115171D02*
X73044792Y-41666263D01*
X73012325Y-41581595D01*
X72953121Y-41561860D01*
X72893917Y-41581595D01*
X72861451Y-41666263D01*
X72861451Y-43115171D01*
X72892644Y-43197611D01*
X72950574Y-43217028D01*
X73025376Y-43184243D01*
X73044792Y-43115171D01*
X73044792Y-43115171D01*
G37*
G36*
X74478315Y-42598250D02*
X74478315Y-42893634D01*
X74468979Y-42968329D01*
X74434178Y-43005676D01*
X74363727Y-43015862D01*
X73976672Y-43015862D01*
X73855862Y-43013694D01*
X73758527Y-43004755D01*
X73682885Y-42985394D01*
X73627153Y-42951956D01*
X73589551Y-42900790D01*
X73568296Y-42828244D01*
X73561607Y-42730663D01*
X73561607Y-42048225D01*
X73568430Y-41951446D01*
X73590620Y-41879211D01*
X73630761Y-41828001D01*
X73691437Y-41794296D01*
X73775231Y-41774578D01*
X73884727Y-41765328D01*
X74022507Y-41763026D01*
X74363727Y-41763026D01*
X74434178Y-41774061D01*
X74468979Y-41813955D01*
X74478315Y-41892893D01*
X74504098Y-41978516D01*
X74569987Y-42004935D01*
X74636830Y-41977880D01*
X74661657Y-41887801D01*
X74657885Y-41812811D01*
X74643361Y-41741146D01*
X74613275Y-41677403D01*
X74562819Y-41626180D01*
X74487181Y-41592075D01*
X74381552Y-41579685D01*
X74022507Y-41579685D01*
X73902370Y-41582002D01*
X73794166Y-41589972D01*
X73698062Y-41605123D01*
X73614226Y-41628983D01*
X73542827Y-41663080D01*
X73484033Y-41708940D01*
X73438012Y-41768094D01*
X73404931Y-41842067D01*
X73384960Y-41932388D01*
X73378265Y-42040585D01*
X73378265Y-42738302D01*
X73384776Y-42845262D01*
X73404076Y-42934865D01*
X73435812Y-43008548D01*
X73479633Y-43067747D01*
X73535188Y-43113898D01*
X73602125Y-43148438D01*
X73680094Y-43172802D01*
X73768742Y-43188427D01*
X73867719Y-43196749D01*
X73976672Y-43199203D01*
X74381552Y-43199203D01*
X74487181Y-43187414D01*
X74562819Y-43154971D01*
X74613275Y-43106259D01*
X74643361Y-43045664D01*
X74657885Y-42977571D01*
X74661657Y-42906365D01*
X74661657Y-42414908D01*
X74154922Y-42414908D01*
X74062614Y-42434324D01*
X74027601Y-42509125D01*
X74058794Y-42573741D01*
X74154922Y-42598250D01*
X74478315Y-42598250D01*
X74478315Y-42598250D01*
G37*
G36*
X76189398Y-43217028D02*
X76260698Y-43183606D01*
X76278523Y-43110079D01*
X76278523Y-41671356D01*
X76251467Y-41586051D01*
X76184306Y-41561860D01*
X76126375Y-41583186D01*
X76095181Y-41678995D01*
X76095181Y-42898726D01*
X75178473Y-41620428D01*
X75133911Y-41575865D01*
X75081709Y-41561860D01*
X75025051Y-41581276D01*
X74995131Y-41671356D01*
X74995131Y-43110079D01*
X75028553Y-43198885D01*
X75086802Y-43217028D01*
X75160330Y-43187426D01*
X75178473Y-43117718D01*
X75178473Y-41882708D01*
X76118099Y-43199203D01*
X76189398Y-43217028D01*
X76189398Y-43217028D01*
G37*
G36*
X76769873Y-41989657D02*
X76776412Y-41930723D01*
X76800185Y-41865311D01*
X76847426Y-41804666D01*
X76924369Y-41760032D01*
X77037246Y-41742655D01*
X77307166Y-41742655D01*
X77446409Y-41744719D01*
X77556165Y-41753554D01*
X77639372Y-41773123D01*
X77698972Y-41807392D01*
X77737903Y-41860325D01*
X77759106Y-41935886D01*
X77765520Y-42038039D01*
X77790348Y-42116660D01*
X77857191Y-42147535D01*
X77918623Y-42125254D01*
X77951408Y-42038039D01*
X77945816Y-41934484D01*
X77929147Y-41846620D01*
X77901561Y-41773220D01*
X77863219Y-41713055D01*
X77814283Y-41664897D01*
X77754912Y-41627518D01*
X77685267Y-41599689D01*
X77605509Y-41580182D01*
X77515799Y-41567770D01*
X77416298Y-41561223D01*
X77307166Y-41559314D01*
X77113638Y-41559314D01*
X76984903Y-41567355D01*
X76877671Y-41590066D01*
X76790244Y-41625332D01*
X76720925Y-41671034D01*
X76668016Y-41725057D01*
X76629820Y-41785284D01*
X76604639Y-41849597D01*
X76590775Y-41915881D01*
X76586531Y-41982018D01*
X76592507Y-42075159D01*
X76611268Y-42156228D01*
X76644059Y-42225627D01*
X76692129Y-42283757D01*
X76756725Y-42331017D01*
X76839094Y-42367810D01*
X76940482Y-42394536D01*
X77635653Y-42524404D01*
X77672456Y-42544934D01*
X77716183Y-42593157D01*
X77752748Y-42671936D01*
X77768067Y-42784137D01*
X77761976Y-42844579D01*
X77740117Y-42911377D01*
X77697113Y-42973163D01*
X77627586Y-43018571D01*
X77526157Y-43036233D01*
X77225681Y-43036233D01*
X77089125Y-43033887D01*
X76981032Y-43024325D01*
X76898686Y-43003760D01*
X76839368Y-42968407D01*
X76800363Y-42914480D01*
X76778952Y-42838191D01*
X76772419Y-42735756D01*
X76747910Y-42657135D01*
X76683295Y-42626260D01*
X76611995Y-42655225D01*
X76586531Y-42735756D01*
X76592234Y-42840004D01*
X76609175Y-42928548D01*
X76637101Y-43002607D01*
X76675761Y-43063396D01*
X76724900Y-43112131D01*
X76784267Y-43150031D01*
X76853610Y-43178311D01*
X76932675Y-43198189D01*
X77021210Y-43210881D01*
X77118963Y-43217604D01*
X77225681Y-43219574D01*
X77470136Y-43219574D01*
X77599018Y-43209443D01*
X77704327Y-43181020D01*
X77788030Y-43137258D01*
X77852098Y-43081113D01*
X77898501Y-43015538D01*
X77929207Y-42943487D01*
X77946186Y-42867916D01*
X77951408Y-42791777D01*
X77946249Y-42708688D01*
X77929463Y-42627203D01*
X77899092Y-42550172D01*
X77853175Y-42480447D01*
X77789752Y-42420877D01*
X77706863Y-42374314D01*
X77602550Y-42343609D01*
X76902286Y-42218834D01*
X76836268Y-42178092D01*
X76788358Y-42098304D01*
X76769873Y-41989657D01*
X76769873Y-41989657D01*
G37*
G36*
X78343450Y-43255224D02*
X78409751Y-43239663D01*
X78471525Y-43195242D01*
X78498781Y-43125357D01*
X78472091Y-43056604D01*
X78410883Y-43011617D01*
X78343450Y-42995490D01*
X78277149Y-43011051D01*
X78215375Y-43055472D01*
X78188119Y-43125357D01*
X78213111Y-43194110D01*
X78272622Y-43239097D01*
X78343450Y-43255224D01*
X78343450Y-43255224D01*
G37*
G36*
X79754055Y-43199203D02*
X79859684Y-43186813D01*
X79935322Y-43152708D01*
X79985779Y-43101484D01*
X80015864Y-43037742D01*
X80030388Y-42966077D01*
X80034161Y-42891087D01*
X80009333Y-42801008D01*
X79942489Y-42773952D01*
X79883285Y-42795278D01*
X79850819Y-42883447D01*
X79841482Y-42963047D01*
X79806681Y-43004167D01*
X79736230Y-43015862D01*
X79395011Y-43015862D01*
X79256428Y-43013679D01*
X79146621Y-43004637D01*
X79062871Y-42984993D01*
X79002463Y-42951006D01*
X78962678Y-42898934D01*
X78940799Y-42825036D01*
X78934111Y-42725570D01*
X78934111Y-42053317D01*
X78940933Y-41953851D01*
X78962500Y-41879953D01*
X79000458Y-41827882D01*
X79056457Y-41793895D01*
X79132144Y-41774251D01*
X79229168Y-41765209D01*
X79349176Y-41763026D01*
X79736230Y-41763026D01*
X79806681Y-41774721D01*
X79841482Y-41815841D01*
X79850819Y-41895440D01*
X79883285Y-41983609D01*
X79942489Y-42004935D01*
X80001694Y-41984882D01*
X80034161Y-41890347D01*
X80030388Y-41814285D01*
X80015864Y-41741901D01*
X79985779Y-41677722D01*
X79935322Y-41626275D01*
X79859684Y-41592087D01*
X79754055Y-41579685D01*
X79349176Y-41579685D01*
X79240841Y-41582216D01*
X79142224Y-41590767D01*
X79053721Y-41606773D01*
X78975729Y-41631672D01*
X78908646Y-41666899D01*
X78852870Y-41713891D01*
X78808796Y-41774083D01*
X78776824Y-41848912D01*
X78757349Y-41939814D01*
X78750769Y-42048225D01*
X78750769Y-42730663D01*
X78757326Y-42839074D01*
X78776946Y-42929976D01*
X78809553Y-43004805D01*
X78855070Y-43064997D01*
X78913421Y-43111989D01*
X78984529Y-43147216D01*
X79068319Y-43172115D01*
X79164713Y-43188121D01*
X79273636Y-43196672D01*
X79395011Y-43199203D01*
X79754055Y-43199203D01*
X79754055Y-43199203D01*
G37*
G36*
X80922753Y-43222121D02*
X81265564Y-42925464D01*
X81200943Y-42974323D01*
X81122208Y-43009814D01*
X81029448Y-43031458D01*
X80922753Y-43038779D01*
X80816057Y-43031458D01*
X80723297Y-43009814D01*
X80644562Y-42974323D01*
X80579942Y-42925464D01*
X80529526Y-42863713D01*
X80493404Y-42789549D01*
X80471665Y-42703448D01*
X80464399Y-42605889D01*
X80464399Y-42172998D01*
X80471456Y-42076901D01*
X80492688Y-41991487D01*
X80528183Y-41917413D01*
X80578032Y-41855334D01*
X80642324Y-41805908D01*
X80721149Y-41769790D01*
X80814595Y-41747639D01*
X80922753Y-41740109D01*
X81030911Y-41747639D01*
X81124357Y-41769790D01*
X81203182Y-41805908D01*
X81267474Y-41855334D01*
X81317323Y-41917413D01*
X81352818Y-41991487D01*
X81374050Y-42076901D01*
X81381107Y-42172998D01*
X81381107Y-42605889D01*
X81373841Y-42703448D01*
X81352102Y-42789549D01*
X81315980Y-42863713D01*
X81265564Y-42925464D01*
X80922753Y-43222121D01*
X81022643Y-43216613D01*
X81116288Y-43200280D01*
X81203000Y-43173410D01*
X81282090Y-43136289D01*
X81352869Y-43089204D01*
X81414649Y-43032443D01*
X81466740Y-42966291D01*
X81508455Y-42891037D01*
X81539104Y-42806967D01*
X81557998Y-42714368D01*
X81564449Y-42613528D01*
X81564449Y-42165359D01*
X81557998Y-42064519D01*
X81539104Y-41971920D01*
X81508455Y-41887850D01*
X81466740Y-41812596D01*
X81414649Y-41746445D01*
X81352869Y-41689684D01*
X81282090Y-41642599D01*
X81203000Y-41605478D01*
X81116288Y-41578608D01*
X81022643Y-41562275D01*
X80922753Y-41556767D01*
X80822289Y-41562275D01*
X80728288Y-41578608D01*
X80641404Y-41605478D01*
X80562291Y-41642599D01*
X80491604Y-41689684D01*
X80429996Y-41746445D01*
X80378123Y-41812596D01*
X80336638Y-41887850D01*
X80306196Y-41971920D01*
X80287451Y-42064519D01*
X80281057Y-42165359D01*
X80281057Y-42613528D01*
X80287451Y-42714368D01*
X80306196Y-42806967D01*
X80336638Y-42891037D01*
X80378123Y-42966291D01*
X80429996Y-43032443D01*
X80491604Y-43089204D01*
X80562291Y-43136289D01*
X80641404Y-43173410D01*
X80728288Y-43200280D01*
X80822289Y-43216613D01*
X80922753Y-43222121D01*
X80922753Y-43222121D01*
G37*
G36*
X82547258Y-42488754D02*
X82618558Y-42458197D01*
X83033623Y-41867430D01*
X83033623Y-43102439D01*
X83058132Y-43190290D01*
X83122748Y-43217028D01*
X83189909Y-43192200D01*
X83216965Y-43110079D01*
X83216965Y-41671356D01*
X83192455Y-41587006D01*
X83127841Y-41561860D01*
X83075957Y-41577775D01*
X83033623Y-41620428D01*
X82547258Y-42297773D01*
X82063440Y-41620428D01*
X82018878Y-41575865D01*
X81966677Y-41561860D01*
X81910019Y-41581276D01*
X81880099Y-41671356D01*
X81880099Y-43110079D01*
X81913520Y-43198885D01*
X81971769Y-43217028D01*
X82045297Y-43181696D01*
X82063440Y-43102439D01*
X82063440Y-41867430D01*
X82478506Y-42458197D01*
X82547258Y-42488754D01*
X82547258Y-42488754D01*
G37*
G36*
X64413092Y-41579686D02*
X64527022Y-41844402D01*
X64809674Y-42534589D01*
X64249353Y-42534589D01*
X64527022Y-41844402D01*
X64413092Y-41579686D01*
X63809592Y-43104876D01*
X63801957Y-43153368D01*
X63839198Y-43222412D01*
X63893627Y-43239891D01*
X63947475Y-43221457D01*
X63987955Y-43168647D01*
X64163492Y-42717931D01*
X64871449Y-42717931D01*
X65047152Y-43168647D01*
X65081819Y-43216683D01*
X65141314Y-43239891D01*
X65196698Y-43222412D01*
X65232984Y-43153368D01*
X65225349Y-43104876D01*
X64621849Y-41579686D01*
X64413092Y-41579686D01*
X64413092Y-41579686D01*
G37*
D14*
G36*
X54049035Y-35633203D02*
X54694497Y-35633203D01*
X54780964Y-35616457D01*
X54816282Y-35550389D01*
X54788272Y-35484016D01*
X54694497Y-35457833D01*
X54049035Y-35457833D01*
X54049035Y-35043764D01*
X54994087Y-35043764D01*
X55070509Y-35027018D01*
X55101259Y-34960950D01*
X55075988Y-34894577D01*
X54994087Y-34868393D01*
X53956479Y-34868393D01*
X53902285Y-34887270D01*
X53873667Y-34975564D01*
X53873667Y-36310327D01*
X53896806Y-36393141D01*
X53956479Y-36417498D01*
X54994087Y-36417498D01*
X55070509Y-36400752D01*
X55101259Y-36334684D01*
X55075988Y-36268311D01*
X54994087Y-36242127D01*
X54049035Y-36242127D01*
X54049035Y-35633203D01*
X54049035Y-35633203D01*
G37*
X54049035Y-35633203D02*
X54694497Y-35633203D01*
X54780964Y-35616457D01*
X54816282Y-35550389D01*
X54788272Y-35484016D01*
X54694497Y-35457833D01*
X54049035Y-35457833D01*
X54049035Y-35043764D01*
X54994087Y-35043764D01*
X55070509Y-35027018D01*
X55101259Y-34960950D01*
X55075988Y-34894577D01*
X54994087Y-34868393D01*
X53956479Y-34868393D01*
X53902285Y-34887270D01*
X53873667Y-34975564D01*
X53873667Y-36310327D01*
X53896806Y-36393141D01*
X53956479Y-36417498D01*
X54994087Y-36417498D01*
X55070509Y-36400752D01*
X55101259Y-36334684D01*
X55075988Y-36268311D01*
X54994087Y-36242127D01*
X54049035Y-36242127D01*
X54049035Y-35633203D01*
G36*
X56565114Y-36434548D02*
X56633313Y-36402579D01*
X56650363Y-36332248D01*
X56650363Y-34956079D01*
X56624484Y-34874483D01*
X56560243Y-34851343D01*
X56504830Y-34871742D01*
X56474992Y-34963386D01*
X56474992Y-36130085D01*
X55598142Y-34907365D01*
X55555517Y-34864740D01*
X55505585Y-34851343D01*
X55451390Y-34869915D01*
X55422770Y-34956079D01*
X55422770Y-36332248D01*
X55454740Y-36417193D01*
X55510456Y-36434548D01*
X55580787Y-36406233D01*
X55598142Y-36339555D01*
X55598142Y-35158241D01*
X56496915Y-36417498D01*
X56565114Y-36434547D01*
X56565114Y-36434548D01*
X56565114Y-36434548D01*
G37*
X56565114Y-36434548D02*
X56633313Y-36402579D01*
X56650363Y-36332248D01*
X56650363Y-34956079D01*
X56624484Y-34874483D01*
X56560243Y-34851343D01*
X56504830Y-34871742D01*
X56474992Y-34963386D01*
X56474992Y-36130085D01*
X55598142Y-34907365D01*
X55555517Y-34864740D01*
X55505585Y-34851343D01*
X55451390Y-34869915D01*
X55422770Y-34956079D01*
X55422770Y-36332248D01*
X55454740Y-36417193D01*
X55510456Y-36434548D01*
X55580787Y-36406233D01*
X55598142Y-36339555D01*
X55598142Y-35158241D01*
X56496915Y-36417498D01*
X56565114Y-36434547D01*
X56565114Y-36434548D01*
G36*
X58080118Y-35842673D02*
X58080118Y-36125214D01*
X58071185Y-36196661D01*
X58037894Y-36232385D01*
X57970512Y-36242127D01*
X57600286Y-36242127D01*
X57484728Y-36240054D01*
X57391625Y-36231504D01*
X57319271Y-36212984D01*
X57265962Y-36181000D01*
X57229994Y-36132059D01*
X57209664Y-36062667D01*
X57203266Y-35969329D01*
X57203266Y-35316562D01*
X57209792Y-35223991D01*
X57231017Y-35154897D01*
X57269413Y-35105913D01*
X57327451Y-35073674D01*
X57407602Y-35054813D01*
X57512337Y-35045965D01*
X57644127Y-35043764D01*
X57970512Y-35043764D01*
X58037899Y-35054318D01*
X58071187Y-35092478D01*
X58080118Y-35167984D01*
X58104779Y-35249885D01*
X58167804Y-35275155D01*
X58231742Y-35249276D01*
X58255490Y-35163113D01*
X58251881Y-35091384D01*
X58237989Y-35022835D01*
X58209211Y-34961863D01*
X58160948Y-34912867D01*
X58088599Y-34880245D01*
X57987562Y-34868393D01*
X57644127Y-34868393D01*
X57529214Y-34870610D01*
X57425714Y-34878233D01*
X57333789Y-34892726D01*
X57253598Y-34915548D01*
X57185304Y-34948162D01*
X57129066Y-34992029D01*
X57085046Y-35048611D01*
X57053404Y-35119368D01*
X57034300Y-35205762D01*
X57027897Y-35309255D01*
X57027897Y-35976636D01*
X57034125Y-36078945D01*
X57052585Y-36164653D01*
X57082941Y-36235132D01*
X57124857Y-36291757D01*
X57177997Y-36335902D01*
X57242024Y-36368940D01*
X57316603Y-36392244D01*
X57401397Y-36407190D01*
X57496070Y-36415150D01*
X57600286Y-36417498D01*
X57987562Y-36417498D01*
X58105216Y-36401461D01*
X58182886Y-36358184D01*
X58228522Y-36294914D01*
X58250073Y-36218901D01*
X58255490Y-36137392D01*
X58255490Y-35667303D01*
X57770784Y-35667303D01*
X57682490Y-35685875D01*
X57648998Y-35757423D01*
X57678837Y-35819229D01*
X57770784Y-35842673D01*
X58080118Y-35842673D01*
X58080118Y-35842673D01*
G37*
X58080118Y-35842673D02*
X58080118Y-36125214D01*
X58071185Y-36196661D01*
X58037894Y-36232385D01*
X57970512Y-36242127D01*
X57600286Y-36242127D01*
X57484728Y-36240054D01*
X57391625Y-36231504D01*
X57319271Y-36212984D01*
X57265962Y-36181000D01*
X57229994Y-36132059D01*
X57209664Y-36062667D01*
X57203266Y-35969329D01*
X57203266Y-35316562D01*
X57209792Y-35223991D01*
X57231017Y-35154897D01*
X57269413Y-35105913D01*
X57327451Y-35073674D01*
X57407602Y-35054813D01*
X57512337Y-35045965D01*
X57644127Y-35043764D01*
X57970512Y-35043764D01*
X58037899Y-35054318D01*
X58071187Y-35092478D01*
X58080118Y-35167984D01*
X58104779Y-35249885D01*
X58167804Y-35275155D01*
X58231742Y-35249276D01*
X58255490Y-35163113D01*
X58251881Y-35091384D01*
X58237989Y-35022835D01*
X58209211Y-34961863D01*
X58160948Y-34912867D01*
X58088599Y-34880245D01*
X57987562Y-34868393D01*
X57644127Y-34868393D01*
X57529214Y-34870610D01*
X57425714Y-34878233D01*
X57333789Y-34892726D01*
X57253598Y-34915548D01*
X57185304Y-34948162D01*
X57129066Y-34992029D01*
X57085046Y-35048611D01*
X57053404Y-35119368D01*
X57034300Y-35205762D01*
X57027897Y-35309255D01*
X57027897Y-35976636D01*
X57034125Y-36078945D01*
X57052585Y-36164653D01*
X57082941Y-36235132D01*
X57124857Y-36291757D01*
X57177997Y-36335902D01*
X57242024Y-36368940D01*
X57316603Y-36392244D01*
X57401397Y-36407190D01*
X57496070Y-36415150D01*
X57600286Y-36417498D01*
X57987562Y-36417498D01*
X58105216Y-36401461D01*
X58182886Y-36358184D01*
X58228522Y-36294914D01*
X58250073Y-36218901D01*
X58255490Y-36137392D01*
X58255490Y-35667303D01*
X57770784Y-35667303D01*
X57682490Y-35685875D01*
X57648998Y-35757423D01*
X57678837Y-35819229D01*
X57770784Y-35842673D01*
X58080118Y-35842673D01*
G36*
X58808392Y-36337120D02*
X58808392Y-34951207D01*
X58777337Y-34870220D01*
X58720706Y-34851343D01*
X58664076Y-34870220D01*
X58633021Y-34951207D01*
X58633021Y-36337120D01*
X58662859Y-36415975D01*
X58718272Y-36434548D01*
X58789821Y-36403188D01*
X58808392Y-36337120D01*
X58808392Y-36337120D01*
G37*
X58808392Y-36337120D02*
X58808392Y-34951207D01*
X58777337Y-34870220D01*
X58720706Y-34851343D01*
X58664076Y-34870220D01*
X58633021Y-34951207D01*
X58633021Y-36337120D01*
X58662859Y-36415975D01*
X58718272Y-36434548D01*
X58789821Y-36403188D01*
X58808392Y-36337120D01*
G36*
X60359933Y-36434548D02*
X60428132Y-36402579D01*
X60445181Y-36332248D01*
X60445181Y-34956079D01*
X60419302Y-34874483D01*
X60355062Y-34851343D01*
X60299649Y-34871742D01*
X60269810Y-34963386D01*
X60269810Y-36130085D01*
X59392960Y-34907365D01*
X59350336Y-34864740D01*
X59300403Y-34851343D01*
X59246209Y-34869915D01*
X59217589Y-34956079D01*
X59217589Y-36332248D01*
X59249558Y-36417193D01*
X59305274Y-36434548D01*
X59375605Y-36406233D01*
X59392960Y-36339555D01*
X59392960Y-35158241D01*
X60291734Y-36417498D01*
X60359933Y-36434547D01*
X60359933Y-36434548D01*
X60359933Y-36434548D01*
G37*
X60359933Y-36434548D02*
X60428132Y-36402579D01*
X60445181Y-36332248D01*
X60445181Y-34956079D01*
X60419302Y-34874483D01*
X60355062Y-34851343D01*
X60299649Y-34871742D01*
X60269810Y-34963386D01*
X60269810Y-36130085D01*
X59392960Y-34907365D01*
X59350336Y-34864740D01*
X59300403Y-34851343D01*
X59246209Y-34869915D01*
X59217589Y-34956079D01*
X59217589Y-36332248D01*
X59249558Y-36417193D01*
X59305274Y-36434548D01*
X59375605Y-36406233D01*
X59392960Y-36339555D01*
X59392960Y-35158241D01*
X60291734Y-36417498D01*
X60359933Y-36434547D01*
X60359933Y-36434548D01*
G36*
X61029749Y-35633203D02*
X61675211Y-35633203D01*
X61761678Y-35616457D01*
X61796996Y-35550389D01*
X61768984Y-35484016D01*
X61675211Y-35457833D01*
X61029749Y-35457833D01*
X61029749Y-35043764D01*
X61974801Y-35043764D01*
X62051220Y-35027018D01*
X62081971Y-34960950D01*
X62056701Y-34894577D01*
X61974801Y-34868393D01*
X60937193Y-34868393D01*
X60882998Y-34887270D01*
X60854378Y-34975564D01*
X60854378Y-36310327D01*
X60877518Y-36393141D01*
X60937193Y-36417498D01*
X61974801Y-36417498D01*
X62051220Y-36400752D01*
X62081971Y-36334684D01*
X62056701Y-36268311D01*
X61974801Y-36242127D01*
X61029749Y-36242127D01*
X61029749Y-35633203D01*
X61029749Y-35633203D01*
G37*
X61029749Y-35633203D02*
X61675211Y-35633203D01*
X61761678Y-35616457D01*
X61796996Y-35550389D01*
X61768984Y-35484016D01*
X61675211Y-35457833D01*
X61029749Y-35457833D01*
X61029749Y-35043764D01*
X61974801Y-35043764D01*
X62051220Y-35027018D01*
X62081971Y-34960950D01*
X62056701Y-34894577D01*
X61974801Y-34868393D01*
X60937193Y-34868393D01*
X60882998Y-34887270D01*
X60854378Y-34975564D01*
X60854378Y-36310327D01*
X60877518Y-36393141D01*
X60937193Y-36417498D01*
X61974801Y-36417498D01*
X62051220Y-36400752D01*
X62081971Y-36334684D01*
X62056701Y-36268311D01*
X61974801Y-36242127D01*
X61029749Y-36242127D01*
X61029749Y-35633203D01*
G36*
X62578853Y-35633203D02*
X63224314Y-35633203D01*
X63310781Y-35616457D01*
X63346099Y-35550389D01*
X63318089Y-35484016D01*
X63224314Y-35457833D01*
X62578853Y-35457833D01*
X62578853Y-35043764D01*
X63523905Y-35043764D01*
X63600324Y-35027018D01*
X63631074Y-34960950D01*
X63605804Y-34894577D01*
X63523905Y-34868393D01*
X62486296Y-34868393D01*
X62432103Y-34887270D01*
X62403484Y-34975564D01*
X62403484Y-36310327D01*
X62426623Y-36393141D01*
X62486296Y-36417498D01*
X63523905Y-36417498D01*
X63600324Y-36400752D01*
X63631074Y-36334684D01*
X63605804Y-36268311D01*
X63523905Y-36242127D01*
X62578853Y-36242127D01*
X62578853Y-35633203D01*
X62578853Y-35633203D01*
G37*
X62578853Y-35633203D02*
X63224314Y-35633203D01*
X63310781Y-35616457D01*
X63346099Y-35550389D01*
X63318089Y-35484016D01*
X63224314Y-35457833D01*
X62578853Y-35457833D01*
X62578853Y-35043764D01*
X63523905Y-35043764D01*
X63600324Y-35027018D01*
X63631074Y-34960950D01*
X63605804Y-34894577D01*
X63523905Y-34868393D01*
X62486296Y-34868393D01*
X62432103Y-34887270D01*
X62403484Y-34975564D01*
X62403484Y-36310327D01*
X62426623Y-36393141D01*
X62486296Y-36417498D01*
X63523905Y-36417498D01*
X63600324Y-36400752D01*
X63631074Y-36334684D01*
X63605804Y-36268311D01*
X63523905Y-36242127D01*
X62578853Y-36242127D01*
X62578853Y-35633203D01*
G36*
X64814825Y-35599103D02*
X64893343Y-35322798D01*
X64864081Y-35380251D01*
X64812086Y-35419166D01*
X64734718Y-35442857D01*
X64629341Y-35454641D01*
X64493314Y-35457833D01*
X64127959Y-35457833D01*
X64127959Y-35031585D01*
X64493314Y-35031585D01*
X64625957Y-35034427D01*
X64730387Y-35045387D01*
X64808431Y-35068121D01*
X64861915Y-35106280D01*
X64892666Y-35163519D01*
X64902511Y-35243491D01*
X64893343Y-35322798D01*
X64814825Y-35599103D01*
X64904849Y-35562061D01*
X64977920Y-35506780D01*
X65032285Y-35433729D01*
X65066191Y-35343374D01*
X65077882Y-35236184D01*
X65069943Y-35139341D01*
X65046488Y-35058996D01*
X65008058Y-34993787D01*
X64955195Y-34942350D01*
X64888438Y-34903322D01*
X64808331Y-34875340D01*
X64715413Y-34857040D01*
X64610227Y-34847060D01*
X64493314Y-34844036D01*
X64035402Y-34844036D01*
X63981208Y-34862913D01*
X63952588Y-34951207D01*
X63952588Y-36337120D01*
X63982425Y-36415975D01*
X64037837Y-36434548D01*
X64109386Y-36403188D01*
X64127959Y-36337120D01*
X64127959Y-35633203D01*
X64580997Y-35633203D01*
X64661984Y-35709304D01*
X64731554Y-35807241D01*
X64789935Y-35917794D01*
X64837355Y-36031744D01*
X64874043Y-36139871D01*
X64900228Y-36232956D01*
X64916136Y-36301778D01*
X64921997Y-36337120D01*
X64942675Y-36401361D01*
X65007246Y-36434548D01*
X65072401Y-36405015D01*
X65097366Y-36337120D01*
X65092219Y-36304109D01*
X65077196Y-36236533D01*
X65052924Y-36143210D01*
X65020033Y-36032962D01*
X64979150Y-35914607D01*
X64930902Y-35796965D01*
X64875918Y-35688857D01*
X64814825Y-35599103D01*
X64814825Y-35599103D01*
G37*
X64814825Y-35599103D02*
X64893343Y-35322798D01*
X64864081Y-35380251D01*
X64812086Y-35419166D01*
X64734718Y-35442857D01*
X64629341Y-35454641D01*
X64493314Y-35457833D01*
X64127959Y-35457833D01*
X64127959Y-35031585D01*
X64493314Y-35031585D01*
X64625957Y-35034427D01*
X64730387Y-35045387D01*
X64808431Y-35068121D01*
X64861915Y-35106280D01*
X64892666Y-35163519D01*
X64902511Y-35243491D01*
X64893343Y-35322798D01*
X64814825Y-35599103D01*
X64904849Y-35562061D01*
X64977920Y-35506780D01*
X65032285Y-35433729D01*
X65066191Y-35343374D01*
X65077882Y-35236184D01*
X65069943Y-35139341D01*
X65046488Y-35058996D01*
X65008058Y-34993787D01*
X64955195Y-34942350D01*
X64888438Y-34903322D01*
X64808331Y-34875340D01*
X64715413Y-34857040D01*
X64610227Y-34847060D01*
X64493314Y-34844036D01*
X64035402Y-34844036D01*
X63981208Y-34862913D01*
X63952588Y-34951207D01*
X63952588Y-36337120D01*
X63982425Y-36415975D01*
X64037837Y-36434548D01*
X64109386Y-36403188D01*
X64127959Y-36337120D01*
X64127959Y-35633203D01*
X64580997Y-35633203D01*
X64661984Y-35709304D01*
X64731554Y-35807241D01*
X64789935Y-35917794D01*
X64837355Y-36031744D01*
X64874043Y-36139871D01*
X64900228Y-36232956D01*
X64916136Y-36301778D01*
X64921997Y-36337120D01*
X64942675Y-36401361D01*
X65007246Y-36434548D01*
X65072401Y-36405015D01*
X65097366Y-36337120D01*
X65092219Y-36304109D01*
X65077196Y-36236533D01*
X65052924Y-36143210D01*
X65020033Y-36032962D01*
X64979150Y-35914607D01*
X64930902Y-35796965D01*
X64875918Y-35688857D01*
X64814825Y-35599103D01*
G36*
X66485780Y-34805088D02*
X66406658Y-34813166D01*
X66326872Y-34836828D01*
X66249878Y-34875219D01*
X66179132Y-34927482D01*
X66174302Y-35806160D01*
X66215291Y-35733089D01*
X66273862Y-35674633D01*
X66736534Y-36208051D01*
X66657447Y-36260178D01*
X66576220Y-36290643D01*
X66500383Y-36300552D01*
X66424808Y-36294478D01*
X66344767Y-36273864D01*
X66268381Y-36235120D01*
X66203767Y-36174658D01*
X66159044Y-36088889D01*
X66142332Y-35974224D01*
X66150211Y-35888365D01*
X66174302Y-35806160D01*
X66179132Y-34927482D01*
X66118091Y-34992761D01*
X66070211Y-35070199D01*
X66038949Y-35158940D01*
X66027760Y-35258128D01*
X66040137Y-35341703D01*
X66071934Y-35418884D01*
X66115148Y-35486932D01*
X66161777Y-35543105D01*
X66086335Y-35618339D01*
X66031126Y-35703627D01*
X65994159Y-35794410D01*
X65973441Y-35886129D01*
X65966977Y-35974224D01*
X65978213Y-36089578D01*
X66009597Y-36187830D01*
X66057639Y-36269921D01*
X66118852Y-36336795D01*
X66189748Y-36389396D01*
X66266838Y-36428666D01*
X66346635Y-36455548D01*
X66425650Y-36470986D01*
X66500396Y-36475922D01*
X66589061Y-36467681D01*
X66678173Y-36442791D01*
X66765458Y-36401003D01*
X66848643Y-36342069D01*
X66919223Y-36422448D01*
X66964644Y-36458651D01*
X67011891Y-36471106D01*
X67059060Y-36454665D01*
X67089779Y-36390728D01*
X67067845Y-36324964D01*
X66965544Y-36212867D01*
X67009662Y-36136189D01*
X67042601Y-36052443D01*
X67063209Y-35961846D01*
X67070335Y-35864617D01*
X67041688Y-35772033D01*
X66987467Y-35752520D01*
X66914976Y-35786647D01*
X66897289Y-35864617D01*
X66891608Y-35939958D01*
X66874561Y-36009357D01*
X66846140Y-36071707D01*
X66295783Y-35435989D01*
X66226365Y-35332445D01*
X66208097Y-35258128D01*
X66224582Y-35160038D01*
X66268659Y-35082524D01*
X66332260Y-35026288D01*
X66407319Y-34992033D01*
X66485767Y-34980458D01*
X66570362Y-35005035D01*
X66628285Y-35063642D01*
X66672641Y-35133592D01*
X66716534Y-35192199D01*
X66773070Y-35216776D01*
X66836092Y-35191451D01*
X66860753Y-35131416D01*
X66849553Y-35088638D01*
X66816579Y-35022997D01*
X66762772Y-34948158D01*
X66689074Y-34877784D01*
X66596425Y-34825539D01*
X66485767Y-34805088D01*
X66485780Y-34805088D01*
X66485780Y-34805088D01*
G37*
X66485780Y-34805088D02*
X66406658Y-34813166D01*
X66326872Y-34836828D01*
X66249878Y-34875219D01*
X66179132Y-34927482D01*
X66174302Y-35806160D01*
X66215291Y-35733089D01*
X66273862Y-35674633D01*
X66736534Y-36208051D01*
X66657447Y-36260178D01*
X66576220Y-36290643D01*
X66500383Y-36300552D01*
X66424808Y-36294478D01*
X66344767Y-36273864D01*
X66268381Y-36235120D01*
X66203767Y-36174658D01*
X66159044Y-36088889D01*
X66142332Y-35974224D01*
X66150211Y-35888365D01*
X66174302Y-35806160D01*
X66179132Y-34927482D01*
X66118091Y-34992761D01*
X66070211Y-35070199D01*
X66038949Y-35158940D01*
X66027760Y-35258128D01*
X66040137Y-35341703D01*
X66071934Y-35418884D01*
X66115148Y-35486932D01*
X66161777Y-35543105D01*
X66086335Y-35618339D01*
X66031126Y-35703627D01*
X65994159Y-35794410D01*
X65973441Y-35886129D01*
X65966977Y-35974224D01*
X65978213Y-36089578D01*
X66009597Y-36187830D01*
X66057639Y-36269921D01*
X66118852Y-36336795D01*
X66189748Y-36389396D01*
X66266838Y-36428666D01*
X66346635Y-36455548D01*
X66425650Y-36470986D01*
X66500396Y-36475922D01*
X66589061Y-36467681D01*
X66678173Y-36442791D01*
X66765458Y-36401003D01*
X66848643Y-36342069D01*
X66919223Y-36422448D01*
X66964644Y-36458651D01*
X67011891Y-36471106D01*
X67059060Y-36454665D01*
X67089779Y-36390728D01*
X67067845Y-36324964D01*
X66965544Y-36212867D01*
X67009662Y-36136189D01*
X67042601Y-36052443D01*
X67063209Y-35961846D01*
X67070335Y-35864617D01*
X67041688Y-35772033D01*
X66987467Y-35752520D01*
X66914976Y-35786647D01*
X66897289Y-35864617D01*
X66891608Y-35939958D01*
X66874561Y-36009357D01*
X66846140Y-36071707D01*
X66295783Y-35435989D01*
X66226365Y-35332445D01*
X66208097Y-35258128D01*
X66224582Y-35160038D01*
X66268659Y-35082524D01*
X66332260Y-35026288D01*
X66407319Y-34992033D01*
X66485767Y-34980458D01*
X66570362Y-35005035D01*
X66628285Y-35063642D01*
X66672641Y-35133592D01*
X66716534Y-35192199D01*
X66773070Y-35216776D01*
X66836092Y-35191451D01*
X66860753Y-35131416D01*
X66849553Y-35088638D01*
X66816579Y-35022997D01*
X66762772Y-34948158D01*
X66689074Y-34877784D01*
X66596425Y-34825539D01*
X66485767Y-34805088D01*
X66485780Y-34805088D01*
G36*
X68124940Y-35260541D02*
X68131195Y-35204169D01*
X68153934Y-35141601D01*
X68199121Y-35083592D01*
X68272719Y-35040899D01*
X68380689Y-35024278D01*
X68638872Y-35024278D01*
X68772061Y-35026252D01*
X68877045Y-35034702D01*
X68956634Y-35053421D01*
X69013642Y-35086200D01*
X69050881Y-35136831D01*
X69071162Y-35209107D01*
X69077297Y-35306819D01*
X69101045Y-35382021D01*
X69164983Y-35411554D01*
X69223744Y-35390242D01*
X69255102Y-35306819D01*
X69248633Y-35198706D01*
X69229362Y-35108612D01*
X69197494Y-35034973D01*
X69153232Y-34976227D01*
X69096783Y-34930808D01*
X69028350Y-34897154D01*
X68948137Y-34873701D01*
X68856351Y-34858884D01*
X68753194Y-34851141D01*
X68638872Y-34848908D01*
X68453759Y-34848908D01*
X68316708Y-34858589D01*
X68205431Y-34885710D01*
X68117618Y-34927388D01*
X68050955Y-34980740D01*
X68003130Y-35042884D01*
X67971833Y-35110936D01*
X67954750Y-35182013D01*
X67949569Y-35253234D01*
X67957395Y-35356040D01*
X67982135Y-35443218D01*
X68025685Y-35515376D01*
X68089938Y-35573122D01*
X68176788Y-35617066D01*
X68288130Y-35647817D01*
X68953078Y-35772038D01*
X68988281Y-35791675D01*
X69030106Y-35837801D01*
X69065082Y-35913156D01*
X69079734Y-36020479D01*
X69073908Y-36078293D01*
X69053000Y-36142186D01*
X69011866Y-36201286D01*
X68945361Y-36244719D01*
X68848343Y-36261613D01*
X68560931Y-36261613D01*
X68430312Y-36259369D01*
X68326918Y-36250223D01*
X68248152Y-36230553D01*
X68191413Y-36196737D01*
X68154103Y-36145154D01*
X68133623Y-36072182D01*
X68127374Y-35974200D01*
X68103931Y-35898998D01*
X68042125Y-35869465D01*
X67973926Y-35897172D01*
X67949569Y-35974200D01*
X67956165Y-36083042D01*
X67975738Y-36173850D01*
X68007967Y-36248173D01*
X68052531Y-36307560D01*
X68109108Y-36353561D01*
X68177376Y-36387724D01*
X68257014Y-36411599D01*
X68347700Y-36426734D01*
X68449113Y-36434679D01*
X68560931Y-36436983D01*
X68794757Y-36436983D01*
X68918035Y-36427293D01*
X69018765Y-36400105D01*
X69098829Y-36358247D01*
X69160111Y-36304542D01*
X69204496Y-36241818D01*
X69233867Y-36172900D01*
X69250107Y-36100614D01*
X69255102Y-36027786D01*
X69250167Y-35948310D01*
X69234112Y-35870367D01*
X69205061Y-35796686D01*
X69161141Y-35729992D01*
X69100476Y-35673012D01*
X69021192Y-35628473D01*
X68921413Y-35599103D01*
X68251596Y-35479754D01*
X68188449Y-35440783D01*
X68142621Y-35364464D01*
X68124940Y-35260541D01*
X68124940Y-35260541D01*
G37*
X68124940Y-35260541D02*
X68131195Y-35204169D01*
X68153934Y-35141601D01*
X68199121Y-35083592D01*
X68272719Y-35040899D01*
X68380689Y-35024278D01*
X68638872Y-35024278D01*
X68772061Y-35026252D01*
X68877045Y-35034702D01*
X68956634Y-35053421D01*
X69013642Y-35086200D01*
X69050881Y-35136831D01*
X69071162Y-35209107D01*
X69077297Y-35306819D01*
X69101045Y-35382021D01*
X69164983Y-35411554D01*
X69223744Y-35390242D01*
X69255102Y-35306819D01*
X69248633Y-35198706D01*
X69229362Y-35108612D01*
X69197494Y-35034973D01*
X69153232Y-34976227D01*
X69096783Y-34930808D01*
X69028350Y-34897154D01*
X68948137Y-34873701D01*
X68856351Y-34858884D01*
X68753194Y-34851141D01*
X68638872Y-34848908D01*
X68453759Y-34848908D01*
X68316708Y-34858589D01*
X68205431Y-34885710D01*
X68117618Y-34927388D01*
X68050955Y-34980740D01*
X68003130Y-35042884D01*
X67971833Y-35110936D01*
X67954750Y-35182013D01*
X67949569Y-35253234D01*
X67957395Y-35356040D01*
X67982135Y-35443218D01*
X68025685Y-35515376D01*
X68089938Y-35573122D01*
X68176788Y-35617066D01*
X68288130Y-35647817D01*
X68953078Y-35772038D01*
X68988281Y-35791675D01*
X69030106Y-35837801D01*
X69065082Y-35913156D01*
X69079734Y-36020479D01*
X69073908Y-36078293D01*
X69053000Y-36142186D01*
X69011866Y-36201286D01*
X68945361Y-36244719D01*
X68848343Y-36261613D01*
X68560931Y-36261613D01*
X68430312Y-36259369D01*
X68326918Y-36250223D01*
X68248152Y-36230553D01*
X68191413Y-36196737D01*
X68154103Y-36145154D01*
X68133623Y-36072182D01*
X68127374Y-35974200D01*
X68103931Y-35898998D01*
X68042125Y-35869465D01*
X67973926Y-35897172D01*
X67949569Y-35974200D01*
X67956165Y-36083042D01*
X67975738Y-36173850D01*
X68007967Y-36248173D01*
X68052531Y-36307560D01*
X68109108Y-36353561D01*
X68177376Y-36387724D01*
X68257014Y-36411599D01*
X68347700Y-36426734D01*
X68449113Y-36434679D01*
X68560931Y-36436983D01*
X68794757Y-36436983D01*
X68918035Y-36427293D01*
X69018765Y-36400105D01*
X69098829Y-36358247D01*
X69160111Y-36304542D01*
X69204496Y-36241818D01*
X69233867Y-36172900D01*
X69250107Y-36100614D01*
X69255102Y-36027786D01*
X69250167Y-35948310D01*
X69234112Y-35870367D01*
X69205061Y-35796686D01*
X69161141Y-35729992D01*
X69100476Y-35673012D01*
X69021192Y-35628473D01*
X68921413Y-35599103D01*
X68251596Y-35479754D01*
X68188449Y-35440783D01*
X68142621Y-35364464D01*
X68124940Y-35260541D01*
G36*
X69783653Y-36337120D02*
X69783653Y-34951207D01*
X69752597Y-34870220D01*
X69695967Y-34851343D01*
X69639336Y-34870220D01*
X69608282Y-34951207D01*
X69608282Y-36337120D01*
X69638119Y-36415975D01*
X69693530Y-36434548D01*
X69765080Y-36403188D01*
X69783653Y-36337120D01*
X69783653Y-36337120D01*
G37*
X69783653Y-36337120D02*
X69783653Y-34951207D01*
X69752597Y-34870220D01*
X69695967Y-34851343D01*
X69639336Y-34870220D01*
X69608282Y-34951207D01*
X69608282Y-36337120D01*
X69638119Y-36415975D01*
X69693530Y-36434548D01*
X69765080Y-36403188D01*
X69783653Y-36337120D01*
G36*
X70275661Y-36417498D02*
X71179306Y-36417498D01*
X71264556Y-36387660D01*
X71284041Y-36332248D01*
X71259989Y-36268920D01*
X71179306Y-36242127D01*
X70368220Y-36242127D01*
X70368220Y-34948772D01*
X70338992Y-34871742D01*
X70280535Y-34851343D01*
X70222077Y-34871742D01*
X70192849Y-34948772D01*
X70192849Y-36312763D01*
X70221468Y-36398925D01*
X70275661Y-36417498D01*
X70275661Y-36417498D01*
G37*
X70275661Y-36417498D02*
X71179306Y-36417498D01*
X71264556Y-36387660D01*
X71284041Y-36332248D01*
X71259989Y-36268920D01*
X71179306Y-36242127D01*
X70368220Y-36242127D01*
X70368220Y-34948772D01*
X70338992Y-34871742D01*
X70280535Y-34851343D01*
X70222077Y-34871742D01*
X70192849Y-34948772D01*
X70192849Y-36312763D01*
X70221468Y-36398925D01*
X70275661Y-36417498D01*
G36*
X71717595Y-36337120D02*
X71717595Y-34951207D01*
X71686540Y-34870220D01*
X71629910Y-34851343D01*
X71573280Y-34870220D01*
X71542224Y-34951207D01*
X71542224Y-36337120D01*
X71572061Y-36415975D01*
X71627473Y-36434548D01*
X71699023Y-36403188D01*
X71717595Y-36337120D01*
X71717595Y-36337120D01*
G37*
X71717595Y-36337120D02*
X71717595Y-34951207D01*
X71686540Y-34870220D01*
X71629910Y-34851343D01*
X71573280Y-34870220D01*
X71542224Y-34951207D01*
X71542224Y-36337120D01*
X71572061Y-36415975D01*
X71627473Y-36434548D01*
X71699023Y-36403188D01*
X71717595Y-36337120D01*
G36*
X73054794Y-36417498D02*
X73155830Y-36405646D01*
X73228179Y-36373024D01*
X73276441Y-36324028D01*
X73305219Y-36263056D01*
X73319111Y-36194507D01*
X73322719Y-36122778D01*
X73298972Y-36036615D01*
X73235036Y-36010736D01*
X73178406Y-36031135D01*
X73147351Y-36115471D01*
X73138417Y-36191609D01*
X73105126Y-36230941D01*
X73037745Y-36242127D01*
X72711360Y-36242127D01*
X72578803Y-36240040D01*
X72473770Y-36231390D01*
X72393661Y-36212601D01*
X72335879Y-36180091D01*
X72297824Y-36130284D01*
X72276896Y-36059599D01*
X72270498Y-35964458D01*
X72270498Y-35321433D01*
X72277024Y-35226292D01*
X72297653Y-35155607D01*
X72333962Y-35105799D01*
X72387526Y-35073290D01*
X72459923Y-35054501D01*
X72552728Y-35045851D01*
X72667518Y-35043764D01*
X73037745Y-35043764D01*
X73105132Y-35054950D01*
X73138420Y-35094282D01*
X73147351Y-35170420D01*
X73178406Y-35254756D01*
X73235036Y-35275155D01*
X73291665Y-35255974D01*
X73322719Y-35165549D01*
X73319111Y-35092793D01*
X73305219Y-35023556D01*
X73276441Y-34962168D01*
X73228179Y-34912958D01*
X73155830Y-34880256D01*
X73054794Y-34868393D01*
X72667518Y-34868393D01*
X72563894Y-34870814D01*
X72469564Y-34878993D01*
X72384909Y-34894304D01*
X72310308Y-34918120D01*
X72246142Y-34951816D01*
X72192791Y-34996764D01*
X72150634Y-35054339D01*
X72120051Y-35125915D01*
X72101423Y-35212864D01*
X72095129Y-35316562D01*
X72095129Y-35969329D01*
X72101401Y-36073027D01*
X72120168Y-36159976D01*
X72151357Y-36231552D01*
X72194895Y-36289127D01*
X72250709Y-36334075D01*
X72318725Y-36367770D01*
X72398872Y-36391587D01*
X72491075Y-36406898D01*
X72595262Y-36415077D01*
X72711360Y-36417498D01*
X73054794Y-36417498D01*
X73054794Y-36417498D01*
G37*
X73054794Y-36417498D02*
X73155830Y-36405646D01*
X73228179Y-36373024D01*
X73276441Y-36324028D01*
X73305219Y-36263056D01*
X73319111Y-36194507D01*
X73322719Y-36122778D01*
X73298972Y-36036615D01*
X73235036Y-36010736D01*
X73178406Y-36031135D01*
X73147351Y-36115471D01*
X73138417Y-36191609D01*
X73105126Y-36230941D01*
X73037745Y-36242127D01*
X72711360Y-36242127D01*
X72578803Y-36240040D01*
X72473770Y-36231390D01*
X72393661Y-36212601D01*
X72335879Y-36180091D01*
X72297824Y-36130284D01*
X72276896Y-36059599D01*
X72270498Y-35964458D01*
X72270498Y-35321433D01*
X72277024Y-35226292D01*
X72297653Y-35155607D01*
X72333962Y-35105799D01*
X72387526Y-35073290D01*
X72459923Y-35054501D01*
X72552728Y-35045851D01*
X72667518Y-35043764D01*
X73037745Y-35043764D01*
X73105132Y-35054950D01*
X73138420Y-35094282D01*
X73147351Y-35170420D01*
X73178406Y-35254756D01*
X73235036Y-35275155D01*
X73291665Y-35255974D01*
X73322719Y-35165549D01*
X73319111Y-35092793D01*
X73305219Y-35023556D01*
X73276441Y-34962168D01*
X73228179Y-34912958D01*
X73155830Y-34880256D01*
X73054794Y-34868393D01*
X72667518Y-34868393D01*
X72563894Y-34870814D01*
X72469564Y-34878993D01*
X72384909Y-34894304D01*
X72310308Y-34918120D01*
X72246142Y-34951816D01*
X72192791Y-34996764D01*
X72150634Y-35054339D01*
X72120051Y-35125915D01*
X72101423Y-35212864D01*
X72095129Y-35316562D01*
X72095129Y-35969329D01*
X72101401Y-36073027D01*
X72120168Y-36159976D01*
X72151357Y-36231552D01*
X72194895Y-36289127D01*
X72250709Y-36334075D01*
X72318725Y-36367770D01*
X72398872Y-36391587D01*
X72491075Y-36406898D01*
X72595262Y-36415077D01*
X72711360Y-36417498D01*
X73054794Y-36417498D01*
G36*
X74231238Y-36439419D02*
X74559143Y-36155660D01*
X74497333Y-36202395D01*
X74422021Y-36236343D01*
X74333294Y-36257046D01*
X74231238Y-36264049D01*
X74129181Y-36257046D01*
X74040454Y-36236343D01*
X73965142Y-36202395D01*
X73903331Y-36155660D01*
X73855106Y-36096594D01*
X73820554Y-36025655D01*
X73799760Y-35943298D01*
X73792810Y-35849980D01*
X73792810Y-35435911D01*
X73799560Y-35343992D01*
X73819869Y-35262291D01*
X73853822Y-35191437D01*
X73901504Y-35132058D01*
X73963001Y-35084780D01*
X74038399Y-35050233D01*
X74127782Y-35029045D01*
X74231238Y-35021842D01*
X74334693Y-35029045D01*
X74424076Y-35050233D01*
X74499473Y-35084780D01*
X74560970Y-35132058D01*
X74608652Y-35191437D01*
X74642604Y-35262291D01*
X74662912Y-35343992D01*
X74669663Y-35435911D01*
X74669663Y-35849980D01*
X74662713Y-35943298D01*
X74641919Y-36025655D01*
X74607367Y-36096594D01*
X74559143Y-36155660D01*
X74231238Y-36439419D01*
X74326784Y-36434150D01*
X74416357Y-36418528D01*
X74499299Y-36392826D01*
X74574950Y-36357319D01*
X74642651Y-36312281D01*
X74701745Y-36257988D01*
X74751571Y-36194713D01*
X74791472Y-36122731D01*
X74820788Y-36042316D01*
X74838861Y-35953743D01*
X74845031Y-35857287D01*
X74845031Y-35428604D01*
X74838861Y-35332148D01*
X74820788Y-35243575D01*
X74791472Y-35163160D01*
X74751571Y-35091178D01*
X74701745Y-35027903D01*
X74642651Y-34973610D01*
X74574950Y-34928572D01*
X74499299Y-34893065D01*
X74416357Y-34867363D01*
X74326784Y-34851740D01*
X74231238Y-34846472D01*
X74135141Y-34851740D01*
X74045227Y-34867363D01*
X73962120Y-34893065D01*
X73886447Y-34928572D01*
X73818833Y-34973610D01*
X73759904Y-35027903D01*
X73710287Y-35091178D01*
X73670606Y-35163160D01*
X73641487Y-35243575D01*
X73623557Y-35332148D01*
X73617441Y-35428604D01*
X73617441Y-35857287D01*
X73623557Y-35953743D01*
X73641487Y-36042316D01*
X73670606Y-36122731D01*
X73710287Y-36194713D01*
X73759904Y-36257988D01*
X73818833Y-36312281D01*
X73886447Y-36357319D01*
X73962120Y-36392826D01*
X74045227Y-36418528D01*
X74135141Y-36434150D01*
X74231238Y-36439419D01*
X74231238Y-36439419D01*
G37*
X74231238Y-36439419D02*
X74559143Y-36155660D01*
X74497333Y-36202395D01*
X74422021Y-36236343D01*
X74333294Y-36257046D01*
X74231238Y-36264049D01*
X74129181Y-36257046D01*
X74040454Y-36236343D01*
X73965142Y-36202395D01*
X73903331Y-36155660D01*
X73855106Y-36096594D01*
X73820554Y-36025655D01*
X73799760Y-35943298D01*
X73792810Y-35849980D01*
X73792810Y-35435911D01*
X73799560Y-35343992D01*
X73819869Y-35262291D01*
X73853822Y-35191437D01*
X73901504Y-35132058D01*
X73963001Y-35084780D01*
X74038399Y-35050233D01*
X74127782Y-35029045D01*
X74231238Y-35021842D01*
X74334693Y-35029045D01*
X74424076Y-35050233D01*
X74499473Y-35084780D01*
X74560970Y-35132058D01*
X74608652Y-35191437D01*
X74642604Y-35262291D01*
X74662912Y-35343992D01*
X74669663Y-35435911D01*
X74669663Y-35849980D01*
X74662713Y-35943298D01*
X74641919Y-36025655D01*
X74607367Y-36096594D01*
X74559143Y-36155660D01*
X74231238Y-36439419D01*
X74326784Y-36434150D01*
X74416357Y-36418528D01*
X74499299Y-36392826D01*
X74574950Y-36357319D01*
X74642651Y-36312281D01*
X74701745Y-36257988D01*
X74751571Y-36194713D01*
X74791472Y-36122731D01*
X74820788Y-36042316D01*
X74838861Y-35953743D01*
X74845031Y-35857287D01*
X74845031Y-35428604D01*
X74838861Y-35332148D01*
X74820788Y-35243575D01*
X74791472Y-35163160D01*
X74751571Y-35091178D01*
X74701745Y-35027903D01*
X74642651Y-34973610D01*
X74574950Y-34928572D01*
X74499299Y-34893065D01*
X74416357Y-34867363D01*
X74326784Y-34851740D01*
X74231238Y-34846472D01*
X74135141Y-34851740D01*
X74045227Y-34867363D01*
X73962120Y-34893065D01*
X73886447Y-34928572D01*
X73818833Y-34973610D01*
X73759904Y-35027903D01*
X73710287Y-35091178D01*
X73670606Y-35163160D01*
X73641487Y-35243575D01*
X73623557Y-35332148D01*
X73617441Y-35428604D01*
X73617441Y-35857287D01*
X73623557Y-35953743D01*
X73641487Y-36042316D01*
X73670606Y-36122731D01*
X73710287Y-36194713D01*
X73759904Y-36257988D01*
X73818833Y-36312281D01*
X73886447Y-36357319D01*
X73962120Y-36392826D01*
X74045227Y-36418528D01*
X74135141Y-36434150D01*
X74231238Y-36439419D01*
G36*
X76347859Y-36434548D02*
X76416058Y-36402579D01*
X76433108Y-36332248D01*
X76433108Y-34956079D01*
X76407229Y-34874483D01*
X76342988Y-34851343D01*
X76287577Y-34871742D01*
X76257740Y-34963386D01*
X76257740Y-36130085D01*
X75380887Y-34907365D01*
X75338263Y-34864740D01*
X75288330Y-34851343D01*
X75234135Y-34869915D01*
X75205516Y-34956079D01*
X75205516Y-36332248D01*
X75237485Y-36417193D01*
X75293201Y-36434548D01*
X75363532Y-36406233D01*
X75380887Y-36339555D01*
X75380887Y-35158241D01*
X76279660Y-36417498D01*
X76347859Y-36434547D01*
X76347859Y-36434548D01*
X76347859Y-36434548D01*
G37*
X76347859Y-36434548D02*
X76416058Y-36402579D01*
X76433108Y-36332248D01*
X76433108Y-34956079D01*
X76407229Y-34874483D01*
X76342988Y-34851343D01*
X76287577Y-34871742D01*
X76257740Y-34963386D01*
X76257740Y-36130085D01*
X75380887Y-34907365D01*
X75338263Y-34864740D01*
X75288330Y-34851343D01*
X75234135Y-34869915D01*
X75205516Y-34956079D01*
X75205516Y-36332248D01*
X75237485Y-36417193D01*
X75293201Y-36434548D01*
X75363532Y-36406233D01*
X75380887Y-36339555D01*
X75380887Y-35158241D01*
X76279660Y-36417498D01*
X76347859Y-36434547D01*
X76347859Y-36434548D01*
G36*
X77914079Y-34868361D02*
X78031498Y-35121784D01*
X78301863Y-35781748D01*
X77766119Y-35781748D01*
X78031498Y-35121784D01*
X77914079Y-34868361D01*
X77336819Y-36327455D01*
X77329516Y-36373623D01*
X77365138Y-36439719D01*
X77417202Y-36456492D01*
X77468600Y-36438805D01*
X77507211Y-36388237D01*
X77675274Y-35957118D01*
X78352509Y-35957118D01*
X78520573Y-36388237D01*
X78553701Y-36434238D01*
X78610584Y-36456492D01*
X78663554Y-36439719D01*
X78698267Y-36373623D01*
X78690964Y-36327455D01*
X78113704Y-34868361D01*
X77914079Y-34868361D01*
X77914079Y-34868361D01*
G37*
X77914079Y-34868361D02*
X78031498Y-35121784D01*
X78301863Y-35781748D01*
X77766119Y-35781748D01*
X78031498Y-35121784D01*
X77914079Y-34868361D01*
X77336819Y-36327455D01*
X77329516Y-36373623D01*
X77365138Y-36439719D01*
X77417202Y-36456492D01*
X77468600Y-36438805D01*
X77507211Y-36388237D01*
X77675274Y-35957118D01*
X78352509Y-35957118D01*
X78520573Y-36388237D01*
X78553701Y-36434238D01*
X78610584Y-36456492D01*
X78663554Y-36439719D01*
X78698267Y-36373623D01*
X78690964Y-36327455D01*
X78113704Y-34868361D01*
X77914079Y-34868361D01*
G36*
X82351856Y-36337120D02*
X82351856Y-34951207D01*
X82320802Y-34870220D01*
X82264173Y-34851343D01*
X82207542Y-34870220D01*
X82176487Y-34951207D01*
X82176487Y-36337120D01*
X82206324Y-36415975D01*
X82261736Y-36434548D01*
X82333284Y-36403188D01*
X82351856Y-36337120D01*
X82351856Y-36337120D01*
G37*
X82351856Y-36337120D02*
X82351856Y-34951207D01*
X82320802Y-34870220D01*
X82264173Y-34851343D01*
X82207542Y-34870220D01*
X82176487Y-34951207D01*
X82176487Y-36337120D01*
X82206324Y-36415975D01*
X82261736Y-36434548D01*
X82333284Y-36403188D01*
X82351856Y-36337120D01*
G36*
X83689055Y-36417498D02*
X83790091Y-36405646D01*
X83862441Y-36373024D01*
X83910704Y-36324028D01*
X83939481Y-36263056D01*
X83953374Y-36194507D01*
X83956982Y-36122778D01*
X83933234Y-36036615D01*
X83869297Y-36010736D01*
X83812667Y-36031135D01*
X83781611Y-36115471D01*
X83772677Y-36191609D01*
X83739387Y-36230941D01*
X83672005Y-36242127D01*
X83345623Y-36242127D01*
X83213065Y-36240040D01*
X83108032Y-36231390D01*
X83027923Y-36212601D01*
X82970141Y-36180091D01*
X82932086Y-36130284D01*
X82911159Y-36059599D01*
X82904761Y-35964458D01*
X82904761Y-35321433D01*
X82911287Y-35226292D01*
X82931916Y-35155607D01*
X82968224Y-35105799D01*
X83021787Y-35073290D01*
X83094184Y-35054501D01*
X83186989Y-35045851D01*
X83301779Y-35043764D01*
X83672005Y-35043764D01*
X83739393Y-35054950D01*
X83772680Y-35094282D01*
X83781611Y-35170420D01*
X83812667Y-35254756D01*
X83869297Y-35275155D01*
X83925927Y-35255974D01*
X83956982Y-35165549D01*
X83953374Y-35092793D01*
X83939481Y-35023556D01*
X83910704Y-34962168D01*
X83862441Y-34912958D01*
X83790091Y-34880256D01*
X83689055Y-34868393D01*
X83301779Y-34868393D01*
X83198155Y-34870814D01*
X83103825Y-34878993D01*
X83019170Y-34894304D01*
X82944570Y-34918120D01*
X82880404Y-34951816D01*
X82827052Y-34996764D01*
X82784895Y-35054339D01*
X82754312Y-35125915D01*
X82735684Y-35212864D01*
X82729390Y-35316562D01*
X82729390Y-35969329D01*
X82735662Y-36073027D01*
X82754429Y-36159976D01*
X82785618Y-36231552D01*
X82829156Y-36289127D01*
X82884970Y-36334075D01*
X82952987Y-36367770D01*
X83033134Y-36391587D01*
X83125338Y-36406898D01*
X83229525Y-36415077D01*
X83345623Y-36417498D01*
X83689055Y-36417498D01*
X83689055Y-36417498D01*
G37*
X83689055Y-36417498D02*
X83790091Y-36405646D01*
X83862441Y-36373024D01*
X83910704Y-36324028D01*
X83939481Y-36263056D01*
X83953374Y-36194507D01*
X83956982Y-36122778D01*
X83933234Y-36036615D01*
X83869297Y-36010736D01*
X83812667Y-36031135D01*
X83781611Y-36115471D01*
X83772677Y-36191609D01*
X83739387Y-36230941D01*
X83672005Y-36242127D01*
X83345623Y-36242127D01*
X83213065Y-36240040D01*
X83108032Y-36231390D01*
X83027923Y-36212601D01*
X82970141Y-36180091D01*
X82932086Y-36130284D01*
X82911159Y-36059599D01*
X82904761Y-35964458D01*
X82904761Y-35321433D01*
X82911287Y-35226292D01*
X82931916Y-35155607D01*
X82968224Y-35105799D01*
X83021787Y-35073290D01*
X83094184Y-35054501D01*
X83186989Y-35045851D01*
X83301779Y-35043764D01*
X83672005Y-35043764D01*
X83739393Y-35054950D01*
X83772680Y-35094282D01*
X83781611Y-35170420D01*
X83812667Y-35254756D01*
X83869297Y-35275155D01*
X83925927Y-35255974D01*
X83956982Y-35165549D01*
X83953374Y-35092793D01*
X83939481Y-35023556D01*
X83910704Y-34962168D01*
X83862441Y-34912958D01*
X83790091Y-34880256D01*
X83689055Y-34868393D01*
X83301779Y-34868393D01*
X83198155Y-34870814D01*
X83103825Y-34878993D01*
X83019170Y-34894304D01*
X82944570Y-34918120D01*
X82880404Y-34951816D01*
X82827052Y-34996764D01*
X82784895Y-35054339D01*
X82754312Y-35125915D01*
X82735684Y-35212864D01*
X82729390Y-35316562D01*
X82729390Y-35969329D01*
X82735662Y-36073027D01*
X82754429Y-36159976D01*
X82785618Y-36231552D01*
X82829156Y-36289127D01*
X82884970Y-36334075D01*
X82952987Y-36367770D01*
X83033134Y-36391587D01*
X83125338Y-36406898D01*
X83229525Y-36415077D01*
X83345623Y-36417498D01*
X83689055Y-36417498D01*
G36*
X85191880Y-34868393D02*
X84263878Y-34868393D01*
X84179542Y-34899448D01*
X84159143Y-34956079D01*
X84179537Y-35012708D01*
X84263878Y-35043764D01*
X84629233Y-35043764D01*
X84629233Y-36337120D01*
X84662420Y-36415062D01*
X84726661Y-36434548D01*
X84794556Y-36415062D01*
X84831396Y-36337120D01*
X84831396Y-35043764D01*
X85191880Y-35043764D01*
X85277130Y-35013926D01*
X85296615Y-34958514D01*
X85272563Y-34895186D01*
X85191880Y-34868393D01*
X85191880Y-34868393D01*
G37*
X85191880Y-34868393D02*
X84263878Y-34868393D01*
X84179542Y-34899448D01*
X84159143Y-34956079D01*
X84179537Y-35012708D01*
X84263878Y-35043764D01*
X84629233Y-35043764D01*
X84629233Y-36337120D01*
X84662420Y-36415062D01*
X84726661Y-36434548D01*
X84794556Y-36415062D01*
X84831396Y-36337120D01*
X84831396Y-35043764D01*
X85191880Y-35043764D01*
X85277130Y-35013926D01*
X85296615Y-34958514D01*
X85272563Y-34895186D01*
X85191880Y-34868393D01*
D10*
G36*
X81553645Y-35946899D02*
X81796517Y-35371734D01*
X81790225Y-35268036D01*
X81771614Y-35181087D01*
X81741078Y-35109511D01*
X81699011Y-35051936D01*
X81645808Y-35006988D01*
X81581864Y-34973292D01*
X81507573Y-34949476D01*
X81423330Y-34934165D01*
X81329529Y-34925986D01*
X81226564Y-34923565D01*
X80651739Y-34923565D01*
X80597545Y-34942442D01*
X80568927Y-35030736D01*
X80568927Y-36365499D01*
X80585668Y-36439179D01*
X80651739Y-36472670D01*
X81182720Y-36472670D01*
X81298158Y-36470249D01*
X81401816Y-36462070D01*
X81493608Y-36446759D01*
X81573445Y-36422942D01*
X81641241Y-36389247D01*
X81696906Y-36344299D01*
X81740354Y-36286724D01*
X81771497Y-36215148D01*
X81790247Y-36128199D01*
X81796517Y-36024501D01*
X81796517Y-35371734D01*
X81553645Y-35946899D01*
X81546203Y-36038713D01*
X81521590Y-36103052D01*
X81476369Y-36144724D01*
X81407107Y-36168536D01*
X81310368Y-36179297D01*
X81182720Y-36181816D01*
X80811798Y-36181816D01*
X80811798Y-35167962D01*
X81219815Y-35167962D01*
X81331120Y-35170481D01*
X81417181Y-35181242D01*
X81480233Y-35205054D01*
X81522505Y-35246726D01*
X81546232Y-35311065D01*
X81553645Y-35402880D01*
X81553645Y-35946899D01*
X81553645Y-35946899D01*
G37*
G36*
X79944838Y-35951612D02*
X80187710Y-35376447D01*
X80181418Y-35272750D01*
X80162807Y-35185800D01*
X80132271Y-35114225D01*
X80090204Y-35056650D01*
X80037001Y-35011701D01*
X79973057Y-34978006D01*
X79898766Y-34954190D01*
X79814523Y-34938879D01*
X79720722Y-34930700D01*
X79617757Y-34928279D01*
X79042932Y-34928279D01*
X78988738Y-34947156D01*
X78960120Y-35035450D01*
X78960120Y-36370213D01*
X78976861Y-36443892D01*
X79042932Y-36477383D01*
X79573913Y-36477383D01*
X79689351Y-36474962D01*
X79793009Y-36466783D01*
X79884801Y-36451472D01*
X79964638Y-36427656D01*
X80032434Y-36393961D01*
X80088099Y-36349012D01*
X80131547Y-36291437D01*
X80162690Y-36219862D01*
X80181440Y-36132912D01*
X80187710Y-36029215D01*
X80187710Y-35376447D01*
X79944838Y-35951612D01*
X79937397Y-36043427D01*
X79912783Y-36107766D01*
X79867562Y-36149437D01*
X79798300Y-36173249D01*
X79701562Y-36184011D01*
X79573913Y-36186529D01*
X79202991Y-36186529D01*
X79202991Y-35172676D01*
X79611008Y-35172676D01*
X79722313Y-35175195D01*
X79808375Y-35185956D01*
X79871426Y-35209768D01*
X79913699Y-35251439D01*
X79937425Y-35315778D01*
X79944838Y-35407593D01*
X79944838Y-35951612D01*
X79944838Y-35951612D01*
G37*
G36*
X54674350Y-32557294D02*
X54674350Y-33679708D01*
X54698322Y-33775746D01*
X54756885Y-33825358D01*
X54830013Y-33839468D01*
X54929693Y-33813524D01*
X54977484Y-33752078D01*
X54989773Y-33679708D01*
X54989773Y-32557294D01*
X55866403Y-31422591D01*
X55893030Y-31375482D01*
X55907367Y-31316084D01*
X55882940Y-31241742D01*
X55826653Y-31193799D01*
X55763993Y-31176806D01*
X55702035Y-31195752D01*
X55624715Y-31266927D01*
X54830013Y-32315606D01*
X54031215Y-31266927D01*
X53974377Y-31204969D01*
X53896033Y-31176806D01*
X53829733Y-31194709D01*
X53775266Y-31243563D01*
X53752660Y-31316084D01*
X53766997Y-31375482D01*
X53793624Y-31422591D01*
X54674350Y-32557294D01*
X54674350Y-32557294D01*
G37*
G36*
X56628334Y-33675612D02*
X56628334Y-31344759D01*
X56602845Y-31239314D01*
X56544585Y-31189399D01*
X56480863Y-31176806D01*
X56417142Y-31189399D01*
X56358882Y-31239314D01*
X56333393Y-31344759D01*
X56333393Y-33675612D01*
X56357820Y-33778174D01*
X56414108Y-33827027D01*
X56476767Y-33839468D01*
X56568860Y-33814283D01*
X56615438Y-33752685D01*
X56628334Y-33675612D01*
X56628334Y-33675612D01*
G37*
G36*
X58053889Y-31205513D02*
X58236898Y-31631483D01*
X58691599Y-32741664D01*
X57790335Y-32741664D01*
X58236898Y-31631483D01*
X58053889Y-31205513D01*
X57083041Y-33659203D01*
X57070752Y-33737090D01*
X57100792Y-33822327D01*
X57163604Y-33864755D01*
X57218223Y-33876257D01*
X57277558Y-33862934D01*
X57329625Y-33824147D01*
X57369845Y-33761668D01*
X57652497Y-33036605D01*
X58791241Y-33036605D01*
X59073892Y-33761668D01*
X59105919Y-33815044D01*
X59157986Y-33858382D01*
X59225515Y-33876257D01*
X59281954Y-33864755D01*
X59343855Y-33822327D01*
X59372985Y-33737090D01*
X59360696Y-33659203D01*
X58389849Y-31205513D01*
X58053889Y-31205513D01*
X58053889Y-31205513D01*
G37*
G36*
X61736548Y-33839468D02*
X61824696Y-33813979D01*
X61868239Y-33750257D01*
X61879921Y-33667419D01*
X61879921Y-31352952D01*
X61859743Y-31249024D01*
X61805883Y-31193344D01*
X61728354Y-31176806D01*
X61665694Y-31190158D01*
X61609407Y-31245383D01*
X61584980Y-31365241D01*
X61584980Y-33327418D01*
X60110275Y-31271024D01*
X60038589Y-31199337D01*
X59954613Y-31176806D01*
X59893015Y-31188792D01*
X59838699Y-31239921D01*
X59815334Y-31352952D01*
X59815334Y-33667419D01*
X59841733Y-33779387D01*
X59900904Y-33828544D01*
X59962805Y-33839468D01*
X60053836Y-33817165D01*
X60098441Y-33759360D01*
X60110275Y-33679708D01*
X60110275Y-31692953D01*
X61621848Y-33810793D01*
X61663836Y-33831275D01*
X61736548Y-33839468D01*
X61736548Y-33839468D01*
G37*
G36*
X64284509Y-32844042D02*
X64284509Y-33319225D01*
X64276445Y-33415618D01*
X64247642Y-33475912D01*
X64191188Y-33507019D01*
X64100171Y-33515852D01*
X63477519Y-33515852D01*
X63349324Y-33514584D01*
X63236843Y-33509771D01*
X63139339Y-33499897D01*
X63056072Y-33483450D01*
X62986304Y-33458915D01*
X62929296Y-33424777D01*
X62884309Y-33379523D01*
X62850605Y-33321638D01*
X62827446Y-33249607D01*
X62814092Y-33161918D01*
X62809805Y-33057055D01*
X62809805Y-31959219D01*
X62814147Y-31855280D01*
X62827889Y-31768163D01*
X62852101Y-31696409D01*
X62887855Y-31638561D01*
X62936221Y-31593159D01*
X62998270Y-31558744D01*
X63075073Y-31533858D01*
X63167703Y-31517042D01*
X63277228Y-31506836D01*
X63404721Y-31501783D01*
X63551253Y-31500422D01*
X64100171Y-31500422D01*
X64191188Y-31510023D01*
X64247642Y-31543434D01*
X64276445Y-31607569D01*
X64284509Y-31709339D01*
X64303626Y-31812507D01*
X64355514Y-31871071D01*
X64431980Y-31889580D01*
X64510267Y-31870767D01*
X64561244Y-31810080D01*
X64579450Y-31701146D01*
X64576944Y-31620493D01*
X64567897Y-31541122D01*
X64550017Y-31465223D01*
X64521011Y-31394989D01*
X64478586Y-31332610D01*
X64420449Y-31280278D01*
X64344309Y-31240185D01*
X64247872Y-31214523D01*
X64128846Y-31205481D01*
X63551253Y-31205481D01*
X63428228Y-31206877D01*
X63312662Y-31211466D01*
X63204620Y-31219847D01*
X63104170Y-31232620D01*
X63011376Y-31250386D01*
X62926304Y-31273744D01*
X62849022Y-31303295D01*
X62779594Y-31339638D01*
X62718087Y-31383375D01*
X62664566Y-31435104D01*
X62619099Y-31495426D01*
X62581750Y-31564941D01*
X62552586Y-31644248D01*
X62531673Y-31733949D01*
X62519077Y-31834643D01*
X62514864Y-31946930D01*
X62514864Y-33069344D01*
X62518969Y-33180281D01*
X62531193Y-33279973D01*
X62551398Y-33368984D01*
X62579446Y-33447877D01*
X62615198Y-33517218D01*
X62658518Y-33577570D01*
X62709266Y-33629497D01*
X62767304Y-33673564D01*
X62832496Y-33710333D01*
X62904702Y-33740370D01*
X62983785Y-33764238D01*
X63069606Y-33782502D01*
X63162028Y-33795726D01*
X63260913Y-33804472D01*
X63366123Y-33809307D01*
X63477519Y-33810793D01*
X64128846Y-33810793D01*
X64247872Y-33802190D01*
X64344309Y-33777775D01*
X64420449Y-33739637D01*
X64478586Y-33689868D01*
X64521011Y-33630557D01*
X64550017Y-33563795D01*
X64567897Y-33491673D01*
X64576944Y-33416280D01*
X64579450Y-33339707D01*
X64579450Y-32549101D01*
X63764266Y-32549101D01*
X63680418Y-32556078D01*
X63615772Y-32580336D01*
X63574168Y-32626869D01*
X63559446Y-32700668D01*
X63581597Y-32776072D01*
X63649264Y-32825988D01*
X63764266Y-32844042D01*
X64284509Y-32844042D01*
X64284509Y-32844042D01*
G37*
G36*
X66164758Y-33847661D02*
X66686677Y-33396859D01*
X66621086Y-33443737D01*
X66546892Y-33482494D01*
X66464129Y-33512949D01*
X66372830Y-33534924D01*
X66273028Y-33548241D01*
X66164758Y-33552720D01*
X66056488Y-33548241D01*
X65956686Y-33534924D01*
X65865387Y-33512949D01*
X65782623Y-33482494D01*
X65708429Y-33443737D01*
X65642839Y-33396859D01*
X65585884Y-33342037D01*
X65537600Y-33279452D01*
X65498019Y-33209282D01*
X65467176Y-33131706D01*
X65445103Y-33046903D01*
X65431835Y-32955051D01*
X65427405Y-32856331D01*
X65427405Y-32159943D01*
X65431701Y-32062834D01*
X65444611Y-31972079D01*
X65466169Y-31887925D01*
X65496408Y-31810617D01*
X65535362Y-31740402D01*
X65583065Y-31677526D01*
X65639549Y-31622235D01*
X65704849Y-31574775D01*
X65778999Y-31535392D01*
X65862030Y-31504332D01*
X65953979Y-31481842D01*
X66054877Y-31468167D01*
X66164758Y-31463555D01*
X66274639Y-31468167D01*
X66375537Y-31481842D01*
X66467485Y-31504332D01*
X66550517Y-31535392D01*
X66624666Y-31574775D01*
X66689966Y-31622235D01*
X66746451Y-31677526D01*
X66794153Y-31740402D01*
X66833107Y-31810617D01*
X66863346Y-31887925D01*
X66884904Y-31972079D01*
X66897814Y-32062834D01*
X66902110Y-32159943D01*
X66902110Y-32856331D01*
X66897680Y-32955051D01*
X66884412Y-33046903D01*
X66862339Y-33131706D01*
X66831496Y-33209282D01*
X66791915Y-33279452D01*
X66743631Y-33342037D01*
X66686677Y-33396859D01*
X66164758Y-33847661D01*
X66269825Y-33843939D01*
X66370850Y-33832859D01*
X66467533Y-33814545D01*
X66559573Y-33789122D01*
X66646671Y-33756715D01*
X66728526Y-33717450D01*
X66804837Y-33671450D01*
X66875306Y-33618842D01*
X66939631Y-33559751D01*
X66997512Y-33494301D01*
X67048650Y-33422618D01*
X67092744Y-33344826D01*
X67129494Y-33261051D01*
X67158600Y-33171418D01*
X67179761Y-33076052D01*
X67192678Y-32975078D01*
X67197051Y-32868621D01*
X67197051Y-32147654D01*
X67192678Y-32041196D01*
X67179761Y-31940222D01*
X67158600Y-31844856D01*
X67129494Y-31755223D01*
X67092744Y-31671448D01*
X67048650Y-31593656D01*
X66997512Y-31521973D01*
X66939631Y-31456523D01*
X66875306Y-31397432D01*
X66804837Y-31344824D01*
X66728526Y-31298825D01*
X66646671Y-31259559D01*
X66559573Y-31227152D01*
X66467533Y-31201729D01*
X66370850Y-31183415D01*
X66269825Y-31172335D01*
X66164758Y-31168614D01*
X66059050Y-31172335D01*
X65957540Y-31183415D01*
X65860512Y-31201729D01*
X65768251Y-31227152D01*
X65681044Y-31259559D01*
X65599174Y-31298825D01*
X65522927Y-31344824D01*
X65452589Y-31397432D01*
X65388444Y-31456523D01*
X65330777Y-31521973D01*
X65279875Y-31593656D01*
X65236021Y-31671448D01*
X65199501Y-31755223D01*
X65170600Y-31844856D01*
X65149603Y-31940222D01*
X65136796Y-32041196D01*
X65132464Y-32147654D01*
X65132464Y-32868621D01*
X65136796Y-32975078D01*
X65149603Y-33076052D01*
X65170600Y-33171418D01*
X65199501Y-33261051D01*
X65236021Y-33344826D01*
X65279875Y-33422618D01*
X65330777Y-33494301D01*
X65388444Y-33559751D01*
X65452589Y-33618842D01*
X65522927Y-33671450D01*
X65599174Y-33717450D01*
X65681044Y-33756715D01*
X65768251Y-33789122D01*
X65860512Y-33814545D01*
X65957540Y-33832859D01*
X66059050Y-33843939D01*
X66164758Y-33847661D01*
X66164758Y-33847661D01*
G37*
G36*
X68004043Y-31865002D02*
X68007907Y-31807940D01*
X68021132Y-31744158D01*
X68046167Y-31678072D01*
X68085459Y-31614097D01*
X68141456Y-31556652D01*
X68216608Y-31510151D01*
X68313361Y-31479012D01*
X68434165Y-31467651D01*
X68868384Y-31467651D01*
X69005087Y-31468630D01*
X69124978Y-31472411D01*
X69228995Y-31480260D01*
X69318077Y-31493443D01*
X69393164Y-31513226D01*
X69455193Y-31540874D01*
X69505104Y-31577654D01*
X69543835Y-31624831D01*
X69572325Y-31683672D01*
X69591512Y-31755442D01*
X69602336Y-31841407D01*
X69605736Y-31942834D01*
X69623942Y-32034017D01*
X69674920Y-32096069D01*
X69753207Y-32118979D01*
X69819811Y-32104262D01*
X69879133Y-32050402D01*
X69904773Y-31942834D01*
X69901001Y-31832057D01*
X69889729Y-31732140D01*
X69871028Y-31642550D01*
X69844968Y-31562750D01*
X69811618Y-31492204D01*
X69771051Y-31430379D01*
X69723334Y-31376738D01*
X69668538Y-31330746D01*
X69606733Y-31291868D01*
X69537990Y-31259569D01*
X69462378Y-31233313D01*
X69379967Y-31212565D01*
X69290828Y-31196790D01*
X69195030Y-31185452D01*
X69092643Y-31178016D01*
X68983738Y-31173947D01*
X68868384Y-31172710D01*
X68557057Y-31172710D01*
X68419811Y-31178140D01*
X68297264Y-31193825D01*
X68188690Y-31218862D01*
X68093363Y-31252345D01*
X68010559Y-31293370D01*
X67939551Y-31341033D01*
X67879614Y-31394428D01*
X67830023Y-31452651D01*
X67790052Y-31514797D01*
X67758975Y-31579962D01*
X67736067Y-31647240D01*
X67720603Y-31715728D01*
X67711856Y-31784521D01*
X67709102Y-31852713D01*
X67713763Y-31959666D01*
X67728207Y-32057009D01*
X67753122Y-32144962D01*
X67789195Y-32223748D01*
X67837114Y-32293588D01*
X67897569Y-32354702D01*
X67971247Y-32407312D01*
X68058836Y-32451640D01*
X68161025Y-32487905D01*
X68278502Y-32516330D01*
X69396819Y-32725246D01*
X69433934Y-32742542D01*
X69479355Y-32778955D01*
X69526368Y-32835849D01*
X69568262Y-32914591D01*
X69598321Y-33016546D01*
X69609833Y-33143079D01*
X69605043Y-33210688D01*
X69588574Y-33286179D01*
X69557272Y-33362888D01*
X69507984Y-33434151D01*
X69437557Y-33493304D01*
X69342838Y-33533683D01*
X69220675Y-33548623D01*
X68737299Y-33548623D01*
X68603338Y-33547483D01*
X68485579Y-33543256D01*
X68383152Y-33534734D01*
X68295191Y-33520707D01*
X68220827Y-33499967D01*
X68159194Y-33471304D01*
X68109423Y-33433509D01*
X68070647Y-33385374D01*
X68041999Y-33325689D01*
X68022609Y-33253246D01*
X68011612Y-33166835D01*
X68008139Y-33065248D01*
X67990085Y-32974065D01*
X67940169Y-32912012D01*
X67864765Y-32889103D01*
X67780713Y-32910191D01*
X67727611Y-32970424D01*
X67709102Y-33065248D01*
X67712953Y-33176747D01*
X67724433Y-33277380D01*
X67743433Y-33367678D01*
X67769841Y-33448170D01*
X67803549Y-33519387D01*
X67844446Y-33581860D01*
X67892421Y-33636118D01*
X67947365Y-33682691D01*
X68009168Y-33722111D01*
X68077720Y-33754908D01*
X68152910Y-33781610D01*
X68234629Y-33802750D01*
X68322766Y-33818857D01*
X68417212Y-33830462D01*
X68517856Y-33838095D01*
X68624588Y-33842285D01*
X68737299Y-33843564D01*
X69130553Y-33843564D01*
X69262804Y-33837277D01*
X69380231Y-33819154D01*
X69483573Y-33790302D01*
X69573569Y-33751829D01*
X69650957Y-33704842D01*
X69716475Y-33650450D01*
X69770862Y-33589759D01*
X69814856Y-33523877D01*
X69849195Y-33453912D01*
X69874618Y-33380971D01*
X69891863Y-33306162D01*
X69901669Y-33230592D01*
X69904773Y-33155369D01*
X69901490Y-33070252D01*
X69891096Y-32985505D01*
X69872781Y-32902309D01*
X69845731Y-32821846D01*
X69809134Y-32745298D01*
X69762178Y-32673846D01*
X69704050Y-32608673D01*
X69633937Y-32550960D01*
X69551027Y-32501889D01*
X69454508Y-32462643D01*
X69343566Y-32434402D01*
X68217056Y-32233678D01*
X68150858Y-32202808D01*
X68092525Y-32146966D01*
X68045990Y-32069691D01*
X68015185Y-31974523D01*
X68004043Y-31865002D01*
X68004043Y-31865002D01*
G37*
G36*
X72215145Y-32557294D02*
X72215145Y-33679708D01*
X72239116Y-33775746D01*
X72297679Y-33825358D01*
X72370807Y-33839468D01*
X72470487Y-33813524D01*
X72518278Y-33752078D01*
X72530567Y-33679708D01*
X72530567Y-32557294D01*
X73407198Y-31422591D01*
X73433824Y-31375482D01*
X73448162Y-31316084D01*
X73423735Y-31241742D01*
X73367447Y-31193799D01*
X73304787Y-31176806D01*
X73242830Y-31195752D01*
X73165510Y-31266927D01*
X72370807Y-32315606D01*
X71572009Y-31266927D01*
X71515172Y-31204969D01*
X71436828Y-31176806D01*
X71370527Y-31194709D01*
X71316060Y-31243563D01*
X71293454Y-31316084D01*
X71307791Y-31375482D01*
X71334418Y-31422591D01*
X72215145Y-32557294D01*
X72215145Y-32557294D01*
G37*
G36*
X74169128Y-33675612D02*
X74169128Y-31344759D01*
X74143639Y-31239314D01*
X74085380Y-31189399D01*
X74021658Y-31176806D01*
X73957936Y-31189399D01*
X73899676Y-31239314D01*
X73874187Y-31344759D01*
X73874187Y-33675612D01*
X73898614Y-33778174D01*
X73954901Y-33827027D01*
X74017561Y-33839468D01*
X74109655Y-33814283D01*
X74156232Y-33752685D01*
X74169128Y-33675612D01*
X74169128Y-33675612D01*
G37*
G36*
X79277341Y-33839468D02*
X79365490Y-33813979D01*
X79409033Y-33750257D01*
X79420716Y-33667419D01*
X79420716Y-31352952D01*
X79400537Y-31249024D01*
X79346677Y-31193344D01*
X79269149Y-31176806D01*
X79206489Y-31190158D01*
X79150201Y-31245383D01*
X79125775Y-31365241D01*
X79125775Y-33327418D01*
X77651070Y-31271024D01*
X77579383Y-31199337D01*
X77495407Y-31176806D01*
X77433809Y-31188792D01*
X77379494Y-31239921D01*
X77356129Y-31352952D01*
X77356129Y-33667419D01*
X77382528Y-33779387D01*
X77441698Y-33828544D01*
X77503600Y-33839468D01*
X77594631Y-33817165D01*
X77639236Y-33759360D01*
X77651070Y-33679708D01*
X77651070Y-31692953D01*
X79162642Y-33810793D01*
X79204630Y-33831275D01*
X79277341Y-33839468D01*
X79277341Y-33839468D01*
G37*
G36*
X81825304Y-32844042D02*
X81825304Y-33319225D01*
X81817239Y-33415618D01*
X81788436Y-33475912D01*
X81731983Y-33507019D01*
X81640966Y-33515852D01*
X81018312Y-33515852D01*
X80890118Y-33514584D01*
X80777637Y-33509771D01*
X80680133Y-33499897D01*
X80596866Y-33483450D01*
X80527098Y-33458915D01*
X80470090Y-33424777D01*
X80425104Y-33379523D01*
X80391400Y-33321638D01*
X80368241Y-33249607D01*
X80354886Y-33161918D01*
X80350599Y-33057055D01*
X80350599Y-31959219D01*
X80354942Y-31855280D01*
X80368684Y-31768163D01*
X80392896Y-31696409D01*
X80428649Y-31638561D01*
X80477015Y-31593159D01*
X80539064Y-31558744D01*
X80615868Y-31533858D01*
X80708497Y-31517042D01*
X80818023Y-31506836D01*
X80945516Y-31501783D01*
X81092048Y-31500422D01*
X81640966Y-31500422D01*
X81731983Y-31510023D01*
X81788436Y-31543434D01*
X81817239Y-31607569D01*
X81825304Y-31709339D01*
X81844420Y-31812507D01*
X81896308Y-31871071D01*
X81972774Y-31889580D01*
X82051061Y-31870767D01*
X82102039Y-31810080D01*
X82120245Y-31701146D01*
X82117739Y-31620493D01*
X82108692Y-31541122D01*
X82090812Y-31465223D01*
X82061805Y-31394989D01*
X82019380Y-31332610D01*
X81961244Y-31280278D01*
X81885104Y-31240185D01*
X81788667Y-31214523D01*
X81669641Y-31205481D01*
X81092048Y-31205481D01*
X80969023Y-31206877D01*
X80853456Y-31211466D01*
X80745415Y-31219847D01*
X80644964Y-31232620D01*
X80552170Y-31250386D01*
X80467098Y-31273744D01*
X80389816Y-31303295D01*
X80320388Y-31339638D01*
X80258881Y-31383375D01*
X80205361Y-31435104D01*
X80159893Y-31495426D01*
X80122545Y-31564941D01*
X80093381Y-31644248D01*
X80072468Y-31733949D01*
X80059872Y-31834643D01*
X80055658Y-31946930D01*
X80055658Y-33069344D01*
X80059764Y-33180281D01*
X80071988Y-33279973D01*
X80092193Y-33368984D01*
X80120241Y-33447877D01*
X80155993Y-33517218D01*
X80199312Y-33577570D01*
X80250060Y-33629497D01*
X80308099Y-33673564D01*
X80373290Y-33710333D01*
X80445496Y-33740370D01*
X80524579Y-33764238D01*
X80610401Y-33782502D01*
X80702823Y-33795726D01*
X80801707Y-33804472D01*
X80906917Y-33809307D01*
X81018312Y-33810793D01*
X81669641Y-33810793D01*
X81788667Y-33802190D01*
X81885104Y-33777775D01*
X81961244Y-33739637D01*
X82019380Y-33689868D01*
X82061805Y-33630557D01*
X82090812Y-33563795D01*
X82108692Y-33491673D01*
X82117739Y-33416280D01*
X82120245Y-33339707D01*
X82120245Y-32549101D01*
X81305061Y-32549101D01*
X81221213Y-32556078D01*
X81156566Y-32580336D01*
X81114962Y-32626869D01*
X81100240Y-32700668D01*
X81122391Y-32776072D01*
X81190058Y-32825988D01*
X81305061Y-32844042D01*
X81825304Y-32844042D01*
X81825304Y-32844042D01*
G37*
G36*
X83705553Y-33847661D02*
X84227472Y-33396859D01*
X84161882Y-33443737D01*
X84087688Y-33482494D01*
X84004924Y-33512949D01*
X83913625Y-33534924D01*
X83813824Y-33548241D01*
X83705553Y-33552720D01*
X83597283Y-33548241D01*
X83497482Y-33534924D01*
X83406182Y-33512949D01*
X83323419Y-33482494D01*
X83249225Y-33443737D01*
X83183634Y-33396859D01*
X83126680Y-33342037D01*
X83078395Y-33279452D01*
X83038815Y-33209282D01*
X83007971Y-33131706D01*
X82985899Y-33046903D01*
X82972631Y-32955051D01*
X82968201Y-32856331D01*
X82968201Y-32159943D01*
X82972497Y-32062834D01*
X82985407Y-31972079D01*
X83006965Y-31887925D01*
X83037204Y-31810617D01*
X83076158Y-31740402D01*
X83123860Y-31677526D01*
X83180345Y-31622235D01*
X83245645Y-31574775D01*
X83319794Y-31535392D01*
X83402826Y-31504332D01*
X83494774Y-31481842D01*
X83595672Y-31468167D01*
X83705553Y-31463555D01*
X83815435Y-31468167D01*
X83916333Y-31481842D01*
X84008281Y-31504332D01*
X84091313Y-31535392D01*
X84165462Y-31574775D01*
X84230762Y-31622235D01*
X84287246Y-31677526D01*
X84334949Y-31740402D01*
X84373903Y-31810617D01*
X84404142Y-31887925D01*
X84425699Y-31972079D01*
X84438610Y-32062834D01*
X84442905Y-32159943D01*
X84442905Y-32856331D01*
X84438475Y-32955051D01*
X84425207Y-33046903D01*
X84403135Y-33131706D01*
X84372292Y-33209282D01*
X84332711Y-33279452D01*
X84284427Y-33342037D01*
X84227472Y-33396859D01*
X83705553Y-33847661D01*
X83810621Y-33843939D01*
X83911646Y-33832859D01*
X84008329Y-33814545D01*
X84100369Y-33789122D01*
X84187466Y-33756715D01*
X84269321Y-33717450D01*
X84345633Y-33671450D01*
X84416101Y-33618842D01*
X84480426Y-33559751D01*
X84538308Y-33494301D01*
X84589446Y-33422618D01*
X84633540Y-33344826D01*
X84670290Y-33261051D01*
X84699395Y-33171418D01*
X84720557Y-33076052D01*
X84733474Y-32975078D01*
X84737846Y-32868621D01*
X84737846Y-32147654D01*
X84733474Y-32041196D01*
X84720557Y-31940222D01*
X84699395Y-31844856D01*
X84670290Y-31755223D01*
X84633540Y-31671448D01*
X84589446Y-31593656D01*
X84538308Y-31521973D01*
X84480426Y-31456523D01*
X84416101Y-31397432D01*
X84345633Y-31344824D01*
X84269321Y-31298825D01*
X84187466Y-31259559D01*
X84100369Y-31227152D01*
X84008329Y-31201729D01*
X83911646Y-31183415D01*
X83810621Y-31172335D01*
X83705553Y-31168614D01*
X83599846Y-31172335D01*
X83498335Y-31183415D01*
X83401307Y-31201729D01*
X83309047Y-31227152D01*
X83221839Y-31259559D01*
X83139969Y-31298825D01*
X83063723Y-31344824D01*
X82993384Y-31397432D01*
X82929239Y-31456523D01*
X82871573Y-31521973D01*
X82820670Y-31593656D01*
X82776816Y-31671448D01*
X82740296Y-31755223D01*
X82711395Y-31844856D01*
X82690399Y-31940222D01*
X82677592Y-32041196D01*
X82673260Y-32147654D01*
X82673260Y-32868621D01*
X82677592Y-32975078D01*
X82690399Y-33076052D01*
X82711395Y-33171418D01*
X82740296Y-33261051D01*
X82776816Y-33344826D01*
X82820670Y-33422618D01*
X82871573Y-33494301D01*
X82929239Y-33559751D01*
X82993384Y-33618842D01*
X83063723Y-33671450D01*
X83139969Y-33717450D01*
X83221839Y-33756715D01*
X83309047Y-33789122D01*
X83401307Y-33814545D01*
X83498335Y-33832859D01*
X83599846Y-33843939D01*
X83705553Y-33847661D01*
X83705553Y-33847661D01*
G37*
G36*
X87085084Y-31340663D02*
X87085084Y-32856331D01*
X87080654Y-32955051D01*
X87067386Y-33046903D01*
X87045314Y-33131706D01*
X87014470Y-33209282D01*
X86974890Y-33279452D01*
X86926606Y-33342037D01*
X86869651Y-33396859D01*
X86804060Y-33443737D01*
X86729866Y-33482494D01*
X86647103Y-33512949D01*
X86555804Y-33534924D01*
X86456002Y-33548241D01*
X86347732Y-33552720D01*
X86239462Y-33548241D01*
X86139660Y-33534924D01*
X86048361Y-33512949D01*
X85965597Y-33482494D01*
X85891403Y-33443737D01*
X85825812Y-33396859D01*
X85768858Y-33342037D01*
X85720574Y-33279452D01*
X85680993Y-33209282D01*
X85650150Y-33131706D01*
X85628078Y-33046903D01*
X85614810Y-32955051D01*
X85610379Y-32856331D01*
X85610379Y-31340663D01*
X85586711Y-31241742D01*
X85530272Y-31191068D01*
X85462909Y-31176806D01*
X85399187Y-31189399D01*
X85340927Y-31239314D01*
X85315438Y-31344759D01*
X85315438Y-32868621D01*
X85319771Y-32975078D01*
X85332578Y-33076052D01*
X85353574Y-33171418D01*
X85382475Y-33261051D01*
X85418995Y-33344826D01*
X85462849Y-33422618D01*
X85513752Y-33494301D01*
X85571418Y-33559751D01*
X85635563Y-33618842D01*
X85705902Y-33671450D01*
X85782148Y-33717450D01*
X85864018Y-33756715D01*
X85951226Y-33789122D01*
X86043486Y-33814545D01*
X86140514Y-33832859D01*
X86242024Y-33843939D01*
X86347732Y-33847661D01*
X86452800Y-33843939D01*
X86553825Y-33832859D01*
X86650507Y-33814545D01*
X86742548Y-33789122D01*
X86829645Y-33756715D01*
X86911500Y-33717450D01*
X86987811Y-33671450D01*
X87058280Y-33618842D01*
X87122605Y-33559751D01*
X87180486Y-33494301D01*
X87231624Y-33422618D01*
X87275718Y-33344826D01*
X87312468Y-33261051D01*
X87341574Y-33171418D01*
X87362736Y-33076052D01*
X87375653Y-32975078D01*
X87380025Y-32868621D01*
X87380025Y-31344759D01*
X87355598Y-31239314D01*
X87299311Y-31189399D01*
X87236651Y-31176806D01*
X87168226Y-31190158D01*
X87109814Y-31239921D01*
X87085084Y-31340663D01*
X87085084Y-31340663D01*
G37*
G36*
X75589954Y-31200761D02*
X75772963Y-31626732D01*
X76227664Y-32736912D01*
X75326400Y-32736912D01*
X75772963Y-31626732D01*
X75589954Y-31200761D01*
X74619107Y-33654451D01*
X74606817Y-33732338D01*
X74636858Y-33817575D01*
X74699669Y-33860003D01*
X74754288Y-33871505D01*
X74813624Y-33858183D01*
X74865690Y-33819396D01*
X74905910Y-33756917D01*
X75188562Y-33031853D01*
X76327307Y-33031853D01*
X76609958Y-33756917D01*
X76641985Y-33810293D01*
X76694051Y-33853631D01*
X76761581Y-33871505D01*
X76818020Y-33860003D01*
X76879921Y-33817575D01*
X76909051Y-33732338D01*
X76896762Y-33654451D01*
X75925914Y-31200761D01*
X75589954Y-31200761D01*
X75589954Y-31200761D01*
G37*
D15*
X104650000Y-35530000D02*
X104690000Y-34950000D01*
D16*
X104690000Y-34950000D03*
D15*
X98340000Y-37490000D02*
X99650000Y-36030000D01*
D17*
X102150000Y-40030000D03*
D16*
X99650000Y-36030000D03*
D18*
X97070000Y-40030000D03*
X107230000Y-40030000D03*
D19*
X97150000Y-65850000D03*
X97150000Y-64350000D03*
D20*
X109150000Y-64300000D03*
X109150000Y-65900000D03*
D21*
X106400000Y-62100000D03*
X107900000Y-62100000D03*
D22*
X100245000Y-67800000D03*
X101515000Y-67800000D03*
X102785000Y-67800000D03*
X104055000Y-67800000D03*
X104055000Y-62400000D03*
X102785000Y-62400000D03*
X101515000Y-62400000D03*
X100245000Y-62400000D03*
D23*
X86698180Y-64351780D03*
D24*
X91100000Y-64350000D03*
X91100000Y-66350000D03*
M02*
